<?xml version="1.0" standalone="no"?>
<!DOCTYPE svg PUBLIC "-//W3C//DTD SVG 1.1//EN" "http://www.w3.org/Graphics/SVG/1.1/DTD/svg11.dtd" >
<svg>
<metadata>
Created by FontForge 20090622 at Tue Aug 13 10:48:04 2013
 By ffonts
Copyright (c) 2012, Sebastian Salazar (sebotas26@hotmail.com), with Reserved Font Name 'Sedan'
</metadata>
<defs>
<font id="SedanSC-Regular" horiz-adv-x="520" >
  <font-face 
    font-family="Sedan SC"
    font-weight="400"
    font-stretch="normal"
    units-per-em="1000"
    panose-1="2 0 5 3 0 0 0 2 0 4"
    ascent="800"
    descent="-200"
    x-height="482"
    cap-height="675"
    bbox="-211 -407 1110 978"
    underline-thickness="50"
    underline-position="-50"
    unicode-range="U+0020-U+FB02"
  />
<missing-glyph horiz-adv-x="260" 
 />
    <glyph glyph-name=".notdef" horiz-adv-x="260" 
 />
    <glyph glyph-name=".null" horiz-adv-x="0" 
 />
    <glyph glyph-name="nonmarkingreturn" horiz-adv-x="333" 
 />
    <glyph glyph-name="space" unicode=" " horiz-adv-x="260" 
 />
    <glyph glyph-name="exclam" unicode="!" horiz-adv-x="320" 
d="M184 178q-9 -9 -16 -9q-27 0 -27 35v76q0 247 -56 376q44 28 72 28q57 0 57 -117q0 -43 -15 -174.5t-15 -170.5v-44zM119.5 83.5q16.5 17.5 40 17.5t40.5 -16.5t17 -39.5t-15.5 -40.5t-39 -17.5t-41.5 15.5t-18 39.5t16.5 41.5z" />
    <glyph glyph-name="quotedbl" unicode="&#x22;" horiz-adv-x="380" 
d="M72 545.5q-16 66.5 -16 88t13 35t30 13.5t30 -13.5t13 -35t-16 -88t-15 -103.5q-5 -4 -12 -4t-12 4q1 37 -15 103.5zM253 545.5q-16 66.5 -16 88t13 35t30 13.5t30 -13.5t13 -35t-16 -88t-15 -103.5q-5 -4 -12 -4t-12 4q1 37 -15 103.5z" />
    <glyph glyph-name="numbersign" unicode="#" horiz-adv-x="518" 
d="M91 347q-17 0 -25 10t-13 34l94 3l13 92q2 16 17 25t29 10l13 1l-21 -127l128 4l13 87q2 16 16.5 25t28.5 10l13 1l-20 -121l36 1q16 0 26 -12.5t11 -25.5l2 -12l-83 -2l-20 -120l74 4q16 0 27 -13.5t14 -26.5l3 -14l-127 -3l-24 -149q-2 -17 -12.5 -23.5t-34.5 -6.5
l25 178l-132 -3l-24 -145q-2 -17 -12.5 -23.5t-34.5 -6.5l24 174l-41 -1q-17 -1 -25 10t-11 34l84 4l18 128h-49zM190 348l-20 -127l132 7l17 122z" />
    <glyph glyph-name="dollar" unicode="$" horiz-adv-x="400" 
d="M332 494l21 -110q0 -8 -12 -8t-15 8q-11 32 -34 54t-51 29q-3 -41 -10 -173q54 -35 82.5 -62.5t39 -54.5t10.5 -59q0 -53 -44.5 -85t-105.5 -36l-3 -57q-1 -12 -8.5 -19t-15 -7t-15.5 3l4 80q-43 4 -83 22q0 -12 -1.5 -15t-10.5 -4h-4q-8 0 -9 8q-2 24 -8 66t-9 68
q0 10 12.5 10t13.5 -5q11 -40 38 -73t62 -43l10 191l-43.5 32t-35.5 32q-39 39 -39 91t38 84t94 38l4 62q2 32 30 32q7 0 15 -2q-2 -23 -6 -91q32 -2 64 -13q-2 6 -2 14.5t9.5 8.5t12.5 -2.5t5 -13.5zM286 98q0 48 -61 96l-10 -167q29 3 50 21.5t21 49.5zM143 402
q0 -41 48 -80l8 145q-24 -6 -40 -23.5t-16 -41.5z" />
    <glyph glyph-name="percent" unicode="%" horiz-adv-x="809" 
d="M194 -9q-16 -24 -27.5 -24t-28.5 17l487 698q13 19 23 19q15 0 32 -17zM700 274q42 -48 42 -114.5t-43 -115.5t-111 -49t-110.5 47t-42.5 116.5t44.5 116.5t111.5 47t109 -48zM672.5 87q34.5 26 34.5 73t-34.5 71.5t-84.5 24.5t-84 -25.5t-34 -72.5t33.5 -72t84 -25
t85 26zM336 624q42 -48 42 -114.5t-43 -115.5t-111 -49t-110.5 47t-42.5 116.5t44.5 116.5t111.5 47t109 -48zM308.5 437q34.5 26 34.5 73t-34.5 71.5t-84.5 24.5t-84 -25.5t-34 -72.5t33.5 -72t84 -25t85 26z" />
    <glyph glyph-name="ampersand" unicode="&#x26;" horiz-adv-x="742" 
d="M83.5 21.5q-29.5 33.5 -29.5 79.5t39 90t87 64q-53 75 -53 133t46.5 96t96 38t77 -23t27.5 -71t-42 -88q156 0 225 31.5t69 78.5t-43 95q18 17 47.5 17t53 -25.5t23.5 -72.5t-53.5 -90t-169.5 -56q-14 -102 -65 -181q69 -41 120 -41q33 0 56 8.5t31.5 19l15 19t9.5 8.5
q8 0 8 -9q0 -20 -47.5 -70t-100 -50t-141.5 56q-46 -44 -97.5 -67t-94.5 -23q-65 0 -94.5 33.5zM185 412q0 -48 61.5 -124t141.5 -131q23 51 23 112q0 21 -3 44q-65 0 -119 5q23 38 23 78.5t-19.5 59.5t-45.5 19t-44 -16.5t-18 -46.5zM233 46q61 0 112 49q-91 64 -150 140
q-57 -43 -57 -106q0 -34 26.5 -58.5t68.5 -24.5z" />
    <glyph glyph-name="quotesingle" unicode="'" horiz-adv-x="300" 
d="M175 543q0 36 -48 36q-6 0 -13 -1q-26 13 -26 42t16 45.5t45.5 16.5t49.5 -26t20 -60q0 -65 -34.5 -105t-97.5 -75l-11 19q42 21 70.5 52t28.5 56z" />
    <glyph glyph-name="parenleft" unicode="(" horiz-adv-x="485" 
d="M506 -364q12 0 12 -21.5t-12 -21.5q-79 0 -157.5 50t-141.5 136t-102 214.5t-39 270t39.5 262.5t103 200.5t141.5 124.5t157 45q12 0 12 -21.5t-13 -21.5q-93 0 -177.5 -81t-136 -217t-51.5 -294.5t53 -305.5t137.5 -233t174.5 -86z" />
    <glyph glyph-name="parenright" unicode=")" horiz-adv-x="485" 
d="M-21 -364q90 0 174.5 86t137.5 233t53 305.5t-51.5 294.5t-136 217t-177.5 81q-13 0 -13 21.5t12 21.5q79 0 157 -45t141.5 -124.5t103 -200.5t39.5 -262.5t-39 -270t-102 -214.5t-141.5 -136t-157.5 -50q-12 0 -12 21.5t12 21.5z" />
    <glyph glyph-name="asterisk" unicode="*" horiz-adv-x="500" 
d="M78 545q-9 5 -9 16.5t8 20.5t15.5 9t12.5 -3l127 -92l-4 162q0 6 8 10.5t16 4.5q19 0 19 -18q0 -4 -1 -22q-5 -88 -6 -138l136 84q6 3 12 3t12 -6t6 -16t-11 -15l-141 -72l142 -69q12 -7 12 -18t-8 -19t-16 -8t-14 3l-131 87l7 -165q0 -15 -22 -15t-22 17l7 160l-137 -88
q-3 -2 -10.5 -2t-14.5 8t-7 18.5t10 14.5l145 74z" />
    <glyph glyph-name="plus" unicode="+" 
d="M284 29q0 -27 -29 -27h-7l-11 3q0 42 -2 228h-165q-17 0 -26 10.5t-10 21.5l-1 11q41 0 201 2l-2 180q0 47 43 47h9v-227l157 3q47 0 47 -41v-7h-204v-204z" />
    <glyph glyph-name="comma" unicode="," horiz-adv-x="260" 
d="M159 -37q0 36 -48 36q-6 0 -13 -1q-26 13 -26 42t16 45.5t45.5 16.5t49.5 -26t20 -60q0 -65 -34.5 -105t-97.5 -75l-11 19q42 21 70.5 52t28.5 56z" />
    <glyph glyph-name="hyphen" unicode="-" horiz-adv-x="250" 
d="M6 227h31t92.5 13.5t81.5 13.5q29 0 29 -24q0 -4 -2 -16q-40 -2 -106 -17.5t-86 -15.5t-28.5 11.5t-9.5 23.5z" />
    <glyph glyph-name="period" unicode="." horiz-adv-x="260" 
d="M170.5 4.5q-16.5 -17.5 -40 -17.5t-40.5 16.5t-17 39.5t15.5 40.5t39 17.5t41.5 -15.5t18 -39.5t-16.5 -41.5z" />
    <glyph glyph-name="slash" unicode="/" horiz-adv-x="580" 
d="M99 -113q-12 -24 -25.5 -24t-30.5 17l466 866q11 20 21 20q18 0 33 -17z" />
    <glyph glyph-name="zero" unicode="0" horiz-adv-x="476" 
d="M85 422.5q52 71.5 150.5 71.5t153.5 -72t55 -180.5t-55 -181.5t-153.5 -73t-150.5 72.5t-52 182t52 181zM291.5 442q-22.5 16 -57 16t-55.5 -16t-30.5 -49t-12.5 -66t-3 -85t3 -85.5t12 -67.5q19 -66 86 -66q69 0 91 65q19 57 19 130.5t-4 108t-15 67t-33.5 48.5z" />
    <glyph glyph-name="one" unicode="1" horiz-adv-x="386" 
d="M212 1l-164 -3q-7 0 -7 15.5t5 15.5h95q13 0 15 11v13v286q0 15 -2 19t-15.5 4t-43 -8.5t-34.5 -8.5q-16 0 -16 15q0 8 5 10q102 36 184 135q2 2 6 2q18 0 18 -9q0 -4 -3 -51q-9 -141 -9 -277v-51q0 -87 20 -87h82q8 0 8 -16t-6 -16z" />
    <glyph glyph-name="two" unicode="2" horiz-adv-x="486" 
d="M402 135q2 8 17.5 8t15.5 -6l-12 -159q0 -7 -15.5 -7t-15.5 7v22h-346q-8 0 -8 8.5t8 13.5q114 68 187.5 160t73.5 188q0 36 -22 60t-57.5 24t-60 -23t-24.5 -60t15 -55q-14 -22 -51 -22q-20 0 -34.5 15t-14.5 39q0 58 55.5 101.5t123 43.5t114.5 -36t47 -89t-24.5 -101
t-64.5 -87q-76 -74 -150 -118l2 -3q18 1 44 1q139 0 192 37z" />
    <glyph glyph-name="three" unicode="3" horiz-adv-x="434" 
d="M188 -13q-66 0 -109.5 23t-43.5 68q0 51 57 51q7 -45 37.5 -74t82 -29t81 31t29.5 85q0 33 -24.5 65t-68.5 49q-21 -7 -39 -26.5t-18 -38.5q-5 -1 -15.5 -1t-20.5 11t-10 26t21 32t47 29.5t47 37t21 58t-15.5 52t-45.5 18.5t-45.5 -23.5t-15.5 -41t3 -29.5
q-18 -14 -37 -14t-31.5 13t-12.5 34q0 48 45.5 74t109 26t99 -24t35.5 -62.5t-22.5 -73t-66.5 -57.5q67 -14 101.5 -51t34.5 -83q0 -61 -57.5 -108t-152.5 -47z" />
    <glyph glyph-name="four" unicode="4" horiz-adv-x="429" 
d="M282 1l-145 -3q-7 0 -7 15.5t5 15.5h76q15 0 15 24q0 65 1 102h-187q-9 0 -17 8.5t-8 18.5q0 28 120 167.5t145 155.5q53 -5 53 -15q0 -5 -4 -45q-13 -130 -13 -252l76 5q7 -12 7 -22q0 -21 -30 -21h-53v-30q0 -93 20 -93h42q8 0 8 -16t-6 -16zM237 401
q-120 -131 -173 -209h164z" />
    <glyph glyph-name="five" unicode="5" horiz-adv-x="444" 
d="M221 308q86 0 131.5 -40.5t45.5 -105t-59 -120t-156 -55.5q-60 0 -104.5 25.5t-44.5 67.5q0 19 13 34t35 15q5 0 15 -2q13 -49 47.5 -73.5t82 -24.5t79 30.5t31.5 72.5t-37.5 73.5t-107.5 31.5q-30 0 -54 -5.5t-27 -11.5q-4 -10 -19.5 -10t-15.5 9l31 247l194 18
q55 4 65 21q4 7 12 7t8 -8q-10 -85 -91 -93l-158 -16l-18 -102q47 15 102 15z" />
    <glyph glyph-name="six" unicode="6" horiz-adv-x="458" 
d="M307 436.5q-16 8.5 -42.5 8.5t-52.5 -18t-42 -49q-32 -57 -40 -132q53 46 125.5 46t120 -36.5t47.5 -102t-53 -116t-146 -50.5t-142.5 60.5t-49.5 153.5q0 114 73 203t192 89q57 0 89 -24t32 -49.5t-16.5 -39.5t-47.5 -14q0 7 -7.5 24t-15.5 27.5t-24 19zM244 23
q42 0 66.5 31t24.5 84.5t-29.5 80t-83.5 26.5t-94 -38q0 -81 31 -132.5t85 -51.5z" />
    <glyph glyph-name="seven" unicode="7" horiz-adv-x="435" 
d="M400 473q0 -3 -6 -15q-79 -98 -144 -225.5t-65 -215.5q0 -7 -4 -10q-8 -4 -38.5 -16.5t-36.5 -13.5q-5 0 -5 15q0 104 74 222q60 97 141 194h-107q-73 0 -102.5 -4t-45.5 -18q-3 -3 -13 -22q-2 -3 -7.5 -3t-11.5 3.5t-6 6t5 10.5q25 41 36.5 72.5t14.5 38.5q6 12 10 12
t10.5 -3.5t6.5 -6.5l-4 -16h170q37 0 75 2.5t41 2.5q12 0 12 -10z" />
    <glyph glyph-name="eight" unicode="8" horiz-adv-x="402" 
d="M292 466.5q39 -26.5 39 -68t-22 -77t-56 -53.5q53 -31 83.5 -63.5t30.5 -76.5q0 -66 -54.5 -103.5t-123.5 -37.5t-115 30t-46 78t27 88t70 64q-79 54 -79 114.5t45.5 96t103.5 35.5t97 -26.5zM274 140q-12 14 -20 22t-23 18l-24 16q-9 6 -28 17.5l-27 16.5
q-54 -46 -54 -108q0 -44 32 -69.5t70.5 -25.5t62 19t23.5 49.5t-12 44.5zM137 432q-22 -18 -22 -46.5t26.5 -49.5t79.5 -50q41 30 41 87q0 37 -22 57t-51.5 20t-51.5 -18z" />
    <glyph glyph-name="nine" unicode="9" horiz-adv-x="464" 
d="M170 43.5q16 -8.5 42.5 -8.5t51 18t37.5 49q24 55 28 132q-53 -46 -127 -46t-121.5 36.5t-47.5 102t53 116t146 50.5t142.5 -60.5t49.5 -153.5q0 -120 -63 -206t-181 -86q-57 0 -89 24t-32 49.5t16.5 39.5t47.5 14q0 -7 7.5 -24t15.5 -27.5t24 -19zM212 457
q-42 0 -66.5 -31t-24.5 -84.5t29.5 -80t83.5 -26.5t94 38q0 81 -31 132.5t-85 51.5z" />
    <glyph glyph-name="colon" unicode=":" horiz-adv-x="260" 
d="M170.5 340.5q-16.5 -17.5 -40 -17.5t-40.5 16.5t-17 39.5t15.5 40.5t39 17.5t41.5 -15.5t18 -39.5t-16.5 -41.5zM170.5 4.5q-16.5 -17.5 -40 -17.5t-40.5 16.5t-17 39.5t15.5 40.5t39 17.5t41.5 -15.5t18 -39.5t-16.5 -41.5z" />
    <glyph glyph-name="semicolon" unicode=";" horiz-adv-x="260" 
d="M172.5 340.5q-16.5 -17.5 -40 -17.5t-40.5 16.5t-17 39.5t15.5 40.5t39 17.5t41.5 -15.5t18 -39.5t-16.5 -41.5zM159 -37q0 36 -48 36q-6 0 -13 -1q-26 13 -26 42t16 45.5t45.5 16.5t49.5 -26t20 -60q0 -65 -34.5 -105t-97.5 -75l-11 19q42 21 70.5 52t28.5 56z" />
    <glyph glyph-name="less" unicode="&#x3c;" horiz-adv-x="473" 
d="M34 235q0 12 63.5 58.5t144.5 89.5t120 43q20 0 33 -6.5t16 -13.5l3 -6q-83 -33 -156 -74.5t-97.5 -60t-38.5 -30.5q32 -32 120 -81.5t172 -83.5q-4 -11 -18 -18.5t-34 -7.5q-39 0 -120 43t-144.5 89.5t-63.5 58.5z" />
    <glyph glyph-name="equal" unicode="=" 
d="M440 360q27 0 37 -9.5t10 -21v-15.5h-416q-17 0 -26 10t-10 20l-1 11zM440 196q27 0 37 -9.5t10 -21v-15.5h-416q-17 0 -26 10t-10 20l-1 11z" />
    <glyph glyph-name="greater" unicode="&#x3e;" horiz-adv-x="454" 
d="M415 235q0 -12 -63.5 -58.5t-144.5 -89.5t-120 -43q-20 0 -33 6.5t-16 13.5l-3 6q84 34 157 75q103 58 135 90q-14 12 -38.5 30.5t-97.5 60t-156 74.5q4 11 18 18.5t34 7.5q39 0 120 -43t144.5 -89.5t63.5 -58.5z" />
    <glyph glyph-name="question" unicode="?" horiz-adv-x="406" 
d="M115 196l-7 158q0 20 48 20q83 0 101.5 9t31.5 19q25 21 25 71t-43.5 93t-99.5 43q-37 0 -85 -38q-41 13 -41 55q0 25 18 44t48 19q99 0 172 -76t73 -178q0 -71 -47.5 -111.5t-119.5 -40.5q-11 0 -33 2q-2 -30 -2 -62t2 -45q-9 -8 -21 -8q-20 0 -20 26zM180.5 4.5
q-16.5 -17.5 -40 -17.5t-40.5 16.5t-17 39.5t15.5 40.5t39 17.5t41.5 -15.5t18 -39.5t-16.5 -41.5z" />
    <glyph glyph-name="at" unicode="@" horiz-adv-x="892" 
d="M357 16q-120 12 -160 12q-6 0 -6 13q1 3 4 7.5t4 4.5l28 1q11 0 15 7q30 59 58 126q-82 -17 -129.5 -66t-47.5 -107q0 -72 67.5 -125t199.5 -53q90 0 162.5 30t117.5 80q92 101 92 236q0 93 -41 175.5t-126 137t-197 54.5q-54 0 -95 -14.5t-62 -28.5t-26 -14t-9 5
t-4 12.5t15 18.5q37 27 97 43.5t113 16.5q122 0 215 -59.5t138.5 -149.5t45.5 -178.5t-28.5 -158.5t-83 -127.5t-144 -92t-201.5 -34.5q-153 0 -229.5 62.5t-76.5 148t70 152.5t183 76q22 54 49.5 135t29 84.5t4 10.5t3.5 10.5t3 8.5q6 15 8 16.5t4 3.5q3 2 10.5 2t12 -7
t12.5 -32q33 -104 140 -350q17 -38 29.5 -52.5t36.5 -14.5q8 0 8 -13.5t-7 -13.5l-98 2l-101 -2q-9 0 -9 13t11 13h39q15 0 15 9q0 6 -18 57.5l-26 75.5q-48 11 -84.5 11t-47.5 -1q-24 -69 -32 -126q0 -21 11 -21l38 -3q7 0 6 -13.5t-6 -13.5zM463 212q-47 152 -51 166h-4
q-11 -33 -55 -150q54 -2 110 -16z" />
    <glyph glyph-name="A" unicode="A" horiz-adv-x="655" 
d="M533 1l-127 -3q-9 0 -9 17t9 17h57q21 0 21 17q0 7 -38 119.5l-47 140.5h-181q-71 -226 -71 -261q0 -15 6 -15h72q11 0 11 -16.5t-13 -16.5l-129 1l-111 -3q-9 0 -9 17t9 17h50q22 0 33 22q42 91 106.5 271t88 238.5t23.5 65t-4 14.5t-4 10q0 8 14.5 8t27 7t16.5 16
q11 22 20 22q4 0 14 -30l201 -543q38 -100 53 -100h36q10 0 10 -16.5t-8 -16.5zM309 569q-31 -80 -78 -220h154q-67 203 -72 220h-4z" />
    <glyph glyph-name="B" unicode="B" horiz-adv-x="664" 
d="M59 673l131 -2h115q128 0 192 -49.5t64 -121.5q0 -53 -41 -94.5t-103 -53.5v-4q90 -16 142 -64t52 -109q0 -73 -77 -124t-208 -51h-97l-170 -2q-8 0 -8 17t8 17h43q25 0 33 9.5t8 36.5v473q0 88 -21 88h-63q-8 0 -8 17t8 17zM246 128q0 -88 22 -88h51q83 0 127 37t44 98
q0 66 -46 105q-52 45 -198 51v-203zM246 585v-214q24 -4 53 -4q73 0 113.5 36.5t40.5 91.5t-44 95.5t-134 40.5q-29 0 -29 -46z" />
    <glyph glyph-name="C" unicode="C" horiz-adv-x="727" 
d="M644 139q2 11 17.5 11t15.5 -9l-8 -139q0 -8 -15.5 -8t-15.5 8v24q-98 -39 -192 -39q-172 0 -286 86.5t-114 239.5q0 115 60 201.5t152 128t188.5 41.5t172.5 -39v23q0 9 14.5 9t14.5 -9q0 -81 10 -148q2 -10 -15 -10t-18 10l-8 47q-78 72 -186.5 72t-184.5 -79.5
t-76 -225t80.5 -224t201.5 -78.5q98 0 186 60z" />
    <glyph glyph-name="D" unicode="D" horiz-adv-x="761" 
d="M60 673l132 -2h136q186 0 296.5 -92.5t110.5 -244.5t-110 -243t-278 -91h-117l-170 -2q-8 0 -8 17t8 17h43q25 0 33 9.5t8 36.5v476q0 85 -21 85h-63q-9 0 -9 17t9 17zM282 631q-35 0 -35 -41v-462q0 -88 21 -88l82 1q124 2 197.5 74.5t73.5 204t-81 216t-255 95.5h-3z
" />
    <glyph glyph-name="E" unicode="E" horiz-adv-x="614" 
d="M64 673l126 -2h290v21q0 9 14.5 9t14.5 -9q0 -100 10 -152q2 -8 -14 -8t-18 8q-16 63 -38 73q-53 20 -170 21q-20 -1 -26.5 -11t-6.5 -35v-236q62 1 121 6t64 8l10 59q1 7 12 7q21 0 19 -9q-5 -39 -5 -88t5 -88q2 -8 -14.5 -8t-16.5 6l-11 60q-6 3 -63.5 8.5t-120.5 6.5
v-192q0 -88 21 -88h51q155 2 212 42l7 55q2 8 17.5 8t15.5 -6l-9 -161q0 -7 -15.5 -7t-15.5 7v22h-247l-224 -2q-8 0 -8 17t8 17h43q25 0 33 9.5t8 36.5v474q0 88 -21 88h-58q-8 0 -8 16.5t8 16.5z" />
    <glyph glyph-name="F" unicode="F" horiz-adv-x="551" 
d="M525 538q0 -6 -15 -6t-17 8q-16 63 -38 73q-53 20 -176 21q-19 -2 -26 -11t-7 -35v-240q63 1 124.5 6t66.5 8l10 59q1 7 12 7q21 0 19 -9q-5 -39 -5 -88t5 -88q2 -8 -14.5 -8t-16.5 6l-11 60q-6 3 -66.5 8.5t-123.5 6.5v-188q0 -88 21 -88h58q8 0 8 -20t-8 -20l-126 1
l-140 -3q-8 0 -8 17t8 17h43q25 0 33 9.5t8 36.5v474q0 88 -21 88h-58q-8 0 -8 16.5t8 16.5l126 -2h296v21q0 9 14.5 9t14.5 -9z" />
    <glyph glyph-name="G" unicode="G" horiz-adv-x="767" 
d="M618 286l140 3q8 0 8 -17t-8 -17h-31q-25 0 -33 -9.5t-8 -58t2.5 -99t5 -70t5 -33.5t2.5 -20q0 -12 -16 -12q-6 0 -19.5 37t-27.5 37q-92 -40 -193 -40q-173 0 -286 86t-113 239q0 116 59.5 202t151.5 127.5t200 41.5q47 0 80 -8.5t82 -27.5v21q0 9 14.5 9t14.5 -9
q0 -91 9 -151q1 -4 -4.5 -7t-16 -3t-11.5 9l-7 44q-87 79 -183 79q-113 0 -189 -80.5t-76 -224t80 -223t201 -79.5q79 0 120 42v92q0 88 -21 88h-106q-8 0 -8 16.5t8 16.5z" />
    <glyph glyph-name="H" unicode="H" horiz-adv-x="845" 
d="M650 672l140 3q8 0 8 -17t-8 -17h-43q-25 0 -33 -9.5t-8 -36.5v-474q0 -88 21 -88h58q8 0 8 -16.5t-8 -16.5l-126 1l-140 -3q-8 0 -8 17t8 17h43q25 0 33 9.5t8 36.5v236h-357v-193q0 -88 21 -88h58q8 0 8 -16.5t-8 -16.5l-126 1l-140 -3q-8 0 -8 17t8 17h43q25 0 33 9.5
t8 36.5v474q0 88 -21 88h-58q-8 0 -8 16.5t8 16.5l126 -1l140 3q8 0 8 -17t-8 -17h-43q-25 0 -33 -9.5t-8 -36.5v-240h357v197q0 88 -21 88h-58q-8 0 -8 16.5t8 16.5z" />
    <glyph glyph-name="I" unicode="I" horiz-adv-x="384" 
d="M190 672l140 3q8 0 8 -17t-8 -17h-43q-25 0 -33 -9.5t-8 -36.5v-474q0 -88 21 -88h58q8 0 8 -16.5t-8 -16.5l-126 1l-140 -3q-8 0 -8 17t8 17h43q25 0 33 9.5t8 36.5v474q0 88 -21 88h-58q-8 0 -8 16.5t8 16.5z" />
    <glyph glyph-name="J" unicode="J" horiz-adv-x="366" 
d="M199 672l140 3q8 0 8 -17t-8 -17h-43q-25 0 -33 -9.5t-8 -36.5v-463q0 -164 -27 -233q-32 -76 -96 -124t-145 -48q-26 0 -39.5 11t-13.5 25q0 38 44 55q42 -26 96 -26q32 0 48 31q30 62 30 300v429q0 88 -21 88h-58q-8 0 -8 16.5t8 16.5z" />
    <glyph glyph-name="K" unicode="K" horiz-adv-x="712" 
d="M190 672l140 3q8 0 8 -17t-8 -17h-43q-25 0 -33 -9.5t-8 -36.5v-231h33q235 226 235 260q0 17 -16 17h-28q-7 0 -7 16t7 16l108 -2l109 2q8 0 8 -16.5t-9 -16.5h-36q-12 0 -103 -88t-190 -169v-4l223 -226q112 -113 132 -113h38q13 -6 13 -23t-11 -17l-96 1l-158 -3
q-9 0 -9 17t9 17h16q25 0 25 15q0 10 -11 21l-244 259h-38v-206q0 -88 21 -88h58q8 0 8 -16.5t-8 -16.5l-126 1l-140 -3q-8 0 -8 17t8 17h43q25 0 33 9.5t8 36.5v474q0 88 -21 88h-58q-8 0 -8 16.5t8 16.5z" />
    <glyph glyph-name="L" unicode="L" horiz-adv-x="577" 
d="M190 672l140 3q8 0 8 -17t-8 -17h-43q-25 0 -33 -9.5t-8 -36.5v-555h58q159 0 220 42l7 55q2 8 17.5 8t15.5 -6l-9 -161q0 -7 -15.5 -7t-15.5 7v22h-325l-140 -2q-8 0 -8 17t8 17h43q25 0 33 9.5t8 36.5v474q0 88 -21 88h-58q-8 0 -8 16.5t8 16.5z" />
    <glyph glyph-name="M" unicode="M" horiz-adv-x="963" 
d="M798 1l-131 -3q-8 0 -8 17t8 17h38q19 0 27 8t7 25.5t-9 124.5q-24 298 -24 341h-4l-111 -253.5t-117 -263.5q-5 -8 -18 -8t-17 8q-25 39 -101 227.5t-115 298.5h-4q-25 -352 -25 -429.5t25 -77.5h44q13 0 13 -16.5t-13 -16.5l-105 1l-126 -3q-9 0 -9 17t9 17h33
q27 0 37.5 4.5t13.5 22.5q10 58 31 255q22 209 22 249.5t-5.5 59t-20.5 18.5h-50q-8 0 -8 16t8 16l189 -2q13 -44 91.5 -258.5l103.5 -286.5h4l80 197q101 248 133 348l168 3q9 0 9 -16.5t-9 -16.5h-38q-19 0 -25 -10.5t-6 -23t0.5 -25.5t19 -202.5t30.5 -288.5
q6 -58 23 -58h63q11 0 11 -16.5t-11 -16.5z" />
    <glyph glyph-name="N" unicode="N" horiz-adv-x="820" 
d="M664 671l118 3q9 0 9 -16.5t-9 -16.5h-47q-20 0 -26 -9q-23 -34 -25 -644q-2 -7 -16 -7t-21 7l-460 551h-4q4 -364 6 -435t21 -71h55q9 0 9 -16.5t-9 -16.5l-106 1l-119 -3q-7 0 -7 17t7 17h33q23 0 33 5.5t11 21.5q20 225 20 538l-7 8q-20 23 -35.5 29.5t-57.5 6.5
q-6 0 -6 16t6 16l181 -2q356 -446 414 -524h4q-6 397 -10 445t-23 48h-48q-9 0 -9 16.5t9 16.5z" />
    <glyph glyph-name="O" unicode="O" horiz-adv-x="824" 
d="M412 684q150 0 257 -102t107 -246.5t-107 -246.5t-257 -102t-257 102t-107 246.5t107 246.5t257 102zM412 638q-105 0 -171.5 -87t-66.5 -215.5t66.5 -215.5t171.5 -87t171.5 87t66.5 215.5t-66.5 215.5t-171.5 87z" />
    <glyph glyph-name="P" unicode="P" horiz-adv-x="597" 
d="M64 673l126 -2h115q132 0 198.5 -51t66.5 -124.5t-61 -131t-156 -57.5q-52 0 -107 24v-210q0 -88 21 -88h58q10 0 10 -16.5t-10 -16.5h-43l-43 1h-40l-140 -3q-8 0 -8 17t8 17h43q25 0 33 9.5t8 36.5v474q0 88 -21 88h-58q-8 0 -8 16.5t8 16.5zM419 395q43 38 43 94.5
t-46.5 99t-133.5 42.5q-19 0 -27.5 -10t-8.5 -36v-222q27 -6 53 -6q77 0 120 38z" />
    <glyph glyph-name="Q" unicode="Q" horiz-adv-x="824" 
d="M1063 -89q7 7 15.5 1t8.5 -10t-12 -22l-22 -32t-36 -43q-50 -56 -109 -56t-110.5 23t-96 56.5l-89.5 67.5q-109 84 -200 91q-150 0 -257 102t-107 246.5t107 246.5t257 102t257 -102t107 -246q0 -118 -72.5 -209.5t-185.5 -124.5q79 0 170 -54l76 -46q94 -54 175 -54
q37 0 64.5 14.5t59.5 48.5zM412 638q-105 0 -171.5 -87t-66.5 -215.5t66.5 -215.5t171.5 -87t171.5 87t66.5 215.5t-66.5 215.5t-171.5 87z" />
    <glyph glyph-name="R" unicode="R" horiz-adv-x="638" 
d="M64 673l126 -2h115q132 0 198.5 -50t66.5 -119t-49 -112.5t-125 -60.5q-82 -9 -100.5 -9t-49.5 6v-205q0 -88 21 -88h58q8 0 8 -16.5t-8 -16.5l-126 1l-140 -3q-8 0 -8 17t8 17h43q25 0 33 9.5t8 36.5v474q0 88 -21 88h-58q-8 0 -8 16.5t8 16.5zM419 395q43 38 43 94
t-46 99t-131 43q-39 0 -39 -41v-227q27 -6 53 -6q77 0 120 38zM666 70q6 5 12 -0.5t6 -8t-1 -4.5q-49 -70 -109 -70q-42 0 -77 29t-59.5 73t-47.5 90q-57 117 -109 142l64 12q46 -8 80.5 -41t55.5 -73.5l40 -80.5q45 -94 98 -94q19 0 47 26z" />
    <glyph glyph-name="S" unicode="S" horiz-adv-x="538" 
d="M419 38.5q-71 -51.5 -157 -51.5t-152 30l8 -20q3 -6 -4.5 -11.5t-16.5 -5.5t-12 5q-32 81 -39 188q0 10 16 10t17 -7q22 -76 89 -122q41 -29 95.5 -29t88 31.5t33.5 76t-23 80t-57 57.5l-74 46.5l-74 47t-57 60.5t-23 86q0 73 65.5 123.5t164.5 50.5q45 0 84 -12l12 -3
q-4 16 -4.5 22t4 8.5t14 2.5t12.5 -8q23 -81 27 -159q-3 -6 -16.5 -6t-16.5 3q-11 41 -31 67.5t-44 36.5t-56 10q-62 0 -88.5 -31.5t-26.5 -69t17.5 -64t45 -46t60.5 -38t66.5 -39.5t61.5 -46q62 -55 62 -138.5t-71 -135z" />
    <glyph glyph-name="T" unicode="T" horiz-adv-x="603" 
d="M628 539q0 -8 -16 -8t-17 9q-12 65 -41 74q-51 13 -167 15q-20 -1 -27 -11t-7 -35v-462q0 -88 21 -88h58q8 0 8 -16.5t-8 -16.5l-126 1l-140 -3q-8 0 -8 17t8 17h43q25 0 33 9.5t8 36.5v463q0 88 -20 88h-21q-99 0 -160 -15q-29 -9 -41 -74q-1 -9 -17 -9t-16 8l8 153
q0 9 16 9t16 -9v-19q68 -2 125 -2h299q81 0 149 2v19q0 9 16 9t16 -9z" />
    <glyph glyph-name="U" unicode="U" horiz-adv-x="782" 
d="M631 672l108 3q8 0 8 -17t-8 -17h-30q-25 0 -32.5 -9.5t-9.5 -36.5q-9 -135 -9 -340q0 -126 -78 -197t-185.5 -71t-185 66.5t-77.5 187.5v311q0 88 -21 88h-58q-8 0 -8 16.5t8 16.5l126 -1l140 3q8 0 8 -17t-8 -17h-43q-25 0 -33 -9.5t-8 -36.5v-326q0 -106 52.5 -159.5
t134.5 -53.5t130.5 59.5t48.5 174.5q0 159 -4 254.5t-23 95.5h-56q-8 0 -8 16.5t8 16.5z" />
    <glyph glyph-name="V" unicode="V" horiz-adv-x="631" 
d="M551 671l112 2q8 0 8 -15.5t-8 -15.5h-48q-22 0 -36 -33q-40 -94 -130.5 -324t-120.5 -297q-4 -9 -22 -9t-22 9q-90 210 -238 625q-9 28 -29 28h-36q-6 0 -6 16t6 16l110 -2l151 2q10 0 10 -15.5t-10 -15.5h-58q-31 0 -19 -43t40.5 -131.5l69 -209.5l52.5 -158h4
q167 463 167 520q0 21 -9 21h-66q-8 0 -8 16t8 16z" />
    <glyph glyph-name="W" unicode="W" horiz-adv-x="1015" 
d="M928 671l112 2q8 0 8 -15.5t-8 -15.5h-48q-22 0 -36 -33l-130.5 -323.5t-121.5 -297.5q-4 -9 -21 -9t-21 9q-50 116 -165 434l-61 -159q-80 -214 -108 -275q-4 -9 -22 -9t-22 9q-90 210 -238 625q-9 28 -29 28h-36q-6 0 -6 16t6 16l110 -2l151 2q10 0 10 -15.5t-10 -15.5
h-58q-31 0 -19 -43t40.5 -131.5l69 -209.5l52.5 -158h4q93 257 137 400q-15 40 -40 113q-9 28 -29 28h-36q-6 0 -6 16t6 16l110 -2l151 2q10 0 10 -15.5t-10 -15.5h-58q-31 0 -19 -41q20 -78 158 -501h4q166 460 166 520q0 21 -9 21h-66q-8 0 -8 16t8 16z" />
    <glyph glyph-name="X" unicode="X" horiz-adv-x="730" 
d="M747 0l-138 1l-132 -3q-8 0 -8 17t8 17h34q19 0 19 12q0 9 -22.5 41t-157.5 203q-170 -190 -183 -251q-2 -7 2 -7h50q8 0 8 -15t-8 -15l-134 1l-109 -3q-10 0 -10 16.5t10 16.5h37q21 0 44 21q74 69 261 276q-181 228 -213 263q-23 28 -42.5 39t-49.5 11h-14q-6 0 -6 16
t6 16l126 -2l139 2q6 0 6 -15.5t-6 -15.5h-48q-10 0 -10 -11.5t175 -235.5q121 140 148.5 181.5t27.5 53t-5 11.5h-37q-8 0 -8 16t8 16l116 -2l123 2q9 0 9 -15.5t-9 -15.5h-47q-14 0 -47 -28q-69 -58 -248 -257l123 -149q127 -150 142.5 -162.5t20.5 -12.5h49
q11 0 11 -16.5t-11 -16.5z" />
    <glyph glyph-name="Y" unicode="Y" horiz-adv-x="606" 
d="M310 1l-138 -3q-8 0 -8 17t8 17h43q25 0 33 9.5t8 36.5v224q1 41 -201 275q-33 39 -51 51.5t-33 12.5h-32q-7 0 -7 16t7 16l124 -2l141 2q9 0 9 -16.5t-9 -16.5h-70q0 -4 36 -47q116 -136 154 -214h3q21 36 89.5 121.5t77 102.5t8.5 26q0 12 -11 12h-39q-9 0 -9 16t9 16
l118 -2l111 2q10 0 10 -16.5t-10 -16.5h-25q-25 0 -43 -16q-73 -61 -165.5 -165t-92.5 -138v-216q0 -72 21 -72h58q8 0 8 -16.5t-8 -16.5z" />
    <glyph glyph-name="Z" unicode="Z" horiz-adv-x="649" 
d="M39 0q-8 0 -8 12t11 19q21 13 301 456l93 147h-251q-17 0 -37 -16q-37 -32 -55 -107q-1 -9 -13 -9q-24 0 -22 9q10 88 22 171q2 15 23.5 15t21.5 -14q0 -8 2 -10t8 -2h436q10 0 10 -11q0 -7 -9 -13q-11 -4 -108.5 -156l-189.5 -301l-92 -150h279q64 0 108 155q3 11 14 11
q19 0 19 -9l-23 -197q-1 -11 -4.5 -15t-17.5 -4.5t-14 6.5q0 10 -69.5 11.5t-434.5 1.5z" />
    <glyph glyph-name="bracketleft" unicode="[" horiz-adv-x="440" 
d="M450 -397h-368v1283h368q11 0 11 -23t-11 -23h-294v-1192h294q11 0 11 -22.5t-11 -22.5z" />
    <glyph glyph-name="backslash" unicode="\" horiz-adv-x="260" 
d="M-144 749q14 17 28.5 17t25.5 -20l466 -866q-17 -17 -30.5 -17t-25.5 24z" />
    <glyph glyph-name="bracketright" unicode="]" horiz-adv-x="440" 
d="M390 -397h-368q-11 0 -11 22.5t11 22.5h294v1192h-294q-11 0 -11 23t11 23h368v-1283z" />
    <glyph glyph-name="asciicircum" unicode="^" 
d="M54 251q-8 0 -19 3q157 304 187 368.5t39 65.5q11 0 48 -78l156 -314q9 -16 9 -27q0 -16 -43 -18l-171 338h-2l-155 -305q-21 -33 -49 -33z" />
    <glyph glyph-name="underscore" unicode="_" horiz-adv-x="500" 
d="M456 -76q27 0 37 -9.5t10 -21v-15.5h-468q-17 0 -26 10t-10 20l-1 11z" />
    <glyph glyph-name="grave" unicode="`" horiz-adv-x="360" 
d="M88 635q0 14 10 23t31.5 9t36 -14.5t49.5 -67.5t60.5 -81t25.5 -31q0 -9 -9.5 -9t-13.5 3q-122 84 -156 113t-34 55z" />
    <glyph glyph-name="a" unicode="a" horiz-adv-x="481" 
d="M50 0l-79 -2q-7 0 -7 13t7 13h32q11 0 16 9q23 38 92 202.5t99 249.5q4 9 19.5 9t19.5 -10q12 -50 70.5 -189t102.5 -232q12 -24 22 -31t31 -7q6 0 6 -13.5t-5 -13.5l-96 2l-108 -2q-6 0 -6 13t6 13h48q11 0 11 9q0 1 -56 154h-139q-49 -121 -49 -141.5t12 -20.5h41
q8 0 8 -13.5t-6 -13.5zM262 221l-52 152h-3q-24 -69 -57 -152h112z" />
    <glyph glyph-name="b" unicode="b" horiz-adv-x="519" 
d="M154 0l-107 -2q-7 0 -7 15t5 15h49q12 0 12 17v328q0 79 -22 79h-35q-11 0 -11 15.5t9 15.5q89 -2 181 -2t142.5 -36t50.5 -87q0 -37 -33.5 -67t-79.5 -39v-2q66 -12 108.5 -46.5t42.5 -82t-60 -84.5t-156 -37h-89zM352 126q0 98 -161 107v-136q0 -65 20 -65h27
q55 0 84.5 26t29.5 68zM211 451q-20 0 -20 -33v-149q11 -2 33 -2q49 0 76 25t27 62.5t-28 67t-88 29.5z" />
    <glyph glyph-name="c" unicode="c" horiz-adv-x="525" 
d="M120 52q-80 65 -80 178.5t86 188.5t205 75q58 0 114 -29v17q0 7 12.5 7t12.5 -7q0 -63 10 -131q1 -3 -3.5 -5.5t-13.5 -2.5t-11 8l-8 53q-56 53 -128.5 53t-124 -62t-51.5 -155t54 -154.5t127 -61.5t138 43l5 57q0 8 14 8t14 -7l-6 -127q0 -6 -13.5 -6t-13.5 6v17
q-69 -28 -137 -28q-122 0 -202 65z" />
    <glyph glyph-name="d" unicode="d" horiz-adv-x="580" 
d="M154 0l-107 -2q-7 0 -7 15t5 15h49q12 0 12 17v328q0 79 -22 79h-35q-11 0 -11 15.5t9 15.5q52 -2 105 -2h97q130 0 210.5 -70.5t80.5 -175.5t-78.5 -170t-198.5 -65h-109zM215 451q-24 0 -24 -29v-312q0 -78 21 -78h36q92 0 141.5 52t49.5 145.5t-54 155.5t-167 66h-3z
" />
    <glyph glyph-name="e" unicode="e" horiz-adv-x="467" 
d="M49 483l102 -2h207v16q0 6 13.5 6t13.5 -6q0 -79 7 -113q2 -6 -11 -6q-17 0 -17 6q-14 46 -27 52q-42 15 -122 15q-14 -1 -19 -8t-5 -25v-164q121 4 133 11l7 42q2 5 14.5 5t12.5 -7q-4 -29 -4 -64.5t4 -64.5q0 -6 -13.5 -6t-13.5 4l-8 43q-12 7 -132 11v-121
q0 -75 20 -75h32q110 2 152 31l5 39q2 6 10.5 6h11.5q6 -2 6 -6q-6 -42 -6 -118q0 -5 -13.5 -5t-13.5 5v16h-178l-170 -2q-7 0 -7 15t6 15h45q11 0 13 4.5t2 24.5v315q0 80 -20 80h-36q-12 0 -12 15.5t11 15.5z" />
    <glyph glyph-name="f" unicode="f" horiz-adv-x="423" 
d="M394 383q0 -5 -14 -5t-14 6q-14 46 -27 52q-42 15 -124 15q-14 -1 -19 -8t-5 -25v-164q123 4 135 11l7 42q2 5 14.5 5t12.5 -7q-4 -29 -4 -64.5t4 -64.5q0 -6 -13.5 -6t-13.5 4l-8 43q-12 7 -134 11v-121q0 -76 20 -76h50q8 0 8 -15.5t-6 -15.5l-116 1l-100 -3
q-7 0 -7 15t6 15h45q11 0 13 4.5t2 24.5v315q0 80 -20 80h-36q-12 0 -12 15.5t11 15.5l102 -2h209v16q0 6 13.5 6t13.5 -6z" />
    <glyph glyph-name="g" unicode="g" horiz-adv-x="586" 
d="M458 209l103 2q7 0 7 -15t-7 -15h-22q-18 0 -24.5 -7t-6.5 -26q0 -110 5.5 -141t5.5 -35q0 -9 -10 -9q-8 0 -18.5 27.5t-19.5 27.5q-2 0 -23 -8q-60 -23 -116 -23q-127 0 -209.5 62t-82.5 181t88.5 191.5t211.5 72.5q54 0 118 -27v16q0 8 13 8t13 -8q0 -62 7 -110
q1 -3 -3.5 -5.5t-13.5 -2.5t-11 7l-5 32q-59 53 -134.5 53t-129 -58t-53.5 -156t54 -159t136 -61q26 0 49 6.5t33 13.5l10 7v67q0 64 -15 64h-77q-7 0 -7 14.5t7 14.5z" />
    <glyph glyph-name="h" unicode="h" horiz-adv-x="634" 
d="M376 483l79 -2h19l104 2q7 0 7 -14.5t-8 -14.5h-46q-13 0 -13 -16v-331q0 -76 20 -76h50q8 0 8 -15.5t-6 -15.5l-116 1l-100 -3q-7 0 -7 15t6 15h45q11 0 13 4.5t2 24.5v163h-242v-113q0 -76 20 -76h50q8 0 8 -15.5t-6 -15.5l-116 1l-100 -3q-7 0 -7 15t6 15h45
q11 0 13 4.5t2 24.5v315q0 80 -20 80h-36q-12 0 -12 15.5t11 15.5l79 -2h19l104 2q7 0 7 -14.5t-8 -14.5h-46q-13 0 -13 -16v-180h242v114q0 80 -20 80h-36q-12 0 -12 15.5t11 15.5z" />
    <glyph glyph-name="i" unicode="i" horiz-adv-x="307" 
d="M49 483l79 -2h19l104 2q7 0 7 -14.5t-8 -14.5h-46q-13 0 -13 -16v-331q0 -76 20 -76h50q8 0 8 -15.5t-6 -15.5l-116 1l-100 -3q-7 0 -7 15t6 15h45q11 0 13 4.5t2 24.5v315q0 80 -20 80h-36q-12 0 -12 15.5t11 15.5z" />
    <glyph glyph-name="j" unicode="j" horiz-adv-x="292" 
d="M49 483l79 -2h19l104 2q7 0 7 -14.5t-8 -14.5h-46q-13 0 -13 -16v-356q0 -140 -26 -203.5t-79 -105t-123 -41.5q-15 0 -30.5 7t-15.5 24q0 35 39 47q39 -22 83 -22q27 0 41 27q26 55 26 260v297q0 80 -20 80h-36q-12 0 -12 15.5t11 15.5z" />
    <glyph glyph-name="k" unicode="k" horiz-adv-x="567" 
d="M49 483l79 -2h19l104 2q7 0 7 -14.5t-8 -14.5h-46q-13 0 -13 -16v-331q0 -76 20 -76h50q8 0 8 -15.5t-6 -15.5l-116 1l-100 -3q-7 0 -7 15t6 15h45q11 0 13 4.5t2 24.5v315q0 80 -20 80h-36q-12 0 -12 15.5t11 15.5zM487 1l-124 -2q-6 0 -6 12.5t6 12.5h12q17 0 17 10
q0 6 -10 17q-40 47 -166 181h-27v30h22q165 158 165 186q0 11 -12 11h-20q-5 0 -5 12t5 12l87 -1l77 1q6 0 6 -12t-6 -12h-25q-10 0 -59 -49q-112 -107 -147 -135v-5l155 -161q80 -80 94 -80h26q10 -2 10 -15.5t-8 -13.5z" />
    <glyph glyph-name="l" unicode="l" horiz-adv-x="439" 
d="M49 483l79 -2h19l104 2q7 0 7 -14.5t-8 -14.5h-46q-13 0 -13 -16v-331q0 -75 20 -75h26q110 2 152 31l5 39q2 6 10.5 6h11.5q6 -2 6 -6q-6 -42 -6 -118q0 -5 -13.5 -5t-13.5 5v16h-172l-170 -2q-7 0 -7 15t6 15h45q11 0 13 4.5t2 24.5v315q0 80 -20 80h-36
q-12 0 -12 15.5t11 15.5z" />
    <glyph glyph-name="m" unicode="m" horiz-adv-x="733" 
d="M514 480l131 3q8 0 8 -14.5t-8 -14.5h-25q-22 0 -22 -37q0 -16 14.5 -158l19 -185t17.5 -43h44q9 0 9 -15.5t-8 -15.5l-98 1l-101 -3q-7 0 -7 15t6 15h31q27 0 25 23q-20 280 -22 317h-4q-93 -196 -154 -355q-4 -9 -19.5 -9t-19.5 10l-146 362h-3q-15 -207 -15 -245v-41
q0 -59 18 -59h31q10 0 10 -15.5t-10 -15.5l-80 1l-96 -3q-6 0 -6 15t7 15h24q24 0 29.5 5.5t7.5 14.5q7 41 21.5 178t15 168.5t-4 44.5t-16.5 13h-28q-6 0 -6 15.5t6 15.5l96 -3h47q9 -26 132 -362h4q70 150 145 362z" />
    <glyph glyph-name="n" unicode="n" horiz-adv-x="628" 
d="M499 481l92 2q6 0 6 -14.5t-6 -14.5h-35q-14 0 -18 -7q-18 -31 -18 -450q0 -10 -16.5 -10t-23.5 7l-322 386h-3q3 -177 6 -296q0 -52 15 -52h40q6 0 6 -15.5t-6 -15.5h-83l-91 -2q-5 0 -5 14.5t5 14.5h24q31 0 32 20q15 162 15 379q-16 19 -27 22t-41 3q-6 0 -6 15.5
t6 15.5l141 -2l286 -365h2q-4 262 -7 299t-16 37h-35q-7 0 -7 15.5t7 15.5z" />
    <glyph glyph-name="o" unicode="o" horiz-adv-x="612" 
d="M306 494q107 0 187.5 -75t80.5 -177.5t-80.5 -178.5t-187.5 -76t-187.5 76t-80.5 178.5t80.5 177.5t187.5 75zM306 458q-74 0 -121 -62.5t-47 -154t47 -155t121 -63.5t121 63.5t47 155t-47 154t-121 62.5z" />
    <glyph glyph-name="p" unicode="p" horiz-adv-x="445" 
d="M154 0l-107 -2q-7 0 -7 15t5 15h49q12 0 12 17v328q0 79 -22 79h-35q-11 0 -11 15.5t9 15.5q89 -2 182 -2t144 -38t51 -98q0 -46 -42 -87.5t-111 -41.5q-45 0 -80 12v-131q0 -66 20 -66h50q8 0 8 -15.5t-5 -15.5h-110zM211 451q-20 0 -20 -33v-156q11 -2 33 -2
q48 0 76.5 26.5t28.5 64.5t-29 69t-89 31z" />
    <glyph glyph-name="q" unicode="q" horiz-adv-x="617" 
d="M308 494q107 0 187.5 -75t80.5 -177q0 -60 -25.5 -109t-67 -80.5t-82 -53.5t-83 -41.5t-57.5 -30.5l1 -4l16 1q48 0 148 -30.5t153 -30.5t103 19q10 -21 10 -41q0 -38 -35.5 -57t-86.5 -19t-99.5 20t-82.5 44q-91 64 -152 64q-12 0 -26 -3q-9 -6 -17 -14t-18 -8
q-22 0 -22 18q0 16 54 47t117 52v2h-16q-109 0 -188.5 75.5t-79.5 178.5t80.5 178t187.5 75zM308 458q-74 0 -121 -62.5t-47 -154t47 -155t121 -63.5t121 63.5t47 155t-47 154t-121 62.5z" />
    <glyph glyph-name="r" unicode="r" horiz-adv-x="500" 
d="M154 0l-107 -2q-7 0 -7 15t5 15h49q12 0 12 17v328q0 79 -22 79h-35q-11 0 -11 15.5t9 15.5q89 -2 182 -2t144.5 -39.5t51.5 -97t-41 -92.5t-99 -40q29 -20 75 -80q17 -23 53 -52.5t81 -52.5q-20 -40 -61 -40t-72 30t-48 66.5t-37.5 75.5t-38.5 51l-46 3v-116
q0 -66 20 -66h42q8 0 8 -15.5t-5 -15.5h-102zM211 451q-20 0 -20 -33v-166q14 -3 28 -3q45 0 78 25t33 68t-29.5 76t-89.5 33z" />
    <glyph glyph-name="s" unicode="s" horiz-adv-x="400" 
d="M332 485l21 -110q0 -8 -12 -8t-15 8q-13 37 -41 61t-60.5 24.5t-57 -18.5t-24.5 -46.5t16.5 -50t40.5 -38.5l53 -36.5t53 -40.5t40.5 -52t16.5 -69q0 -58 -51 -90t-110.5 -32t-109.5 23q0 -12 -1.5 -15t-10.5 -4h-4q-8 0 -9 8q-2 24 -8 66t-9 68q0 10 12.5 10t13.5 -5
q14 -49 49 -84.5t73 -35.5t63 18.5t25 51.5t-22.5 60.5t-54.5 49.5l-64 44.5t-54.5 55.5t-22.5 72q0 56 47.5 89t112.5 33q37 0 79 -14q-2 6 -2 14.5t9.5 8.5t12.5 -2.5t5 -13.5z" />
    <glyph glyph-name="t" unicode="t" horiz-adv-x="518" 
d="M497 376q0 -6 -13.5 -6t-13.5 7q-10 49 -30 54q-36 8 -109 10h-19q-10 -1 -10 -16v-318q0 -76 20 -76h50q8 0 8 -15.5t-6 -15.5l-116 1l-100 -3q-7 0 -7 15t6 15h45q11 0 13 4.5t2 24.5v304q0 75 -18 80q-81 0 -121 -10q-20 -5 -30 -54q0 -7 -13.5 -7t-13.5 6l5 120
q0 6 13.5 6t13.5 -6v-13l131 -2h74q152 0 204 2h3v13q0 6 13.5 6t13.5 -6z" />
    <glyph glyph-name="u" unicode="u" horiz-adv-x="539" 
d="M450 481l82 2q7 0 7 -14.5t-7 -14.5h-21q-18 0 -23 -6.5t-7 -26.5q-8 -176 -8 -241q0 -90 -57.5 -141.5t-135.5 -51.5t-136.5 48t-58.5 135v208q0 74 -22 74h-35q-8 0 -8 15.5t8 15.5l97 -2l105 2q8 0 8 -15.5t-8 -15.5h-31q-18 0 -23.5 -7t-5.5 -26v-229
q0 -76 35.5 -112t94.5 -36t91.5 40.5t32.5 122.5q0 116 -2.5 181.5t-16.5 65.5h-40q-6 0 -6 15t6 15z" />
    <glyph glyph-name="v" unicode="v" horiz-adv-x="501" 
d="M421 481l73 2q7 0 7 -13t-7 -13h-26q-11 0 -16 -9q-28 -46 -94.5 -224t-84.5 -238q-4 -9 -19.5 -9t-19.5 10q-13 50 -73 196t-102 235q-12 24 -22 31t-31 7q-6 0 -6 13.5t6 13.5l95 -2l108 2q6 0 6 -13t-6 -13h-48q-11 0 -11 -9q0 -6 55.5 -157t70.5 -197q18 62 47 144
q61 172 61 195t-12 23h-41q-8 0 -8 13.5t6 13.5z" />
    <glyph glyph-name="w" unicode="w" horiz-adv-x="753" 
d="M673 481l73 2q7 0 7 -13t-7 -13h-26q-11 0 -16 -9q-28 -46 -96.5 -225.5t-85.5 -236.5q-4 -9 -19.5 -9t-19.5 10q-50 195 -100 314q-43 -107 -104 -315q-4 -9 -19.5 -9t-19.5 10q-12 49 -72.5 189.5t-108.5 241.5q-12 24 -22 31t-31 7q-6 0 -6 13.5t6 13.5l95 -2l93 2
q6 0 6 -13t-6 -13h-33q-11 0 -11 -9t57.5 -158.5l69.5 -182.5q12 40 44.5 131t38.5 122q-33 78 -45.5 87t-33.5 9q-6 0 -6 13.5t6 13.5l95 -2l108 2q6 0 6 -13t-6 -13h-48q-11 0 -11 -9.5t37 -143t63 -210.5q19 63 48 144.5l46 131t17 68t-12 18.5h-41q-7 0 -7 13.5t5 13.5z
" />
    <glyph glyph-name="x" unicode="x" horiz-adv-x="594" 
d="M485 481l78 2q7 0 7 -13t-7 -13h-40q-9 0 -16 -7l-176 -190q47 -60 121.5 -145t88.5 -85h33q8 0 8 -15t-8 -15l-107 1l-128 -2q-6 0 -6 14.5t6 14.5h51q12 0 12 8t-23.5 38l-56 69t-44.5 57q-50 -53 -91.5 -108t-41.5 -58.5t1 -3.5h50q7 0 7 -15t-7 -15l-91 1l-87 -2
q-6 0 -6 14.5t6 14.5h32q15 0 20 6l184 195l-164 201q-23 26 -44 26h-20q-6 0 -6 13.5t6 13.5l108 -2l120 2q6 0 6 -13t-6 -13h-60q-8 0 -8 -6.5t42.5 -62t79.5 -98.5q70 70 97.5 109t27.5 48t-5 9h-38q-5 0 -5 13.5t5 13.5z" />
    <glyph glyph-name="y" unicode="y" horiz-adv-x="538" 
d="M268 1l-100 -3q-7 0 -7 15t6 15h45q11 0 13 4.5t2 24.5v159h-1q1 30 -141 193q-39 46 -60 46h-23q-8 0 -8 13.5t6 13.5l95 -1l104 1q6 0 6 -13t-5 -13h-50q0 -2 25 -32q83 -99 108 -150h3q15 25 61 83t52.5 70.5t6.5 20t-8 7.5h-28q-5 0 -5 13.5t7 13.5l93 -1l79 1
q7 0 7 -13t-8 -13h-18q-18 0 -31 -11q-49 -41 -111.5 -111.5t-70.5 -98.5v-128q0 -76 20 -76h50q8 0 8 -15.5t-6 -15.5z" />
    <glyph glyph-name="z" unicode="z" horiz-adv-x="491" 
d="M429 -13q0 -7 -13.5 -7t-13.5 5.5t-11.5 8t-52.5 4.5q-70 2 -297 2q-6 0 -6 9t6 14q11 5 80 112l133 211l63 105h-164q-42 0 -69 -78q-2 -5 -15.5 -5t-13.5 5q6 48 30 120q2 7 16.5 7t14.5 -9t4 -10h306q7 0 7 -10.5t-6.5 -13t-68 -99.5l-128 -203.5t-80.5 -123.5h199
q40 0 57 37q8 20 13 51q1 7 15.5 7t14.5 -7q-7 -19 -13.5 -64.5t-6.5 -67.5z" />
    <glyph glyph-name="braceleft" unicode="{" horiz-adv-x="336" 
d="M226 637l8 -209q0 -67 -32 -111t-101 -47v-5q69 -3 101 -47t32 -111l-8 -255q0 -42 2 -66t13 -55t32 -47q51 -39 158 -39q25 0 25 -26t-10 -26q-150 0 -219.5 74.5t-69.5 186.5l6 234q0 75 -25 114.5t-96 39.5l-29 -2q-14 0 -14 24q0 11 4 21t10 10q16 -2 29 -2
q71 0 96 39.5t25 114.5l-6 188q0 112 69.5 186.5t219.5 74.5q10 0 10 -26t-25 -26q-107 0 -158 -39q-21 -16 -32 -47t-13 -55t-2 -66z" />
    <glyph glyph-name="bar" unicode="|" horiz-adv-x="204" 
d="M96 -151q-7 0 -16 4v868q0 32 27 32l16 -4l-3 -870q0 -30 -24 -30z" />
    <glyph glyph-name="braceright" unicode="}" horiz-adv-x="336" 
d="M110 -148l-8 255q0 67 32 111t101 47v5q-69 3 -101 47t-32 111l8 209q0 42 -2 66t-13 55t-32 47q-51 39 -158 39q-25 0 -25 26t10 26q150 0 219.5 -74.5t69.5 -186.5l-6 -188q0 -75 25 -114.5t96 -39.5l29 2q6 0 10 -10t4 -21q0 -24 -14 -24q-16 2 -29 2q-71 0 -96 -39.5
t-25 -114.5l6 -234q0 -112 -69.5 -186.5t-219.5 -74.5q-10 0 -10 26t25 26q107 0 158 39q21 16 32 47t13 55t2 66z" />
    <glyph glyph-name="asciitilde" unicode="~" horiz-adv-x="458" 
d="M176 310l93 -8q42 0 71.5 20.5t37.5 63.5q1 8 11 8q15 0 15 -16q0 -58 -34.5 -97.5t-95.5 -39.5q-18 0 -52 6t-49 6q-41 0 -71.5 -22.5t-38.5 -64.5q-2 -8 -9.5 -8t-12.5 5t-5 14q2 60 40 96.5t100 36.5z" />
    <glyph glyph-name="exclamdown" unicode="&#xa1;" horiz-adv-x="320" 
d="M132 256q9 9 18 9q32 0 32 -35v-76q0 -254 53 -376q-44 -28 -72 -28q-53 0 -53 117q0 42 11 172t11 170.5v46.5zM200.5 350.5q-16.5 -17.5 -40 -17.5t-40.5 16.5t-17 39.5t15.5 40.5t39 17.5t41.5 -15.5t18 -39.5t-16.5 -41.5z" />
    <glyph glyph-name="cent" unicode="&#xa2;" horiz-adv-x="536" 
d="M426 557q31 -19 31 -47.5t-38 -44.5q-40 39 -80 54l-49 -330q17 -4 47 -4t60.5 10.5t47 21.5t19.5 11q12 0 12 -12t-22 -35.5t-65.5 -45.5t-90.5 -22h-20q-11 -77 -17 -114q-2 -12 -10 -18t-15 -6t-17 5l20 140q-73 17 -113.5 72t-40.5 122q0 96 64 168t154 89l18 129
q4 27 24 27q10 0 24 -7l-21 -144q47 0 78 -19zM169 367q0 -116 82 -162l45 322h-3q-52 0 -88 -42.5t-36 -117.5z" />
    <glyph glyph-name="sterling" unicode="&#xa3;" horiz-adv-x="524" 
d="M208 273l115 15q7 0 7 -26t-8 -26q-13 0 -43.5 3.5t-57.5 4.5q16 -41 16 -75t-9 -61q17 -4 49 -14q70 -22 122 -22t76 35q5 8 12 5t7 -8q0 -3 -1 -6q-50 -111 -127 -111q-51 0 -115 41q-31 19 -49 27q-46 -68 -105 -68q-24 0 -39.5 13.5t-15.5 33.5q0 34 32 57t88 24v1
q0 30 -9 52t-23 47.5t-15 27.5q-48 -2 -62 -2q-9 0 -9 17t11 17q6 0 20.5 -1.5t25.5 -2.5q-17 39 -17 78q0 70 53 121.5t131 51.5t154 -50q7 10 13 17q12 8 18.5 -0.5t4.5 -11.5q-43 -71 -53 -124q-2 -4 -9.5 -4t-15 5.5t-5.5 11.5q11 24 10.5 31t-2.5 12t-9.5 17t-18.5 22
q-30 25 -74.5 25t-73.5 -30t-29 -72t30 -98zM98 21q40 0 56 48q-16 2 -33 2t-31 -9.5t-14 -23.5q0 -17 22 -17z" />
    <glyph glyph-name="currency" unicode="&#xa4;" horiz-adv-x="557" 
d="M60 345q0 81 45 143l-56 45q-20 17 -20 39t33 36q13 -19 59 -72l14 -16q61 53 143 53t143 -53q55 62 73 88q33 -14 33 -36t-20 -39l-56 -45q45 -62 45 -143t-45 -143l56 -45q20 -17 20 -39t-33 -36q-13 19 -59 72l-14 16q-61 -53 -143 -53t-143 53q-55 -62 -73 -88
q-33 14 -33 36t20 39l56 45q-45 62 -45 143zM388 222.5q47 42.5 47 123.5t-46.5 122.5t-110.5 41.5t-110.5 -41.5t-46.5 -122.5t47 -123.5t110 -42.5t110 42.5z" />
    <glyph glyph-name="yen" unicode="&#xa5;" horiz-adv-x="538" 
d="M465 481l79 1q7 0 7 -13t-8 -13h-18q-18 0 -31 -11q-43 -37 -98.5 -97t-75.5 -95l81 2q27 0 37 -9t10 -20v-15h-136v-56l89 2q27 0 37 -9t10 -20v-15h-136v-6q0 -76 20 -76h50q8 0 8 -15.5t-6 -15.5l-116 1l-100 -3q-7 0 -7 15t6 15h45q11 0 13 4.5t2 24.5v56h-105
q-17 0 -26 9.5t-10 19.5l-1 10q88 0 142 1v58h-105q-17 0 -26 9.5t-10 19.5l-1 10q77 0 125 1q-30 48 -125 158q-39 46 -60 46h-23q-8 0 -8 13.5t6 13.5l95 -1l104 1q6 0 6 -13t-5 -13h-50q0 -2 25 -32q83 -99 108 -150h3q15 25 61 83t52.5 70.5t6.5 20t-8 7.5h-28
q-5 0 -5 13.5t7 13.5z" />
    <glyph glyph-name="brokenbar" unicode="&#xa6;" horiz-adv-x="204" 
d="M96 -151q-7 0 -16 4l-1 357q0 12 10.5 17.5t20.5 4.5h10v-353q0 -30 -24 -30zM121 384q0 -17 -27 -17h-4l-10 1v353q0 32 27 32l16 -4z" />
    <glyph glyph-name="section" unicode="&#xa7;" horiz-adv-x="524" 
d="M64 337q-24 53 -24 118t41.5 123.5t138.5 85.5q58 50 119.5 50t95 -23t33.5 -57.5t-48 -60.5q-48 91 -116 91q-61 0 -61 -87q0 -74 91 -193l76 -102t64.5 -117t26.5 -130t-48.5 -119.5t-159.5 -76.5q-16 -16 -49 -29.5t-65 -13.5q-63 0 -98.5 27.5t-35.5 65t43 65.5
q15 -38 52.5 -68t67.5 -30t48.5 21.5t18.5 72.5t-24 106t-58.5 98.5l-69.5 86.5t-59 96zM189 314l68 -93.5t58 -109.5t24 -121.5t-24 -111.5q105 36 105 145q0 107 -82 228l-68 98q-82 116 -82 204q0 43 12 69q-93 -52 -93 -125.5t82 -182.5z" />
    <glyph glyph-name="dieresis" unicode="&#xa8;" horiz-adv-x="380" 
d="M117 555q-22 0 -36.5 15.5t-14.5 37t15 35.5t35.5 14t36 -14.5t15.5 -35.5t-14.5 -36.5t-36.5 -15.5zM284 555q-22 0 -36.5 15.5t-14.5 36.5t15.5 35.5t35.5 14.5t35.5 -14.5t15.5 -35.5t-14.5 -36.5t-36.5 -15.5z" />
    <glyph glyph-name="copyright" unicode="&#xa9;" horiz-adv-x="740" 
d="M705 329q0 -142 -98.5 -242t-237.5 -100t-236.5 100.5t-97.5 241t97 242t236 101.5t238 -100.5t99 -242.5zM575.5 118q85.5 87 85.5 211.5t-85.5 211.5t-207.5 87t-205.5 -88t-83.5 -211.5t84 -210.5t205.5 -87t207 87zM234.5 191.5q-64.5 47.5 -64.5 134.5t68.5 141
t160.5 54q45 0 87 -20v16q0 5 9.5 5t9.5 -5q0 -46 5 -89q1 -2 -2.5 -4t-10.5 -2t-9 6l-3 26q-42 38 -99 38t-96 -43t-39 -117t41 -116t99.5 -42t103.5 32l4 25q1 6 11.5 6t10.5 -6q-5 -24 -5 -83q0 -4 -10.5 -4t-10.5 4v17q-55 -21 -102 -21q-94 0 -158.5 47.5z" />
    <glyph glyph-name="ordfeminine" unicode="&#xaa;" horiz-adv-x="356" 
d="M247 612l-4 -109q0 -37 20 -37q7 0 14 8.5t8 8.5q6 0 6 -11.5t-14 -26.5t-34 -15t-27.5 12.5t-7.5 28v19.5h-5q-10 -27 -34 -44t-53 -17q-51 0 -51 42q0 32 35 59t97 45q0 65 -19 77q-9 6 -24 6q-41 0 -41 -65q-9 -10 -22 -10q-27 0 -27 27.5t31.5 49.5t64.5 22
q87 0 87 -70zM140 467q22 0 39.5 24.5t17.5 63.5q-36 -7 -57.5 -27t-21.5 -40.5t22 -20.5zM115 391l101 -4q40 0 77 10q4 -5 4 -15q0 -23 -25.5 -32.5t-55.5 -9.5l-108 5q-34 0 -48 -5q-7 12 -7 20q0 31 62 31z" />
    <glyph glyph-name="guillemotleft" unicode="&#xab;" horiz-adv-x="458" 
d="M222 383q13 -13 13 -27t-15.5 -32t-46 -48t-50.5 -55q20 -25 50.5 -55t46 -48t15.5 -32t-13 -27q-35 40 -79 80.5t-70 60.5l-26 21q96 72 175 162zM382 383q13 -13 13 -27t-15.5 -32t-46 -48t-50.5 -55q20 -25 50.5 -55t46 -48t15.5 -32t-13 -27q-35 40 -79 80.5
t-70 60.5l-26 21q96 72 175 162z" />
    <glyph glyph-name="logicalnot" unicode="&#xac;" 
d="M217 356l258 4q13 0 15 -13q2 -6 2 -17t-2 -28l-3 -161q0 -17 -11 -24.5t-17 -7.5t-7 1h-12l5 207q-101 -4 -397 -4q-17 0 -26 10.5t-10 21.5l-1 11h206z" />
    <glyph glyph-name="registered" unicode="&#xae;" horiz-adv-x="740" 
d="M607.5 87.5q-97.5 -100.5 -237 -100.5t-237.5 100.5t-98 242t98.5 242t237.5 100.5t236.5 -100.5t97.5 -242t-97.5 -242zM371 31q122 0 206 87t84 211.5t-84 211.5t-206 87t-207 -87t-85 -211.5t85 -211.5t207 -87zM213 532l65 -1h74q72 0 111.5 -27.5t39.5 -64.5
t-27.5 -61t-68.5 -35q37 -64 80 -113t76 -49q7 0 7 -10q0 -13 -40.5 -13t-65.5 14t-45.5 44.5l-49.5 75t-34 47.5q-7 0 -12 1v-110q0 -46 12 -46h32q4 0 4 -10t-4 -10h-69l-88 -1q-4 0 -4 10t4 10h24q13 0 17 5t4 19v256q0 47 -10 47h-32q-5 0 -5 11t5 11zM411.5 381
q20.5 19 20.5 50.5t-20.5 52.5t-66.5 21q-22 0 -22 -21v-119q17 -3 25 -3q43 0 63.5 19z" />
    <glyph glyph-name="macron" unicode="&#xaf;" horiz-adv-x="400" 
d="M280 627q27 0 37 -9.5t10 -21v-15.5h-225q-17 0 -26 10.5t-10 20.5l-1 10z" />
    <glyph glyph-name="degree" unicode="&#xb0;" horiz-adv-x="400" 
d="M288 635q37 -37 37 -88.5t-37 -88t-88.5 -36.5t-88 36.5t-36.5 88.5t36.5 88.5t88 36.5t88.5 -37zM292 547q0 38 -27.5 65t-65 27t-64.5 -27t-27 -65t27 -65t65 -27t65 27t27 65z" />
    <glyph glyph-name="plusminus" unicode="&#xb1;" 
d="M275 501h9v-168l114 3q47 0 47 -41v-7h-161v-131q0 -17 -12 -23t-24 -4l-11 3q0 39 -2 155h-130q-17 0 -26 11t-10 21l-1 11q42 0 166 2l-2 121q0 47 43 47zM496 8v-7h-431q-17 0 -26 11t-10 22l-1 11l421 5q47 0 47 -42z" />
    <glyph glyph-name="twosuperior" unicode="&#xb2;" horiz-adv-x="359" 
d="M227 588q0 25 -13 40t-37.5 15t-39.5 -16t-15 -41t12 -40q-14 -18 -33 -18t-31.5 11.5t-12.5 29.5q0 41 39.5 72t87 31t80 -24t32.5 -67q0 -88 -163 -187l2 -3q8 1 26 1q92 0 130 27l4 27q0 6 13.5 6t13.5 -6q-8 -59 -8 -112q0 -6 -13 -6t-13 6v16h-239q-7 0 -7 6t7 11
q75 47 126.5 109.5t51.5 111.5z" />
    <glyph glyph-name="threesuperior" unicode="&#xb3;" horiz-adv-x="314" 
d="M93.5 326q20.5 -23 55 -23t57.5 27.5t23 63.5q0 75 -76 93q-21 -8 -31.5 -18.5t-9.5 -17.5v-7q-3 -1 -7 -1q-17 0 -17 15t16.5 29t37 24t37 31.5t16.5 49.5q0 52 -52 52q-22 0 -36 -12t-14 -27t7 -28q-12 -21 -28 -21q-35 0 -35 32q0 35 40 59.5t78.5 24.5t71 -19
t32.5 -49q0 -54 -80 -99v-1q54 -12 80 -38t26 -60q0 -56 -41 -93t-100.5 -37t-86 19.5t-26.5 39.5q0 39 32 39q6 0 9 -1q1 -24 21.5 -47z" />
    <glyph glyph-name="acute" unicode="&#xb4;" horiz-adv-x="360" 
d="M85 537q-4 -3 -13.5 -3t-9.5 9q0 3 21.5 26t56.5 67l50 63q34 45 72 45q15 0 25 -9t10 -23q0 -26 -57 -69z" />
    <glyph glyph-name="mu" unicode="&#xb5;" horiz-adv-x="568" 
d="M224 -220q-21 -27 -49 -27t-39.5 16t-18.5 40t-11 61t-6.5 69.5t-3 87t-1 79t-0.5 49.5l1 146v18q0 88 -21 88h-49q-8 1 -8 15.5t6 14.5l71 -1l84 3q10 0 10 -8q0 -3 -1.5 -8t-2.5 -13q-4 -30 -4 -78v-109q0 -102 24.5 -141.5t91.5 -39.5q30 0 56 16.5t41 44.5v216
q0 88 -21 88h-49q-8 1 -8 15.5t6 14.5l71 -1l84 3q10 0 10 -8q0 -3 -1.5 -8t-2.5 -13q-4 -30 -4 -78v-186q0 -68 14 -80q7 -6 21 -6l34 3q8 0 8 -14.5t-6 -15.5q-67 -11 -111 -37q-14 -9 -18 -9q-24 0 -24 73h-2q-27 -36 -67 -54.5t-79.5 -18.5t-72.5 15q3 -148 48 -222z
" />
    <glyph glyph-name="mu" unicode="&#x3bc;" horiz-adv-x="568" 
d="M224 -220q-21 -27 -49 -27t-39.5 16t-18.5 40t-11 61t-6.5 69.5t-3 87t-1 79t-0.5 49.5l1 146v18q0 88 -21 88h-49q-8 1 -8 15.5t6 14.5l71 -1l84 3q10 0 10 -8q0 -3 -1.5 -8t-2.5 -13q-4 -30 -4 -78v-109q0 -102 24.5 -141.5t91.5 -39.5q30 0 56 16.5t41 44.5v216
q0 88 -21 88h-49q-8 1 -8 15.5t6 14.5l71 -1l84 3q10 0 10 -8q0 -3 -1.5 -8t-2.5 -13q-4 -30 -4 -78v-186q0 -68 14 -80q7 -6 21 -6l34 3q8 0 8 -14.5t-6 -15.5q-67 -11 -111 -37q-14 -9 -18 -9q-24 0 -24 73h-2q-27 -36 -67 -54.5t-79.5 -18.5t-72.5 15q3 -148 48 -222z
" />
    <glyph glyph-name="paragraph" unicode="&#xb6;" horiz-adv-x="538" 
d="M385 482l126 2q8 0 8 -16.5t-8 -16.5h-58q-21 0 -21 -88l-20 -391q-2 -38 -21 -54t-65 -16l3 546q-38 -1 -38 -3q-4 -220 -9 -315q-33 -12 -67 -12q-87 0 -132 55.5t-45 132.5q0 176 232 176h115z" />
    <glyph glyph-name="periodcentered" unicode="&#xb7;" horiz-adv-x="320" 
d="M115 207.5q-19 19.5 -19 46t18.5 46t45 19.5t45.5 -19t19 -45.5t-18.5 -46.5t-45 -20t-45.5 19.5z" />
    <glyph glyph-name="cedilla" unicode="&#xb8;" horiz-adv-x="300" 
d="M140 -50q32 0 59 -14.5t27 -45t-23 -46.5t-51.5 -16t-57 14t-28.5 35.5t21 21.5q16 0 22 -14q-4 -5 -4 -13t12 -15t27 -7t27 9.5t12 26.5q0 43 -60 43q-4 0 -12 -0.5t-12 -0.5l27 72h28l-18 -50h4z" />
    <glyph glyph-name="onesuperior" unicode="&#xb9;" horiz-adv-x="305" 
d="M144 668l99 2q6 0 6 -14t-5 -14h-50q-9 0 -9 -11v-199q0 -47 7 -53q3 -2 8 -2h44q6 0 6 -14t-5 -14l-94 1l-92 -2q-5 0 -5 14t4 14h50q9 0 9 11v190q0 64 -16 64h-43q-7 0 -7 14t5 14z" />
    <glyph glyph-name="ordmasculine" unicode="&#xba;" horiz-adv-x="360" 
d="M178 682q52 0 89 -37.5t37 -89.5t-37 -89t-89 -37t-89 37t-37 89.5t37 89.5t89 37zM232 622q-23 29 -56.5 29t-54 -28.5t-20.5 -71t23 -71t56.5 -28.5t54 27.5t20.5 70.5t-23 72zM125 391l101 -4q40 0 77 10q4 -5 4 -15q0 -23 -25.5 -32.5t-55.5 -9.5l-108 5
q-34 0 -48 -5q-7 12 -7 20q0 31 62 31z" />
    <glyph glyph-name="guillemotright" unicode="&#xbb;" horiz-adv-x="458" 
d="M236 59q-13 13 -13 27t15.5 32t46 48t50.5 55q-20 25 -50.5 55t-46 48t-15.5 32t13 27q35 -40 79 -80.5t70 -60.5l26 -21q-96 -72 -175 -162zM76 59q-13 13 -13 27t15.5 32t46 48t50.5 55q-20 25 -50.5 55t-46 48t-15.5 32t13 27q35 -40 79 -80.5t70 -60.5l26 -21
q-96 -72 -175 -162z" />
    <glyph glyph-name="onequarter" unicode="&#xbc;" horiz-adv-x="763" 
d="M194 -9q-16 -24 -27.5 -24t-28.5 17l487 698q13 19 23 19q15 0 32 -17zM176 668l99 2q6 0 6 -14t-5 -14h-50q-9 0 -9 -11v-199q0 -47 7 -53q3 -2 8 -2h44q6 0 6 -14t-5 -14l-94 1l-92 -2q-5 0 -5 14t4 14h50q9 0 9 11v190q0 64 -16 64h-43q-7 0 -7 14t5 14zM607 -64
l-76 -2q-6 0 -6 10.5t4 10.5h29q11 0 11 17v85h-153q-8 0 -8 12t8 21l197 239q25 0 25 -15q0 -3 -2 -24q-5 -51 -5 -156v-43h52q10 0 10 -17t-10 -17h-52v-100l29 1q6 0 6 -11t-4 -11h-55zM569 90v90l2 49h-3l-115 -139h116z" />
    <glyph glyph-name="onehalf" unicode="&#xbd;" horiz-adv-x="780" 
d="M194 -9q-16 -24 -27.5 -24t-28.5 17l487 698q13 19 23 19q15 0 32 -17zM176 668l99 2q6 0 6 -14t-5 -14h-50q-9 0 -9 -11v-199q0 -47 7 -53q3 -2 8 -2h44q6 0 6 -14t-5 -14l-94 1l-92 -2q-5 0 -5 14t4 14h50q9 0 9 11v190q0 64 -16 64h-43q-7 0 -7 14t5 14zM629 238
q0 25 -13 40t-37.5 15t-39.5 -16t-15 -41t12 -40q-14 -18 -33 -18t-31.5 11.5t-12.5 29.5q0 41 39.5 72t87 31t80 -24t32.5 -67q0 -88 -163 -187l2 -3q8 1 26 1q92 0 130 27l4 27q0 6 13.5 6t13.5 -6q-8 -59 -8 -112q0 -6 -13 -6t-13 6v16h-239q-7 0 -7 6t7 11
q75 47 126.5 109.5t51.5 111.5z" />
    <glyph glyph-name="threequarters" unicode="&#xbe;" horiz-adv-x="763" 
d="M194 -9q-16 -24 -27.5 -24t-28.5 17l487 698q13 19 23 19q15 0 32 -17zM115.5 326q20.5 -23 55 -23t57.5 27.5t23 63.5q0 75 -76 93q-21 -8 -31.5 -18.5t-9.5 -17.5v-7q-3 -1 -7 -1q-17 0 -17 15t16.5 29t37 24t37 31.5t16.5 49.5q0 52 -52 52q-22 0 -36 -12t-14 -27
t7 -28q-12 -21 -28 -21q-35 0 -35 32q0 35 40 59.5t78.5 24.5t71 -19t32.5 -49q0 -54 -80 -99v-1q54 -12 80 -38t26 -60q0 -56 -41 -93t-100.5 -37t-86 19.5t-26.5 39.5q0 39 32 39q6 0 9 -1q1 -24 21.5 -47zM607 -64l-76 -2q-6 0 -6 10.5t4 10.5h29q11 0 11 17v85h-153
q-8 0 -8 12t8 21l197 239q25 0 25 -15q0 -3 -2 -24q-5 -51 -5 -156v-43h52q10 0 10 -17t-10 -17h-52v-100l29 1q6 0 6 -11t-4 -11h-55zM569 90v90l2 49h-3l-115 -139h116z" />
    <glyph glyph-name="questiondown" unicode="&#xbf;" horiz-adv-x="406" 
d="M291 247l7 -158q0 -20 -48 -20q-83 0 -101.5 -9t-31.5 -20q-25 -20 -25 -70t43.5 -93t99.5 -43q37 0 85 38q41 -13 41 -55q0 -25 -18 -44t-48 -19q-99 0 -172 76t-73 178q0 71 47.5 111.5t119.5 40.5q11 0 33 -2q2 30 2 62t-2 45q9 8 21 8q20 0 20 -26zM225.5 438.5
q16.5 17.5 40 17.5t40.5 -16.5t17 -39.5t-15.5 -40.5t-39 -17.5t-41.5 15.5t-18 39.5t16.5 41.5z" />
    <glyph glyph-name="Agrave" unicode="&#xc0;" horiz-adv-x="655" 
d="M533 1l-127 -3q-9 0 -9 17t9 17h57q21 0 21 17q0 7 -38 119.5l-47 140.5h-181q-71 -226 -71 -261q0 -15 6 -15h72q11 0 11 -16.5t-13 -16.5l-129 1l-111 -3q-9 0 -9 17t9 17h50q22 0 33 22q42 91 106.5 271t88 238.5t23.5 65t-4 14.5t-4 10q0 8 14.5 8t27 7t16.5 16
q11 22 20 22q4 0 14 -30l201 -543q38 -100 53 -100h36q10 0 10 -16.5t-8 -16.5zM309 569q-31 -80 -78 -220h154q-67 203 -72 220h-4zM226 907q0 14 10 23t31.5 9t36 -14.5t49.5 -67.5t60.5 -81t25.5 -31q0 -9 -9.5 -9t-13.5 3q-122 84 -156 113t-34 55z" />
    <glyph glyph-name="Aacute" unicode="&#xc1;" horiz-adv-x="585" 
d="M264 736q-13 0 -13 9q0 3 21 26.5t51.5 65.5t41.5 61q25 41 64 41q15 0 25 -9t10 -23q0 -26 -34 -55t-156 -113q-5 -3 -10 -3zM533 1l-127 -3q-9 0 -9 17t9 17h57q21 0 21 17q0 7 -38 119.5l-47 140.5h-181q-71 -226 -71 -261q0 -15 6 -15h72q11 0 11 -16.5t-13 -16.5
l-129 1l-111 -3q-9 0 -9 17t9 17h50q22 0 33 22q42 91 106.5 271t88 238.5t23.5 65t-4 14.5t-4 10q0 8 14.5 8t27 7t16.5 16q11 22 20 22q4 0 14 -30l201 -543q38 -100 53 -100h36q10 0 10 -16.5t-8 -16.5zM309 569q-31 -80 -78 -220h154q-67 203 -72 220h-4z" />
    <glyph glyph-name="Acircumflex" unicode="&#xc2;" horiz-adv-x="655" 
d="M533 1l-127 -3q-9 0 -9 17t9 17h57q21 0 21 17q0 7 -38 119.5l-47 140.5h-181q-71 -226 -71 -261q0 -15 6 -15h72q11 0 11 -16.5t-13 -16.5l-129 1l-111 -3q-9 0 -9 17t9 17h50q22 0 33 22q42 91 106.5 271t88 238.5t23.5 65t-4 14.5t-4 10q0 8 14.5 8t27 7t16.5 16
q11 22 20 22q4 0 14 -30l201 -543q38 -100 53 -100h36q10 0 10 -16.5t-8 -16.5zM309 569q-31 -80 -78 -220h154q-67 203 -72 220h-4zM218 764q-9 -8 -18 -8t-12 8l114 147q11 14 26 14t29 -14l110 -147q-5 -7 -14 -7t-17 7l-107 90z" />
    <glyph glyph-name="Atilde" unicode="&#xc3;" horiz-adv-x="655" 
d="M533 1l-127 -3q-9 0 -9 17t9 17h57q21 0 21 17q0 7 -38 119.5l-47 140.5h-181q-71 -226 -71 -261q0 -15 6 -15h72q11 0 11 -16.5t-13 -16.5l-129 1l-111 -3q-9 0 -9 17t9 17h50q22 0 33 22q42 91 106.5 271t88 238.5t23.5 65t-4 14.5t-4 10q0 8 14.5 8t27 7t16.5 16
q11 22 20 22q4 0 14 -30l201 -543q38 -100 53 -100h36q10 0 10 -16.5t-8 -16.5zM309 569q-31 -80 -78 -220h154q-67 203 -72 220h-4zM187 768q-2 -8 -9.5 -8t-12.5 5t-5 14q3 67 35 98t69 31q22 0 56.5 -6.5t53.5 -6.5t31 1.5t26 7.5q28 14 36 61q1 8 11 8q15 0 15 -16
q0 -69 -32 -101t-72 -32q-20 0 -54.5 6.5t-63 6.5t-52.5 -13.5t-32 -55.5z" />
    <glyph glyph-name="Adieresis" unicode="&#xc4;" horiz-adv-x="655" 
d="M533 1l-127 -3q-9 0 -9 17t9 17h57q21 0 21 17q0 7 -38 119.5l-47 140.5h-181q-71 -226 -71 -261q0 -15 6 -15h72q11 0 11 -16.5t-13 -16.5l-129 1l-111 -3q-9 0 -9 17t9 17h50q22 0 33 22q42 91 106.5 271t88 238.5t23.5 65t-4 14.5t-4 10q0 8 14.5 8t27 7t16.5 16
q11 22 20 22q4 0 14 -30l201 -543q38 -100 53 -100h36q10 0 10 -16.5t-8 -16.5zM309 569q-31 -80 -78 -220h154q-67 203 -72 220h-4zM244 789q-22 0 -36.5 15.5t-14.5 37t15 35.5t35.5 14t36 -14.5t15.5 -35.5t-14.5 -36.5t-36.5 -15.5zM411 789q-22 0 -36.5 15.5
t-14.5 36.5t15.5 35.5t35.5 14.5t35.5 -14.5t15.5 -35.5t-14.5 -36.5t-36.5 -15.5z" />
    <glyph glyph-name="Aring" unicode="&#xc5;" horiz-adv-x="655" 
d="M533 1l-127 -3q-9 0 -9 17t9 17h57q21 0 21 17q0 7 -38 119.5l-47 140.5h-181q-71 -226 -71 -261q0 -15 6 -15h72q11 0 11 -16.5t-13 -16.5l-129 1l-111 -3q-9 0 -9 17t9 17h50q22 0 33 22q42 91 106.5 271t88 238.5t23.5 65t-4 14.5t-4 10q0 8 14.5 8t27 7t16.5 16
q11 22 20 22q4 0 14 -30l201 -543q38 -100 53 -100h36q10 0 10 -16.5t-8 -16.5zM309 569q-31 -80 -78 -220h154q-67 203 -72 220h-4zM404 785.5q-27 -26.5 -66 -26.5t-66.5 27t-27.5 64t27.5 63.5t65 26.5t66 -25.5t28.5 -64t-27 -65zM296 806q18 -18 42.5 -18t41.5 18.5
t17 43.5t-17.5 43.5t-43 18.5t-42 -18.5t-16.5 -44t18 -43.5z" />
    <glyph glyph-name="AE" unicode="&#xc6;" horiz-adv-x="881" 
d="M331 673l126 -2h290v21q0 9 14.5 9t14.5 -9q0 -100 10 -152q2 -8 -14 -8t-18 8q-16 63 -38 73q-53 20 -170 21q-20 -1 -26.5 -11t-6.5 -35v-236q62 1 121 6t64 8l10 59q1 7 12 7q21 0 19 -9q-5 -39 -5 -88t5 -88q2 -8 -14.5 -8t-16.5 6l-11 60q-6 3 -63.5 8.5t-120.5 6.5
v-192q-1 -14 -1 -26q0 -62 22 -62h51q155 2 212 42l7 55q2 8 17.5 8t15.5 -6l-9 -161q0 -7 -15.5 -7t-15.5 7v22h-247l-221 -2q-8 0 -8 17t8 17h40q25 0 33 9.5t8 36.5v242q-86 0 -156 -2q-125 -245 -125 -279q0 -6 3 -6h53q11 0 11 -16.5t-13 -16.5l-110 1l-99 -3
q-9 0 -9 17t9 17h38q50 0 218 323v2h1q144 278 147 283h-47q-8 0 -8 16.5t8 16.5zM410 352v254q-60 -101 -137 -251q117 -3 137 -3z" />
    <glyph glyph-name="Ccedilla" unicode="&#xc7;" horiz-adv-x="727" 
d="M644 139q2 11 17.5 11t15.5 -9l-8 -139q0 -8 -15.5 -8t-15.5 8v24q-98 -39 -192 -39q-36 0 -78 5l-15 -42h4q32 0 59 -14.5t27 -45t-23 -46.5t-51.5 -16t-57 14t-28.5 35.5t21 21.5q16 0 22 -14q-4 -5 -4 -13t12 -15t27.5 -7t27 9.5t11.5 26.5q0 43 -60 43q-4 0 -12 -0.5
t-12 -0.5l25 68q-133 24 -214 106.5t-81 204t60 208t152 128t188.5 41.5t172.5 -39v23q0 9 14.5 9t14.5 -9q0 -81 10 -148q2 -10 -15 -10t-18 10l-8 47q-78 72 -186.5 72t-184.5 -79.5t-76 -225t80.5 -224t201.5 -78.5q98 0 186 60z" />
    <glyph glyph-name="Egrave" unicode="&#xc8;" horiz-adv-x="614" 
d="M64 673l126 -2h290v21q0 9 14.5 9t14.5 -9q0 -100 10 -152q2 -8 -14 -8t-18 8q-16 63 -38 73q-53 20 -170 21q-20 -1 -26.5 -11t-6.5 -35v-236q62 1 121 6t64 8l10 59q1 7 12 7q21 0 19 -9q-5 -39 -5 -88t5 -88q2 -8 -14.5 -8t-16.5 6l-11 60q-6 3 -63.5 8.5t-120.5 6.5
v-192q0 -88 21 -88h51q155 2 212 42l7 55q2 8 17.5 8t15.5 -6l-9 -161q0 -7 -15.5 -7t-15.5 7v22h-247l-224 -2q-8 0 -8 17t8 17h43q25 0 33 9.5t8 36.5v474q0 88 -21 88h-58q-8 0 -8 16.5t8 16.5zM216 907q0 14 10 23t31.5 9t36 -14.5t49.5 -67.5t60.5 -81t25.5 -31
q0 -9 -9.5 -9t-13.5 3q-122 84 -156 113t-34 55z" />
    <glyph glyph-name="Eacute" unicode="&#xc9;" horiz-adv-x="614" 
d="M289 736q-13 0 -13 9q0 3 21 26.5t51.5 65.5t41.5 61q25 41 64 41q15 0 25 -9t10 -23q0 -26 -34 -55t-156 -113q-5 -3 -10 -3zM64 673l126 -2h290v21q0 9 14.5 9t14.5 -9q0 -100 10 -152q2 -8 -14 -8t-18 8q-16 63 -38 73q-53 20 -170 21q-20 -1 -26.5 -11t-6.5 -35v-236
q62 1 121 6t64 8l10 59q1 7 12 7q21 0 19 -9q-5 -39 -5 -88t5 -88q2 -8 -14.5 -8t-16.5 6l-11 60q-6 3 -63.5 8.5t-120.5 6.5v-192q0 -88 21 -88h51q155 2 212 42l7 55q2 8 17.5 8t15.5 -6l-9 -161q0 -7 -15.5 -7t-15.5 7v22h-247l-224 -2q-8 0 -8 17t8 17h43q25 0 33 9.5
t8 36.5v474q0 88 -21 88h-58q-8 0 -8 16.5t8 16.5z" />
    <glyph glyph-name="Ecircumflex" unicode="&#xca;" horiz-adv-x="614" 
d="M64 673l126 -2h290v21q0 9 14.5 9t14.5 -9q0 -100 10 -152q2 -8 -14 -8t-18 8q-16 63 -38 73q-53 20 -170 21q-20 -1 -26.5 -11t-6.5 -35v-236q62 1 121 6t64 8l10 59q1 7 12 7q21 0 19 -9q-5 -39 -5 -88t5 -88q2 -8 -14.5 -8t-16.5 6l-11 60q-6 3 -63.5 8.5t-120.5 6.5
v-192q0 -88 21 -88h51q155 2 212 42l7 55q2 8 17.5 8t15.5 -6l-9 -161q0 -7 -15.5 -7t-15.5 7v22h-247l-224 -2q-8 0 -8 17t8 17h43q25 0 33 9.5t8 36.5v474q0 88 -21 88h-58q-8 0 -8 16.5t8 16.5zM197 764q-9 -8 -18 -8t-12 8l114 147q11 14 26 14t29 -14l110 -147
q-5 -7 -14 -7t-17 7l-107 90z" />
    <glyph glyph-name="Edieresis" unicode="&#xcb;" horiz-adv-x="614" 
d="M64 673l126 -2h290v21q0 9 14.5 9t14.5 -9q0 -100 10 -152q2 -8 -14 -8t-18 8q-16 63 -38 73q-53 20 -170 21q-20 -1 -26.5 -11t-6.5 -35v-236q62 1 121 6t64 8l10 59q1 7 12 7q21 0 19 -9q-5 -39 -5 -88t5 -88q2 -8 -14.5 -8t-16.5 6l-11 60q-6 3 -63.5 8.5t-120.5 6.5
v-192q0 -88 21 -88h51q155 2 212 42l7 55q2 8 17.5 8t15.5 -6l-9 -161q0 -7 -15.5 -7t-15.5 7v22h-247l-224 -2q-8 0 -8 17t8 17h43q25 0 33 9.5t8 36.5v474q0 88 -21 88h-58q-8 0 -8 16.5t8 16.5zM223 789q-22 0 -36.5 15.5t-14.5 37t15 35.5t35.5 14t36 -14.5t15.5 -35.5
t-14.5 -36.5t-36.5 -15.5zM390 789q-22 0 -36.5 15.5t-14.5 36.5t15.5 35.5t35.5 14.5t35.5 -14.5t15.5 -35.5t-14.5 -36.5t-36.5 -15.5z" />
    <glyph glyph-name="Igrave" unicode="&#xcc;" horiz-adv-x="384" 
d="M190 672l140 3q8 0 8 -17t-8 -17h-43q-25 0 -33 -9.5t-8 -36.5v-474q0 -88 21 -88h58q8 0 8 -16.5t-8 -16.5l-126 1l-140 -3q-8 0 -8 17t8 17h43q25 0 33 9.5t8 36.5v474q0 88 -21 88h-58q-8 0 -8 16.5t8 16.5zM86 907q0 14 10 23t31.5 9t36 -14.5t49.5 -67.5t60.5 -81
t25.5 -31q0 -9 -9.5 -9t-13.5 3q-122 84 -156 113t-34 55z" />
    <glyph glyph-name="Iacute" unicode="&#xcd;" horiz-adv-x="392" 
d="M152 739q-4 -3 -13.5 -3t-9.5 9q0 3 21 26.5t51.5 65.5t41.5 61q25 41 64 41q15 0 25 -9t10 -23q0 -26 -34 -55t-156 -113zM190 672l140 3q8 0 8 -17t-8 -17h-43q-25 0 -33 -9.5t-8 -36.5v-474q0 -88 21 -88h58q8 0 8 -16.5t-8 -16.5l-126 1l-140 -3q-8 0 -8 17t8 17h43
q25 0 33 9.5t8 36.5v474q0 88 -21 88h-58q-8 0 -8 16.5t8 16.5z" />
    <glyph glyph-name="Icircumflex" unicode="&#xce;" horiz-adv-x="384" 
d="M190 672l140 3q8 0 8 -17t-8 -17h-43q-25 0 -33 -9.5t-8 -36.5v-474q0 -88 21 -88h58q8 0 8 -16.5t-8 -16.5l-126 1l-140 -3q-8 0 -8 17t8 17h43q25 0 33 9.5t8 36.5v474q0 88 -21 88h-58q-8 0 -8 16.5t8 16.5zM83 764q-9 -8 -18 -8t-12 8l114 147q11 14 26 14t29 -14
l110 -147q-5 -7 -14 -7t-17 7l-107 90z" />
    <glyph glyph-name="Idieresis" unicode="&#xcf;" horiz-adv-x="384" 
d="M190 672l140 3q8 0 8 -17t-8 -17h-43q-25 0 -33 -9.5t-8 -36.5v-474q0 -88 21 -88h58q8 0 8 -16.5t-8 -16.5l-126 1l-140 -3q-8 0 -8 17t8 17h43q25 0 33 9.5t8 36.5v474q0 88 -21 88h-58q-8 0 -8 16.5t8 16.5zM109 789q-22 0 -36.5 15.5t-14.5 37t15 35.5t35.5 14
t36 -14.5t15.5 -35.5t-14.5 -36.5t-36.5 -15.5zM276 789q-22 0 -36.5 15.5t-14.5 36.5t15.5 35.5t35.5 14.5t35.5 -14.5t15.5 -35.5t-14.5 -36.5t-36.5 -15.5z" />
    <glyph glyph-name="Eth" unicode="&#xd0;" horiz-adv-x="780" 
d="M59 673l132 -2h136q186 0 296.5 -92.5t110.5 -244.5t-110 -243t-278 -91h-117l-170 -2q-8 0 -8 17t8 17h43q25 0 33 9.5t8 36.5v257h-38q-17 0 -26 11t-10 22l-1 11h75v175q0 85 -21 85h-63q-9 0 -9 17t9 17zM281 631q-35 0 -35 -41v-210l129 3q47 0 47 -42v-7h-176v-206
q0 -88 21 -88l82 1q124 2 197.5 74.5t73.5 204t-81 216t-255 95.5h-3z" />
    <glyph glyph-name="Ntilde" unicode="&#xd1;" horiz-adv-x="820" 
d="M278 773q-2 -8 -9 -8t-12.5 5.5t-5.5 13.5q3 67 31 94t57.5 27t64 -6.5t54 -6.5t29.5 1t23 7q26 11 34 59q1 8 9.5 8t13 -5t3.5 -13q-5 -120 -98 -120q-20 0 -54.5 6.5t-62 6.5t-48.5 -13.5t-29 -55.5zM664 671l118 3q9 0 9 -16.5t-9 -16.5h-47q-20 0 -26 -9
q-23 -34 -25 -644q-2 -7 -16 -7t-21 7l-460 551h-4q4 -364 6 -435t21 -71h55q9 0 9 -16.5t-9 -16.5l-106 1l-119 -3q-7 0 -7 17t7 17h33q23 0 33 5.5t11 21.5q20 225 20 538l-7 8q-20 23 -35.5 29.5t-57.5 6.5q-6 0 -6 16t6 16l181 -2q356 -446 414 -524h4q-6 397 -10 445
t-23 48h-48q-9 0 -9 16.5t9 16.5z" />
    <glyph glyph-name="Ograve" unicode="&#xd2;" horiz-adv-x="824" 
d="M412 684q150 0 257 -102t107 -246.5t-107 -246.5t-257 -102t-257 102t-107 246.5t107 246.5t257 102zM412 638q-105 0 -171.5 -87t-66.5 -215.5t66.5 -215.5t171.5 -87t171.5 87t66.5 215.5t-66.5 215.5t-171.5 87zM316 907q0 14 10 23t31.5 9t36 -14.5t49.5 -67.5
t60.5 -81t25.5 -31q0 -9 -9.5 -9t-13.5 3q-122 84 -156 113t-34 55z" />
    <glyph glyph-name="Oacute" unicode="&#xd3;" horiz-adv-x="824" 
d="M385 736q-13 0 -13 9q0 3 21 26.5t51.5 65.5t41.5 61q25 41 64 41q15 0 25 -9t10 -23q0 -26 -34 -55t-156 -113q-5 -3 -10 -3zM412 684q150 0 257 -102t107 -246.5t-107 -246.5t-257 -102t-257 102t-107 246.5t107 246.5t257 102zM412 638q-105 0 -171.5 -87
t-66.5 -215.5t66.5 -215.5t171.5 -87t171.5 87t66.5 215.5t-66.5 215.5t-171.5 87z" />
    <glyph glyph-name="Ocircumflex" unicode="&#xd4;" horiz-adv-x="824" 
d="M412 684q150 0 257 -102t107 -246.5t-107 -246.5t-257 -102t-257 102t-107 246.5t107 246.5t257 102zM412 638q-105 0 -171.5 -87t-66.5 -215.5t66.5 -215.5t171.5 -87t171.5 87t66.5 215.5t-66.5 215.5t-171.5 87zM322 764q-9 -8 -18 -8t-12 8l114 147q11 14 26 14
t29 -14l110 -147q-5 -7 -14 -7t-17 7l-107 90z" />
    <glyph glyph-name="Otilde" unicode="&#xd5;" horiz-adv-x="824" 
d="M412 684q150 0 257 -102t107 -246.5t-107 -246.5t-257 -102t-257 102t-107 246.5t107 246.5t257 102zM412 638q-105 0 -171.5 -87t-66.5 -215.5t66.5 -215.5t171.5 -87t171.5 87t66.5 215.5t-66.5 215.5t-171.5 87zM272 773q-2 -8 -9 -8t-12.5 5.5t-5.5 13.5q3 67 35 98
t69 31q22 0 56.5 -6.5t53.5 -6.5t31 1.5t26 8.5q28 13 36 60q1 8 10 8q16 0 16 -15q0 -70 -32 -102t-72 -32q-20 0 -54.5 6.5t-63 6.5t-52.5 -13.5t-32 -55.5z" />
    <glyph glyph-name="Odieresis" unicode="&#xd6;" horiz-adv-x="824" 
d="M412 684q150 0 257 -102t107 -246.5t-107 -246.5t-257 -102t-257 102t-107 246.5t107 246.5t257 102zM412 638q-105 0 -171.5 -87t-66.5 -215.5t66.5 -215.5t171.5 -87t171.5 87t66.5 215.5t-66.5 215.5t-171.5 87zM328 789q-22 0 -36.5 15.5t-14.5 37t15 35.5t35.5 14
t36 -14.5t15.5 -35.5t-14.5 -36.5t-36.5 -15.5zM495 789q-22 0 -36.5 15.5t-14.5 36.5t15.5 35.5t35.5 14.5t35.5 -14.5t15.5 -35.5t-14.5 -36.5t-36.5 -15.5z" />
    <glyph glyph-name="multiply" unicode="&#xd7;" 
d="M468 81q-17 -25 -28 -25t-28 15l-152 154l-152 -154q-17 -15 -23.5 -15h-8.5q-9 2 -24 25l176 175l-183 182q10 26 28 26q12 0 25 -13l162 -164l162 164q13 13 20 13t11.5 -1.5t10.5 -7.5t11 -17l-184 -182z" />
    <glyph glyph-name="Oslash" unicode="&#xd8;" horiz-adv-x="824" 
d="M776 336q0 -145 -107 -247t-257 -102q-62 0 -117 18l-63 -118q-12 -24 -25.5 -24t-30.5 17l76 142q-92 44 -148 128t-56 186q0 144 107 246t257 102q92 0 173 -43l57 105q11 20 21 20q18 0 33 -17l-71 -132q70 -48 110.5 -122t40.5 -159zM412 638q-105 0 -171.5 -87
t-66.5 -215q0 -82 28.5 -150t79.5 -108l272 504q-62 56 -142 56zM583.5 120q66.5 87 66.5 214t-63 212l-266 -493q43 -20 91 -20q105 0 171.5 87z" />
    <glyph glyph-name="Ugrave" unicode="&#xd9;" horiz-adv-x="782" 
d="M631 672l108 3q8 0 8 -17t-8 -17h-30q-25 0 -32.5 -9.5t-9.5 -36.5q-9 -135 -9 -340q0 -126 -78 -197t-185.5 -71t-185 66.5t-77.5 187.5v311q0 88 -21 88h-58q-8 0 -8 16.5t8 16.5l126 -1l140 3q8 0 8 -17t-8 -17h-43q-25 0 -33 -9.5t-8 -36.5v-326q0 -106 52.5 -159.5
t134.5 -53.5t130.5 59.5t48.5 174.5q0 159 -4 254.5t-23 95.5h-56q-8 0 -8 16.5t8 16.5zM286 907q0 14 10 23t31.5 9t36 -14.5t49.5 -67.5t60.5 -81t25.5 -31q0 -9 -9.5 -9t-13.5 3q-122 84 -156 113t-34 55z" />
    <glyph glyph-name="Uacute" unicode="&#xda;" horiz-adv-x="782" 
d="M381 736q-13 0 -13 9q0 3 21 26.5t51.5 65.5t41.5 61q25 41 64 41q15 0 25 -9t10 -23q0 -26 -34 -55t-156 -113q-5 -3 -10 -3zM631 672l108 3q8 0 8 -17t-8 -17h-30q-25 0 -32.5 -9.5t-9.5 -36.5q-9 -135 -9 -340q0 -126 -78 -197t-185.5 -71t-185 66.5t-77.5 187.5v311
q0 88 -21 88h-58q-8 0 -8 16.5t8 16.5l126 -1l140 3q8 0 8 -17t-8 -17h-43q-25 0 -33 -9.5t-8 -36.5v-326q0 -106 52.5 -159.5t134.5 -53.5t130.5 59.5t48.5 174.5q0 159 -4 254.5t-23 95.5h-56q-8 0 -8 16.5t8 16.5z" />
    <glyph glyph-name="Ucircumflex" unicode="&#xdb;" horiz-adv-x="782" 
d="M631 672l108 3q8 0 8 -17t-8 -17h-30q-25 0 -32.5 -9.5t-9.5 -36.5q-9 -135 -9 -340q0 -126 -78 -197t-185.5 -71t-185 66.5t-77.5 187.5v311q0 88 -21 88h-58q-8 0 -8 16.5t8 16.5l126 -1l140 3q8 0 8 -17t-8 -17h-43q-25 0 -33 -9.5t-8 -36.5v-326q0 -106 52.5 -159.5
t134.5 -53.5t130.5 59.5t48.5 174.5q0 159 -4 254.5t-23 95.5h-56q-8 0 -8 16.5t8 16.5zM321 764q-9 -8 -18 -8t-12 8l114 147q11 14 26 14t29 -14l110 -147q-5 -7 -14 -7t-17 7l-107 90z" />
    <glyph glyph-name="Udieresis" unicode="&#xdc;" horiz-adv-x="782" 
d="M631 672l108 3q8 0 8 -17t-8 -17h-30q-25 0 -32.5 -9.5t-9.5 -36.5q-9 -135 -9 -340q0 -126 -78 -197t-185.5 -71t-185 66.5t-77.5 187.5v311q0 88 -21 88h-58q-8 0 -8 16.5t8 16.5l126 -1l140 3q8 0 8 -17t-8 -17h-43q-25 0 -33 -9.5t-8 -36.5v-326q0 -106 52.5 -159.5
t134.5 -53.5t130.5 59.5t48.5 174.5q0 159 -4 254.5t-23 95.5h-56q-8 0 -8 16.5t8 16.5zM347 789q-22 0 -36.5 15.5t-14.5 37t15 35.5t35.5 14t36 -14.5t15.5 -35.5t-14.5 -36.5t-36.5 -15.5zM514 789q-22 0 -36.5 15.5t-14.5 36.5t15.5 35.5t35.5 14.5t35.5 -14.5
t15.5 -35.5t-14.5 -36.5t-36.5 -15.5z" />
    <glyph glyph-name="Yacute" unicode="&#xdd;" horiz-adv-x="606" 
d="M318 739q-4 -3 -13.5 -3t-9.5 9q0 3 21 26.5t51.5 65.5t41.5 61q25 41 64 41q15 0 25 -9t10 -23q0 -26 -34 -55t-156 -113zM310 1l-138 -3q-8 0 -8 17t8 17h43q25 0 33 9.5t8 36.5v224q1 41 -201 275q-33 39 -51 51.5t-33 12.5h-32q-7 0 -7 16t7 16l124 -2l141 2
q9 0 9 -16.5t-9 -16.5h-70q0 -4 36 -47q116 -136 154 -214h3q21 36 89.5 121.5t77 102.5t8.5 26q0 12 -11 12h-39q-9 0 -9 16t9 16l118 -2l111 2q10 0 10 -16.5t-10 -16.5h-25q-25 0 -43 -16q-73 -61 -165.5 -165t-92.5 -138v-216q0 -72 21 -72h58q8 0 8 -16.5t-8 -16.5z
" />
    <glyph glyph-name="Thorn" unicode="&#xde;" horiz-adv-x="583" 
d="M190 672l142 3q8 0 8 -17t-8 -17h-30q-25 0 -32.5 -8.5t-9.5 -34.5t-4 -62h49q125 0 188 -50.5t63 -124t-57.5 -131.5t-145.5 -58q-58 0 -111 24v-75q0 -88 21 -88h58q8 0 8 -16.5t-8 -16.5l-122 1l-140 -3q-8 0 -8 17t8 17h43q25 0 33 9.5t8 36.5v474q0 88 -21 88h-58
q-8 0 -8 16.5t8 16.5zM408 260.5q40 38.5 40 94.5t-43 98.5t-123 42.5q-30 0 -30 -19q-7 -127 -10 -249q26 -6 57 -6q69 0 109 38.5z" />
    <glyph glyph-name="germandbls" unicode="&#xdf;" horiz-adv-x="802" 
d="M332 485l21 -110q0 -8 -12 -8t-15 8q-13 37 -41 61t-60.5 24.5t-57 -18.5t-24.5 -46.5t16.5 -50t40.5 -38.5l53 -36.5t53 -40.5t40.5 -52t16.5 -69q0 -58 -51 -90t-110.5 -32t-109.5 23q0 -12 -1.5 -15t-10.5 -4h-4q-8 0 -9 8q-2 24 -8 66t-9 68q0 10 12.5 10t13.5 -5
q14 -49 49 -84.5t73 -35.5t63 18.5t25 51.5t-22.5 60.5t-54.5 49.5l-64 44.5t-54.5 55.5t-22.5 72q0 56 47.5 89t112.5 33q37 0 79 -14q-2 6 -2 14.5t9.5 8.5t12.5 -2.5t5 -13.5zM718 485l21 -110q0 -8 -12 -8t-15 8q-13 37 -41 61t-60.5 24.5t-57 -18.5t-24.5 -46.5
t16.5 -50t40.5 -38.5l53 -36.5t53 -40.5t40.5 -52t16.5 -69q0 -58 -51 -90t-110.5 -32t-109.5 23q0 -12 -1.5 -15t-10.5 -4h-4q-8 0 -9 8q-2 24 -8 66t-9 68q0 10 12.5 10t13.5 -5q14 -49 49 -84.5t73 -35.5t63 18.5t25 51.5t-22.5 60.5t-54.5 49.5l-64 44.5t-54.5 55.5
t-22.5 72q0 56 47.5 89t112.5 33q37 0 79 -14q-2 6 -2 14.5t9.5 8.5t12.5 -2.5t5 -13.5z" />
    <glyph glyph-name="agrave" unicode="&#xe0;" horiz-adv-x="471" 
d="M129 705q0 14 10 23t31.5 9t36 -14.5t49.5 -67.5t60.5 -81t25.5 -31q0 -9 -13 -9q-5 0 -10 3q-122 84 -156 113t-34 55zM50 0l-79 -2q-7 0 -7 13t7 13h32q11 0 16 9q23 38 92 202.5t99 249.5q4 9 19.5 9t19.5 -10q12 -50 70.5 -189t102.5 -232q12 -24 22 -31t31 -7
q6 0 6 -13.5t-5 -13.5l-96 2l-108 -2q-6 0 -6 13t6 13h48q11 0 11 9q0 1 -56 154h-139q-49 -121 -49 -141.5t12 -20.5h41q8 0 8 -13.5t-6 -13.5zM262 221l-52 152h-3q-24 -69 -57 -152h112z" />
    <glyph glyph-name="aacute" unicode="&#xe1;" horiz-adv-x="471" 
d="M50 0l-79 -2q-7 0 -7 13t7 13h32q11 0 16 9q23 38 92 202.5t99 249.5q4 9 19.5 9t19.5 -10q12 -50 70.5 -189t102.5 -232q12 -24 22 -31t31 -7q6 0 6 -13.5t-5 -13.5l-96 2l-108 -2q-6 0 -6 13t6 13h48q11 0 11 9q0 1 -56 154h-139q-49 -121 -49 -141.5t12 -20.5h41
q8 0 8 -13.5t-6 -13.5zM262 221l-52 152h-3q-24 -69 -57 -152h112zM137 534q-13 0 -13 9q0 3 21.5 26t56.5 67l50 63q34 45 72 45q15 0 25 -9t10 -23q0 -26 -57 -69l-155 -106q-5 -3 -10 -3z" />
    <glyph glyph-name="acircumflex" unicode="&#xe2;" horiz-adv-x="471" 
d="M126 530q-9 -8 -18 -8t-12 8l114 147q11 14 26 14t29 -14l110 -147q-5 -7 -14 -7t-17 7l-107 90zM50 0l-79 -2q-7 0 -7 13t7 13h32q11 0 16 9q23 38 92 202.5t99 249.5q4 9 19.5 9t19.5 -10q12 -50 70.5 -189t102.5 -232q12 -24 22 -31t31 -7q6 0 6 -13.5t-5 -13.5l-96 2
l-108 -2q-6 0 -6 13t6 13h48q11 0 11 9q0 1 -56 154h-139q-49 -121 -49 -141.5t12 -20.5h41q8 0 8 -13.5t-6 -13.5zM262 221l-52 152h-3q-24 -69 -57 -152h112z" />
    <glyph glyph-name="atilde" unicode="&#xe3;" horiz-adv-x="471" 
d="M95 534q-2 -8 -9.5 -8t-12.5 5t-5 14q3 67 35 98t69 31q22 0 56.5 -6.5t53.5 -6.5t31 1.5t26 7.5q28 14 36 61q1 8 11 8q16 0 15 -18q-3 -70 -33.5 -100.5t-70.5 -30.5q-20 0 -54.5 6.5t-63 6.5t-52.5 -13.5t-32 -55.5zM50 0l-79 -2q-7 0 -7 13t7 13h32q11 0 16 9
q23 38 92 202.5t99 249.5q4 9 19.5 9t19.5 -10q12 -50 70.5 -189t102.5 -232q12 -24 22 -31t31 -7q6 0 6 -13.5t-5 -13.5l-96 2l-108 -2q-6 0 -6 13t6 13h48q11 0 11 9q0 1 -56 154h-139q-49 -121 -49 -141.5t12 -20.5h41q8 0 8 -13.5t-6 -13.5zM262 221l-52 152h-3
q-24 -69 -57 -152h112z" />
    <glyph glyph-name="adieresis" unicode="&#xe4;" horiz-adv-x="471" 
d="M152 555q-22 0 -36.5 15.5t-14.5 37t15 35.5t35.5 14t36 -14.5t15.5 -35.5t-14.5 -36.5t-36.5 -15.5zM319 555q-22 0 -36.5 15.5t-14.5 36.5t15.5 35.5t35.5 14.5t35.5 -14.5t15.5 -35.5t-14.5 -36.5t-36.5 -15.5zM50 0l-79 -2q-7 0 -7 13t7 13h32q11 0 16 9
q23 38 92 202.5t99 249.5q4 9 19.5 9t19.5 -10q12 -50 70.5 -189t102.5 -232q12 -24 22 -31t31 -7q6 0 6 -13.5t-5 -13.5l-96 2l-108 -2q-6 0 -6 13t6 13h48q11 0 11 9q0 1 -56 154h-139q-49 -121 -49 -141.5t12 -20.5h41q8 0 8 -13.5t-6 -13.5zM262 221l-52 152h-3
q-24 -69 -57 -152h112z" />
    <glyph glyph-name="aring" unicode="&#xe5;" horiz-adv-x="471" 
d="M50 0l-79 -2q-7 0 -7 13t7 13h32q11 0 16 9q23 38 92 202.5t99 249.5q4 9 19.5 9t19.5 -10q12 -50 70.5 -189t102.5 -232q12 -24 22 -31t31 -7q6 0 6 -13.5t-5 -13.5l-96 2l-108 -2q-6 0 -6 13t6 13h48q11 0 11 9q0 1 -56 154h-139q-49 -121 -49 -141.5t12 -20.5h41
q8 0 8 -13.5t-6 -13.5zM262 221l-52 152h-3q-24 -69 -57 -152h112zM286 551.5q-27 -26.5 -66 -26.5t-66.5 27t-27.5 64t27.5 63.5t65 26.5t66 -25.5t28.5 -64t-27 -65zM178 572q18 -18 42.5 -18t41.5 18.5t17 43.5t-17.5 43.5t-43 18.5t-42 -18.5t-16.5 -44t18 -43.5z" />
    <glyph glyph-name="ae" unicode="&#xe6;" horiz-adv-x="716" 
d="M263 483l137 -2h207v16q0 6 13.5 6t13.5 -6q0 -79 7 -113q2 -6 -11 -6q-17 0 -17 6q-14 46 -27 52q-42 15 -122 15q-14 -1 -19 -8t-5 -25v-155q126 4 128 5l7 42q2 5 14.5 5t12.5 -7q-4 -29 -4 -64.5t4 -64.5q0 -6 -13.5 -6t-13.5 4l-8 43q-12 7 -127 11v-124
q0 -75 20 -75h32q110 2 152 31l5 39q1 6 10 6h12q6 -2 6 -6q-6 -42 -6 -118q0 -5 -13.5 -5t-13.5 5v16h-178l-170 -2q-7 0 -7 15t6 15h45q11 0 13 4.5t2 24.5v174l-128 1q-15 -25 -48 -70l-55.5 -76.5t-22.5 -39.5q0 -20 12 -20l29 -1q8 0 8 -13.5t-6 -13.5l-92 2l-85 -2
q-7 0 -7 13t7 13h32q15 0 23 12.5t70 93.5q166 217 207 310q1 5 1 8.5t-14 3.5l-25 1q-8 1 -8.5 5t1.5 10t1.5 9t0.5 4.5t7 1.5zM355 373q0 54 -7 66l-100 -173l107 -4v111z" />
    <glyph glyph-name="ccedilla" unicode="&#xe7;" horiz-adv-x="525" 
d="M40 224q0 120 86 195t205 75q58 0 114 -29v17q0 7 12.5 7t12.5 -7q0 -63 10 -131q1 -3 -3.5 -5.5t-13.5 -2.5t-11 8l-8 53q-56 53 -128.5 53t-124 -62t-51.5 -155t54 -154.5t127 -61.5t138 43l5 57q0 8 14 8t14 -7l-6 -127q0 -6 -13.5 -6t-13.5 6v17q-69 -28 -137 -28
l-13 -37h4q32 0 59 -14.5t27 -45t-23 -46.5t-51.5 -16t-57 14t-28.5 35.5t21 21.5q16 0 22 -14q-4 -5 -4 -13t12 -15t27 -7t27 9.5t12 26.5q0 43 -60 43q-4 0 -12 -0.5t-12 -0.5l22 60q-112 8 -183 71.5t-71 164.5z" />
    <glyph glyph-name="egrave" unicode="&#xe8;" horiz-adv-x="466" 
d="M118 705q0 14 10 23t31.5 9t36 -14.5t49.5 -67.5t60.5 -81t25.5 -31q0 -9 -9.5 -9t-13.5 3q-122 84 -156 113t-34 55zM49 483l102 -2h207v16q0 6 13.5 6t13.5 -6q0 -79 7 -113q2 -6 -11 -6q-17 0 -17 6q-14 46 -27 52q-42 15 -122 15q-14 -1 -19 -8t-5 -25v-164
q121 4 133 11l7 42q2 5 14.5 5t12.5 -7q-4 -29 -4 -64.5t4 -64.5q0 -6 -13.5 -6t-13.5 4l-8 43q-12 7 -132 11v-121q0 -75 20 -75h32q110 2 152 31l5 39q2 6 10.5 6h11.5q6 -2 6 -6q-6 -42 -6 -118q0 -5 -13.5 -5t-13.5 5v16h-178l-170 -2q-7 0 -7 15t6 15h45q11 0 13 4.5
t2 24.5v315q0 80 -20 80h-36q-12 0 -12 15.5t11 15.5z" />
    <glyph glyph-name="eacute" unicode="&#xe9;" horiz-adv-x="466" 
d="M181 534q-13 0 -13 9q0 3 21.5 26t56.5 67l50 63q34 45 72 45q15 0 25 -9t10 -23q0 -26 -57 -69l-155 -106q-5 -3 -10 -3zM49 483l102 -2h207v16q0 6 13.5 6t13.5 -6q0 -79 7 -113q2 -6 -11 -6q-17 0 -17 6q-14 46 -27 52q-42 15 -122 15q-14 -1 -19 -8t-5 -25v-164
q121 4 133 11l7 42q2 5 14.5 5t12.5 -7q-4 -29 -4 -64.5t4 -64.5q0 -6 -13.5 -6t-13.5 4l-8 43q-12 7 -132 11v-121q0 -75 20 -75h32q110 2 152 31l5 39q2 6 10.5 6h11.5q6 -2 6 -6q-6 -42 -6 -118q0 -5 -13.5 -5t-13.5 5v16h-178l-170 -2q-7 0 -7 15t6 15h45q11 0 13 4.5
t2 24.5v315q0 80 -20 80h-36q-12 0 -12 15.5t11 15.5z" />
    <glyph glyph-name="ecircumflex" unicode="&#xea;" horiz-adv-x="466" 
d="M104 530q-9 -8 -18 -8t-12 8l114 147q11 14 26 14t29 -14l110 -147q-5 -7 -14 -7t-17 7l-107 90zM49 483l102 -2h207v16q0 6 13.5 6t13.5 -6q0 -79 7 -113q2 -6 -11 -6q-17 0 -17 6q-14 46 -27 52q-42 15 -122 15q-14 -1 -19 -8t-5 -25v-164q121 4 133 11l7 42
q2 5 14.5 5t12.5 -7q-4 -29 -4 -64.5t4 -64.5q0 -6 -13.5 -6t-13.5 4l-8 43q-12 7 -132 11v-121q0 -75 20 -75h32q110 2 152 31l5 39q2 6 10.5 6h11.5q6 -2 6 -6q-6 -42 -6 -118q0 -5 -13.5 -5t-13.5 5v16h-178l-170 -2q-7 0 -7 15t6 15h45q11 0 13 4.5t2 24.5v315
q0 80 -20 80h-36q-12 0 -12 15.5t11 15.5z" />
    <glyph glyph-name="edieresis" unicode="&#xeb;" horiz-adv-x="466" 
d="M157 555q-22 0 -36.5 15.5t-14.5 37t15 35.5t35.5 14t36 -14.5t15.5 -35.5t-14.5 -36.5t-36.5 -15.5zM324 555q-22 0 -36.5 15.5t-14.5 36.5t15.5 35.5t35.5 14.5t35.5 -14.5t15.5 -35.5t-14.5 -36.5t-36.5 -15.5zM49 483l102 -2h207v16q0 6 13.5 6t13.5 -6q0 -79 7 -113
q2 -6 -11 -6q-17 0 -17 6q-14 46 -27 52q-42 15 -122 15q-14 -1 -19 -8t-5 -25v-164q121 4 133 11l7 42q2 5 14.5 5t12.5 -7q-4 -29 -4 -64.5t4 -64.5q0 -6 -13.5 -6t-13.5 4l-8 43q-12 7 -132 11v-121q0 -75 20 -75h32q110 2 152 31l5 39q2 6 10.5 6h11.5q6 -2 6 -6
q-6 -42 -6 -118q0 -5 -13.5 -5t-13.5 5v16h-178l-170 -2q-7 0 -7 15t6 15h45q11 0 13 4.5t2 24.5v315q0 80 -20 80h-36q-12 0 -12 15.5t11 15.5z" />
    <glyph glyph-name="igrave" unicode="&#xec;" horiz-adv-x="298" 
d="M29 705q0 14 10 23t31.5 9t36 -14.5t49.5 -67.5t60.5 -81t25.5 -31q0 -9 -13 -9q-5 0 -10 3q-122 84 -156 113t-34 55zM49 483l79 -2h19l104 2q7 0 7 -14.5t-8 -14.5h-46q-13 0 -13 -16v-331q0 -76 20 -76h50q8 0 8 -15.5t-6 -15.5l-116 1l-100 -3q-7 0 -7 15t6 15h45
q11 0 13 4.5t2 24.5v315q0 80 -20 80h-36q-12 0 -12 15.5t11 15.5z" />
    <glyph glyph-name="iacute" unicode="&#xed;" horiz-adv-x="298" 
d="M65 534q-13 0 -13 9q0 3 21.5 26t56.5 67l50 63q34 45 72 45q15 0 25 -9t10 -23q0 -26 -57 -69l-155 -106q-5 -3 -10 -3zM49 483l79 -2h19l104 2q7 0 7 -14.5t-8 -14.5h-46q-13 0 -13 -16v-331q0 -76 20 -76h50q8 0 8 -15.5t-6 -15.5l-116 1l-100 -3q-7 0 -7 15t6 15h45
q11 0 13 4.5t2 24.5v315q0 80 -20 80h-36q-12 0 -12 15.5t11 15.5z" />
    <glyph glyph-name="icircumflex" unicode="&#xee;" horiz-adv-x="298" 
d="M40 530q-9 -8 -18 -8t-12 8l114 147q11 14 26 14t29 -14l110 -147q-5 -7 -14 -7t-17 7l-107 90zM49 483l79 -2h19l104 2q7 0 7 -14.5t-8 -14.5h-46q-13 0 -13 -16v-331q0 -76 20 -76h50q8 0 8 -15.5t-6 -15.5l-116 1l-100 -3q-7 0 -7 15t6 15h45q11 0 13 4.5t2 24.5v315
q0 80 -20 80h-36q-12 0 -12 15.5t11 15.5z" />
    <glyph glyph-name="idieresis" unicode="&#xef;" horiz-adv-x="298" 
d="M66 555q-22 0 -36.5 15.5t-14.5 37t15 35.5t35.5 14t36 -14.5t15.5 -35.5t-14.5 -36.5t-36.5 -15.5zM233 555q-22 0 -36.5 15.5t-14.5 36.5t15.5 35.5t35.5 14.5t35.5 -14.5t15.5 -35.5t-14.5 -36.5t-36.5 -15.5zM49 483l79 -2h19l104 2q7 0 7 -14.5t-8 -14.5h-46
q-13 0 -13 -16v-331q0 -76 20 -76h50q8 0 8 -15.5t-6 -15.5l-116 1l-100 -3q-7 0 -7 15t6 15h45q11 0 13 4.5t2 24.5v315q0 80 -20 80h-36q-12 0 -12 15.5t11 15.5z" />
    <glyph glyph-name="eth" unicode="&#xf0;" horiz-adv-x="580" 
d="M154 0l-107 -2q-7 0 -7 15t5 15h49q12 0 12 17v185h-22q-17 0 -26 10.5t-10 21.5l-1 10h59v101q0 79 -22 79h-35q-11 0 -11 15.5t9 15.5q52 -2 105 -2h97q130 0 210.5 -70.5t80.5 -175.5t-78.5 -170t-198.5 -65h-109zM215 451q-24 0 -24 -29v-148l81 2q27 0 37 -10
t10 -21.5v-15.5h-128v-119q0 -78 21 -78h36q92 0 141.5 52t49.5 145.5t-54 155.5t-167 66h-3z" />
    <glyph glyph-name="ntilde" unicode="&#xf1;" horiz-adv-x="600" 
d="M499 481l92 2q6 0 6 -14.5t-6 -14.5h-35q-14 0 -18 -7q-18 -31 -18 -450q0 -10 -16.5 -10t-23.5 7l-322 386h-3q3 -177 6 -296q0 -52 15 -52h40q6 0 6 -15.5t-6 -15.5h-83l-91 -2q-5 0 -5 14.5t5 14.5h24q31 0 32 20q15 162 15 379q-16 19 -27 22t-41 3q-6 0 -6 15.5
t6 15.5l141 -2l286 -365h2q-4 262 -7 299t-16 37h-35q-7 0 -7 15.5t7 15.5zM160 534q-2 -8 -9 -8t-12.5 5t-5.5 14q3 67 35 98t69 31q22 0 56.5 -6.5t53.5 -6.5t31 1.5t26 7.5q28 14 36 61q1 8 10 8q16 0 16 -15q0 -70 -32 -102t-72 -32q-20 0 -54.5 6.5t-63 6.5
t-52.5 -13.5t-32 -55.5z" />
    <glyph glyph-name="ograve" unicode="&#xf2;" horiz-adv-x="612" 
d="M189 705q0 14 10 23t31.5 9t36 -14.5t49.5 -67.5t60.5 -81t25.5 -31q0 -9 -13 -9q-5 0 -10 3q-122 84 -156 113t-34 55zM306 494q107 0 187.5 -75t80.5 -177.5t-80.5 -178.5t-187.5 -76t-187.5 76t-80.5 178.5t80.5 177.5t187.5 75zM306 458q-74 0 -121 -62.5t-47 -154
t47 -155t121 -63.5t121 63.5t47 155t-47 154t-121 62.5z" />
    <glyph glyph-name="oacute" unicode="&#xf3;" horiz-adv-x="612" 
d="M210 537q-4 -3 -13.5 -3t-9.5 9q0 3 21.5 26t56.5 67t49 63q35 45 73 45q15 0 25 -9t10 -23q0 -26 -57 -69zM306 494q107 0 187.5 -75t80.5 -177.5t-80.5 -178.5t-187.5 -76t-187.5 76t-80.5 178.5t80.5 177.5t187.5 75zM306 458q-74 0 -121 -62.5t-47 -154t47 -155
t121 -63.5t121 63.5t47 155t-47 154t-121 62.5z" />
    <glyph glyph-name="ocircumflex" unicode="&#xf4;" horiz-adv-x="612" 
d="M175 530q-9 -8 -18 -8t-12 8l114 147q11 14 26 14t29 -14l110 -147q-5 -7 -14 -7t-17 7l-107 90zM306 494q107 0 187.5 -75t80.5 -177.5t-80.5 -178.5t-187.5 -76t-187.5 76t-80.5 178.5t80.5 177.5t187.5 75zM306 458q-74 0 -121 -62.5t-47 -154t47 -155t121 -63.5
t121 63.5t47 155t-47 154t-121 62.5z" />
    <glyph glyph-name="otilde" unicode="&#xf5;" horiz-adv-x="612" 
d="M134 534q-2 -8 -9 -8t-12.5 5t-5.5 14q3 67 35 98t69 31q22 0 56.5 -6.5t53.5 -6.5t31 1.5t26 7.5q28 14 36 61q1 8 9.5 8t13 -5t3.5 -13q-3 -70 -33.5 -100.5t-70.5 -30.5q-20 0 -54.5 6.5t-63 6.5t-52.5 -13.5t-32 -55.5zM306 494q107 0 187.5 -75t80.5 -177.5
t-80.5 -178.5t-187.5 -76t-187.5 76t-80.5 178.5t80.5 177.5t187.5 75zM306 458q-74 0 -121 -62.5t-47 -154t47 -155t121 -63.5t121 63.5t47 155t-47 154t-121 62.5z" />
    <glyph glyph-name="odieresis" unicode="&#xf6;" horiz-adv-x="612" 
d="M191 555q-22 0 -36.5 15.5t-14.5 37t15 35.5t35.5 14t36 -14.5t15.5 -35.5t-14.5 -36.5t-36.5 -15.5zM358 555q-22 0 -36.5 15.5t-14.5 36.5t15.5 35.5t35.5 14.5t35.5 -14.5t15.5 -35.5t-14.5 -36.5t-36.5 -15.5zM306 494q107 0 187.5 -75t80.5 -177.5t-80.5 -178.5
t-187.5 -76t-187.5 76t-80.5 178.5t80.5 177.5t187.5 75zM306 458q-74 0 -121 -62.5t-47 -154t47 -155t121 -63.5t121 63.5t47 155t-47 154t-121 62.5z" />
    <glyph glyph-name="divide" unicode="&#xf7;" 
d="M261 403q-22 0 -36.5 15.5t-14.5 37t15 35.5t35.5 14t36 -14.5t15.5 -35.5t-14.5 -36.5t-36.5 -15.5zM261 3q-22 0 -36.5 15.5t-14.5 37t15 35.5t35.5 14t36 -14.5t15.5 -35.5t-14.5 -36.5t-36.5 -15.5zM492 239v-7h-423q-17 0 -26 11t-10 22l-1 11l413 5q47 0 47 -42z
" />
    <glyph glyph-name="oslash" unicode="&#xf8;" horiz-adv-x="606" 
d="M574 242q0 -103 -80.5 -179t-187.5 -76q-53 0 -109 23l-34 -64q-12 -24 -25.5 -24t-30.5 17l50 93q-55 36 -87 91.5t-32 118.5q0 102 80.5 177t187.5 75q45 0 91 -16l41 77q11 20 21 20q16 0 33 -17l-54 -99q61 -34 98.5 -92t37.5 -125zM427 86.5q47 63.5 47 162.5
t-61 163l-194 -360q38 -29 87 -29q74 0 121 63.5zM306 458q-74 0 -121 -62.5t-47 -155.5t48 -155l190 355q-34 18 -70 18z" />
    <glyph glyph-name="ugrave" unicode="&#xf9;" horiz-adv-x="565" 
d="M169 705q0 14 10 23t31.5 9t36 -14.5t49.5 -67.5t60.5 -81t25.5 -31q0 -9 -13 -9q-5 0 -10 3q-122 84 -156 113t-34 55zM450 481l82 2q7 0 7 -14.5t-7 -14.5h-21q-18 0 -23 -6.5t-7 -26.5q-8 -176 -8 -241q0 -90 -57.5 -141.5t-135.5 -51.5t-136.5 48t-58.5 135v208
q0 74 -22 74h-35q-8 0 -8 15.5t8 15.5l97 -2l105 2q8 0 8 -15.5t-8 -15.5h-31q-18 0 -23.5 -7t-5.5 -26v-229q0 -76 35.5 -112t94.5 -36t91.5 40.5t32.5 122.5q0 116 -2.5 181.5t-16.5 65.5h-40q-6 0 -6 15t6 15z" />
    <glyph glyph-name="uacute" unicode="&#xfa;" horiz-adv-x="565" 
d="M208 534q-13 0 -13 9q0 3 21.5 26t56.5 67t49 63q35 45 73 45q15 0 25 -9t10 -23q0 -26 -57 -69l-155 -106q-5 -3 -10 -3zM450 481l82 2q7 0 7 -14.5t-7 -14.5h-21q-18 0 -23 -6.5t-7 -26.5q-8 -176 -8 -241q0 -90 -57.5 -141.5t-135.5 -51.5t-136.5 48t-58.5 135v208
q0 74 -22 74h-35q-8 0 -8 15.5t8 15.5l97 -2l105 2q8 0 8 -15.5t-8 -15.5h-31q-18 0 -23.5 -7t-5.5 -26v-229q0 -76 35.5 -112t94.5 -36t91.5 40.5t32.5 122.5q0 116 -2.5 181.5t-16.5 65.5h-40q-6 0 -6 15t6 15z" />
    <glyph glyph-name="ucircumflex" unicode="&#xfb;" horiz-adv-x="565" 
d="M173 530q-9 -8 -18 -8t-12 8l114 147q11 14 26 14t29 -14l110 -147q-5 -7 -14 -7t-17 7l-107 90zM450 481l82 2q7 0 7 -14.5t-7 -14.5h-21q-18 0 -23 -6.5t-7 -26.5q-8 -176 -8 -241q0 -90 -57.5 -141.5t-135.5 -51.5t-136.5 48t-58.5 135v208q0 74 -22 74h-35
q-8 0 -8 15.5t8 15.5l97 -2l105 2q8 0 8 -15.5t-8 -15.5h-31q-18 0 -23.5 -7t-5.5 -26v-229q0 -76 35.5 -112t94.5 -36t91.5 40.5t32.5 122.5q0 116 -2.5 181.5t-16.5 65.5h-40q-6 0 -6 15t6 15z" />
    <glyph glyph-name="udieresis" unicode="&#xfc;" horiz-adv-x="565" 
d="M199 555q-22 0 -36.5 15.5t-14.5 37t15 35.5t35.5 14t36 -14.5t15.5 -35.5t-14.5 -36.5t-36.5 -15.5zM366 555q-22 0 -36.5 15.5t-14.5 36.5t15.5 35.5t35.5 14.5t35.5 -14.5t15.5 -35.5t-14.5 -36.5t-36.5 -15.5zM450 481l82 2q7 0 7 -14.5t-7 -14.5h-21q-18 0 -23 -6.5
t-7 -26.5q-8 -176 -8 -241q0 -90 -57.5 -141.5t-135.5 -51.5t-136.5 48t-58.5 135v208q0 74 -22 74h-35q-8 0 -8 15.5t8 15.5l97 -2l105 2q8 0 8 -15.5t-8 -15.5h-31q-18 0 -23.5 -7t-5.5 -26v-229q0 -76 35.5 -112t94.5 -36t91.5 40.5t32.5 122.5q0 116 -2.5 181.5
t-16.5 65.5h-40q-6 0 -6 15t6 15z" />
    <glyph glyph-name="yacute" unicode="&#xfd;" horiz-adv-x="470" 
d="M160 534q-13 0 -13 9q0 3 21.5 26t56.5 67t49 63q35 45 73 45q15 0 25 -9t10 -23q0 -26 -57 -69l-155 -106q-5 -3 -10 -3zM268 1l-100 -3q-7 0 -7 15t6 15h45q11 0 13 4.5t2 24.5v159h-1q1 30 -141 193q-39 46 -60 46h-23q-8 0 -8 13.5t6 13.5l95 -1l104 1q6 0 6 -13
t-5 -13h-50q0 -2 25 -32q83 -99 108 -150h3q15 25 61 83t52.5 70.5t6.5 20t-8 7.5h-28q-5 0 -5 13.5t7 13.5l93 -1l79 1q7 0 7 -13t-8 -13h-18q-18 0 -31 -11q-49 -41 -111.5 -111.5t-70.5 -98.5v-128q0 -76 20 -76h50q8 0 8 -15.5t-6 -15.5z" />
    <glyph glyph-name="thorn" unicode="&#xfe;" horiz-adv-x="490" 
d="M81 485l83 -2h15l104 2q7 0 7 -14.5t-8 -14.5h-46q-13 0 -13 -16l-1 -59q28 5 60 5q82 0 125 -40t43 -95t-39 -96t-105 -41q-39 0 -83 16v-24q0 -33 6 -54t14 -21h50q8 0 8 -15.5t-5 -15.5h-110l-107 -2q-7 0 -7 15t5 15h49q12 0 12 17v302q0 107 -20 107h-36
q-12 0 -12 15.5t11 15.5zM223 332v-173q23 -6 42 -6q45 0 71.5 29t26.5 68t-27 70.5t-76 31.5q-12 0 -18 -1q-19 -2 -19 -19z" />
    <glyph glyph-name="ydieresis" unicode="&#xff;" horiz-adv-x="470" 
d="M191 555q-22 0 -36.5 15.5t-14.5 37t15 35.5t35.5 14t36 -14.5t15.5 -35.5t-14.5 -36.5t-36.5 -15.5zM358 555q-22 0 -36.5 15.5t-14.5 36.5t15.5 35.5t35.5 14.5t35.5 -14.5t15.5 -35.5t-14.5 -36.5t-36.5 -15.5zM268 1l-100 -3q-7 0 -7 15t6 15h45q11 0 13 4.5t2 24.5
v159h-1q1 30 -141 193q-39 46 -60 46h-23q-8 0 -8 13.5t6 13.5l95 -1l104 1q6 0 6 -13t-5 -13h-50q0 -2 25 -32q83 -99 108 -150h3q15 25 61 83t52.5 70.5t6.5 20t-8 7.5h-28q-5 0 -5 13.5t7 13.5l93 -1l79 1q7 0 7 -13t-8 -13h-18q-18 0 -31 -11q-49 -41 -111.5 -111.5
t-70.5 -98.5v-128q0 -76 20 -76h50q8 0 8 -15.5t-6 -15.5z" />
    <glyph glyph-name="dotlessi" unicode="&#x131;" horiz-adv-x="298" 
d="M49 483l79 -2h19l104 2q7 0 7 -14.5t-8 -14.5h-46q-13 0 -13 -16v-331q0 -76 20 -76h50q8 0 8 -15.5t-6 -15.5l-116 1l-100 -3q-7 0 -7 15t6 15h45q11 0 13 4.5t2 24.5v315q0 80 -20 80h-36q-12 0 -12 15.5t11 15.5z" />
    <glyph glyph-name="Lslash" unicode="&#x141;" horiz-adv-x="618" 
d="M231 672l140 3q8 0 8 -17t-8 -17h-43q-25 0 -33 -9.5t-8 -36.5v-225l116 84q6 4 8.5 -5.5t2.5 -19t-10 -16.5l-117 -80v-293h58q159 0 220 42l7 55q2 8 17.5 8t15.5 -6l-9 -161q0 -7 -15.5 -7t-15.5 7v22h-325l-140 -2q-8 0 -8 17t8 17h43q25 0 33 9.5t8 36.5v195
l-107 -71q-6 -2 -10.5 6t-4.5 20t8 17q32 22 114 63v244q0 88 -21 88h-58q-8 0 -8 16.5t8 16.5z" />
    <glyph glyph-name="lslash" unicode="&#x142;" horiz-adv-x="299" 
d="M157 1l-116 -3q-7 0 -7 15t5 15h58q12 0 12 17v283q-51 -32 -63 -41q-6 -2 -10.5 6t-4.5 19t8 16l70 37v219q0 97 -25 97h-45q-8 0 -8 15t6 15q41 0 66 7.5t35 11t24.5 10t17.5 7.5q15 0 15 -12q0 -4 -0.5 -121.5t-0.5 -198.5l55 41q7 5 11 -9q1 -5 1 -13q0 -14 -67 -57
v-259q0 -88 21 -88h49q8 0 8 -15t-6 -15z" />
    <glyph glyph-name="OE" unicode="&#x152;" horiz-adv-x="1103" 
d="M412 684q53 0 95 -10t57 -20l15 -9l418 28l2 35q0 6 14.5 6t14.5 -9q4 -71 18 -164q2 -8 -12.5 -8t-17.5 11q-7 20 -23 42q-42 14 -137.5 22.5t-142.5 8.5t-78 -4q60 -46 99 -117.5t42 -140.5q89 2 134.5 9t48.5 9l10 55q1 7 12 7q21 0 19 -9q-6 -46 -6 -92.5t5 -85.5
q2 -8 -14.5 -8t-16.5 6l-9 46q-13 8 -78 17.5t-106 10.5q-2 -55 -19.5 -101t-34 -69t-44.5 -53q97 -9 134.5 -9t76.5 1q55 0 133 16l5 33q2 8 14 8q19 0 19 -6l-17 -157q0 -7 -15.5 -7t-15.5 7l2 28q-64 15 -161.5 25t-162.5 12l-65 3q-96 -64 -212 -64q-150 0 -257 102
t-107 246.5t107 246.5t257 102zM412 638q-105 0 -171.5 -87t-66.5 -215.5t66.5 -215.5t171.5 -87t171.5 87t66.5 215.5t-66.5 215.5t-171.5 87z" />
    <glyph glyph-name="oe" unicode="&#x153;" horiz-adv-x="888" 
d="M778 0l-292 3q-49 0 -97 -3q-5 -1 -15 -4t-16 -4q-20 -5 -52 -5q-107 0 -187.5 76t-80.5 178.5t80.5 177.5t187.5 75q34 0 79 -13q52 -4 82 -4l274 4v16q0 6 13.5 6t13.5 -6l7 -114q0 -5 -14.5 -5t-14.5 2q-14 44 -23 52q-43 7 -102 7t-138 -9q75 -61 81 -169
q130 0 137 4l7 42q2 5 14.5 5t12.5 -7q-4 -29 -4 -64.5t4 -64.5q0 -6 -13 -6t-14 4l-9 46q-1 0 -135 7v-7q0 -39 -22.5 -89t-64.5 -84q62 -6 137.5 -6t162.5 22l6 39q1 6 10 6t13.5 -2.5t4.5 -3.5q-6 -42 -6 -118q0 -5 -13.5 -5t-13.5 5v16zM306 458q-74 0 -121 -62.5
t-47 -154t47 -155t121 -63.5t121 63.5t47 155t-47 154t-121 62.5z" />
    <glyph glyph-name="Scaron" unicode="&#x160;" horiz-adv-x="538" 
d="M419 38.5q-71 -51.5 -157 -51.5t-152 30l8 -20q3 -6 -4.5 -11.5t-16.5 -5.5t-12 5q-32 81 -39 188q0 10 16 10t17 -7q22 -76 89 -122q41 -29 95.5 -29t88 31.5t33.5 76t-23 80t-57 57.5l-74 46.5l-74 47t-57 60.5t-23 86q0 73 65.5 123.5t164.5 50.5q45 0 84 -12l12 -3
q-4 16 -4.5 22t4 8.5t14 2.5t12.5 -8q23 -81 27 -159q-3 -6 -16.5 -6t-16.5 3q-11 41 -31 67.5t-44 36.5t-56 10q-62 0 -88.5 -31.5t-26.5 -69t17.5 -64t45 -46t60.5 -38t66.5 -39.5t61.5 -46q62 -55 62 -138.5t-71 -135zM393 910q9 8 18 8t12 -8l-114 -147q-11 -14 -26 -14
t-29 14l-110 147q5 7 14 7t17 -7l107 -90z" />
    <glyph glyph-name="scaron" unicode="&#x161;" horiz-adv-x="382" 
d="M299 20.5q-50 -33.5 -113.5 -33.5t-93.5 17q0 -12 -2 -15q-2 -4 -12 -4t-11 8q-3 24 -11.5 75t-8.5 57.5t5.5 9.5t12.5 2.5t8 -5.5q34 -113 120 -113q33 0 56.5 18.5t23.5 50t-21 55t-51 39.5l-60 33t-51 44.5t-21 64.5q0 59 43.5 92.5t109.5 33.5q35 0 65 -10
q-4 16 -2 19.5t10 3.5t11 -2t6 -13.5t6 -29t9 -44l7.5 -33t-2.5 -9t-12.5 -2.5t-11.5 8q-30 80 -95 80q-32 0 -51 -18.5t-19 -47t21 -49.5t51.5 -36t61 -32.5t51.5 -48.5t21 -73q0 -59 -50 -92.5zM311 677q9 8 18 8t12 -8l-114 -147q-11 -14 -26 -14t-29 14l-110 147
q5 7 14 7t17 -7l107 -90z" />
    <glyph glyph-name="Ydieresis" unicode="&#x178;" horiz-adv-x="606" 
d="M310 1l-138 -3q-8 0 -8 17t8 17h43q25 0 33 9.5t8 36.5v224q1 41 -201 275q-33 39 -51 51.5t-33 12.5h-32q-7 0 -7 16t7 16l124 -2l141 2q9 0 9 -16.5t-9 -16.5h-70q0 -4 36 -47q116 -136 154 -214h3q21 36 89.5 121.5t77 102.5t8.5 26q0 12 -11 12h-39q-9 0 -9 16t9 16
l118 -2l111 2q10 0 10 -16.5t-10 -16.5h-25q-25 0 -43 -16q-73 -61 -165.5 -165t-92.5 -138v-216q0 -72 21 -72h58q8 0 8 -16.5t-8 -16.5zM219 788q-22 0 -36.5 15.5t-14.5 37t15 35.5t35.5 14t36 -14.5t15.5 -35.5t-14.5 -36.5t-36.5 -15.5zM386 788q-22 0 -36.5 15.5
t-14.5 36.5t15.5 35.5t35.5 14.5t35.5 -14.5t15.5 -35.5t-14.5 -36.5t-36.5 -15.5z" />
    <glyph glyph-name="Zcaron" unicode="&#x17d;" horiz-adv-x="649" 
d="M39 0q-8 0 -8 12t11 19q21 13 301 456l93 147h-251q-17 0 -37 -16q-37 -32 -55 -107q-1 -9 -13 -9q-24 0 -22 9q10 88 22 171q2 15 23.5 15t21.5 -14q0 -8 2 -10t8 -2h436q10 0 10 -11q0 -7 -9 -13q-11 -4 -108.5 -156l-189.5 -301l-92 -150h279q64 0 108 155q3 11 14 11
q19 0 19 -9l-23 -197q-1 -11 -4.5 -15t-17.5 -4.5t-14 6.5q0 10 -69.5 11.5t-434.5 1.5zM445 910q9 8 18 8t12 -8l-114 -147q-11 -14 -26 -14t-29 14l-110 147q5 7 14 7t17 -7l107 -90z" />
    <glyph glyph-name="zcaron" unicode="&#x17e;" horiz-adv-x="454" 
d="M401 -13q0 -7 -13.5 -7t-13.5 5.5t-7 8t-43 4.5q-60 2 -283 2q-6 0 -6 9t6 14q11 5 73.5 101l119.5 190l57 93h-142q-42 0 -69 -78q-2 -5 -15.5 -5t-13.5 5q6 48 30 120q2 7 16.5 7t14.5 -9t4 -10h284q7 0 7 -10.5t-6.5 -13t-61.5 -88.5l-115 -181.5t-74 -112.5h171
q40 0 57 37q8 20 13 51q1 7 15.5 7t14.5 -7q-7 -19 -13.5 -64.5t-6.5 -67.5zM321 677q9 8 18 8t12 -8l-114 -147q-11 -14 -26 -14t-29 14l-110 147q5 7 14 7t17 -7l107 -90z" />
    <glyph glyph-name="florin" unicode="&#x192;" horiz-adv-x="288" 
d="M-135 -217q-31 0 -53 17.5t-23 42.5q0 25 26 39q19 -17 29 -24q27 -22 56.5 -22t56.5 34.5t52.5 103t47 139l52.5 173.5t57 175h-81q-7 0 -7 10q0 23 13 23q85 0 95 24q58 146 119 212.5t155 66.5q36 0 67.5 -13t31.5 -45q0 -21 -14 -35t-40 -17q-47 57 -91 57t-79 -57
t-80 -187h108q6 0 8 -12q0 -27 -16 -27h-113q-14 -37 -40 -118.5l-48 -148t-55.5 -147t-66 -135t-76.5 -92t-91 -37.5z" />
    <glyph glyph-name="circumflex" unicode="&#x2c6;" horiz-adv-x="420" 
d="M96 530q-9 -8 -18 -8t-12 8l114 147q11 14 26 14t29 -14l110 -147q-5 -7 -14 -7t-17 7l-107 90z" />
    <glyph glyph-name="caron" unicode="&#x2c7;" horiz-adv-x="420" 
d="M315 677q9 8 18 8t12 -8l-114 -147q-11 -14 -26 -14t-29 14l-110 147q5 7 14 7t17 -7l107 -90z" />
    <glyph glyph-name="breve" unicode="&#x2d8;" horiz-adv-x="400" 
d="M342 656q-3 -55 -42.5 -90t-95.5 -35t-95.5 35t-42.5 90q0 11 12 11q11 0 14 -11q10 -34 41.5 -50t70.5 -16t70.5 16t41.5 50q3 11 14.5 11t11.5 -11z" />
    <glyph glyph-name="dotaccent" unicode="&#x2d9;" horiz-adv-x="240" 
d="M117 555q-22 0 -36.5 15.5t-14.5 37t15 35.5t35.5 14t36 -14.5t15.5 -35.5t-14.5 -36.5t-36.5 -15.5z" />
    <glyph glyph-name="ring" unicode="&#x2da;" horiz-adv-x="320" 
d="M226 551.5q-27 -26.5 -66 -26.5t-66.5 27t-27.5 64t27.5 63.5t65 26.5t66 -25.5t28.5 -64t-27 -65zM118 572q18 -18 42.5 -18t41.5 18.5t17 43.5t-17.5 43.5t-43 18.5t-42 -18.5t-16.5 -44t18 -43.5z" />
    <glyph glyph-name="ogonek" unicode="&#x2db;" horiz-adv-x="300" 
d="M238 -91q0 -23 -30.5 -45t-64 -22t-53 16t-19.5 43q0 68 124 99h22v-2q-93 -44 -93 -82q0 -31 31 -31q16 0 34.5 11.5t28.5 22.5l10 11q10 -9 10 -21z" />
    <glyph glyph-name="tilde" unicode="&#x2dc;" horiz-adv-x="420" 
d="M64 534q-2 -8 -9 -8t-12.5 5t-5.5 14q3 67 35 98t69 31q22 0 56.5 -6.5t53.5 -6.5t31 1.5t26 7.5q28 14 36 61q1 8 10 8q16 0 16 -15q0 -70 -32 -102t-72 -32q-20 0 -54.5 6.5t-63 6.5t-52.5 -13.5t-32 -55.5z" />
    <glyph glyph-name="hungarumlaut" unicode="&#x2dd;" horiz-adv-x="540" 
d="M83 518q-13 0 -13 9q0 5 4 7q42 28 80.5 66.5t62 57t44.5 18.5t31 -9t10 -27t-20.5 -31.5t-82 -38.5t-86.5 -38.5t-30 -13.5zM253 518q-13 0 -13 9q0 5 4 7q42 28 80.5 66.5t62 57t44.5 18.5t31 -9t10 -27t-20.5 -31.5t-82 -38.5t-86.5 -38.5t-30 -13.5z" />
    <glyph glyph-name="endash" unicode="&#x2013;" horiz-adv-x="500" 
d="M499 208v-7h-462q-17 0 -26 11t-10 22l-1 11l452 5q47 0 47 -42z" />
    <glyph glyph-name="emdash" unicode="&#x2014;" horiz-adv-x="1000" 
d="M998 208v-7h-961q-17 0 -26 11t-10 22l-1 11l951 5q47 0 47 -42z" />
    <glyph glyph-name="quoteleft" unicode="&#x2018;" horiz-adv-x="300" 
d="M128 580q0 -36 48 -36q6 0 13 1q26 -13 26 -42t-16 -45.5t-45.5 -16.5t-49.5 26t-20 60q0 65 34.5 105t97.5 75l11 -19q-42 -21 -70.5 -52t-28.5 -56z" />
    <glyph glyph-name="quoteright" unicode="&#x2019;" horiz-adv-x="300" 
d="M175 543q0 36 -48 36q-6 0 -13 -1q-26 13 -26 42t16 45.5t45.5 16.5t49.5 -26t20 -60q0 -65 -34.5 -105t-97.5 -75l-11 19q42 21 70.5 52t28.5 56z" />
    <glyph glyph-name="quotesinglbase" unicode="&#x201a;" horiz-adv-x="300" 
d="M140 -90.5q13 13.5 22.5 36.5t9.5 38v18q-16 -13 -35.5 -13t-34 16t-14.5 38t17 37t44 15t45.5 -28t18.5 -70t-25.5 -75.5t-76.5 -67.5l-13 17q29 25 42 38.5z" />
    <glyph glyph-name="quotedblleft" unicode="&#x201c;" horiz-adv-x="400" 
d="M92 580q0 -36 48 -36q6 0 13 1q26 -13 26 -42t-16 -45.5t-45.5 -16.5t-49.5 26t-20 60q0 65 34.5 105t97.5 75l11 -19q-42 -21 -70.5 -52t-28.5 -56zM267 580q0 -36 48 -36q6 0 13 1q26 -13 26 -42t-16 -45.5t-45.5 -16.5t-49.5 26t-20 60q0 65 34.5 105t97.5 75l11 -19
q-42 -21 -70.5 -52t-28.5 -56z" />
    <glyph glyph-name="quotedblright" unicode="&#x201d;" horiz-adv-x="400" 
d="M314 543q0 36 -48 36q-6 0 -13 -1q-26 13 -26 42t16 45.5t45.5 16.5t49.5 -26t20 -60q0 -65 -34.5 -105t-97.5 -75l-11 19q42 21 70.5 52t28.5 56zM139 543q0 36 -48 36q-6 0 -13 -1q-26 13 -26 42t16 45.5t45.5 16.5t49.5 -26t20 -60q0 -65 -34.5 -105t-97.5 -75l-11 19
q42 21 70.5 52t28.5 56z" />
    <glyph glyph-name="quotedblbase" unicode="&#x201e;" horiz-adv-x="400" 
d="M134 -37q0 36 -48 36q-6 0 -13 -1q-26 13 -26 42t16 45.5t45.5 16.5t49.5 -26t20 -60q0 -65 -34.5 -105t-97.5 -75l-11 19q42 21 70.5 52t28.5 56zM304 -37q0 36 -48 36q-6 0 -13 -1q-26 13 -26 42t16 45.5t45.5 16.5t49.5 -26t20 -60q0 -65 -34.5 -105t-97.5 -75l-11 19
q42 21 70.5 52t28.5 56z" />
    <glyph glyph-name="dagger" unicode="&#x2020;" horiz-adv-x="500" 
d="M446 361v-7h-168q-3 -79 -3 -166q0 -218 23 -336q-20 -9 -46 -9q-48 0 -48 176q0 51 5 171t6 164h-125q-17 0 -26 11t-10 22l-1 11q100 0 163 1q1 24 1 63.5t-1.5 65t-3.5 37.5t-3 21q-2 14 6 16q81 23 89 23t9 -3t-1 -10.5t-4 -16.5q-21 -73 -27 -195l118 3q47 0 47 -42
z" />
    <glyph glyph-name="daggerdbl" unicode="&#x2021;" horiz-adv-x="500" 
d="M446 100v-7h-170q5 -153 22 -241q-20 -9 -46 -9q-48 0 -48 176q0 48 1 74h-115q-17 0 -26 11t-10 22l-1 11q94 0 153 1q8 180 9 216h-125q-17 0 -26 11t-10 22l-1 11q100 0 163 1q1 24 1 63.5t-1.5 65t-3.5 37.5t-3 21q-2 14 6 16q81 23 89 23t9 -3t-1 -10.5t-4 -16.5
q-21 -73 -27 -195l118 3q47 0 47 -42v-7h-168q-3 -79 -3 -166v-49l124 3q47 0 47 -42z" />
    <glyph glyph-name="bullet" unicode="&#x2022;" horiz-adv-x="407" 
d="M289.5 260.5q-36.5 -35.5 -87 -35.5t-86.5 36t-36 86t37 85.5t87 35.5t86 -35.5t36 -86t-36.5 -86z" />
    <glyph glyph-name="ellipsis" unicode="&#x2026;" horiz-adv-x="1000" 
d="M540.5 4.5q-16.5 -17.5 -40 -17.5t-40.5 16.5t-17 39.5t15.5 40.5t39 17.5t41.5 -15.5t18 -39.5t-16.5 -41.5zM873.5 4.5q-16.5 -17.5 -40 -17.5t-40.5 16.5t-17 39.5t15.5 40.5t39 17.5t41.5 -15.5t18 -39.5t-16.5 -41.5zM207.5 4.5q-16.5 -17.5 -40 -17.5t-40.5 16.5
t-17 39.5t15.5 40.5t39 17.5t41.5 -15.5t18 -39.5t-16.5 -41.5z" />
    <glyph glyph-name="perthousand" unicode="&#x2030;" horiz-adv-x="1187" 
d="M194 -9q-16 -24 -27.5 -24t-28.5 17l487 698q13 19 23 19q15 0 32 -17zM700 274q42 -48 42 -114.5t-43 -115.5t-111 -49t-110.5 47t-42.5 116.5t44.5 116.5t111.5 47t109 -48zM672.5 87q34.5 26 34.5 73t-34.5 71.5t-84.5 24.5t-84 -25.5t-34 -72.5t33.5 -72t84 -25
t85 26zM336 624q42 -48 42 -114.5t-43 -115.5t-111 -49t-110.5 47t-42.5 116.5t44.5 116.5t111.5 47t109 -48zM308.5 437q34.5 26 34.5 73t-34.5 71.5t-84.5 24.5t-84 -25.5t-34 -72.5t33.5 -72t84 -25t85 26zM1068 274q42 -48 42 -114.5t-43 -115.5t-111 -49t-110.5 47
t-42.5 116.5t44.5 116.5t111.5 47t109 -48zM1040.5 87q34.5 26 34.5 73t-34.5 71.5t-84.5 24.5t-84 -25.5t-34 -72.5t33.5 -72t84 -25t85 26z" />
    <glyph glyph-name="guilsinglleft" unicode="&#x2039;" horiz-adv-x="298" 
d="M222 383q13 -13 13 -27t-15.5 -32t-46 -48t-50.5 -55q20 -25 50.5 -55t46 -48t15.5 -32t-13 -27q-35 40 -79 80.5t-70 60.5l-26 21q96 72 175 162z" />
    <glyph glyph-name="guilsinglright" unicode="&#x203a;" horiz-adv-x="298" 
d="M76 59q-13 13 -13 27t15.5 32t46 48t50.5 55q-20 25 -50.5 55t-46 48t-15.5 32t13 27q35 -40 79 -80.5t70 -60.5l26 -21q-96 -72 -175 -162z" />
    <glyph glyph-name="fraction" unicode="&#x2044;" horiz-adv-x="406" 
d="M103 6q-12 -24 -25.5 -24t-30.5 17l247 461q11 20 21 20q18 0 33 -17z" />
    <glyph glyph-name="Euro" unicode="&#x20ac;" horiz-adv-x="485" 
d="M412 513l-2 -69q0 -24 4 -50q2 -10 -14 -10t-17 10l-3 29l-5.5 16t-22.5 26t-45 16q-51 0 -83.5 -45t-45.5 -113l104 3q27 0 37 -8.5t10 -19.5v-15h-157q-1 -11 -1 -33t1 -33l114 3q27 0 35.5 -8t8.5 -19.5v-15.5h-152q30 -131 145 -131q50 0 89 43q10 -10 10 -24
q0 -28 -36.5 -53t-95.5 -25q-77 0 -134 52t-73 138h-4q-17 0 -26 9.5t-10 28.5h35v20q0 25 3 48h-2q-17 0 -26 9.5t-11 28.5h46q26 96 97.5 148.5t129.5 52.5q39 0 68 -23v14q0 9 14.5 9t14.5 -9z" />
    <glyph glyph-name="trademark" unicode="&#x2122;" horiz-adv-x="896" 
d="M151 336l-19 -1q-6 0 -6 9t6 9h23q10 0 13 5t3 19v241q0 46 -6 46h-10q-48 0 -83 -8q-14 -6 -19 -38q-1 -5 -12 -5t-11 4q3 21 3 79q0 5 10.5 5t10.5 -5v-9q36 -2 64 -2h156q41 0 77 2v9q0 5 10 5t10 -5q0 -50 4 -78q0 -5 -12 -5t-13 5q-5 33 -17 38q-25 6 -86 8
q-13 -1 -13 -24v-241q0 -46 6 -46h30q7 0 7 -8.5t-7 -8.5l-33 1h-32q-43 0 -54 -1zM730 336l-25 -1q-6 0 -6 9t6 9h19q14 0 13 16l-18 225l-45 -103q-52 -120 -66 -148q-3 -4 -13 -4t-13 5q-25 41 -108 253q-11 -155 -11 -199.5t8 -44.5h24q7 0 7 -8.5t-7 -8.5l-35 1h-21
q-33 0 -46 -1l-19 -1q-7 0 -7 9t7 9h17q18 0 22 14q6 41 16.5 139t10.5 131t-9 33h-25q-7 0 -7 8.5t7 8.5l39 -1q19 -1 64 -1q28 -87 98 -272l46 115q48 118 61 157q42 0 59 1l33 1q6 0 6 -8.5t-6 -8.5h-20q-12 0 -11.5 -35t26.5 -252q5 -30 9 -30h30q7 0 7 -8.5t-7 -8.5
l-37 1h-30q-28 0 -43 -1z" />
    <glyph glyph-name="minus" unicode="&#x2212;" horiz-adv-x="253" 
d="M253 200h-216q-17 0 -26 12.5t-10 25.5l-1 12l206 5q47 0 47 -55z" />
    <glyph glyph-name="fi" unicode="&#xfb01;" horiz-adv-x="736" 
d="M49 483l102 -2h209v16q0 6 13.5 6t13.5 -6q0 -79 7 -113q2 -6 -11 -6q-17 0 -17 6q-14 46 -27 52q-42 15 -124 15q-14 -1 -19 -8t-5 -25v-164q123 4 135 11l7 42q2 5 14.5 5t12.5 -7q-4 -29 -4 -64.5t4 -64.5q0 -6 -13.5 -6t-13.5 4l-8 43q-12 7 -134 11v-121
q0 -76 20 -76h50q8 0 8 -15.5t-6 -15.5l-116 1l-100 -3q-7 0 -7 15t6 15h45q11 0 13 4.5t2 24.5v315q0 80 -20 80h-36q-12 0 -12 15.5t11 15.5zM472 483l79 -2h19l104 2q7 0 7 -14.5t-8 -14.5h-46q-13 0 -13 -16v-331q0 -76 20 -76h50q8 0 8 -15.5t-6 -15.5l-116 1l-100 -3
q-7 0 -7 15t6 15h45q11 0 13 4.5t2 24.5v315q0 80 -20 80h-36q-12 0 -12 15.5t11 15.5z" />
    <glyph glyph-name="fl" unicode="&#xfb02;" horiz-adv-x="858" 
d="M49 483l102 -2h209v16q0 6 13.5 6t13.5 -6q0 -79 7 -113q2 -6 -11 -6q-17 0 -17 6q-14 46 -27 52q-42 15 -124 15q-14 -1 -19 -8t-5 -25v-164q123 4 135 11l7 42q2 5 14.5 5t12.5 -7q-4 -29 -4 -64.5t4 -64.5q0 -6 -13.5 -6t-13.5 4l-8 43q-12 7 -134 11v-121
q0 -76 20 -76h50q8 0 8 -15.5t-6 -15.5l-116 1l-100 -3q-7 0 -7 15t6 15h45q11 0 13 4.5t2 24.5v315q0 80 -20 80h-36q-12 0 -12 15.5t11 15.5zM472 483l79 -2h19l104 2q7 0 7 -14.5t-8 -14.5h-46q-13 0 -13 -16v-331q0 -75 20 -75h26q110 2 152 31l5 39q1 6 10 6h12
q6 -2 6 -6q-6 -42 -6 -118q0 -5 -13.5 -5t-13.5 5v16h-172l-170 -2q-7 0 -7 15t6 15h45q11 0 13 4.5t2 24.5v315q0 80 -20 80h-36q-12 0 -12 15.5t11 15.5z" />
    <glyph glyph-name="zero.taboldstyle" 
d="M38 355q0 139 68.5 231.5t163 92.5t153.5 -87.5t59 -250t-68 -258.5t-159 -96t-154 96t-63 272zM355 108.5q37 77.5 37 232.5t-30 224.5t-93 69.5t-102 -74.5t-39 -207.5q0 -322 124 -322q66 0 103 77.5z" />
    <glyph glyph-name="one.taboldstyle" horiz-adv-x="402" 
d="M231 1l-164 -3q-7 0 -7 15.5t5 15.5h95q13 0 14 11q1 4 1 13v445q0 45 -24 45q-18 0 -68.5 -17.5t-55.5 -17.5q-16 0 -16 15q0 7 5 10q59 21 130 65.5t107 87.5q2 2 6 2q18 0 18 -9q0 -4 -3 -37q-9 -101 -9 -238v-285q0 -88 21 -88l81 1q8 0 8 -16t-6 -16z" />
    <glyph glyph-name="two.taboldstyle" 
d="M460 137q2 8 17.5 8t15.5 -6l-12 -161q0 -7 -15.5 -7t-15.5 7v22h-404q-8 0 -8 8.5t8 13.5q129 100 217 225.5t88 236.5q0 66 -32 109.5t-83 43.5t-82 -32.5t-31 -72.5t15 -58q-14 -23 -44 -23q-61 0 -61 54q0 64 70 119t155 55t140.5 -50t55.5 -126q0 -107 -86.5 -229
t-208.5 -210l2 -3q18 1 44 1q197 0 250 37z" />
    <glyph glyph-name="three.taboldstyle" horiz-adv-x="530" 
d="M64 38q-32 27 -32 62.5t17.5 52t35.5 16.5h18q32 -139 146 -139q57 0 98.5 40.5t41.5 108.5t-34 119.5t-92 64.5q-63 -25 -81 -66q-4 -9 -4 -15v-5q-15 -5 -26.5 2t-11.5 25.5t19.5 37t47 33.5t55.5 33.5t47.5 51t19.5 76t-24.5 71t-67 27.5t-71.5 -25t-29 -52t13 -52
q-16 -34 -53 -34q-21 0 -36 15t-15 41q0 64 71 108t138.5 44t120 -36t52.5 -94q0 -93 -123 -160v-2q87 -24 133.5 -79t46.5 -119q0 -91 -79.5 -146.5t-182 -55.5t-159.5 51z" />
    <glyph glyph-name="four.taboldstyle" horiz-adv-x="532" 
d="M363 1l-164 -3q-7 0 -7 15.5t5 15.5h95q13 0 14 11q1 4 1 13v167h-260q-11 0 -11 15.5t12 30.5l322 420q37 0 37 -21q0 -4 -3 -34q-7 -90 -7 -227v-136h98q13 0 13 -24t-13 -24h-98v-101q0 -88 21 -88l81 1q8 0 8 -16t-6 -16zM307 266v205l2 70h-3l-204 -275h205z" />
    <glyph glyph-name="five.taboldstyle" horiz-adv-x="529" 
d="M241 446q98 0 166.5 -61t68.5 -160t-85.5 -168.5t-188.5 -69.5q-59 0 -102 26.5t-43 63.5q0 20 14 36.5t37 16.5q5 0 15 -2q8 -44 38 -69t70 -25q83 0 130 50.5t47 122t-60 121t-152 49.5q-40 0 -47 -16q-6 -10 -20.5 -10t-14.5 9l31 285l228 19q57 4 74 33q4 7 13 7
t9 -8q-5 -39 -29 -70t-73 -35l-191 -17l-18 -140q39 12 83 12z" />
    <glyph glyph-name="six.taboldstyle" horiz-adv-x="531" 
d="M232 294q-13 0 -13 15.5t30.5 29t65.5 13.5q76 0 128 -45.5t52 -112.5q0 -96 -65.5 -151.5t-154.5 -55.5t-153.5 66t-64.5 185q0 71 21 135t57 109.5t78 82.5t89 61q97 52 161 61q18 0 18 -13q0 -6 -4 -7q-160 -66 -239.5 -171t-79.5 -230t39.5 -183.5t96.5 -58.5
q43 0 72 39.5t29 101t-27 102.5t-80 41q-17 0 -36 -7t-20 -7z" />
    <glyph glyph-name="seven.taboldstyle" horiz-adv-x="473" 
d="M482 658q0 -5 -8 -18q-68 -86 -124.5 -174.5t-104.5 -209t-48 -218.5q0 -9 -5 -13q-12 -8 -40.5 -23t-35.5 -16q-6 0 -6 37.5t12 93.5t38.5 112t50 99t65.5 99q54 73 128 163h-139q-92 0 -131 -5t-59 -23q-5 -4 -17 -28q-2 -3 -9.5 -3t-15 4t-7.5 7t4 10l12 25
q9 18 26 60.5t22 58.5q2 3 7 3t13.5 -4.5t8.5 -8.5l-6 -20h219q48 0 90 3t45 3q15 0 15 -14z" />
    <glyph glyph-name="eight.taboldstyle" horiz-adv-x="503" 
d="M55 152q0 55 36.5 104t85.5 83q-104 71 -104 162q0 71 60 124.5t134.5 53.5t120 -39t45.5 -95t-37 -103t-87 -78q102 -68 125 -123q13 -29 13 -61q0 -89 -61.5 -141t-142.5 -52t-134.5 46.5t-53.5 118.5zM365 140q0 96 -157 179q-77 -61 -77 -143q0 -67 38 -104.5
t91.5 -37.5t79 32t25.5 74zM156 492q12 -17 19 -26t22.5 -21.5l23.5 -18.5t28.5 -20l27.5 -19q76 61 76 132q0 49 -33.5 81.5t-77.5 32.5t-71 -26.5t-27 -62t12 -52.5z" />
    <glyph glyph-name="nine.taboldstyle" 
d="M297 380q13 0 13 -15.5t-30.5 -29t-65.5 -13.5q-76 0 -127 44.5t-51 111.5q0 96 64 148.5t153.5 52.5t154 -65.5t64.5 -184.5q0 -85 -31 -159t-76 -122t-103 -86q-108 -70 -197 -83q-18 0 -18 13q0 6 4 7q160 66 240 171.5t80 230.5t-39.5 183t-96.5 58q-44 0 -71.5 -37
t-27.5 -98.5t26 -101t79 -39.5q17 0 36 7t20 7z" />
    </font>
</defs>
</svg>
