<svg width="339" height="432" viewBox="0 0 339 432" fill="none" xmlns="http://www.w3.org/2000/svg">
<g filter="url(#filter0_d_722_1690)">
<path d="M45.093 94.2061L111.932 154.578L65.6462 73.4389L45.093 94.2061Z" fill="#FFED48"/>
</g>
<g filter="url(#filter1_i_722_1690)">
<path d="M46.4254 146.264L83.1394 155.789L49.9309 134.548L46.4254 146.264Z" fill="#FFED48"/>
</g>
<g filter="url(#filter2_i_722_1690)">
<path d="M17.8602 213.622L118.953 176.973L6.8062 180.541L17.8602 213.622Z" fill="#FFED48"/>
</g>
<g filter="url(#filter3_i_722_1690)">
<path d="M77.5888 224.999L100.794 204.152L70.9566 217.243L77.5888 224.999Z" fill="#FFED48"/>
</g>
<path d="M150.111 94.5378L149.742 133.086L162.803 95.1604L150.111 94.5378Z" fill="#FFED48"/>
<g filter="url(#filter4_i_722_1690)">
<path d="M150.304 74.4261L149.742 133.086L169.617 75.3736L150.304 74.4261Z" fill="#FFED48"/>
</g>
<g filter="url(#filter5_i_722_1690)">
<path d="M234.994 128.049L216.424 139.374L238.537 134.186L234.994 128.049Z" fill="#FFED48"/>
</g>
<g filter="url(#filter6_i_722_1690)">
<path d="M271.517 178.218L249.89 174.981L270.233 185.151L271.517 178.218Z" fill="#FFED48"/>
</g>
<g filter="url(#filter7_d_722_1690)">
<path d="M98.8077 86.0095L106.667 98.212L102.905 83.6342L98.8077 86.0095Z" fill="#FFED48"/>
</g>
<g filter="url(#filter8_i_722_1690)">
<path d="M230.936 64.6737L156.228 158.042L260.933 89.9859L230.936 64.6737Z" fill="#FFED48"/>
</g>
<g filter="url(#filter9_i_722_1690)">
<path d="M255.242 216.298L134.193 174.648L240.31 254.792L255.242 216.298Z" fill="#FFED48"/>
</g>
<g filter="url(#filter10_i_722_1690)">
<path d="M202.387 168.122L170.376 164.709L200.942 178.401L202.387 168.122Z" fill="#FFED48"/>
</g>
<g filter="url(#filter11_i_722_1690)">
<path d="M66.7313 294.421L117.685 225.953L44.6949 277.094L66.7313 294.421Z" fill="#FFED48"/>
</g>
<g filter="url(#filter12_i_722_1690)">
<path d="M80.3328 138.177L120.292 82.5512L178.24 361.207L80.3328 138.177Z" fill="url(#paint0_linear_722_1690)"/>
</g>
<g filter="url(#filter13_i_722_1690)">
<path d="M179.287 118.46L120.293 82.5509L178.24 361.207L179.287 118.46Z" fill="#4F0968"/>
</g>
<g filter="url(#filter14_ii_722_1690)">
<path d="M183.567 312.059L152.983 318.154L149.649 327.327L132.844 330.676L124.433 372.772L231.566 351.425L207.013 315.897L190.493 319.189L183.567 312.059Z" fill="url(#paint1_linear_722_1690)"/>
</g>
<path d="M87.7895 139.222L117.84 97.381L125 131.808L87.7895 139.222Z" fill="url(#paint2_linear_722_1690)"/>
<path d="M107.289 183.845L127.611 144.364L134.686 178.386L107.289 183.845Z" fill="url(#paint3_linear_722_1690)"/>
<path d="M126.149 227.897L137.653 193.056L144.152 224.309L126.149 227.897Z" fill="url(#paint4_linear_722_1690)"/>
<path d="M143.592 268.152L147.9 242.333L152.884 266.3L143.592 268.152Z" fill="url(#paint5_linear_722_1690)"/>
<path d="M125.277 137.236L88.8845 144.488L103.488 177.853L125.277 137.236Z" fill="url(#paint6_linear_722_1690)"/>
<path d="M135.115 183.761L108.38 189.088L122.899 222.049L135.115 183.761Z" fill="url(#paint7_linear_722_1690)"/>
<path d="M144.995 229.333L127.767 232.766L140.022 260.676L144.995 229.333Z" fill="url(#paint8_linear_722_1690)"/>
<path d="M153.666 270.338L144.817 272.101L162.279 311.753L153.666 270.338Z" fill="url(#paint9_linear_722_1690)"/>
<path d="M173.58 121.31L129.211 94.2979L136.37 128.725L173.58 121.31Z" fill="url(#paint10_linear_722_1690)"/>
<path d="M173.453 169.844L138.981 141.281L146.056 175.303L173.453 169.844Z" fill="url(#paint11_linear_722_1690)"/>
<path d="M173.686 217.607L149.184 189.941L155.683 221.194L173.686 217.607Z" fill="url(#paint12_linear_722_1690)"/>
<path d="M173.707 261.334L159.116 237.702L164.415 263.185L173.707 261.334Z" fill="url(#paint13_linear_722_1690)"/>
<path d="M138.283 133.827L174.675 126.576L174.558 162.874L138.283 133.827Z" fill="url(#paint14_linear_722_1690)"/>
<path d="M147.808 180.415L174.543 175.087L174.342 210.981L147.808 180.415Z" fill="url(#paint15_linear_722_1690)"/>
<path d="M156.914 226.141L174.142 222.708L174.008 253.087L156.914 226.141Z" fill="url(#paint16_linear_722_1690)"/>
<path d="M165.308 267.2L174.157 265.437L173.92 308.616L165.308 267.2Z" fill="url(#paint17_linear_722_1690)"/>
<path d="M174.262 331.318C174.348 330.971 174.294 330.605 174.103 330.301C175.773 330.114 177.396 330.057 178.876 330.128C181.4 330.248 183.604 330.742 184.874 331.681C186.099 332.587 187.086 334.008 186.408 335.553C185.792 336.958 183.994 337.842 183.064 338.971C182.449 339.719 181.968 340.651 183.022 341.169C184.292 341.598 185.323 341.775 186.11 341.773C188.25 341.768 188.193 340.169 186.894 338.792C186.439 338.31 187.187 337.603 187.642 338.086C188.6 339.102 189.674 340.953 188.338 342.131C187.819 342.588 187.042 342.8 186.112 342.802C184.741 342.805 181.172 342.445 181.343 340.228C181.546 337.603 186.374 336.635 185.535 334.03C184.74 331.561 180.892 331.254 178.827 331.155C177.417 331.088 175.864 331.141 174.262 331.318Z" fill="white"/>
<path d="M168.082 332.617C166.798 333.022 165.591 333.492 164.511 334.001C162.64 334.884 159.205 336.644 159.417 339.229C159.628 341.803 164.453 340.965 165.666 343.351C166.674 345.335 163.521 347.032 162.248 347.557C161.388 347.912 160.589 348.014 159.935 347.79C158.249 347.214 158.531 345.092 159.027 343.786C159.262 343.166 160.224 343.531 159.989 344.151C159.317 345.92 159.876 347.422 161.856 346.606C162.583 346.306 163.467 345.747 164.476 344.864C165.251 343.98 164.449 343.304 163.594 342.848C162.303 342.162 160.303 342.034 159.195 340.972C157.977 339.804 158.343 338.113 159.128 336.806C159.941 335.451 161.787 334.15 164.072 333.071C165.198 332.539 166.453 332.052 167.783 331.632C167.743 331.988 167.856 332.34 168.082 332.617Z" fill="white"/>
<path d="M179.553 343.694C179.683 344.344 180.692 344.143 180.562 343.492C180.237 341.861 179.678 340.647 179.003 339.86C177.613 338.24 175.536 338.654 174.874 340.683C174.552 341.668 174.501 343.004 174.826 344.635C174.956 345.286 175.965 345.085 175.835 344.434C175.532 342.915 175.601 341.769 175.852 341.002C176.271 339.718 177.342 339.505 178.222 340.53C178.747 341.142 179.25 342.174 179.553 343.694Z" fill="white"/>
<path d="M168.042 341.349C167.912 340.698 166.903 340.899 167.032 341.55C167.358 343.181 167.917 344.395 168.592 345.182C169.132 345.812 169.783 346.201 170.453 346.243L171.079 349.386C171.208 350.036 172.217 349.835 172.088 349.184L171.459 346.027C172.036 345.723 172.47 345.126 172.721 344.359C173.043 343.374 173.094 342.039 172.769 340.407C172.639 339.756 171.63 339.957 171.759 340.608C172.062 342.128 171.993 343.273 171.743 344.04C171.323 345.324 170.252 345.537 169.372 344.512C168.847 343.9 168.344 342.868 168.042 341.349Z" fill="white"/>
<path d="M169.701 334.188C169.693 334.186 169.635 334.162 169.627 334.16C169.623 334.157 169.568 334.165 169.56 334.163C169.527 334.158 169.503 334.128 169.472 334.116C169.467 334.106 169.418 334.095 169.414 334.092L169.406 334.086C169.397 334.081 169.347 334.059 169.338 334.053C169.321 334.039 169.254 333.988 169.245 333.979C169.23 333.957 169.168 333.862 169.161 333.842C169.168 333.823 169.15 333.809 169.134 333.816C169.102 333.765 169.078 333.716 169.076 333.652C169.146 333.628 169.213 333.693 169.216 333.763L169.351 333.958C169.36 333.963 169.401 333.991 169.409 333.996C169.41 334.003 169.44 334.026 169.445 334.032C169.463 334.053 169.513 334.051 169.536 334.06L169.684 334.031C169.684 334.031 169.702 334.013 169.707 334.005C169.715 333.989 169.741 333.944 169.741 333.941L169.946 332.747C169.95 332.714 169.955 332.653 169.94 332.613C169.94 332.613 169.933 332.614 169.93 332.615C169.924 332.623 169.9 332.642 169.897 332.646C169.892 332.658 169.84 332.736 169.834 332.744C169.805 332.793 169.764 332.837 169.73 332.883C169.727 332.887 169.724 332.906 169.724 332.909C169.72 332.921 169.697 332.95 169.694 332.954C169.626 333.025 169.445 333.029 169.376 332.953C169.357 332.929 169.269 332.811 169.258 332.788C169.253 332.782 169.239 332.749 169.238 332.745L169.19 332.487C169.19 332.466 169.195 332.436 169.188 332.42L169.209 332.08C169.22 332.046 169.223 332.006 169.227 331.973L169.355 331.576L169.458 331.392C169.465 331.39 169.489 331.371 169.492 331.367C169.495 331.366 169.5 331.351 169.5 331.351C169.515 331.337 169.561 331.303 169.564 331.299C169.583 331.285 169.683 331.233 169.706 331.224C169.713 331.223 169.751 331.215 169.754 331.215C169.758 331.214 169.78 331.199 169.78 331.199C169.783 331.198 169.805 331.201 169.813 331.203C169.835 331.206 169.864 331.207 169.884 331.221C169.888 331.224 169.927 331.255 169.93 331.255C169.938 331.26 170.005 331.29 170.012 331.292C170.016 331.291 170.024 331.297 170.025 331.304C170.035 331.316 170.062 331.361 170.08 331.325C170.102 331.256 170.105 331.202 170.138 331.149C170.158 331.127 170.177 331.131 170.206 331.135C170.239 331.14 170.269 331.162 170.294 331.182C170.307 331.194 170.361 331.265 170.37 331.278C170.391 331.309 170.407 331.41 170.393 331.445L170.379 331.697C170.401 331.703 170.421 331.639 170.412 331.612L170.422 331.396C170.424 331.385 170.453 331.39 170.454 331.411L170.439 331.749C170.427 331.762 170.42 331.778 170.42 331.796C170.412 331.901 170.395 331.976 170.433 332.075L170.391 332.494C170.375 332.501 170.373 332.512 170.373 332.526C170.372 332.559 170.364 332.664 170.361 332.682C170.362 332.686 170.365 332.703 170.366 332.706L170.386 332.702L170.323 333.443C170.322 333.454 170.307 333.507 170.301 333.526C170.297 333.527 170.292 333.538 170.293 333.542C170.284 333.533 170.277 333.531 170.278 333.52L170.355 332.794C170.355 332.78 170.352 332.656 170.347 332.61C170.344 332.6 170.34 332.558 170.338 332.548L170.278 333.199C170.273 333.21 170.255 333.278 170.253 333.289C170.251 333.297 170.249 333.358 170.247 333.365C170.239 333.413 170.195 333.626 170.186 333.667C170.187 333.674 170.187 333.709 170.184 333.713C170.18 333.743 170.144 333.886 170.136 333.919C170.142 333.915 170.164 333.882 170.167 333.877C170.173 333.873 170.184 333.856 170.184 333.853L170.251 333.6L170.261 333.598L170.268 333.632C170.271 333.646 170.245 333.769 170.232 333.811C170.229 333.829 170.16 333.95 170.153 333.966C170.15 333.97 170.138 334.019 170.136 334.026C170.124 334.054 170.089 334.096 170.068 334.115C170.065 334.116 170.023 334.124 170.02 334.125C170.017 334.125 169.999 334.143 169.995 334.144C169.992 334.144 169.96 334.144 169.958 334.151C169.944 334.154 169.849 334.198 169.839 334.203C169.836 334.204 169.822 334.207 169.819 334.207C169.797 334.205 169.715 334.189 169.701 334.188ZM170.109 333.996L170.072 334.061C170.096 334.074 170.119 334.012 170.109 333.996ZM169.47 332.817C169.477 332.83 169.487 332.846 169.487 332.846L169.531 332.837L169.667 332.713L170.002 332.133L170.049 331.492C170.051 331.484 170.046 331.46 170.04 331.45C170.04 331.447 170.032 331.442 170.032 331.442C170.017 331.441 169.968 331.444 169.954 331.446C169.947 331.448 169.93 331.451 169.927 331.452C169.923 331.452 169.906 331.474 169.903 331.478C169.89 331.484 169.843 331.518 169.834 331.524C169.815 331.535 169.776 331.539 169.762 331.559C169.747 331.588 169.67 331.706 169.657 331.73C169.654 331.734 169.637 331.788 169.637 331.791C169.634 331.792 169.628 331.8 169.629 331.804C169.621 331.82 169.581 331.938 169.573 331.954C169.57 331.955 169.56 331.978 169.56 331.978C169.546 332.013 169.516 332.097 169.515 332.112L169.467 332.421L169.47 332.439C169.462 332.469 169.453 332.588 169.452 332.617C169.451 332.628 169.466 332.739 169.462 332.776C169.464 332.783 169.47 332.814 169.47 332.817ZM170.343 332.375C170.344 332.382 170.349 332.406 170.35 332.413C170.367 332.424 170.376 332.38 170.377 332.369L170.39 331.898L170.377 331.883C170.351 331.953 170.37 332.027 170.366 332.099C170.367 332.139 170.349 332.321 170.347 332.364C170.344 332.364 170.342 332.372 170.343 332.375ZM170.065 332.042C170.059 332.043 170.062 332.06 170.069 332.059C170.079 332.057 170.076 332.04 170.065 332.042ZM170.377 331.744C170.371 331.745 170.374 331.762 170.381 331.761C170.391 331.759 170.388 331.742 170.377 331.744ZM170.382 331.714C170.372 331.716 170.377 331.744 170.388 331.742C170.398 331.74 170.392 331.712 170.382 331.714ZM170.06 331.35C170.053 331.352 170.056 331.369 170.063 331.367C170.074 331.365 170.07 331.348 170.06 331.35ZM170.949 332.826C170.933 332.818 170.861 332.779 170.848 332.767C170.84 332.762 170.762 332.674 170.738 332.643C170.691 332.588 170.666 332.514 170.648 332.443C170.642 332.43 170.614 332.325 170.611 332.311C170.587 332.227 170.598 332.139 170.598 332.05C170.597 332.046 170.593 332.022 170.593 332.022C170.592 332.001 170.603 331.967 170.606 331.948C170.609 331.944 170.612 331.922 170.611 331.919C170.611 331.915 170.608 331.901 170.607 331.898C170.61 331.894 170.618 331.864 170.62 331.856C170.638 331.803 170.647 331.74 170.664 331.68L170.669 331.671C170.692 331.606 170.704 331.561 170.724 331.5C170.728 331.499 170.733 331.491 170.733 331.491C170.736 331.487 170.754 331.451 170.753 331.448C170.756 331.444 170.761 331.435 170.761 331.435C170.767 331.427 170.79 331.365 170.796 331.361C170.823 331.316 170.926 331.17 170.941 331.153C170.95 331.144 171.05 331.057 171.083 331.025C171.086 331.024 171.109 331.013 171.112 331.009C171.115 331.008 171.124 330.999 171.128 330.998C171.157 330.985 171.284 330.942 171.31 330.93C171.314 330.929 171.327 330.926 171.331 330.926C171.352 330.925 171.422 330.918 171.429 330.917C171.45 330.916 171.51 330.929 171.521 330.948L171.609 331.088C171.609 331.088 171.611 331.095 171.611 331.098C171.611 331.13 171.607 331.217 171.607 331.217L171.506 331.465C171.501 331.474 171.473 331.511 171.47 331.519C171.468 331.523 171.464 331.538 171.464 331.542C171.452 331.569 171.374 331.695 171.35 331.721C171.342 331.734 171.242 331.821 171.208 331.85C171.205 331.854 171.159 331.874 171.156 331.878C171.151 331.886 171.11 331.951 171.101 331.96C171.09 331.973 171.032 332.024 171.02 332.033C170.985 332.058 170.929 332.044 170.913 332.087C170.907 332.095 170.898 332.122 170.899 332.129L170.901 332.421C170.899 332.432 170.907 332.47 170.912 332.48C170.916 332.497 170.952 332.572 170.962 332.587C170.963 332.591 170.971 332.596 170.975 332.596C170.975 332.596 170.993 332.599 170.994 332.603C171.007 332.614 170.988 332.625 171.01 332.628L171.016 332.605C171.06 332.632 171.106 332.627 171.152 332.61C171.216 332.59 171.369 332.531 171.375 332.527L171.722 332.19C171.732 332.17 171.753 332.148 171.767 332.131L172.1 331.561L172.155 331.55C172.158 331.55 172.18 331.588 172.187 331.605C172.202 331.644 172.143 331.742 172.133 331.783C172.134 331.786 172.137 331.8 172.137 331.8L171.905 332.175L171.898 332.194L171.533 332.584C171.527 332.589 171.395 332.683 171.342 332.719C171.339 332.723 171.313 332.735 171.306 332.737C171.303 332.737 171.255 332.747 171.251 332.748C171.238 332.75 171.141 332.787 171.131 332.789C171.071 332.812 171.016 332.855 170.949 332.826ZM171.572 332.477C171.569 332.477 171.57 332.484 171.574 332.487L171.642 332.434C171.624 332.431 171.575 332.458 171.572 332.477ZM170.933 331.904C170.935 331.911 170.941 331.942 170.943 331.952L170.972 331.936L171.27 331.659L171.445 331.356C171.471 331.358 171.464 331.327 171.458 331.314C171.496 331.235 171.518 331.149 171.487 331.062C171.48 331.046 171.445 330.999 171.417 331.019C171.408 331.025 171.365 331.062 171.36 331.07C171.333 331.1 171.274 331.18 171.275 331.183C171.22 331.301 171.105 331.528 171.099 331.536L170.946 331.862C170.941 331.871 170.935 331.897 170.933 331.904ZM171.435 331.447C171.424 331.45 171.429 331.47 171.439 331.468C171.449 331.466 171.445 331.445 171.435 331.447ZM171.116 331.422C171.114 331.429 171.105 331.46 171.103 331.467C171.129 331.455 171.198 331.352 171.202 331.319C171.169 331.311 171.122 331.403 171.116 331.422ZM171.215 331.277L171.217 331.284L171.222 331.276L171.215 331.277ZM172.283 332.867C172.222 332.865 172.144 332.848 172.087 332.817C172.052 332.799 172.03 332.764 171.995 332.749C171.94 332.668 171.923 332.585 171.894 332.491C171.893 332.488 171.891 332.474 171.891 332.474L171.882 332.09C171.881 332.083 171.876 332.059 171.874 332.052C171.877 332.048 171.883 332.04 171.883 332.04L171.889 331.821L171.888 331.814L171.889 331.535L171.896 331.516L172.021 330.406C171.954 330.412 171.906 330.458 171.847 330.48C171.836 330.482 171.802 330.489 171.802 330.489L171.663 330.399C171.641 330.382 171.637 330.322 171.666 330.309L171.874 330.207C171.875 330.21 171.889 330.208 171.891 330.204C171.898 330.202 171.957 330.173 171.964 330.171L171.974 330.169C172.007 330.156 172.092 330.117 172.091 330.114L172.1 330.105C172.1 330.101 172.129 329.999 172.139 329.958C172.144 329.946 172.136 329.926 172.148 329.917L172.208 329.609C172.212 329.59 172.234 329.575 172.248 329.572C172.267 329.565 172.322 329.554 172.346 329.563C172.353 329.565 172.377 329.578 172.379 329.585C172.383 329.588 172.385 329.62 172.386 329.623C172.386 329.623 172.398 329.628 172.399 329.631C172.403 329.637 172.42 329.652 172.425 329.655C172.425 329.658 172.425 329.673 172.428 329.672C172.429 329.679 172.454 329.713 172.455 329.716C172.455 329.72 172.46 329.741 172.461 329.747C172.461 329.765 172.452 329.863 172.449 329.885C172.45 329.889 172.439 329.923 172.44 329.927C172.437 329.934 172.436 329.963 172.437 329.966C172.448 329.968 172.458 329.966 172.463 329.954L172.499 329.797L172.508 329.784C172.528 329.834 172.479 329.894 172.501 329.947L172.528 329.941L173.989 329.354L174.068 329.338C174.041 329.347 173.926 329.398 173.904 329.41C173.884 329.417 173.864 329.425 173.849 329.439L173.88 329.433C173.909 329.42 174.053 329.355 174.086 329.341C174.107 329.337 174.158 329.327 174.162 329.326L174.174 329.335L174.25 329.32L174.262 329.328C174.23 329.345 174.085 329.406 174.052 329.42C174.038 329.422 173.966 329.437 173.949 329.44L173.649 329.568L173.677 329.562C173.73 329.541 173.974 329.46 174.028 329.442C174.052 329.438 174.158 329.416 174.179 329.412C174.157 329.427 174.044 329.489 174.019 329.505C174.003 329.515 173.974 329.549 173.949 329.547L173.947 329.537C173.9 329.536 173.919 329.593 173.888 329.581L172.544 330.163C172.544 330.163 172.537 330.164 172.533 330.165C172.52 330.171 172.478 330.194 172.472 330.198C172.472 330.198 172.467 330.207 172.463 330.207L172.339 330.875C172.339 330.875 172.334 330.883 172.334 330.886C172.332 330.894 172.328 330.945 172.327 330.956C172.328 330.959 172.33 330.973 172.331 330.976C172.33 330.987 172.315 331.076 172.314 331.087C172.314 331.09 172.317 331.104 172.318 331.107C172.319 331.111 172.31 331.141 172.308 331.149C172.297 331.144 172.292 331.141 172.294 331.13C172.297 331.108 172.303 331.017 172.307 330.999C172.307 330.999 172.31 330.98 172.314 330.98C172.311 330.966 172.317 330.872 172.318 330.857C172.321 330.839 172.357 330.693 172.36 330.674C172.359 330.671 172.361 330.642 172.363 330.634C172.362 330.631 172.361 330.624 172.361 330.624L172.421 330.248L172.417 330.227L172.41 330.229C172.408 330.233 172.398 330.256 172.395 330.26L172.313 330.741C172.317 330.743 172.318 330.75 172.315 330.751C172.302 330.832 172.283 330.914 172.277 330.994C172.275 330.998 172.277 331.012 172.282 331.015L172.227 331.44C172.204 331.487 172.219 331.541 172.217 331.588C172.217 331.602 172.212 331.707 172.214 331.717C172.215 331.72 172.216 331.724 172.216 331.727C172.23 331.742 172.224 331.694 172.236 331.684C172.236 331.684 172.238 331.691 172.238 331.694C172.237 331.705 172.232 331.803 172.234 331.813C172.231 331.871 172.218 331.93 172.237 331.991L172.203 331.965C172.198 332.009 172.197 332.059 172.209 332.103C172.226 332.114 172.225 332.04 172.238 332.03C172.247 332.06 172.25 332.11 172.227 332.139L172.213 332.124C172.189 332.147 172.207 332.197 172.215 332.22C172.227 332.211 172.217 332.159 172.243 332.165C172.244 332.168 172.245 332.175 172.245 332.175C172.249 332.231 172.252 332.388 172.251 332.402C172.249 332.41 172.247 332.453 172.241 332.461C172.227 332.407 172.237 332.348 172.22 332.298L172.209 332.3C172.209 332.3 172.21 332.41 172.212 332.456C172.213 332.46 172.214 332.467 172.214 332.467C172.216 332.477 172.219 332.526 172.217 332.537C172.267 332.556 172.242 332.625 172.254 332.666C172.258 332.668 172.265 332.667 172.264 332.664C172.264 332.664 172.269 332.655 172.272 332.651C172.282 332.646 172.366 332.583 172.374 332.574C172.381 332.569 172.404 332.543 172.407 332.539L172.92 331.459C172.922 331.454 172.957 331.448 172.96 331.461C172.964 331.468 172.97 331.513 172.97 331.516C172.976 331.526 173.024 331.588 173.025 331.595C173.029 331.597 173.032 331.611 173.029 331.615C173.005 331.674 172.976 331.758 172.964 331.825C172.962 331.832 172.961 331.897 172.959 331.904L172.954 331.916C172.939 331.969 172.912 332.049 172.912 332.103L172.754 332.398C172.748 332.407 172.764 332.414 172.768 332.417L172.548 332.746C172.479 332.742 172.474 332.804 172.435 332.826C172.378 332.862 172.351 332.868 172.283 332.867ZM172.526 332.69C172.523 332.694 172.518 332.702 172.518 332.702C172.525 332.701 172.546 332.682 172.552 332.678C172.552 332.678 172.576 332.655 172.567 332.643C172.551 332.671 172.547 332.668 172.526 332.69ZM172.505 332.637C172.506 332.64 172.522 332.651 172.529 332.65C172.532 332.649 172.55 332.632 172.553 332.627C172.543 332.612 172.505 332.619 172.505 332.637ZM172.634 332.551C172.634 332.551 172.635 332.558 172.636 332.561L172.661 332.527C172.655 332.529 172.64 332.546 172.634 332.551ZM172.672 332.493L172.675 332.503L172.732 332.435L172.712 332.439L172.672 332.493ZM172.698 332.37C172.699 332.374 172.701 332.387 172.702 332.391C172.708 332.383 172.73 332.353 172.732 332.345C172.732 332.342 172.73 332.335 172.73 332.335C172.728 332.339 172.71 332.357 172.706 332.358C172.703 332.362 172.698 332.37 172.698 332.37ZM172.701 332.33L172.692 332.343L172.703 332.341L172.701 332.33ZM172.797 332.222C172.793 332.219 172.785 332.232 172.789 332.234C172.796 332.236 172.802 332.228 172.797 332.222ZM172.212 332.26C172.202 332.262 172.206 332.283 172.216 332.281C172.226 332.278 172.222 332.258 172.212 332.26ZM172.213 331.817C172.203 331.819 172.206 331.836 172.216 331.834C172.227 331.832 172.223 331.815 172.213 331.817ZM172.221 331.748C172.213 331.746 172.216 331.759 172.222 331.755C172.225 331.754 172.224 331.747 172.221 331.748ZM172.256 331.534C172.256 331.494 172.261 331.429 172.278 331.39C172.279 331.397 172.284 331.421 172.285 331.428C172.284 331.457 172.276 331.526 172.274 331.53L172.258 331.54L172.256 331.534ZM172.282 331.321C172.285 331.282 172.295 331.19 172.295 331.19L172.303 331.178C172.304 331.181 172.308 331.202 172.309 331.205C172.307 331.234 172.294 331.312 172.292 331.319L172.283 331.328L172.282 331.321ZM172.224 330.78C172.214 330.782 172.217 330.799 172.227 330.797C172.238 330.795 172.234 330.778 172.224 330.78ZM173.533 329.68C173.522 329.682 173.526 329.703 173.537 329.701C173.547 329.699 173.543 329.678 173.533 329.68ZM173.709 329.616C173.708 329.61 173.694 329.612 173.699 329.619C173.7 329.622 173.706 329.621 173.709 329.616ZM173.858 329.537C173.851 329.538 173.854 329.555 173.861 329.554C173.871 329.552 173.868 329.535 173.858 329.537ZM173.621 329.584C173.623 329.577 173.609 329.579 173.614 329.585C173.615 329.592 173.622 329.591 173.621 329.584ZM173.986 329.483C173.976 329.485 173.979 329.502 173.989 329.5C174 329.498 173.996 329.481 173.986 329.483ZM173.834 329.452C173.832 329.446 173.822 329.448 173.823 329.455C173.825 329.461 173.831 329.46 173.834 329.452ZM174.147 329.34L174.149 329.35L174.154 329.339L174.147 329.34Z" fill="#FFDF39"/>
<defs>
<filter id="filter0_d_722_1690" x="43.1357" y="73.4388" width="68.7964" height="81.1389" filterUnits="userSpaceOnUse" color-interpolation-filters="sRGB">
<feFlood flood-opacity="0" result="BackgroundImageFix"/>
<feColorMatrix in="SourceAlpha" type="matrix" values="0 0 0 0 0 0 0 0 0 0 0 0 0 0 0 0 0 0 127 0" result="hardAlpha"/>
<feOffset dx="-1.95724"/>
<feComposite in2="hardAlpha" operator="out"/>
<feColorMatrix type="matrix" values="0 0 0 0 0 0 0 0 0 0 0 0 0 0 0 0 0 0 1 0"/>
<feBlend mode="normal" in2="BackgroundImageFix" result="effect1_dropShadow_722_1690"/>
<feBlend mode="normal" in="SourceGraphic" in2="effect1_dropShadow_722_1690" result="shape"/>
</filter>
<filter id="filter1_i_722_1690" x="46.4254" y="134.548" width="36.714" height="21.2406" filterUnits="userSpaceOnUse" color-interpolation-filters="sRGB">
<feFlood flood-opacity="0" result="BackgroundImageFix"/>
<feBlend mode="normal" in="SourceGraphic" in2="BackgroundImageFix" result="shape"/>
<feColorMatrix in="SourceAlpha" type="matrix" values="0 0 0 0 0 0 0 0 0 0 0 0 0 0 0 0 0 0 127 0" result="hardAlpha"/>
<feOffset dx="0.838819"/>
<feComposite in2="hardAlpha" operator="arithmetic" k2="-1" k3="1"/>
<feColorMatrix type="matrix" values="0 0 0 0 0 0 0 0 0 0 0 0 0 0 0 0 0 0 1 0"/>
<feBlend mode="normal" in2="shape" result="effect1_innerShadow_722_1690"/>
</filter>
<filter id="filter2_i_722_1690" x="6.80621" y="176.973" width="112.147" height="36.6493" filterUnits="userSpaceOnUse" color-interpolation-filters="sRGB">
<feFlood flood-opacity="0" result="BackgroundImageFix"/>
<feBlend mode="normal" in="SourceGraphic" in2="BackgroundImageFix" result="shape"/>
<feColorMatrix in="SourceAlpha" type="matrix" values="0 0 0 0 0 0 0 0 0 0 0 0 0 0 0 0 0 0 127 0" result="hardAlpha"/>
<feOffset dx="1.11843" dy="-1.11843"/>
<feComposite in2="hardAlpha" operator="arithmetic" k2="-1" k3="1"/>
<feColorMatrix type="matrix" values="0 0 0 0 0 0 0 0 0 0 0 0 0 0 0 0 0 0 1 0"/>
<feBlend mode="normal" in2="shape" result="effect1_innerShadow_722_1690"/>
</filter>
<filter id="filter3_i_722_1690" x="70.9565" y="204.152" width="29.8374" height="20.8468" filterUnits="userSpaceOnUse" color-interpolation-filters="sRGB">
<feFlood flood-opacity="0" result="BackgroundImageFix"/>
<feBlend mode="normal" in="SourceGraphic" in2="BackgroundImageFix" result="shape"/>
<feColorMatrix in="SourceAlpha" type="matrix" values="0 0 0 0 0 0 0 0 0 0 0 0 0 0 0 0 0 0 127 0" result="hardAlpha"/>
<feOffset dx="0.559213" dy="-1.11843"/>
<feComposite in2="hardAlpha" operator="arithmetic" k2="-1" k3="1"/>
<feColorMatrix type="matrix" values="0 0 0 0 0 0 0 0 0 0 0 0 0 0 0 0 0 0 1 0"/>
<feBlend mode="normal" in2="shape" result="effect1_innerShadow_722_1690"/>
</filter>
<filter id="filter4_i_722_1690" x="149.742" y="74.426" width="19.8752" height="58.6602" filterUnits="userSpaceOnUse" color-interpolation-filters="sRGB">
<feFlood flood-opacity="0" result="BackgroundImageFix"/>
<feBlend mode="normal" in="SourceGraphic" in2="BackgroundImageFix" result="shape"/>
<feColorMatrix in="SourceAlpha" type="matrix" values="0 0 0 0 0 0 0 0 0 0 0 0 0 0 0 0 0 0 127 0" result="hardAlpha"/>
<feOffset dx="-1.39803" dy="0.559213"/>
<feComposite in2="hardAlpha" operator="arithmetic" k2="-1" k3="1"/>
<feColorMatrix type="matrix" values="0 0 0 0 0 0 0 0 0 0 0 0 0 0 0 0 0 0 1 0"/>
<feBlend mode="normal" in2="shape" result="effect1_innerShadow_722_1690"/>
</filter>
<filter id="filter5_i_722_1690" x="216.424" y="128.049" width="22.113" height="11.3248" filterUnits="userSpaceOnUse" color-interpolation-filters="sRGB">
<feFlood flood-opacity="0" result="BackgroundImageFix"/>
<feBlend mode="normal" in="SourceGraphic" in2="BackgroundImageFix" result="shape"/>
<feColorMatrix in="SourceAlpha" type="matrix" values="0 0 0 0 0 0 0 0 0 0 0 0 0 0 0 0 0 0 127 0" result="hardAlpha"/>
<feOffset dx="-0.838819" dy="-0.559213"/>
<feComposite in2="hardAlpha" operator="arithmetic" k2="-1" k3="1"/>
<feColorMatrix type="matrix" values="0 0 0 0 0 0 0 0 0 0 0 0 0 0 0 0 0 0 1 0"/>
<feBlend mode="normal" in2="shape" result="effect1_innerShadow_722_1690"/>
</filter>
<filter id="filter6_i_722_1690" x="249.89" y="174.98" width="21.627" height="10.17" filterUnits="userSpaceOnUse" color-interpolation-filters="sRGB">
<feFlood flood-opacity="0" result="BackgroundImageFix"/>
<feBlend mode="normal" in="SourceGraphic" in2="BackgroundImageFix" result="shape"/>
<feColorMatrix in="SourceAlpha" type="matrix" values="0 0 0 0 0 0 0 0 0 0 0 0 0 0 0 0 0 0 127 0" result="hardAlpha"/>
<feOffset dx="-0.279606" dy="-1.11843"/>
<feComposite in2="hardAlpha" operator="arithmetic" k2="-1" k3="1"/>
<feColorMatrix type="matrix" values="0 0 0 0 0 0 0 0 0 0 0 0 0 0 0 0 0 0 1 0"/>
<feBlend mode="normal" in2="shape" result="effect1_innerShadow_722_1690"/>
</filter>
<filter id="filter7_d_722_1690" x="97.4097" y="83.3545" width="9.25765" height="14.8575" filterUnits="userSpaceOnUse" color-interpolation-filters="sRGB">
<feFlood flood-opacity="0" result="BackgroundImageFix"/>
<feColorMatrix in="SourceAlpha" type="matrix" values="0 0 0 0 0 0 0 0 0 0 0 0 0 0 0 0 0 0 127 0" result="hardAlpha"/>
<feOffset dx="-1.39803" dy="-0.279606"/>
<feComposite in2="hardAlpha" operator="out"/>
<feColorMatrix type="matrix" values="0 0 0 0 0 0 0 0 0 0 0 0 0 0 0 0 0 0 1 0"/>
<feBlend mode="normal" in2="BackgroundImageFix" result="effect1_dropShadow_722_1690"/>
<feBlend mode="normal" in="SourceGraphic" in2="effect1_dropShadow_722_1690" result="shape"/>
</filter>
<filter id="filter8_i_722_1690" x="156.228" y="64.6737" width="104.705" height="93.3679" filterUnits="userSpaceOnUse" color-interpolation-filters="sRGB">
<feFlood flood-opacity="0" result="BackgroundImageFix"/>
<feBlend mode="normal" in="SourceGraphic" in2="BackgroundImageFix" result="shape"/>
<feColorMatrix in="SourceAlpha" type="matrix" values="0 0 0 0 0 0 0 0 0 0 0 0 0 0 0 0 0 0 127 0" result="hardAlpha"/>
<feOffset dx="-1.95724" dy="-0.559213"/>
<feComposite in2="hardAlpha" operator="arithmetic" k2="-1" k3="1"/>
<feColorMatrix type="matrix" values="0 0 0 0 0 0 0 0 0 0 0 0 0 0 0 0 0 0 1 0"/>
<feBlend mode="normal" in2="shape" result="effect1_innerShadow_722_1690"/>
</filter>
<filter id="filter9_i_722_1690" x="134.193" y="174.648" width="121.049" height="80.1443" filterUnits="userSpaceOnUse" color-interpolation-filters="sRGB">
<feFlood flood-opacity="0" result="BackgroundImageFix"/>
<feBlend mode="normal" in="SourceGraphic" in2="BackgroundImageFix" result="shape"/>
<feColorMatrix in="SourceAlpha" type="matrix" values="0 0 0 0 0 0 0 0 0 0 0 0 0 0 0 0 0 0 127 0" result="hardAlpha"/>
<feOffset dx="-0.279606" dy="-1.67764"/>
<feComposite in2="hardAlpha" operator="arithmetic" k2="-1" k3="1"/>
<feColorMatrix type="matrix" values="0 0 0 0 0 0 0 0 0 0 0 0 0 0 0 0 0 0 1 0"/>
<feBlend mode="normal" in2="shape" result="effect1_innerShadow_722_1690"/>
</filter>
<filter id="filter10_i_722_1690" x="170.376" y="164.709" width="32.0116" height="13.6923" filterUnits="userSpaceOnUse" color-interpolation-filters="sRGB">
<feFlood flood-opacity="0" result="BackgroundImageFix"/>
<feBlend mode="normal" in="SourceGraphic" in2="BackgroundImageFix" result="shape"/>
<feColorMatrix in="SourceAlpha" type="matrix" values="0 0 0 0 0 0 0 0 0 0 0 0 0 0 0 0 0 0 127 0" result="hardAlpha"/>
<feOffset dx="-0.559213" dy="-0.838819"/>
<feComposite in2="hardAlpha" operator="arithmetic" k2="-1" k3="1"/>
<feColorMatrix type="matrix" values="0 0 0 0 0 0 0 0 0 0 0 0 0 0 0 0 0 0 1 0"/>
<feBlend mode="normal" in2="shape" result="effect1_innerShadow_722_1690"/>
</filter>
<filter id="filter11_i_722_1690" x="44.6949" y="225.953" width="72.9897" height="68.4681" filterUnits="userSpaceOnUse" color-interpolation-filters="sRGB">
<feFlood flood-opacity="0" result="BackgroundImageFix"/>
<feBlend mode="normal" in="SourceGraphic" in2="BackgroundImageFix" result="shape"/>
<feColorMatrix in="SourceAlpha" type="matrix" values="0 0 0 0 0 0 0 0 0 0 0 0 0 0 0 0 0 0 127 0" result="hardAlpha"/>
<feOffset dx="0.559213" dy="-1.67764"/>
<feComposite in2="hardAlpha" operator="arithmetic" k2="-1" k3="1"/>
<feColorMatrix type="matrix" values="0 0 0 0 0 0 0 0 0 0 0 0 0 0 0 0 0 0 1 0"/>
<feBlend mode="normal" in2="shape" result="effect1_innerShadow_722_1690"/>
</filter>
<filter id="filter12_i_722_1690" x="80.3328" y="82.5511" width="97.9068" height="278.656" filterUnits="userSpaceOnUse" color-interpolation-filters="sRGB">
<feFlood flood-opacity="0" result="BackgroundImageFix"/>
<feBlend mode="normal" in="SourceGraphic" in2="BackgroundImageFix" result="shape"/>
<feColorMatrix in="SourceAlpha" type="matrix" values="0 0 0 0 0 0 0 0 0 0 0 0 0 0 0 0 0 0 127 0" result="hardAlpha"/>
<feOffset dx="1.1729" dy="1.1729"/>
<feComposite in2="hardAlpha" operator="arithmetic" k2="-1" k3="1"/>
<feColorMatrix type="matrix" values="0 0 0 0 0.992671 0 0 0 0 0.983333 0 0 0 0 1 0 0 0 1 0"/>
<feBlend mode="normal" in2="shape" result="effect1_innerShadow_722_1690"/>
</filter>
<filter id="filter13_i_722_1690" x="120.293" y="82.5509" width="58.9946" height="278.656" filterUnits="userSpaceOnUse" color-interpolation-filters="sRGB">
<feFlood flood-opacity="0" result="BackgroundImageFix"/>
<feBlend mode="normal" in="SourceGraphic" in2="BackgroundImageFix" result="shape"/>
<feColorMatrix in="SourceAlpha" type="matrix" values="0 0 0 0 0 0 0 0 0 0 0 0 0 0 0 0 0 0 127 0" result="hardAlpha"/>
<feOffset dx="-1.95483"/>
<feComposite in2="hardAlpha" operator="arithmetic" k2="-1" k3="1"/>
<feColorMatrix type="matrix" values="0 0 0 0 0 0 0 0 0 0 0 0 0 0 0 0 0 0 1 0"/>
<feBlend mode="normal" in2="shape" result="effect1_innerShadow_722_1690"/>
</filter>
<filter id="filter14_ii_722_1690" x="124.433" y="312.059" width="107.132" height="60.7123" filterUnits="userSpaceOnUse" color-interpolation-filters="sRGB">
<feFlood flood-opacity="0" result="BackgroundImageFix"/>
<feBlend mode="normal" in="SourceGraphic" in2="BackgroundImageFix" result="shape"/>
<feColorMatrix in="SourceAlpha" type="matrix" values="0 0 0 0 0 0 0 0 0 0 0 0 0 0 0 0 0 0 127 0" result="hardAlpha"/>
<feOffset dx="1.1729"/>
<feComposite in2="hardAlpha" operator="arithmetic" k2="-1" k3="1"/>
<feColorMatrix type="matrix" values="0 0 0 0 1 0 0 0 0 1 0 0 0 0 1 0 0 0 1 0"/>
<feBlend mode="normal" in2="shape" result="effect1_innerShadow_722_1690"/>
<feColorMatrix in="SourceAlpha" type="matrix" values="0 0 0 0 0 0 0 0 0 0 0 0 0 0 0 0 0 0 127 0" result="hardAlpha"/>
<feOffset dx="-1.1729"/>
<feComposite in2="hardAlpha" operator="arithmetic" k2="-1" k3="1"/>
<feColorMatrix type="matrix" values="0 0 0 0 0 0 0 0 0 0 0 0 0 0 0 0 0 0 1 0"/>
<feBlend mode="normal" in2="effect1_innerShadow_722_1690" result="effect2_innerShadow_722_1690"/>
</filter>
<linearGradient id="paint0_linear_722_1690" x1="95.5539" y1="87.4805" x2="145.919" y2="317.448" gradientUnits="userSpaceOnUse">
<stop stop-color="#B885CB"/>
<stop offset="1" stop-color="#4F0968"/>
</linearGradient>
<linearGradient id="paint1_linear_722_1690" x1="239.011" y1="331.931" x2="110.647" y2="334.625" gradientUnits="userSpaceOnUse">
<stop offset="0.210673" stop-color="#4F0968"/>
<stop offset="0.994779" stop-color="#A36CB7"/>
</linearGradient>
<linearGradient id="paint2_linear_722_1690" x1="99.2354" y1="101.088" x2="142.016" y2="315.79" gradientUnits="userSpaceOnUse">
<stop offset="0.328125" stop-color="white"/>
<stop offset="1" stop-color="white" stop-opacity="0.2"/>
</linearGradient>
<linearGradient id="paint3_linear_722_1690" x1="99.2354" y1="101.088" x2="142.016" y2="315.79" gradientUnits="userSpaceOnUse">
<stop offset="0.328125" stop-color="white"/>
<stop offset="1" stop-color="white" stop-opacity="0.2"/>
</linearGradient>
<linearGradient id="paint4_linear_722_1690" x1="99.2354" y1="101.088" x2="142.016" y2="315.79" gradientUnits="userSpaceOnUse">
<stop offset="0.328125" stop-color="white"/>
<stop offset="1" stop-color="white" stop-opacity="0.2"/>
</linearGradient>
<linearGradient id="paint5_linear_722_1690" x1="99.2354" y1="101.088" x2="142.016" y2="315.79" gradientUnits="userSpaceOnUse">
<stop offset="0.328125" stop-color="white"/>
<stop offset="1" stop-color="white" stop-opacity="0.2"/>
</linearGradient>
<linearGradient id="paint6_linear_722_1690" x1="99.2354" y1="101.088" x2="142.016" y2="315.79" gradientUnits="userSpaceOnUse">
<stop offset="0.328125" stop-color="white"/>
<stop offset="1" stop-color="white" stop-opacity="0.2"/>
</linearGradient>
<linearGradient id="paint7_linear_722_1690" x1="99.2354" y1="101.088" x2="142.016" y2="315.79" gradientUnits="userSpaceOnUse">
<stop offset="0.328125" stop-color="white"/>
<stop offset="1" stop-color="white" stop-opacity="0.2"/>
</linearGradient>
<linearGradient id="paint8_linear_722_1690" x1="99.2354" y1="101.088" x2="142.016" y2="315.79" gradientUnits="userSpaceOnUse">
<stop offset="0.328125" stop-color="white"/>
<stop offset="1" stop-color="white" stop-opacity="0.2"/>
</linearGradient>
<linearGradient id="paint9_linear_722_1690" x1="99.2354" y1="101.088" x2="142.016" y2="315.79" gradientUnits="userSpaceOnUse">
<stop offset="0.328125" stop-color="white"/>
<stop offset="1" stop-color="white" stop-opacity="0.2"/>
</linearGradient>
<linearGradient id="paint10_linear_722_1690" x1="147.816" y1="90.5907" x2="190.597" y2="305.293" gradientUnits="userSpaceOnUse">
<stop offset="0.328125" stop-color="#DA84D1"/>
<stop offset="1" stop-color="#923488" stop-opacity="0.2"/>
</linearGradient>
<linearGradient id="paint11_linear_722_1690" x1="147.816" y1="90.5907" x2="190.597" y2="305.293" gradientUnits="userSpaceOnUse">
<stop offset="0.328125" stop-color="#DA84D1"/>
<stop offset="1" stop-color="#923488" stop-opacity="0.2"/>
</linearGradient>
<linearGradient id="paint12_linear_722_1690" x1="147.816" y1="90.5907" x2="190.597" y2="305.293" gradientUnits="userSpaceOnUse">
<stop offset="0.328125" stop-color="#DA84D1"/>
<stop offset="1" stop-color="#923488" stop-opacity="0.2"/>
</linearGradient>
<linearGradient id="paint13_linear_722_1690" x1="147.816" y1="90.5907" x2="190.597" y2="305.293" gradientUnits="userSpaceOnUse">
<stop offset="0.328125" stop-color="#DA84D1"/>
<stop offset="1" stop-color="#923488" stop-opacity="0.2"/>
</linearGradient>
<linearGradient id="paint14_linear_722_1690" x1="147.816" y1="90.5907" x2="190.597" y2="305.293" gradientUnits="userSpaceOnUse">
<stop offset="0.328125" stop-color="#DA84D1"/>
<stop offset="1" stop-color="#923488" stop-opacity="0.2"/>
</linearGradient>
<linearGradient id="paint15_linear_722_1690" x1="147.816" y1="90.5907" x2="190.597" y2="305.293" gradientUnits="userSpaceOnUse">
<stop offset="0.328125" stop-color="#DA84D1"/>
<stop offset="1" stop-color="#923488" stop-opacity="0.2"/>
</linearGradient>
<linearGradient id="paint16_linear_722_1690" x1="147.816" y1="90.5907" x2="190.597" y2="305.293" gradientUnits="userSpaceOnUse">
<stop offset="0.328125" stop-color="#DA84D1"/>
<stop offset="1" stop-color="#923488" stop-opacity="0.2"/>
</linearGradient>
<linearGradient id="paint17_linear_722_1690" x1="147.816" y1="90.5907" x2="190.597" y2="305.293" gradientUnits="userSpaceOnUse">
<stop offset="0.328125" stop-color="#DA84D1"/>
<stop offset="1" stop-color="#923488" stop-opacity="0.2"/>
</linearGradient>
</defs>
</svg>
