<svg width="50" height="51" viewBox="0 0 50 51" fill="none" xmlns="http://www.w3.org/2000/svg">
<path fill-rule="evenodd" clip-rule="evenodd" d="M31 17.1367H19C17.897 17.1367 17 18.0337 17 19.1367V31.1367C17 32.2397 17.897 33.1367 19 33.1367H25V27.6367H23V25.1367H25V23.1367C25 22.3411 25.3161 21.578 25.8787 21.0154C26.4413 20.4528 27.2044 20.1367 28 20.1367H30V22.6367H29C28.448 22.6367 28 22.5847 28 23.1367V25.1367H30.5L29.5 27.6367H28V33.1367H31C32.103 33.1367 33 32.2397 33 31.1367V19.1367C33 18.0337 32.103 17.1367 31 17.1367Z" fill="white"/>
<rect x="0.5" y="0.636719" width="49" height="49" rx="24.5" stroke="white" stroke-opacity="0.125"/>
</svg>
