<svg width="50" height="51" viewBox="0 0 50 51" fill="none" xmlns="http://www.w3.org/2000/svg">
<path d="M25 18.5825C27.1205 18.5825 27.4096 18.5825 28.2771 18.5825C29.0482 18.5825 29.4337 18.7753 29.7229 18.8717C30.1084 19.0644 30.3976 19.1608 30.6867 19.45C30.9759 19.7391 31.1687 20.0283 31.2651 20.4138C31.3614 20.703 31.4578 21.0885 31.5542 21.8596C31.5542 22.7271 31.5542 22.9199 31.5542 25.1367C31.5542 27.3536 31.5542 27.5464 31.5542 28.4138C31.5542 29.1849 31.3614 29.5705 31.2651 29.8596C31.0723 30.2452 30.9759 30.5343 30.6867 30.8235C30.3976 31.1126 30.1084 31.3054 29.7229 31.4018C29.4337 31.4982 29.0482 31.5946 28.2771 31.6909C27.4096 31.6909 27.2169 31.6909 25 31.6909C22.7831 31.6909 22.5904 31.6909 21.7229 31.6909C20.9518 31.6909 20.5663 31.4982 20.2771 31.4018C19.8916 31.209 19.6024 31.1126 19.3133 30.8235C19.0241 30.5343 18.8313 30.2452 18.7349 29.8596C18.6386 29.5705 18.5422 29.1849 18.4458 28.4138C18.4458 27.5464 18.4458 27.3536 18.4458 25.1367C18.4458 22.9199 18.4458 22.7271 18.4458 21.8596C18.4458 21.0885 18.6386 20.703 18.7349 20.4138C18.9277 20.0283 19.0241 19.7391 19.3133 19.45C19.6024 19.1608 19.8916 18.968 20.2771 18.8717C20.5663 18.7753 20.9518 18.6789 21.7229 18.5825C22.5904 18.5825 22.8795 18.5825 25 18.5825ZM25 17.1367C22.7831 17.1367 22.5904 17.1367 21.7229 17.1367C20.8554 17.1367 20.2771 17.3295 19.7952 17.5223C19.3133 17.715 18.8313 18.0042 18.3494 18.4861C17.8675 18.968 17.6747 19.3536 17.3855 19.9319C17.1928 20.4138 17.0964 20.9921 17 21.8596C17 22.7271 17 23.0162 17 25.1367C17 27.3536 17 27.5464 17 28.4138C17 29.2813 17.1928 29.8596 17.3855 30.3415C17.5783 30.8235 17.8675 31.3054 18.3494 31.7873C18.8313 32.2692 19.2169 32.462 19.7952 32.7512C20.2771 32.944 20.8554 33.0403 21.7229 33.1367C22.5904 33.1367 22.8795 33.1367 25 33.1367C27.1205 33.1367 27.4096 33.1367 28.2771 33.1367C29.1446 33.1367 29.7229 32.944 30.2048 32.7512C30.6867 32.5584 31.1687 32.2692 31.6506 31.7873C32.1325 31.3054 32.3253 30.9199 32.6145 30.3415C32.8072 29.8596 32.9036 29.2813 33 28.4138C33 27.5464 33 27.2572 33 25.1367C33 23.0162 33 22.7271 33 21.8596C33 20.9921 32.8072 20.4138 32.6145 19.9319C32.4217 19.45 32.1325 18.968 31.6506 18.4861C31.1687 18.0042 30.7831 17.8114 30.2048 17.5223C29.7229 17.3295 29.1446 17.2331 28.2771 17.1367C27.4096 17.1367 27.2169 17.1367 25 17.1367Z" fill="white"/>
<path d="M25 20.9921C22.6867 20.9921 20.8554 22.8235 20.8554 25.1367C20.8554 27.45 22.6867 29.2813 25 29.2813C27.3133 29.2813 29.1446 27.45 29.1446 25.1367C29.1446 22.8235 27.3133 20.9921 25 20.9921ZM25 27.8355C23.5542 27.8355 22.3012 26.6789 22.3012 25.1367C22.3012 23.6909 23.4578 22.4379 25 22.4379C26.4458 22.4379 27.6988 23.5946 27.6988 25.1367C27.6988 26.5825 26.4458 27.8355 25 27.8355Z" fill="white"/>
<path d="M29.241 21.8596C29.7733 21.8596 30.2048 21.4281 30.2048 20.8958C30.2048 20.3634 29.7733 19.9319 29.241 19.9319C28.7086 19.9319 28.2771 20.3634 28.2771 20.8958C28.2771 21.4281 28.7086 21.8596 29.241 21.8596Z" fill="white"/>
<rect x="0.5" y="0.636719" width="49" height="49" rx="24.5" stroke="white" stroke-opacity="0.125"/>
</svg>
