<svg width="363" height="301" viewBox="0 0 363 301" fill="none" xmlns="http://www.w3.org/2000/svg">
<g clip-path="url(#clip0_722_1033)">
<path d="M345.053 177.267C349.063 150.961 346.191 123.877 339.187 98.3251C332.911 75.4253 325.006 51.8981 306.589 35.8187C284.278 16.3398 256.419 13.7821 228.141 17.0871C172.213 23.6239 156.234 -0.344726 114.833 1.10801C73.4328 2.56074 37.1155 19.9925 25.4946 55.583C13.8737 91.1735 32.0314 128.216 23.316 149.28C14.5996 170.343 -10.0949 191.407 4.43146 221.913C18.9578 252.419 50.9169 276.388 125.002 282.198C199.088 288.009 263.732 290.914 305.86 252.417C328.688 231.556 340.782 205.271 345.053 177.267Z" fill="#EC8117"/>
<path opacity="0.7" d="M345.053 177.267C349.063 150.961 346.191 123.877 339.187 98.3251C332.911 75.4253 325.006 51.8981 306.589 35.8187C284.278 16.3398 256.419 13.7821 228.141 17.0871C172.213 23.6239 156.234 -0.344726 114.833 1.10801C73.4328 2.56074 37.1155 19.9925 25.4946 55.583C13.8737 91.1735 32.0314 128.216 23.316 149.28C14.5996 170.343 -10.0949 191.407 4.43146 221.913C18.9578 252.419 50.9169 276.388 125.002 282.198C199.088 288.009 263.732 290.914 305.86 252.417C328.688 231.556 340.782 205.271 345.053 177.267Z" fill="white"/>
<path d="M89.4108 38.5146C88.8087 38.5146 88.3215 38.0265 88.3215 37.4253V24.3517C88.3215 23.7496 88.8097 23.2624 89.4108 23.2624C90.012 23.2624 90.5001 23.7505 90.5001 24.3517V37.4253C90.5001 38.0265 90.012 38.5146 89.4108 38.5146Z" fill="#EC8117"/>
<path d="M95.9476 31.9778H82.874C82.2719 31.9778 81.7847 31.4897 81.7847 30.8885C81.7847 30.2873 82.2729 29.7992 82.874 29.7992H95.9476C96.5498 29.7992 97.0369 30.2873 97.0369 30.8885C97.0369 31.4897 96.5498 31.9778 95.9476 31.9778Z" fill="#EC8117"/>
<path d="M323.289 194.675C322.687 194.675 322.2 194.188 322.2 193.586V183.418C322.2 182.815 322.687 182.328 323.289 182.328C323.891 182.328 324.378 182.815 324.378 183.418V193.586C324.378 194.188 323.891 194.675 323.289 194.675Z" fill="#EC8117"/>
<path d="M328.374 189.591H318.205C317.603 189.591 317.116 189.104 317.116 188.502C317.116 187.9 317.603 187.412 318.205 187.412H328.374C328.976 187.412 329.463 187.9 329.463 188.502C329.463 189.104 328.976 189.591 328.374 189.591Z" fill="#EC8117"/>
<path d="M23.6774 205.571C23.0752 205.571 22.588 205.084 22.588 204.482V197.945C22.588 197.343 23.0762 196.856 23.6774 196.856C24.2785 196.856 24.7667 197.343 24.7667 197.945V204.482C24.7676 205.083 24.2795 205.571 23.6774 205.571Z" fill="#EC8117"/>
<path d="M26.9462 202.302H20.4094C19.8073 202.302 19.3201 201.815 19.3201 201.213C19.3201 200.611 19.8082 200.124 20.4094 200.124H26.9462C27.5483 200.124 28.0355 200.611 28.0355 201.213C28.0355 201.815 27.5474 202.302 26.9462 202.302Z" fill="#EC8117"/>
<path d="M49.8256 49.7731C49.2234 49.7731 48.7363 49.285 48.7363 48.6838V42.147C48.7363 41.5449 49.2244 41.0577 49.8256 41.0577C50.4277 41.0577 50.9149 41.5458 50.9149 42.147V48.6838C50.9149 49.285 50.4277 49.7731 49.8256 49.7731Z" fill="#EC8117"/>
<path d="M53.0944 46.5042H46.5576C45.9555 46.5042 45.4683 46.0161 45.4683 45.4149C45.4683 44.8138 45.9565 44.3256 46.5576 44.3256H53.0944C53.6966 44.3256 54.1837 44.8138 54.1837 45.4149C54.1837 46.0161 53.6956 46.5042 53.0944 46.5042Z" fill="#EC8117"/>
<path d="M217.245 228.813C216.643 228.813 216.156 228.326 216.156 227.723V221.187C216.156 220.585 216.643 220.097 217.245 220.097C217.848 220.097 218.335 220.585 218.335 221.187V227.723C218.335 228.326 217.848 228.813 217.245 228.813Z" fill="#EC8117"/>
<path d="M220.513 225.544H213.977C213.374 225.544 212.887 225.057 212.887 224.455C212.887 223.852 213.374 223.365 213.977 223.365H220.513C221.116 223.365 221.603 223.852 221.603 224.455C221.603 225.057 221.116 225.544 220.513 225.544Z" fill="#EC8117"/>
<path d="M316.752 85.726C314.548 85.726 312.757 83.9332 312.757 81.7312C312.757 79.5283 314.549 77.7365 316.752 77.7365C318.955 77.7365 320.747 79.5283 320.747 81.7312C320.747 83.9342 318.955 85.726 316.752 85.726ZM316.752 79.9151C315.751 79.9151 314.936 80.7296 314.936 81.7312C314.936 82.7328 315.751 83.5464 316.752 83.5464C317.753 83.5464 318.568 82.7319 318.568 81.7312C318.568 80.7306 317.753 79.9151 316.752 79.9151Z" fill="#EC8117"/>
<path d="M231.772 34.8833C228.768 34.8833 226.324 32.4397 226.324 29.4358C226.324 26.4319 228.768 23.9883 231.772 23.9883C234.776 23.9883 237.219 26.4319 237.219 29.4358C237.219 32.4387 234.775 34.8833 231.772 34.8833ZM231.772 26.1669C229.969 26.1669 228.503 27.6333 228.503 29.4348C228.503 31.2373 229.969 32.7037 231.772 32.7037C233.574 32.7037 235.041 31.2373 235.041 29.4348C235.04 27.6333 233.573 26.1669 231.772 26.1669Z" fill="#EC8117"/>
<path d="M137.349 213.56C134.345 213.56 131.902 211.116 131.902 208.112C131.902 205.108 134.345 202.665 137.349 202.665C140.353 202.665 142.797 205.108 142.797 208.112C142.797 211.116 140.352 213.56 137.349 213.56ZM137.349 204.844C135.547 204.844 134.08 206.311 134.08 208.113C134.08 209.916 135.547 211.382 137.349 211.382C139.152 211.382 140.618 209.916 140.618 208.113C140.617 206.31 139.151 204.844 137.349 204.844Z" fill="#EC8117"/>
<g opacity="0.5">
<path d="M89.4108 38.5146C88.8087 38.5146 88.3215 38.0265 88.3215 37.4253V24.3517C88.3215 23.7496 88.8097 23.2624 89.4108 23.2624C90.012 23.2624 90.5001 23.7505 90.5001 24.3517V37.4253C90.5001 38.0265 90.012 38.5146 89.4108 38.5146Z" fill="white"/>
<path d="M95.9476 31.9778H82.874C82.2719 31.9778 81.7847 31.4897 81.7847 30.8885C81.7847 30.2873 82.2729 29.7992 82.874 29.7992H95.9476C96.5498 29.7992 97.0369 30.2873 97.0369 30.8885C97.0369 31.4897 96.5498 31.9778 95.9476 31.9778Z" fill="white"/>
<path d="M323.289 194.675C322.687 194.675 322.2 194.188 322.2 193.586V183.418C322.2 182.815 322.687 182.328 323.289 182.328C323.891 182.328 324.378 182.815 324.378 183.418V193.586C324.378 194.188 323.891 194.675 323.289 194.675Z" fill="white"/>
<path d="M328.374 189.591H318.205C317.603 189.591 317.116 189.104 317.116 188.502C317.116 187.9 317.603 187.412 318.205 187.412H328.374C328.976 187.412 329.463 187.9 329.463 188.502C329.463 189.104 328.976 189.591 328.374 189.591Z" fill="white"/>
<path d="M23.6774 205.571C23.0752 205.571 22.588 205.084 22.588 204.482V197.945C22.588 197.343 23.0762 196.856 23.6774 196.856C24.2785 196.856 24.7667 197.343 24.7667 197.945V204.482C24.7676 205.083 24.2795 205.571 23.6774 205.571Z" fill="white"/>
<path d="M26.9462 202.302H20.4094C19.8073 202.302 19.3201 201.815 19.3201 201.213C19.3201 200.611 19.8082 200.124 20.4094 200.124H26.9462C27.5483 200.124 28.0355 200.611 28.0355 201.213C28.0355 201.815 27.5474 202.302 26.9462 202.302Z" fill="white"/>
<path d="M49.8256 49.7731C49.2234 49.7731 48.7363 49.285 48.7363 48.6838V42.147C48.7363 41.5449 49.2244 41.0577 49.8256 41.0577C50.4277 41.0577 50.9149 41.5458 50.9149 42.147V48.6838C50.9149 49.285 50.4277 49.7731 49.8256 49.7731Z" fill="white"/>
<path d="M53.0944 46.5042H46.5576C45.9555 46.5042 45.4683 46.0161 45.4683 45.4149C45.4683 44.8138 45.9565 44.3256 46.5576 44.3256H53.0944C53.6966 44.3256 54.1837 44.8138 54.1837 45.4149C54.1837 46.0161 53.6956 46.5042 53.0944 46.5042Z" fill="white"/>
<path d="M217.245 228.813C216.643 228.813 216.156 228.326 216.156 227.723V221.187C216.156 220.585 216.643 220.097 217.245 220.097C217.848 220.097 218.335 220.585 218.335 221.187V227.723C218.335 228.326 217.848 228.813 217.245 228.813Z" fill="white"/>
<path d="M220.513 225.544H213.977C213.374 225.544 212.887 225.057 212.887 224.455C212.887 223.852 213.374 223.365 213.977 223.365H220.513C221.116 223.365 221.603 223.852 221.603 224.455C221.603 225.057 221.116 225.544 220.513 225.544Z" fill="white"/>
<path d="M316.752 85.726C314.548 85.726 312.757 83.9332 312.757 81.7312C312.757 79.5283 314.549 77.7365 316.752 77.7365C318.955 77.7365 320.747 79.5283 320.747 81.7312C320.747 83.9342 318.955 85.726 316.752 85.726ZM316.752 79.9151C315.751 79.9151 314.936 80.7296 314.936 81.7312C314.936 82.7328 315.751 83.5464 316.752 83.5464C317.753 83.5464 318.568 82.7319 318.568 81.7312C318.568 80.7306 317.753 79.9151 316.752 79.9151Z" fill="white"/>
<path d="M231.772 34.8833C228.768 34.8833 226.324 32.4397 226.324 29.4358C226.324 26.4319 228.768 23.9883 231.772 23.9883C234.776 23.9883 237.219 26.4319 237.219 29.4358C237.219 32.4387 234.775 34.8833 231.772 34.8833ZM231.772 26.1669C229.969 26.1669 228.503 27.6333 228.503 29.4348C228.503 31.2373 229.969 32.7037 231.772 32.7037C233.574 32.7037 235.041 31.2373 235.041 29.4348C235.04 27.6333 233.573 26.1669 231.772 26.1669Z" fill="white"/>
<path d="M137.349 213.56C134.345 213.56 131.902 211.116 131.902 208.112C131.902 205.108 134.345 202.665 137.349 202.665C140.353 202.665 142.797 205.108 142.797 208.112C142.797 211.116 140.352 213.56 137.349 213.56ZM137.349 204.844C135.547 204.844 134.08 206.311 134.08 208.113C134.08 209.916 135.547 211.382 137.349 211.382C139.152 211.382 140.618 209.916 140.618 208.113C140.617 206.31 139.151 204.844 137.349 204.844Z" fill="white"/>
</g>
<path d="M141.866 21.4375L140.335 16.7236L138.803 21.4375H133.845L137.856 24.3507L136.324 29.0655L140.335 26.1523L144.344 29.0655L142.812 24.3507L146.823 21.4375H141.866Z" fill="#EC8117"/>
<path d="M158.406 21.4375L156.875 16.7236L155.343 21.4375H150.386L154.396 24.3507L152.864 29.0655L156.875 26.1523L160.884 29.0655L159.352 24.3507L163.363 21.4375H158.406Z" fill="#EC8117"/>
<path d="M174.947 21.4375L173.415 16.7236L171.883 21.4375H166.926L170.936 24.3507L169.405 29.0655L173.415 26.1523L177.425 29.0655L175.893 24.3507L179.903 21.4375H174.947Z" fill="#EC8117"/>
<path d="M191.487 21.4375L189.955 16.7236L188.424 21.4375H183.466L187.477 24.3507L185.945 29.0655L189.955 26.1523L193.965 29.0655L192.433 24.3507L196.443 21.4375H191.487Z" fill="#EC8117"/>
<path d="M212.984 21.4375H208.027L206.496 16.7236L204.964 21.4375H200.007L204.017 24.3507L202.485 29.0655L206.496 26.1523L210.505 29.0655L208.974 24.3507L212.984 21.4375Z" fill="#EC8117"/>
<g opacity="0.5">
<path d="M141.866 21.4375L140.335 16.7236L138.803 21.4375H133.845L137.856 24.3507L136.324 29.0655L140.335 26.1523L144.344 29.0655L142.812 24.3507L146.823 21.4375H141.866Z" fill="white"/>
<path d="M158.406 21.4375L156.875 16.7236L155.343 21.4375H150.386L154.396 24.3507L152.864 29.0655L156.875 26.1523L160.884 29.0655L159.352 24.3507L163.363 21.4375H158.406Z" fill="white"/>
<path d="M174.947 21.4375L173.415 16.7236L171.883 21.4375H166.926L170.936 24.3507L169.405 29.0655L173.415 26.1523L177.425 29.0655L175.893 24.3507L179.903 21.4375H174.947Z" fill="white"/>
<path d="M191.487 21.4375L189.955 16.7236L188.424 21.4375H183.466L187.477 24.3507L185.945 29.0655L189.955 26.1523L193.965 29.0655L192.433 24.3507L196.443 21.4375H191.487Z" fill="white"/>
<path d="M212.984 21.4375H208.027L206.496 16.7236L204.964 21.4375H200.007L204.017 24.3507L202.485 29.0655L206.496 26.1523L210.505 29.0655L208.974 24.3507L212.984 21.4375Z" fill="white"/>
</g>
<path d="M355.018 217.123C350.867 214.266 344.639 213.79 344.639 213.79C353.773 212.361 362.491 215.218 362.491 215.218C362.491 215.218 356.679 210.933 352.527 210.933C348.375 210.933 341.732 210.456 341.732 210.456C344.224 207.6 353.357 204.266 353.357 204.266C353.357 204.266 346.714 204.266 343.808 204.743C340.901 205.219 340.071 208.553 340.071 208.553C340.071 208.553 339.241 206.648 333.013 205.219C326.785 203.791 325.125 208.553 325.125 208.553C325.125 208.553 328.861 208.553 330.938 208.553C333.014 208.553 335.919 211.409 335.919 211.409C335.919 211.409 329.276 211.409 326.785 212.838C324.641 214.067 321.888 219.165 321.16 220.565C323.214 209.978 326.062 201.069 328.413 194.783C328.468 194.742 328.526 194.696 328.579 194.658C332.675 191.732 334.431 189.976 334.431 189.976L341.453 201.679L340.868 191.731C340.868 191.731 346.72 193.486 348.475 195.241C350.229 196.996 355.497 202.848 355.497 202.848C355.497 202.848 353.156 194.07 350.23 191.145C347.304 188.219 342.038 184.709 342.038 184.709C342.038 184.709 348.475 184.709 350.816 185.879C353.156 187.049 360.178 191.731 360.178 191.731C360.178 191.731 355.497 183.538 351.986 181.783C348.476 180.027 339.113 180.027 339.113 180.027C339.113 180.027 343.209 176.516 346.135 176.516C349.061 176.516 354.327 176.516 354.327 176.516C354.327 176.516 351.987 170.665 343.209 172.42C334.432 174.176 333.261 176.516 333.261 176.516C333.261 176.516 332.091 172.42 327.995 171.835C323.899 171.249 314.537 171.249 314.537 171.249C314.537 171.249 327.41 175.345 330.921 178.856C330.921 178.856 321.559 179.441 315.707 179.441C309.855 179.441 301.663 184.708 301.663 184.708C301.663 184.708 313.951 181.197 326.824 182.952C326.824 182.952 318.047 183.537 312.195 187.048C306.343 190.559 300.493 198.751 300.493 198.751C300.493 198.751 305.759 193.484 312.781 191.729C319.803 189.973 329.75 187.633 329.75 187.633C329.75 187.633 319.803 195.825 318.632 199.921C317.462 204.017 313.95 211.039 313.95 211.039C313.95 211.039 322.34 200.32 327.055 195.937C323.155 206.699 318.224 224.034 317.616 244.056C315.884 236.958 310.821 222.262 297.582 214.901C300.089 215.586 303.705 216.582 306.619 217.418C311.601 218.846 315.339 223.132 315.339 223.132C315.339 223.132 311.187 216.465 307.035 213.608C302.884 210.752 296.656 210.275 296.656 210.275C305.79 208.847 314.508 211.704 314.508 211.704C314.508 211.704 308.695 207.418 304.544 207.418C300.392 207.418 293.749 206.942 293.749 206.942C296.241 204.085 305.374 200.752 305.374 200.752C305.374 200.752 298.731 200.752 295.825 201.228C292.918 201.705 292.088 205.038 292.088 205.038C292.088 205.038 291.258 203.133 285.03 201.705C278.802 200.277 277.142 205.038 277.142 205.038C277.142 205.038 280.878 205.038 282.955 205.038C285.031 205.038 287.936 207.895 287.936 207.895C287.936 207.895 281.293 207.895 278.802 209.323C276.311 210.752 272.989 217.418 272.989 217.418C272.989 217.418 277.971 213.608 279.632 212.656C281.292 211.705 285.86 211.705 285.86 211.705C285.86 211.705 282.123 214.561 280.047 216.943C277.971 219.324 276.311 226.466 276.311 226.466C276.311 226.466 280.047 221.704 281.292 220.276C282.538 218.847 286.69 217.419 286.69 217.419L286.275 225.514L291.258 215.991C291.258 215.991 292.503 217.419 295.409 219.799C298.316 222.181 305.789 233.132 305.789 233.132C305.789 233.132 303.298 227.419 302.468 224.085C301.784 221.34 296.883 216.341 295.173 214.662C312.104 222.602 316.574 242.592 317.393 247.214H310.381L311.925 260.811H324.278L325.822 247.214H318.562C318.991 244.446 320.548 236.178 324.628 228.672C324.415 229.461 324.295 229.977 324.295 229.977C324.295 229.977 328.031 225.216 329.276 223.787C330.522 222.359 334.674 220.93 334.674 220.93L334.259 229.025L339.242 219.502C339.242 219.502 340.487 220.93 343.393 223.312C346.3 225.692 353.773 236.645 353.773 236.645C353.773 236.645 351.282 230.931 350.452 227.598C349.621 224.265 342.563 217.598 342.563 217.598C342.563 217.598 349.621 219.503 354.604 220.931C359.586 222.36 363.323 226.645 363.323 226.645C363.323 226.645 359.17 219.98 355.018 217.123ZM318.532 242.79C318.844 234.954 319.818 227.558 321.111 220.826C321.897 220.228 326.112 217.033 327.616 216.171C329.276 215.219 333.844 215.219 333.844 215.219C333.844 215.219 330.107 218.076 328.031 220.457C327.134 221.487 326.314 223.406 325.672 225.254C321.742 231.17 319.611 238.123 318.532 242.79Z" fill="#EC8117"/>
<path opacity="0.4" d="M355.018 217.123C350.867 214.266 344.639 213.79 344.639 213.79C353.773 212.361 362.491 215.218 362.491 215.218C362.491 215.218 356.679 210.933 352.527 210.933C348.375 210.933 341.732 210.456 341.732 210.456C344.224 207.6 353.357 204.266 353.357 204.266C353.357 204.266 346.714 204.266 343.808 204.743C340.901 205.219 340.071 208.553 340.071 208.553C340.071 208.553 339.241 206.648 333.013 205.219C326.785 203.791 325.125 208.553 325.125 208.553C325.125 208.553 328.861 208.553 330.938 208.553C333.014 208.553 335.919 211.409 335.919 211.409C335.919 211.409 329.276 211.409 326.785 212.838C324.641 214.067 321.888 219.165 321.16 220.565C323.214 209.978 326.062 201.069 328.413 194.783C328.468 194.742 328.526 194.696 328.579 194.658C332.675 191.732 334.431 189.976 334.431 189.976L341.453 201.679L340.868 191.731C340.868 191.731 346.72 193.486 348.475 195.241C350.229 196.996 355.497 202.848 355.497 202.848C355.497 202.848 353.156 194.07 350.23 191.145C347.304 188.219 342.038 184.709 342.038 184.709C342.038 184.709 348.475 184.709 350.816 185.879C353.156 187.049 360.178 191.731 360.178 191.731C360.178 191.731 355.497 183.538 351.986 181.783C348.476 180.027 339.113 180.027 339.113 180.027C339.113 180.027 343.209 176.516 346.135 176.516C349.061 176.516 354.327 176.516 354.327 176.516C354.327 176.516 351.987 170.665 343.209 172.42C334.432 174.176 333.261 176.516 333.261 176.516C333.261 176.516 332.091 172.42 327.995 171.835C323.899 171.249 314.537 171.249 314.537 171.249C314.537 171.249 327.41 175.345 330.921 178.856C330.921 178.856 321.559 179.441 315.707 179.441C309.855 179.441 301.663 184.708 301.663 184.708C301.663 184.708 313.951 181.197 326.824 182.952C326.824 182.952 318.047 183.537 312.195 187.048C306.343 190.559 300.493 198.751 300.493 198.751C300.493 198.751 305.759 193.484 312.781 191.729C319.803 189.973 329.75 187.633 329.75 187.633C329.75 187.633 319.803 195.825 318.632 199.921C317.462 204.017 313.95 211.039 313.95 211.039C313.95 211.039 322.34 200.32 327.055 195.937C323.155 206.699 318.224 224.034 317.616 244.056C315.884 236.958 310.821 222.262 297.582 214.901C300.089 215.586 303.705 216.582 306.619 217.418C311.601 218.846 315.339 223.132 315.339 223.132C315.339 223.132 311.187 216.465 307.035 213.608C302.884 210.752 296.656 210.275 296.656 210.275C305.79 208.847 314.508 211.704 314.508 211.704C314.508 211.704 308.695 207.418 304.544 207.418C300.392 207.418 293.749 206.942 293.749 206.942C296.241 204.085 305.374 200.752 305.374 200.752C305.374 200.752 298.731 200.752 295.825 201.228C292.918 201.705 292.088 205.038 292.088 205.038C292.088 205.038 291.258 203.133 285.03 201.705C278.802 200.277 277.142 205.038 277.142 205.038C277.142 205.038 280.878 205.038 282.955 205.038C285.031 205.038 287.936 207.895 287.936 207.895C287.936 207.895 281.293 207.895 278.802 209.323C276.311 210.752 272.989 217.418 272.989 217.418C272.989 217.418 277.971 213.608 279.632 212.656C281.292 211.705 285.86 211.705 285.86 211.705C285.86 211.705 282.123 214.561 280.047 216.943C277.971 219.324 276.311 226.466 276.311 226.466C276.311 226.466 280.047 221.704 281.292 220.276C282.538 218.847 286.69 217.419 286.69 217.419L286.275 225.514L291.258 215.991C291.258 215.991 292.503 217.419 295.409 219.799C298.316 222.181 305.789 233.132 305.789 233.132C305.789 233.132 303.298 227.419 302.468 224.085C301.784 221.34 296.883 216.341 295.173 214.662C312.104 222.602 316.574 242.592 317.393 247.214H310.381L311.925 260.811H324.278L325.822 247.214H318.562C318.991 244.446 320.548 236.178 324.628 228.672C324.415 229.461 324.295 229.977 324.295 229.977C324.295 229.977 328.031 225.216 329.276 223.787C330.522 222.359 334.674 220.93 334.674 220.93L334.259 229.025L339.242 219.502C339.242 219.502 340.487 220.93 343.393 223.312C346.3 225.692 353.773 236.645 353.773 236.645C353.773 236.645 351.282 230.931 350.452 227.598C349.621 224.265 342.563 217.598 342.563 217.598C342.563 217.598 349.621 219.503 354.604 220.931C359.586 222.36 363.323 226.645 363.323 226.645C363.323 226.645 359.17 219.98 355.018 217.123ZM318.532 242.79C318.844 234.954 319.818 227.558 321.111 220.826C321.897 220.228 326.112 217.033 327.616 216.171C329.276 215.219 333.844 215.219 333.844 215.219C333.844 215.219 330.107 218.076 328.031 220.457C327.134 221.487 326.314 223.406 325.672 225.254C321.742 231.17 319.611 238.123 318.532 242.79Z" fill="white"/>
<path d="M83.7335 217.123C79.5818 214.266 73.3539 213.79 73.3539 213.79C82.4883 212.361 91.2066 215.218 91.2066 215.218C91.2066 215.218 85.3937 210.933 81.2421 210.933C77.0905 210.933 70.4475 210.456 70.4475 210.456C72.9388 207.6 82.0722 204.266 82.0722 204.266C82.0722 204.266 75.4292 204.266 72.5228 204.743C69.6163 205.219 68.7862 208.553 68.7862 208.553C68.7862 208.553 67.9561 206.648 61.7281 205.219C55.5002 203.791 53.8399 208.553 53.8399 208.553C53.8399 208.553 57.5765 208.553 59.6528 208.553C61.7291 208.553 64.6346 211.409 64.6346 211.409C64.6346 211.409 57.9916 211.409 55.5002 212.838C53.3567 214.067 50.6032 219.165 49.8754 220.565C51.9293 209.978 54.7772 201.069 57.1283 194.783C57.1829 194.742 57.2413 194.696 57.2939 194.658C61.39 191.732 63.1458 189.976 63.1458 189.976L70.1678 201.679L69.5822 191.731C69.5822 191.731 75.4341 193.486 77.1889 195.241C78.9446 196.997 84.2109 202.848 84.2109 202.848C84.2109 202.848 81.8705 194.07 78.9446 191.145C76.0187 188.219 70.7524 184.709 70.7524 184.709C70.7524 184.709 77.1889 184.709 79.5292 185.879C81.8696 187.049 88.8916 191.731 88.8916 191.731C88.8916 191.731 84.2099 183.538 80.6994 181.783C77.1889 180.027 67.8265 180.027 67.8265 180.027C67.8265 180.027 71.9226 176.516 74.8485 176.516C77.7744 176.516 83.0407 176.516 83.0407 176.516C83.0407 176.516 80.7004 170.665 71.9226 172.42C63.1448 174.176 61.9746 176.516 61.9746 176.516C61.9746 176.516 60.8045 172.42 56.7084 171.835C52.6123 171.249 43.2499 171.249 43.2499 171.249C43.2499 171.249 56.1228 175.345 59.6343 178.856C59.6343 178.856 50.2719 179.441 44.4201 179.441C38.5682 179.441 30.376 184.708 30.376 184.708C30.376 184.708 42.6643 181.197 55.5372 182.952C55.5372 182.952 46.7604 183.537 40.9086 187.048C35.0567 190.56 29.2058 198.751 29.2058 198.751C29.2058 198.751 34.4721 193.484 41.4941 191.729C48.5162 189.973 58.4631 187.633 58.4631 187.633C58.4631 187.633 48.5162 195.825 47.345 199.921C46.1748 204.017 42.6633 211.039 42.6633 211.039C42.6633 211.039 51.0533 200.32 55.7681 195.937C51.8679 206.699 46.9368 224.034 46.3288 244.056C44.5964 236.958 39.5338 222.262 26.2955 214.901C28.8025 215.586 32.4182 216.582 35.3325 217.418C40.3142 218.846 44.0518 223.132 44.0518 223.132C44.0518 223.132 39.9001 216.465 35.7485 213.608C31.5969 210.752 25.3689 210.275 25.3689 210.275C34.5033 208.847 43.2216 211.704 43.2216 211.704C43.2216 211.704 37.4088 207.418 33.2571 207.418C29.1055 207.418 22.4625 206.942 22.4625 206.942C24.9538 204.085 34.0872 200.752 34.0872 200.752C34.0872 200.752 27.4442 200.752 24.5378 201.228C21.6314 201.705 20.8012 205.038 20.8012 205.038C20.8012 205.038 19.9711 203.133 13.7432 201.705C7.51521 200.277 5.85494 205.038 5.85494 205.038C5.85494 205.038 9.59151 205.038 11.6678 205.038C13.7441 205.038 16.6496 207.895 16.6496 207.895C16.6496 207.895 10.0066 207.895 7.51521 209.323C5.02384 210.752 1.70233 217.418 1.70233 217.418C1.70233 217.418 6.68508 213.608 8.34534 212.656C10.0066 211.705 14.5733 211.705 14.5733 211.705C14.5733 211.705 10.8367 214.561 8.76041 216.943C6.68411 219.324 5.02383 226.466 5.02383 226.466C5.02383 226.466 8.76041 221.704 10.0066 220.276C11.2518 218.847 15.4044 217.419 15.4044 217.419L14.9893 225.514L19.9721 215.991C19.9721 215.991 21.2173 217.419 24.1237 219.799C27.0301 222.181 34.5033 233.132 34.5033 233.132C34.5033 233.132 32.0119 227.419 31.1818 224.085C30.4978 221.34 25.5969 216.341 23.8869 214.662C40.818 222.602 45.2882 242.592 46.1076 247.214H39.0953L40.6396 260.811H52.9923L54.5366 247.214H47.2758C47.7055 244.446 49.2625 236.178 53.342 228.672C53.1296 229.461 53.0088 229.977 53.0088 229.977C53.0088 229.977 56.7454 225.216 57.9916 223.787C59.2368 222.359 63.3894 220.93 63.3894 220.93L62.9743 229.025L67.9571 219.502C67.9571 219.502 69.2023 220.93 72.1087 223.312C75.0151 225.692 82.4883 236.645 82.4883 236.645C82.4883 236.645 79.9969 230.931 79.1668 227.598C78.3366 224.265 71.2786 217.598 71.2786 217.598C71.2786 217.598 78.3366 219.503 83.3184 220.931C88.3002 222.36 92.0377 226.645 92.0377 226.645C92.0377 226.645 87.8861 219.98 83.7335 217.123ZM47.2486 242.79C47.5603 234.954 48.5337 227.558 49.8276 220.826C50.6129 220.228 54.8279 217.033 56.3313 216.171C57.9916 215.219 62.5592 215.219 62.5592 215.219C62.5592 215.219 58.8227 218.076 56.7464 220.457C55.849 221.487 55.0296 223.406 54.3875 225.254C50.458 231.17 48.3271 238.123 47.2486 242.79Z" fill="#EC8117"/>
<path opacity="0.4" d="M83.7335 217.123C79.5818 214.266 73.3539 213.79 73.3539 213.79C82.4883 212.361 91.2066 215.218 91.2066 215.218C91.2066 215.218 85.3937 210.933 81.2421 210.933C77.0905 210.933 70.4475 210.456 70.4475 210.456C72.9388 207.6 82.0722 204.266 82.0722 204.266C82.0722 204.266 75.4292 204.266 72.5228 204.743C69.6163 205.219 68.7862 208.553 68.7862 208.553C68.7862 208.553 67.9561 206.648 61.7281 205.219C55.5002 203.791 53.8399 208.553 53.8399 208.553C53.8399 208.553 57.5765 208.553 59.6528 208.553C61.7291 208.553 64.6346 211.409 64.6346 211.409C64.6346 211.409 57.9916 211.409 55.5002 212.838C53.3567 214.067 50.6032 219.165 49.8754 220.565C51.9293 209.978 54.7772 201.069 57.1283 194.783C57.1829 194.742 57.2413 194.696 57.2939 194.658C61.39 191.732 63.1458 189.976 63.1458 189.976L70.1678 201.679L69.5822 191.731C69.5822 191.731 75.4341 193.486 77.1889 195.241C78.9446 196.997 84.2109 202.848 84.2109 202.848C84.2109 202.848 81.8705 194.07 78.9446 191.145C76.0187 188.219 70.7524 184.709 70.7524 184.709C70.7524 184.709 77.1889 184.709 79.5292 185.879C81.8696 187.049 88.8916 191.731 88.8916 191.731C88.8916 191.731 84.2099 183.538 80.6994 181.783C77.1889 180.027 67.8265 180.027 67.8265 180.027C67.8265 180.027 71.9226 176.516 74.8485 176.516C77.7744 176.516 83.0407 176.516 83.0407 176.516C83.0407 176.516 80.7004 170.665 71.9226 172.42C63.1448 174.176 61.9746 176.516 61.9746 176.516C61.9746 176.516 60.8045 172.42 56.7084 171.835C52.6123 171.249 43.2499 171.249 43.2499 171.249C43.2499 171.249 56.1228 175.345 59.6343 178.856C59.6343 178.856 50.2719 179.441 44.4201 179.441C38.5682 179.441 30.376 184.708 30.376 184.708C30.376 184.708 42.6643 181.197 55.5372 182.952C55.5372 182.952 46.7604 183.537 40.9086 187.048C35.0567 190.56 29.2058 198.751 29.2058 198.751C29.2058 198.751 34.4721 193.484 41.4941 191.729C48.5162 189.973 58.4631 187.633 58.4631 187.633C58.4631 187.633 48.5162 195.825 47.345 199.921C46.1748 204.017 42.6633 211.039 42.6633 211.039C42.6633 211.039 51.0533 200.32 55.7681 195.937C51.8679 206.699 46.9368 224.034 46.3288 244.056C44.5964 236.958 39.5338 222.262 26.2955 214.901C28.8025 215.586 32.4182 216.582 35.3325 217.418C40.3142 218.846 44.0518 223.132 44.0518 223.132C44.0518 223.132 39.9001 216.465 35.7485 213.608C31.5969 210.752 25.3689 210.275 25.3689 210.275C34.5033 208.847 43.2216 211.704 43.2216 211.704C43.2216 211.704 37.4088 207.418 33.2571 207.418C29.1055 207.418 22.4625 206.942 22.4625 206.942C24.9538 204.085 34.0872 200.752 34.0872 200.752C34.0872 200.752 27.4442 200.752 24.5378 201.228C21.6314 201.705 20.8012 205.038 20.8012 205.038C20.8012 205.038 19.9711 203.133 13.7432 201.705C7.51521 200.277 5.85494 205.038 5.85494 205.038C5.85494 205.038 9.59151 205.038 11.6678 205.038C13.7441 205.038 16.6496 207.895 16.6496 207.895C16.6496 207.895 10.0066 207.895 7.51521 209.323C5.02384 210.752 1.70233 217.418 1.70233 217.418C1.70233 217.418 6.68508 213.608 8.34534 212.656C10.0066 211.705 14.5733 211.705 14.5733 211.705C14.5733 211.705 10.8367 214.561 8.76041 216.943C6.68411 219.324 5.02383 226.466 5.02383 226.466C5.02383 226.466 8.76041 221.704 10.0066 220.276C11.2518 218.847 15.4044 217.419 15.4044 217.419L14.9893 225.514L19.9721 215.991C19.9721 215.991 21.2173 217.419 24.1237 219.799C27.0301 222.181 34.5033 233.132 34.5033 233.132C34.5033 233.132 32.0119 227.419 31.1818 224.085C30.4978 221.34 25.5969 216.341 23.8869 214.662C40.818 222.602 45.2882 242.592 46.1076 247.214H39.0953L40.6396 260.811H52.9923L54.5366 247.214H47.2758C47.7055 244.446 49.2625 236.178 53.342 228.672C53.1296 229.461 53.0088 229.977 53.0088 229.977C53.0088 229.977 56.7454 225.216 57.9916 223.787C59.2368 222.359 63.3894 220.93 63.3894 220.93L62.9743 229.025L67.9571 219.502C67.9571 219.502 69.2023 220.93 72.1087 223.312C75.0151 225.692 82.4883 236.645 82.4883 236.645C82.4883 236.645 79.9969 230.931 79.1668 227.598C78.3366 224.265 71.2786 217.598 71.2786 217.598C71.2786 217.598 78.3366 219.503 83.3184 220.931C88.3002 222.36 92.0377 226.645 92.0377 226.645C92.0377 226.645 87.8861 219.98 83.7335 217.123ZM47.2486 242.79C47.5603 234.954 48.5337 227.558 49.8276 220.826C50.6129 220.228 54.8279 217.033 56.3313 216.171C57.9916 215.219 62.5592 215.219 62.5592 215.219C62.5592 215.219 58.8227 218.076 56.7464 220.457C55.849 221.487 55.0296 223.406 54.3875 225.254C50.458 231.17 48.3271 238.123 47.2486 242.79Z" fill="white"/>
<path d="M63.9896 288.009C79.2332 288.009 91.5906 283.132 91.5906 277.114C91.5906 271.097 79.2332 266.219 63.9896 266.219C48.7461 266.219 36.3887 271.097 36.3887 277.114C36.3887 283.132 48.7461 288.009 63.9896 288.009Z" fill="#EC8117"/>
<path opacity="0.5" d="M63.9896 288.009C79.2332 288.009 91.5906 283.132 91.5906 277.114C91.5906 271.097 79.2332 266.219 63.9896 266.219C48.7461 266.219 36.3887 271.097 36.3887 277.114C36.3887 283.132 48.7461 288.009 63.9896 288.009Z" fill="white"/>
<path d="M44.238 100.992C44.238 100.992 42.1324 102.221 41.0792 104.151C40.0259 106.081 33.8847 123.803 31.9545 127.839C30.0244 131.874 29.1465 133.278 31.6038 134.681C34.0601 136.085 37.2189 133.98 39.3244 130.12C41.4299 126.259 45.2902 115.555 45.9918 113.099C46.6943 110.643 49.1515 101.343 44.238 100.992Z" fill="#EC8117" stroke="#263238" stroke-width="0.974334" stroke-miterlimit="10" stroke-linecap="round" stroke-linejoin="round"/>
<path d="M82.2272 260.245L83.677 270.636L82.7105 271.119L79.8109 265.561L82.2272 260.245Z" fill="#263238" stroke="#263238" stroke-width="0.974334" stroke-miterlimit="10" stroke-linecap="round" stroke-linejoin="round"/>
<path d="M52.2617 197.413C52.2617 197.413 55.4029 212.396 58.5451 222.063C61.6864 231.729 71.836 254.203 72.5609 258.07C73.2858 261.936 72.3193 261.936 72.3193 265.079C72.3193 268.22 67.9699 271.604 67.7282 273.295C67.4866 274.987 70.8695 275.228 74.0117 274.262C77.153 273.295 79.3287 270.637 79.3287 268.461C79.3287 266.287 82.2283 262.42 82.2283 260.245C82.2283 258.07 78.6038 257.828 78.3621 253.72C78.1205 249.612 76.6707 234.87 74.2534 226.17C71.837 217.471 69.4207 212.88 67.4866 210.462C65.5535 208.046 63.1362 202.487 63.6204 200.554C64.1027 198.621 52.2617 197.413 52.2617 197.413Z" fill="white" stroke="#263238" stroke-width="0.974334" stroke-miterlimit="10" stroke-linecap="round" stroke-linejoin="round"/>
<path d="M79.3276 268.46C79.3276 266.286 82.2273 262.419 82.2273 260.244C82.2273 259.327 81.5813 258.753 80.8184 258.089C79.7466 260.96 77.5602 265.946 74.2523 268.702C72.1887 270.422 70.8383 270.394 69.9818 269.898C68.9071 271.276 67.8432 272.481 67.7272 273.293C67.4856 274.985 70.8685 275.226 74.0107 274.26C77.1519 273.294 79.3276 270.636 79.3276 268.46Z" fill="#263238" stroke="#263238" stroke-width="0.974334" stroke-miterlimit="10" stroke-linecap="round" stroke-linejoin="round"/>
<path d="M57.8202 200.797C57.8202 200.797 56.8537 208.772 56.8537 213.846C56.8537 218.92 53.919 252.391 52.9875 258.794C52.0824 265.011 50.3296 267.736 49.363 271.118C48.3965 274.501 47.4299 278.127 45.7385 279.093C44.047 280.06 45.7385 281.026 48.6381 280.785C51.5377 280.543 54.4373 279.093 54.68 276.435C54.9216 273.777 57.2181 271.441 58.7877 270.393C61.6874 268.46 58.0628 262.66 62.1706 250.094C63.9761 244.572 68.4541 237.287 69.4207 228.828C70.3872 220.37 68.6957 212.637 68.6957 210.704C68.6957 208.771 70.3872 201.521 70.3872 201.521L57.8202 200.797Z" fill="white" stroke="#263238" stroke-width="0.974334" stroke-miterlimit="10" stroke-linecap="round" stroke-linejoin="round"/>
<path d="M59.5223 270.802C62.6597 269.608 60.3875 266.924 60.1225 263.998C57.6009 266.441 54.2249 272.782 52.2616 274.744C50.8712 276.134 49.1632 276.004 47.9619 275.642C47.3558 277.264 46.6533 278.57 45.7375 279.093C44.046 280.06 45.7375 281.026 48.6371 280.785C51.5367 280.543 54.4363 279.093 54.6789 276.435C54.9196 273.777 57.7578 271.473 59.5223 270.802Z" fill="#263238" stroke="#263238" stroke-width="0.974334" stroke-miterlimit="10" stroke-linecap="round" stroke-linejoin="round"/>
<path d="M59.9949 268.46L60.7198 279.093H58.7868L57.0953 271.843C57.0953 271.843 58.7868 268.219 59.9949 268.46Z" fill="#263238" stroke="#263238" stroke-width="0.974334" stroke-miterlimit="10" stroke-linecap="round" stroke-linejoin="round"/>
<path d="M55.6436 99.2371L48.2737 102.045C48.2737 102.045 44.238 111.696 42.834 118.715C41.43 125.734 43.3601 132.928 44.7642 137.315C46.1682 141.701 47.9229 166.969 48.6245 176.62C49.326 186.27 50.73 200.132 50.73 200.132C50.73 200.132 53.8888 202.589 60.2054 203.817C66.522 205.046 75.4713 203.116 75.4713 203.116C75.4713 203.116 80.7356 187.85 81.7879 178.902C82.8411 169.952 74.0672 155.389 71.2602 149.072C68.4531 142.756 67.3999 132.579 67.926 129.595C68.4522 126.613 75.1205 103.977 72.8386 102.924C70.5587 101.869 62.3109 98.8863 55.6436 99.2371Z" fill="#263238" stroke="#263238" stroke-width="0.974334" stroke-miterlimit="10" stroke-linecap="round" stroke-linejoin="round"/>
<path d="M55.6435 93.0958C55.6435 93.0958 54.942 98.0084 54.4149 100.115C53.8878 102.221 49.853 109.59 51.4315 112.749C53.0109 115.908 58.2742 115.908 60.5561 110.468C62.837 105.028 62.4862 98.7119 62.4862 98.7119L63.3641 93.4476C63.3641 93.4476 57.749 95.3767 55.6435 93.0958Z" fill="white" stroke="#263238" stroke-width="0.974334" stroke-miterlimit="10" stroke-linecap="round" stroke-linejoin="round"/>
<path d="M77.0505 85.3752C76.0099 83.5786 74.26 83.4675 72.8638 83.7432C76.046 81.1242 78.0482 76.8761 74.945 70.8109C71.0847 63.2656 61.96 65.0204 61.96 65.0204C61.96 65.0204 56.5203 64.4943 53.3625 69.5823C50.2037 74.6712 51.9585 81.6893 54.5911 83.6195C57.0182 85.3996 64.6599 87.32 69.2763 85.8205C66.5764 88.6081 64.8363 92.6223 67.3004 96.1465C69.5939 99.4261 74.0466 99.8763 76.7007 96.7788C79.8576 93.0949 78.9807 88.7084 77.0505 85.3752Z" fill="#263238" stroke="#263238" stroke-width="0.974334" stroke-miterlimit="10" stroke-linecap="round" stroke-linejoin="round"/>
<path d="M55.211 84.018C55.211 84.018 53.0986 80.525 52.5598 82.9326C52.021 85.3402 53.0324 87.1563 53.7339 87.5996C54.4354 88.043 55.1223 87.8871 55.1223 87.8871" fill="white"/>
<path d="M55.211 84.018C55.211 84.018 53.0986 80.525 52.5598 82.9326C52.021 85.3402 53.0324 87.1563 53.7339 87.5996C54.4354 88.043 55.1223 87.8871 55.1223 87.8871" stroke="#263238" stroke-width="0.974334" stroke-miterlimit="10" stroke-linecap="round" stroke-linejoin="round"/>
<path d="M55.098 77.8114C55.098 77.8114 51.9392 90.7964 56.3267 95.3582C60.7131 99.9201 65.6267 92.5512 69.6624 86.9361L70.891 83.2512C70.891 83.2512 70.0141 81.4964 67.5568 77.9868C65.1006 74.4773 64.5734 72.5471 64.5734 72.5471C64.5734 72.5471 60.0116 78.3376 55.098 77.8114Z" fill="white" stroke="#263238" stroke-width="0.974334" stroke-miterlimit="10" stroke-linecap="round" stroke-linejoin="round"/>
<path d="M68.5963 87.0063C68.5963 87.0063 72.2472 85.1813 71.417 87.5041C70.5869 89.827 68.762 90.8227 67.9328 90.8227C67.1027 90.8227 66.6048 90.3248 66.6048 90.3248" fill="white"/>
<path d="M68.5963 87.0063C68.5963 87.0063 72.2472 85.1813 71.417 87.5041C70.5869 89.827 68.762 90.8227 67.9328 90.8227C67.1027 90.8227 66.6048 90.3248 66.6048 90.3248" stroke="#263238" stroke-width="0.974334" stroke-miterlimit="10" stroke-linecap="round" stroke-linejoin="round"/>
<path d="M62.4561 82.5263C62.4561 82.5263 64.4476 80.7014 67.2683 82.3607" stroke="#263238" stroke-width="0.487167" stroke-miterlimit="10"/>
<path d="M59.9668 80.7013C59.9668 80.7013 58.1418 78.7098 56.1503 79.5399" stroke="#263238" stroke-width="0.487167" stroke-miterlimit="10"/>
<path d="M59.3033 88.9978L60.4641 89.4955" stroke="#263238" stroke-width="0.487167" stroke-miterlimit="10"/>
<path d="M57.4783 90.8237C57.4783 90.8237 59.4699 92.1508 61.7927 91.4873" stroke="#263238" stroke-width="0.487167" stroke-miterlimit="10"/>
<path d="M60.0826 84.4564C59.5272 85.8137 57.8738 86.4207 56.3889 85.8137C54.905 85.2057 54.1518 83.6136 54.7072 82.2564C55.2626 80.8992 56.916 80.2921 58.4009 80.8991C59.8848 81.5062 60.638 83.0992 60.0826 84.4564Z" stroke="#263238" stroke-width="0.487167" stroke-miterlimit="10"/>
<path d="M66.8865 86.2814C66.3311 87.6386 64.6777 88.2456 63.1928 87.6386C61.7089 87.0306 60.9557 85.4386 61.5111 84.0813C62.0665 82.7241 63.7199 82.1171 65.2048 82.7241C66.6887 83.3321 67.4419 84.9241 66.8865 86.2814Z" stroke="#263238" stroke-width="0.487167" stroke-miterlimit="10"/>
<path d="M60.1334 83.6877L61.5105 84.0811" stroke="#263238" stroke-width="0.487167" stroke-miterlimit="10"/>
<path d="M66.9361 85.6793L69.7577 86.0115" stroke="#263238" stroke-width="0.487167" stroke-miterlimit="10"/>
<path d="M54.4148 100.114C54.4148 100.114 49.853 109.239 48.0982 118.011C46.3434 126.785 46.5188 143.104 46.8696 149.42C47.2203 155.737 46.8696 173.811 46.8696 173.811L38.7982 170.301C38.7982 170.301 39.149 158.896 40.553 151.526C41.957 144.156 42.1324 134.857 41.957 130.82C41.7816 126.784 40.0268 120.994 41.0801 115.554C42.1333 110.115 43.7118 101.517 44.2389 100.991C44.764 100.466 54.4148 100.114 54.4148 100.114Z" fill="#EC8117" stroke="#263238" stroke-width="0.974334" stroke-miterlimit="10" stroke-linecap="round" stroke-linejoin="round"/>
<path d="M62.4862 99.7632C62.4862 99.7632 59.3274 112.221 57.3972 123.627C55.4671 135.032 60.2053 173.284 60.2053 173.284C60.2053 173.284 62.6616 173.284 70.3822 172.055C78.1028 170.826 81.7878 168.545 81.7878 168.545C81.7878 168.545 77.2259 156.964 74.2425 150.999C71.2591 145.033 68.9782 140.295 68.9782 140.295C68.9782 140.295 67.9249 133.803 69.8551 126.608C71.7852 119.414 77.0496 104.675 74.944 102.92C72.8395 101.167 62.4862 99.7632 62.4862 99.7632Z" fill="#EC8117" stroke="#263238" stroke-width="0.974334" stroke-miterlimit="10" stroke-linecap="round" stroke-linejoin="round"/>
<path d="M69.8562 108.712C69.8562 108.712 67.9261 117.486 67.2245 121.522C66.523 125.558 65.119 131.524 65.119 131.524C65.119 131.524 52.8366 132.05 49.8531 131.874C46.8697 131.699 43.7119 131.699 43.7119 131.699L44.7642 137.314C44.7642 137.314 54.5904 140.824 60.7316 141.876C66.8728 142.929 70.207 144.508 71.2593 142.577C72.3125 140.647 75.8211 120.82 77.0497 113.274C78.2784 105.729 79.1553 103.974 73.8909 102.571" stroke="#263238" stroke-width="0.974334" stroke-miterlimit="10" stroke-linecap="round" stroke-linejoin="round"/>
<path d="M57.7491 126.961C57.7491 126.961 64.4165 126.084 64.9436 125.908C65.4697 125.732 72.3134 128.716 72.3134 128.716C72.3134 128.716 71.9627 129.592 71.4365 129.768C70.9104 129.943 66.6993 127.838 66.6993 127.838L65.9978 128.013L71.2621 131.523C71.2621 131.523 71.9637 132.4 71.2621 132.751C70.5606 133.102 64.9455 129.417 64.9455 129.417L69.8591 134.154C69.8591 134.154 68.8058 134.856 67.9289 134.154C67.052 133.453 65.1219 131.523 65.1219 131.523C65.1219 131.523 67.2274 133.979 66.1751 134.154C65.1219 134.33 63.1917 131.347 63.1917 131.347L60.0329 130.821L56.6988 130.47L57.7491 126.961Z" fill="white" stroke="#263238" stroke-width="0.974334" stroke-miterlimit="10" stroke-linecap="round" stroke-linejoin="round"/>
<path d="M47.5849 127.092C47.5849 127.092 43.1614 122.026 42.8827 121.546C42.6041 121.067 35.4973 118.781 35.4973 118.781C35.4973 118.781 35.1806 119.672 35.4593 120.151C35.7379 120.631 40.29 121.835 40.29 121.835L40.7012 122.43L34.4314 121.583C34.4314 121.583 33.3245 121.778 33.6197 122.505C33.914 123.232 40.5638 124.179 40.5638 124.179L33.7454 124.486C33.7454 124.486 34.0718 125.709 35.1933 125.762C36.3157 125.816 39.04 125.644 39.04 125.644C39.04 125.644 35.8363 126.095 36.5096 126.923C37.1838 127.75 40.6038 126.788 40.6038 126.788L43.3212 128.482L46.0552 130.423L47.5849 127.092Z" fill="white" stroke="#263238" stroke-width="0.974334" stroke-miterlimit="10" stroke-linecap="round" stroke-linejoin="round"/>
<path d="M35.1133 126.259C35.1133 126.259 52.3094 126.785 54.5903 126.785C56.8712 126.785 57.7491 126.961 57.7491 126.961L56.5204 135.558C56.5204 135.558 52.8355 136.084 43.5355 136.084C34.2355 136.084 30.0244 136.611 30.3751 133.102C30.7269 129.593 35.1133 126.259 35.1133 126.259Z" fill="#EC8117" stroke="#263238" stroke-width="0.974334" stroke-miterlimit="10" stroke-linecap="round" stroke-linejoin="round"/>
<path d="M113.379 295.272C128.623 295.272 140.98 290.394 140.98 284.377C140.98 278.36 128.623 273.482 113.379 273.482C98.1358 273.482 85.7784 278.36 85.7784 284.377C85.7784 290.394 98.1358 295.272 113.379 295.272Z" fill="#EC8117"/>
<path opacity="0.5" d="M113.379 295.272C128.623 295.272 140.98 290.394 140.98 284.377C140.98 278.36 128.623 273.482 113.379 273.482C98.1358 273.482 85.7784 278.36 85.7784 284.377C85.7784 290.394 98.1358 295.272 113.379 295.272Z" fill="white"/>
<path d="M106.975 61.8266C106.975 61.8266 101.242 62.1929 97.5621 69.1409C93.882 76.0889 95.6553 88.6227 96.9424 92.4733C98.2295 96.3238 104.316 114.831 107.795 127.745C111.273 140.659 117.548 152.149 128.755 151.738C139.963 151.327 155.096 146.115 150.151 127.217C145.205 108.319 134.699 100.536 132.654 95.7139C130.609 90.8919 130.115 85.9053 129.19 75.4097C128.265 64.9152 121.085 59.1238 113.899 57.026C106.711 54.9302 106.975 61.8266 106.975 61.8266Z" fill="#263238" stroke="#263238" stroke-width="0.974334" stroke-miterlimit="10" stroke-linecap="round" stroke-linejoin="round"/>
<path d="M128.083 92.1332C129.913 93.8286 130.63 93.8705 130.63 93.8705" stroke="white" stroke-width="0.487167" stroke-miterlimit="10" stroke-linecap="round" stroke-linejoin="round"/>
<path d="M111.879 63.1321C111.879 63.1321 112.033 70.6637 120.025 82.1901C122.86 86.2794 125.018 88.9364 126.623 90.6649" stroke="white" stroke-width="0.487167" stroke-miterlimit="10" stroke-linecap="round" stroke-linejoin="round"/>
<path d="M113.724 68.2045C113.724 68.2045 120.947 85.1111 129.247 89.8756" stroke="white" stroke-width="0.487167" stroke-miterlimit="10" stroke-linecap="round" stroke-linejoin="round"/>
<path d="M135.241 111.085C135.241 111.085 147.075 124.764 147.229 134.447C147.383 144.129 141.235 148.279 140.62 148.279" stroke="white" stroke-width="0.487167" stroke-miterlimit="10" stroke-linecap="round" stroke-linejoin="round"/>
<path d="M141.185 113.109C144.466 119.459 148.108 128.209 147.229 134.447" stroke="white" stroke-width="0.487167" stroke-miterlimit="10" stroke-linecap="round" stroke-linejoin="round"/>
<path d="M136.47 104.937C136.47 104.937 137.64 106.706 139.213 109.473" stroke="white" stroke-width="0.487167" stroke-miterlimit="10" stroke-linecap="round" stroke-linejoin="round"/>
<path d="M100.966 76.8108C100.966 76.8108 96.4523 86.0027 96.9424 92.4732" stroke="white" stroke-width="0.487167" stroke-miterlimit="10" stroke-linecap="round" stroke-linejoin="round"/>
<path d="M98.8152 82.1901C98.8152 82.1901 98.6612 87.8772 100.352 90.9503" stroke="white" stroke-width="0.487167" stroke-miterlimit="10" stroke-linecap="round" stroke-linejoin="round"/>
<path d="M139.528 169.163C139.528 169.163 137.349 174.066 137.349 175.428C137.349 176.79 137.622 182.782 138.438 181.693C139.256 180.604 138.438 176.518 139.528 176.246C140.617 175.974 141.434 176.79 140.345 180.059C139.256 183.328 138.438 186.596 140.618 184.962C142.797 183.328 142.797 181.148 143.614 176.246C144.431 171.343 143.341 167.529 143.341 167.529L139.528 169.163Z" fill="white" stroke="#263238" stroke-width="0.974334" stroke-miterlimit="10" stroke-linecap="round" stroke-linejoin="round"/>
<path d="M132.445 97.2563L136.803 137.296L144.702 167.802L137.893 170.798C137.893 170.798 128.905 145.74 126.726 141.109C124.547 136.479 123.73 132.666 123.73 130.759C123.73 128.852 132.445 97.2563 132.445 97.2563Z" fill="#EC8117" stroke="#263238" stroke-width="0.974334" stroke-miterlimit="10" stroke-linecap="round" stroke-linejoin="round"/>
<path d="M92.9514 208.93C92.9514 208.93 94.0407 214.377 94.3135 217.1C94.5863 219.825 93.7689 229.629 95.131 238.89C96.4931 248.151 103.575 275.389 103.575 275.389C103.575 275.389 96.4931 281.654 96.4931 284.65C96.4931 287.646 98.6717 287.101 102.212 284.923C105.753 282.744 109.294 277.841 109.567 274.572C109.84 271.304 106.843 252.238 107.933 243.794C109.022 235.351 107.388 220.642 107.388 214.65C107.388 208.658 107.388 208.658 107.388 208.658L92.9514 208.93Z" fill="white" stroke="#263238" stroke-width="0.974334" stroke-miterlimit="10" stroke-linecap="round" stroke-linejoin="round"/>
<path d="M100.85 281.654C99.8956 281.176 100.429 279.31 101.037 277.835C99.0041 279.925 96.4932 282.864 96.4932 284.65C96.4932 287.646 98.6718 287.101 102.213 284.923C104.935 283.248 107.65 279.964 108.888 277.05C105.841 280.379 102.091 282.274 100.85 281.654Z" fill="#263238" stroke="#263238" stroke-width="0.974334" stroke-miterlimit="10" stroke-linecap="round" stroke-linejoin="round"/>
<path d="M106.298 210.836C106.298 210.836 106.025 220.642 107.115 224.727C108.205 228.813 115.014 249.786 116.104 256.05C117.193 262.314 118.282 271.575 118.282 275.934C118.282 280.292 122.368 290.097 125.092 290.642C127.816 291.187 129.45 291.187 128.633 286.829C127.815 282.47 122.64 275.662 122.64 275.662C122.64 275.662 125.365 247.88 124.274 239.163C123.185 230.447 120.189 221.731 120.189 220.914C120.189 220.096 121.551 210.019 121.551 210.019L106.298 210.836Z" fill="white" stroke="#263238" stroke-width="0.974334" stroke-miterlimit="10" stroke-linecap="round" stroke-linejoin="round"/>
<path d="M126.62 281.826C126.288 283.199 125.678 284.377 124.547 284.377C121.823 284.377 119.1 279.747 119.1 279.747L118.962 279.985C120.237 284.608 123.048 290.234 125.092 290.642C127.816 291.187 129.45 291.187 128.633 286.829C128.351 285.325 127.547 283.533 126.62 281.826Z" fill="#263238" stroke="#263238" stroke-width="0.974334" stroke-miterlimit="10" stroke-linecap="round" stroke-linejoin="round"/>
<path d="M104.936 92.3534C104.936 92.3534 85.5972 96.4388 85.3244 97.5281C85.0516 98.6174 91.5894 132.665 91.5894 134.027C91.5894 135.389 83.9632 153.092 83.4176 163.987C82.873 174.882 86.9583 211.108 86.9583 211.108C86.9583 211.108 95.1291 214.649 103.028 214.649C110.927 214.649 124.273 212.742 124.273 212.742C124.273 212.742 130.81 191.77 131.355 174.065C131.899 156.36 124.001 134.298 124.001 134.298C124.001 134.298 132.444 98.6174 132.444 97.2553C132.445 95.8951 114.469 91.2641 104.936 92.3534Z" fill="#263238" stroke="#263238" stroke-width="0.974334" stroke-miterlimit="10" stroke-linecap="round" stroke-linejoin="round"/>
<path d="M124.002 134.299C124.002 134.299 132.445 98.6183 132.445 97.2562C132.445 95.8941 114.469 91.2641 104.936 92.3534C104.936 92.3534 85.5972 96.4387 85.3244 97.5281C85.0516 98.6174 91.5894 132.664 91.5894 134.027C91.5894 134.997 87.7193 144.263 85.2962 153.451C87.7856 154.773 91.6975 156.603 96.4922 157.995C104.936 160.447 108.205 156.906 108.205 156.906C108.205 156.906 107.387 158.813 112.29 159.357C116.634 159.84 123.967 159.674 129.75 156.222C127.576 144.293 124.002 134.299 124.002 134.299Z" fill="#EC8117" stroke="#263238" stroke-width="0.974334" stroke-miterlimit="10" stroke-linecap="round" stroke-linejoin="round"/>
<path d="M108.655 148.458C108.259 151.122 107.972 152.899 107.972 152.899" stroke="#263238" stroke-width="0.974334" stroke-miterlimit="10" stroke-linecap="round" stroke-linejoin="round"/>
<path d="M110.151 112.439C110.151 112.439 111.351 123.505 110.675 131.951C110.413 135.229 109.947 139.117 109.475 142.648" stroke="#263238" stroke-width="0.974334" stroke-miterlimit="10" stroke-linecap="round" stroke-linejoin="round"/>
<path d="M107.231 90.2556C107.231 90.2556 101.977 92.0075 99.6422 94.0507C97.3068 96.0939 93.5127 99.5966 93.5127 99.5966L103.145 100.18L110.15 112.44L115.113 100.473C115.113 100.473 118.323 100.473 120.951 100.473C123.578 100.473 125.621 101.64 125.621 101.64C125.621 101.64 118.907 92.5911 115.113 90.8393C111.318 89.0874 107.231 90.2556 107.231 90.2556Z" fill="white" stroke="#263238" stroke-width="0.974334" stroke-miterlimit="10" stroke-linecap="round" stroke-linejoin="round"/>
<path d="M104.02 86.7529C104.02 86.7529 104.896 99.013 107.23 102.223C109.566 105.434 112.776 96.9688 112.776 93.1747C112.776 89.3797 113.069 84.1261 113.069 84.1261L104.02 86.7529Z" fill="white" stroke="#263238" stroke-width="0.974334" stroke-miterlimit="10" stroke-linecap="round" stroke-linejoin="round"/>
<path d="M85.3255 97.5291C85.3255 97.5291 73.613 136.479 73.613 139.202C73.613 141.926 76.8819 144.922 80.1498 143.016C83.4187 141.109 89.9555 122.86 89.9555 122.86L85.3255 97.5291Z" fill="#EC8117" stroke="#263238" stroke-width="0.974334" stroke-miterlimit="10" stroke-linecap="round" stroke-linejoin="round"/>
<path d="M70.0722 122.315L83.1458 147.646L101.122 149.553L90.5001 118.774L70.0722 122.315Z" fill="white" stroke="#263238" stroke-width="0.974334" stroke-miterlimit="10" stroke-linecap="round" stroke-linejoin="round"/>
<path d="M85.8702 138.385L90.773 129.397L96.4933 127.49L97.3108 128.579L94.0419 130.486C94.0419 130.486 98.1273 130.759 99.2166 130.759C100.306 130.759 100.034 132.393 100.034 132.393L99.4894 133.482C99.4894 133.482 100.034 137.023 100.034 138.112C100.034 139.201 88.0498 142.742 88.0498 142.742L85.8702 138.385Z" fill="white" stroke="#263238" stroke-width="0.974334" stroke-miterlimit="10" stroke-linecap="round" stroke-linejoin="round"/>
<path d="M86.364 135.696L90.0489 145.666C90.0489 145.666 83.1127 148.917 78.128 148.917C73.1423 148.917 70.5418 142.415 72.4924 139.163C74.443 135.912 86.364 135.696 86.364 135.696Z" fill="#EC8117" stroke="#263238" stroke-width="0.974334" stroke-miterlimit="10" stroke-linecap="round" stroke-linejoin="round"/>
<path d="M108.951 64.8391L99.8605 75.813C99.8605 75.813 99.5546 84.1962 103.698 90.6482C109.403 99.5312 116.829 81.9094 116.829 81.9094L108.951 64.8391Z" fill="white" stroke="#263238" stroke-width="0.974334" stroke-miterlimit="10" stroke-linecap="round" stroke-linejoin="round"/>
<path d="M105.247 78.4847C105.344 79.272 105.106 79.9501 104.716 79.9988C104.324 80.0476 103.927 79.4493 103.83 78.662C103.733 77.8748 103.97 77.1966 104.361 77.147C104.753 77.0992 105.149 77.6975 105.247 78.4847Z" fill="#263238"/>
<path d="M110.442 78.9007C110.436 79.6938 110.112 80.3349 109.718 80.332C109.323 80.3291 109.008 79.6841 109.013 78.891C109.019 78.0978 109.343 77.4567 109.737 77.4597C110.132 77.4616 110.448 78.1066 110.442 78.9007Z" fill="#263238"/>
<path d="M104.93 85.8498C104.93 85.8498 107.251 86.6594 109.362 85.7338" stroke="#263238" stroke-width="0.487167" stroke-miterlimit="10" stroke-linecap="round" stroke-linejoin="round"/>
<path d="M108.117 75.4964C108.117 75.4964 109.907 74.0554 111.698 75.6767" stroke="#263238" stroke-width="0.487167" stroke-miterlimit="10" stroke-linecap="round" stroke-linejoin="round"/>
<path d="M105.432 75.8569C105.432 75.8569 104.179 74.0563 102.389 75.6766" stroke="#263238" stroke-width="0.487167" stroke-miterlimit="10" stroke-linecap="round" stroke-linejoin="round"/>
<path d="M106.327 77.6575C106.327 77.6575 106.685 78.5578 106.148 80.1791C105.611 81.8004 104.895 82.7007 105.432 83.0602C105.969 83.4207 107.043 83.4207 107.043 83.4207" stroke="#263238" stroke-width="0.487167" stroke-miterlimit="10" stroke-linecap="round" stroke-linejoin="round"/>
<path d="M281.162 286.557C302.021 286.557 318.931 281.679 318.931 275.662C318.931 269.645 302.021 264.767 281.162 264.767C260.303 264.767 243.393 269.645 243.393 275.662C243.393 281.679 260.303 286.557 281.162 286.557Z" fill="#EC8117"/>
<path opacity="0.5" d="M281.162 286.557C302.021 286.557 318.931 281.679 318.931 275.662C318.931 269.645 302.021 264.767 281.162 264.767C260.303 264.767 243.393 269.645 243.393 275.662C243.393 281.679 260.303 286.557 281.162 286.557Z" fill="white"/>
<path d="M276.637 80.0096C276.637 80.0096 274.761 77.602 273.87 78.6387C272.978 79.6763 275.794 86.0641 277.034 85.5116C278.276 84.9592 276.637 80.0096 276.637 80.0096Z" fill="white" stroke="#263238" stroke-width="0.974334" stroke-miterlimit="10" stroke-linecap="round" stroke-linejoin="round"/>
<path d="M291.592 80.3437C291.592 80.3437 293.365 78.0033 294.303 79.0751C295.239 80.1469 292.694 86.4343 291.429 85.835C290.164 85.2358 291.592 80.3437 291.592 80.3437Z" fill="white" stroke="#263238" stroke-width="0.974334" stroke-miterlimit="10" stroke-linecap="round" stroke-linejoin="round"/>
<path d="M278.822 95.6388C278.822 95.6388 275.633 97.0175 275.273 99.4582C274.914 101.899 276.207 154.044 276.207 154.044L298.064 155.219L297.051 98.8034C297.051 98.8034 293.216 95.9145 288.236 95.1623C283.254 94.4102 278.822 95.6388 278.822 95.6388Z" fill="white" stroke="#263238" stroke-width="0.974334" stroke-miterlimit="10" stroke-linecap="round" stroke-linejoin="round"/>
<path d="M267.776 151.961L301.249 153.166C301.249 153.166 304.278 177.997 305.724 194.243C307.17 210.489 309.324 225.494 309.101 236.785C308.878 248.076 309.154 264.983 309.208 265.585C309.262 266.187 312.755 268.637 314.971 270.545C317.188 272.452 321.851 274.241 320.31 275.323C318.768 276.404 316.747 276.703 313.212 276.068C309.675 275.433 305.571 273.013 304.498 272.46C303.425 271.908 303.425 271.908 303.425 271.908L303.364 273.522L299.331 271.904C299.331 271.904 298.648 271.131 298.105 267.33C297.563 263.529 296.713 251.685 296.267 246.671C295.821 241.657 291.18 205.623 289.411 197.247C287.643 188.872 284.097 174.339 284.097 174.339C284.097 174.339 270.489 221.528 268.764 227.453C267.04 233.378 259.856 265.35 259.741 266.363C259.626 267.375 257.785 269.68 257.838 270.281C257.892 270.884 256.032 272.987 254.562 274.872C253.092 276.756 246.899 278.465 245.268 278.543C243.638 278.622 242.927 275.231 246.177 272.657C249.428 270.083 252.422 266.917 252.422 266.917C252.422 266.917 253.966 242.871 253.899 235.22C253.832 227.569 258.345 202.372 259.185 200.317C260.026 198.263 264.677 170.038 264.677 170.038L267.776 151.961Z" fill="#263238" stroke="#263238" stroke-width="0.974334" stroke-miterlimit="10" stroke-linecap="round" stroke-linejoin="round"/>
<path d="M278.611 101.586C278.611 101.586 282.163 123.231 282.57 125.518C282.977 127.805 277.484 173.102 277.484 173.102C277.484 173.102 273.96 173.872 269.094 172.205C264.228 170.538 259.82 168.717 259.82 168.717L269.114 140.032L260.72 101.625C260.72 101.625 262.827 100.248 267.71 98.7139C272.594 97.1793 278.699 96.4028 278.699 96.4028L278.611 101.586Z" fill="#EC8117" stroke="#263238" stroke-width="0.974334" stroke-miterlimit="10" stroke-linecap="round" stroke-linejoin="round"/>
<path d="M282.163 105.894L284.554 109.31L281.405 150.361L286.338 155.984L288.76 150.548L286.415 109.909L288.88 105.478L285.391 100.253L282.163 105.894Z" fill="#263238" stroke="#263238" stroke-width="0.974334" stroke-miterlimit="10" stroke-linecap="round" stroke-linejoin="round"/>
<path d="M291.354 95.7655C291.354 95.7655 289.002 113.153 289.061 114.525C289.119 115.897 288.524 127.335 288.57 128.402C288.615 129.469 293.412 173.068 293.412 173.068C293.412 173.068 297.317 173.975 302.697 173.202C308.078 172.428 313.805 168.91 313.805 168.91L302.996 140.266L307.13 100.051C307.13 100.051 294.473 96.3696 291.354 95.7655Z" fill="#EC8117" stroke="#263238" stroke-width="0.974334" stroke-miterlimit="10" stroke-linecap="round" stroke-linejoin="round"/>
<path d="M285.191 103.555L280.733 107.834C280.733 107.834 277.836 97.9285 277.771 96.4037C277.706 94.8789 278.395 92.8951 280.057 91.9773C281.719 91.0585 288.401 91.8078 289.981 92.5668C291.56 93.3258 292.798 96.9825 292.798 96.9825L289.271 108.578L285.191 103.555Z" fill="white" stroke="#263238" stroke-width="0.974334" stroke-miterlimit="10" stroke-linecap="round" stroke-linejoin="round"/>
<path d="M279.605 88.6237C279.605 88.6237 280.148 94.1121 281.502 96.8539C282.856 99.5956 284.74 103.861 285.19 103.555C285.641 103.249 289.26 97.4472 289.363 96.2274C289.465 95.0075 289.721 90.1271 289.721 90.1271L279.605 88.6237Z" fill="white" stroke="#263238" stroke-width="0.974334" stroke-miterlimit="10" stroke-linecap="round" stroke-linejoin="round"/>
<path d="M279.898 70.348C279.898 70.348 276.872 72.1437 276.446 73.8469C276.021 75.551 276.302 84.2372 278.131 88.0147C279.96 91.7922 283.341 94.9032 285.011 94.9285C286.681 94.9539 290.522 92.3495 291.062 88.5096C291.602 84.6698 292.102 80.6 291.905 78.0307C291.708 75.4623 293.806 76.613 290.619 73.2418C287.431 69.8726 281.76 68.6995 279.898 70.348Z" fill="white" stroke="#263238" stroke-width="0.974334" stroke-miterlimit="10" stroke-linecap="round" stroke-linejoin="round"/>
<path d="M282.216 82.3426C282.216 82.9474 281.97 83.4372 281.668 83.4372C281.366 83.4372 281.121 82.9474 281.121 82.3426C281.121 81.7378 281.366 81.2479 281.668 81.2479C281.97 81.2479 282.216 81.7378 282.216 82.3426Z" fill="#263238"/>
<path d="M287.417 82.3426C287.417 82.9474 287.171 83.4372 286.869 83.4372C286.567 83.4372 286.322 82.9474 286.322 82.3426C286.322 81.7378 286.567 81.2479 286.869 81.2479C287.172 81.2479 287.417 81.7378 287.417 82.3426Z" fill="#263238"/>
<path d="M279.752 80.5629C279.752 80.5629 280.573 79.1939 282.216 80.1517" stroke="#263238" stroke-width="0.487167" stroke-miterlimit="10" stroke-linecap="round" stroke-linejoin="round"/>
<path d="M285.638 80.2892C285.638 80.2892 286.733 78.51 288.65 80.563" stroke="#263238" stroke-width="0.487167" stroke-miterlimit="10" stroke-linecap="round" stroke-linejoin="round"/>
<path d="M285.227 82.2057L285.501 86.9965L283.311 86.7227" stroke="#263238" stroke-width="0.487167" stroke-miterlimit="10" stroke-linecap="round" stroke-linejoin="round"/>
<path d="M282.626 88.5019C282.626 88.5019 284.679 89.4597 287.554 88.3645" stroke="#263238" stroke-width="0.487167" stroke-miterlimit="10" stroke-linecap="round" stroke-linejoin="round"/>
<path d="M277.736 70.1776C277.736 70.1776 274.753 69.1165 274.264 72.1672C273.775 75.2178 276.328 80.7024 276.328 80.7024C276.328 80.7024 276.733 79.3295 277.435 77.6507C278.137 75.972 279.644 75.0541 279.077 72.6154C278.51 70.1757 277.736 70.1776 277.736 70.1776Z" fill="#263238" stroke="#263238" stroke-width="0.974334" stroke-miterlimit="10" stroke-linecap="round" stroke-linejoin="round"/>
<path d="M278.278 72.0054C278.278 72.0054 279.773 74.4422 283.975 75.0434C288.176 75.6445 290.315 75.0307 290.812 75.7916C291.307 76.5526 291.335 80.8221 291.335 80.8221C291.335 80.8221 292.747 81.2772 292.829 79.5993C292.912 77.9215 294.091 76.5468 294.535 76.0888C294.98 75.6309 297.241 74.2532 294.759 70.4465C292.277 66.6397 289.132 65.4257 283.719 65.4374C278.308 65.4491 275.022 68.2006 278.278 72.0054Z" fill="#263238" stroke="#263238" stroke-width="0.974334" stroke-miterlimit="10" stroke-linecap="round" stroke-linejoin="round"/>
<path d="M307.129 100.051C307.129 100.051 314.896 126.953 315.424 129.769C315.952 132.585 312.757 134.201 309.44 133.001C306.123 131.8 303.957 114.501 303.957 114.501L307.129 100.051Z" fill="#EC8117" stroke="#263238" stroke-width="0.974334" stroke-miterlimit="10" stroke-linecap="round" stroke-linejoin="round"/>
<path d="M312.114 123.94C312.114 123.94 299.573 121.753 296.308 121.76C293.043 121.767 277.39 123.208 277.39 123.208L276.806 128.642C276.806 128.642 300.708 134.025 305.427 134.619C310.145 135.213 314.831 135.002 315.314 131.983C315.797 128.964 314.718 127.558 314.718 127.558" fill="#EC8117"/>
<path d="M312.114 123.94C312.114 123.94 299.573 121.753 296.308 121.76C293.043 121.767 277.39 123.208 277.39 123.208L276.806 128.642C276.806 128.642 300.708 134.025 305.427 134.619C310.145 135.213 314.831 135.002 315.314 131.983C315.797 128.964 314.718 127.558 314.718 127.558" stroke="#263238" stroke-width="0.974334" stroke-miterlimit="10" stroke-linecap="round" stroke-linejoin="round"/>
<path d="M260.72 101.624C260.72 101.624 261.038 117.169 261.397 125.619C261.758 134.069 264.106 137.117 268.391 137.108C272.676 137.1 269.198 112.938 269.198 112.938" fill="#EC8117"/>
<path d="M260.72 101.624C260.72 101.624 261.038 117.169 261.397 125.619C261.758 134.069 264.106 137.117 268.391 137.108C272.676 137.1 269.198 112.938 269.198 112.938" stroke="#263238" stroke-width="0.974334" stroke-miterlimit="10" stroke-linecap="round" stroke-linejoin="round"/>
<path d="M277.39 123.208C277.39 123.208 274.261 121.605 272.424 121.609C270.587 121.613 265.224 125.044 265.249 125.647C265.274 126.25 268.166 127.049 271.822 126.64C275.478 126.23 277.739 126.628 277.739 126.628L277.39 123.208Z" fill="white" stroke="#263238" stroke-width="0.974334" stroke-miterlimit="10" stroke-linecap="round" stroke-linejoin="round"/>
<path d="M298.441 119.14C298.441 119.14 301.067 118.531 303.109 118.527C305.149 118.523 307.565 122.542 307.565 122.542L299.633 123.162L298.441 119.14Z" fill="white" stroke="#263238" stroke-width="0.974334" stroke-miterlimit="10" stroke-linecap="round" stroke-linejoin="round"/>
<path d="M265.931 127.255L296.775 118.339C296.775 118.339 297.361 117.734 298.442 119.14C299.522 120.546 299.633 123.162 299.633 123.162C299.633 123.162 281.424 131.65 275.814 134.075C270.202 136.501 268.325 140.328 265.314 136.713C262.304 133.097 264.215 130.076 264.215 130.076" fill="#EC8117"/>
<path d="M265.931 127.255L296.775 118.339C296.775 118.339 297.361 117.734 298.442 119.14C299.522 120.546 299.633 123.162 299.633 123.162C299.633 123.162 281.424 131.65 275.814 134.075C270.202 136.501 268.325 140.328 265.314 136.713C262.304 133.097 264.215 130.076 264.215 130.076" stroke="#263238" stroke-width="0.974334" stroke-miterlimit="10" stroke-linecap="round" stroke-linejoin="round"/>
<path d="M241.94 295.999C257.184 295.999 269.541 291.121 269.541 285.104C269.541 279.087 257.184 274.209 241.94 274.209C226.696 274.209 214.339 279.087 214.339 285.104C214.339 291.121 226.696 295.999 241.94 295.999Z" fill="#EC8117"/>
<path opacity="0.5" d="M241.94 295.999C257.184 295.999 269.541 291.121 269.541 285.104C269.541 279.087 257.184 274.209 241.94 274.209C226.696 274.209 214.339 279.087 214.339 285.104C214.339 291.121 226.696 295.999 241.94 295.999Z" fill="white"/>
<path d="M252.735 74.1724C252.735 74.1724 256.252 70.655 256.692 65.9655C257.131 61.2761 251.709 58.7847 248.045 58.9318C244.382 59.078 241.744 61.277 241.744 61.277C241.744 61.277 233.245 60.8376 226.797 65.6732C220.349 70.5089 221.229 85.0167 221.668 90.4389C222.108 95.861 221.375 102.895 221.375 102.895C221.375 102.895 227.969 105.679 235.443 106.704C242.917 107.73 253.028 105.972 254.054 105.678C255.08 105.385 251.123 104.506 250.537 98.7909C249.95 93.0754 251.416 86.4811 252.002 83.4042C252.589 80.3263 251.563 74.3185 251.563 74.3185L252.735 74.1724Z" fill="#263238" stroke="#263238" stroke-width="0.974334" stroke-miterlimit="10" stroke-linecap="round" stroke-linejoin="round"/>
<path d="M251.96 61.2858C251.96 61.2858 250.466 66.4303 249.637 68.4209" stroke="white" stroke-width="0.487167" stroke-miterlimit="10" stroke-linecap="round" stroke-linejoin="round"/>
<path d="M245.82 63.443C245.82 63.443 247.148 67.7573 242.501 75.2246C237.855 82.6919 228.396 90.6571 228.065 96.1329" stroke="white" stroke-width="0.487167" stroke-miterlimit="10" stroke-linecap="round" stroke-linejoin="round"/>
<path d="M230.222 83.6876C230.222 83.6876 224.414 93.4777 226.903 99.4523" stroke="white" stroke-width="0.487167" stroke-miterlimit="10" stroke-linecap="round" stroke-linejoin="round"/>
<path d="M244.675 100.55C244.675 100.55 252.589 104.653 253.761 105.094C254.933 105.533 255.959 106.559 256.838 109.197C257.717 111.834 262.553 130.885 262.993 132.936C263.432 134.988 259.329 137.039 256.692 137.186C254.054 137.333 250.683 134.988 250.683 133.23C250.684 131.471 244.675 100.55 244.675 100.55Z" fill="#EC8117" stroke="#263238" stroke-width="0.974334" stroke-miterlimit="10" stroke-linecap="round" stroke-linejoin="round"/>
<path d="M247.899 131.618C247.899 131.618 251.416 127.075 253.175 125.609C254.934 124.144 258.597 122.972 260.795 124.144C262.993 125.316 262.554 127.368 261.674 127.661C260.795 127.955 258.597 127.955 257.131 128.833C255.665 129.712 253.32 131.325 251.709 131.764C250.097 132.204 247.899 131.618 247.899 131.618Z" fill="white" stroke="#263238" stroke-width="0.974334" stroke-miterlimit="10" stroke-linecap="round" stroke-linejoin="round"/>
<path d="M224.087 275.808L223.956 283.701H224.877L226.06 278.308L224.087 275.808Z" fill="#263238" stroke="#263238" stroke-width="0.974334" stroke-miterlimit="10" stroke-linecap="round" stroke-linejoin="round"/>
<path d="M254.288 208.839C254.288 208.839 252.835 228.45 249.022 241.161C245.208 253.872 237.582 273.664 237.401 276.751C237.401 276.751 242.121 281.29 243.756 282.198C245.39 283.107 246.662 282.924 245.572 283.832C244.483 284.741 241.397 285.285 239.036 284.377C236.675 283.469 234.86 280.746 233.588 280.019C232.318 279.292 230.683 278.385 230.501 276.75C230.32 275.116 232.862 272.755 232.862 272.755C232.862 272.755 238.854 259.318 238.129 250.784C237.403 242.25 239.218 232.625 241.034 229.175C242.85 225.725 243.94 222.094 243.94 222.094L238.855 209.928C238.853 209.928 249.204 206.842 254.288 208.839Z" fill="white" stroke="#263238" stroke-width="0.974334" stroke-miterlimit="10" stroke-linecap="round" stroke-linejoin="round"/>
<path d="M243.756 282.198C243.546 282.082 243.285 281.904 242.989 281.685C242.047 282.139 239.626 283.048 237.763 281.473C235.672 279.703 233.44 276.516 231.317 274.548C230.826 275.259 230.424 276.068 230.499 276.752C230.681 278.386 232.316 279.294 233.586 280.021C234.858 280.747 236.673 283.471 239.034 284.379C241.394 285.287 244.481 284.742 245.57 283.834C246.662 282.924 245.39 283.107 243.756 282.198Z" fill="#263238" stroke="#263238" stroke-width="0.974334" stroke-miterlimit="10" stroke-linecap="round" stroke-linejoin="round"/>
<path d="M251.746 207.023C251.746 207.023 255.286 217.645 255.286 220.369C255.286 223.093 238.126 261.77 236.493 265.583C234.859 269.397 232.407 276.478 232.407 276.478C232.407 276.478 232.952 279.474 235.948 281.653C238.944 283.832 240.033 285.738 238.672 286.283C237.31 286.828 231.046 287.372 229.411 285.194C227.777 283.015 226.142 278.384 224.508 277.022C222.874 275.66 224.508 272.664 225.598 271.847C226.687 271.03 228.594 268.578 228.594 268.578C228.594 268.578 232.679 259.863 232.679 252.236C232.679 244.609 234.041 237.255 238.126 230.99C242.212 224.726 243.574 220.368 243.574 220.368L239.216 211.38C239.216 211.38 246.298 206.478 251.746 207.023Z" fill="white" stroke="#263238" stroke-width="0.974334" stroke-miterlimit="10" stroke-linecap="round" stroke-linejoin="round"/>
<path d="M236.119 281.787C234.534 282.551 233.418 283.126 229.956 279.202C227.574 276.503 225.845 274.18 224.813 272.707C223.933 273.952 223.247 275.973 224.508 277.024C226.142 278.386 227.776 283.016 229.411 285.196C231.045 287.374 237.31 286.83 238.672 286.285C240.005 285.751 238.975 283.909 236.119 281.787Z" fill="#263238" stroke="#263238" stroke-width="0.974334" stroke-miterlimit="10" stroke-linecap="round" stroke-linejoin="round"/>
<path d="M237.055 98.7918C237.055 98.7918 219.03 101.576 218.444 102.602C217.858 103.628 224.012 137.48 224.599 140.117C225.186 142.755 221.082 149.642 218.737 162.978C216.393 176.314 219.19 179.521 223.147 189.046C227.104 198.571 238.228 212.803 238.228 212.803L255.52 209.726C255.52 209.726 259.477 178.805 257.572 163.857C255.668 148.91 249.952 138.359 249.952 138.359L250.392 130.445C250.392 130.445 255.301 127.445 255.447 123.635C255.594 119.826 252.882 114.326 250.392 109.343C247.899 104.36 241.012 98.7918 237.055 98.7918Z" fill="#EC8117" stroke="#263238" stroke-width="0.974334" stroke-miterlimit="10" stroke-linecap="round" stroke-linejoin="round"/>
<path d="M238.374 96.5937C238.374 96.5937 234.564 97.0331 233.978 97.7658C233.391 98.4985 231.633 108.61 231.633 108.61C231.633 108.61 238.521 106.558 239.254 106.558C239.986 106.558 245.995 113.592 245.995 113.592V107.437L251.271 111.394C251.271 111.394 249.806 106.998 247.461 102.895C245.114 98.7918 241.598 96.7398 238.374 96.5937Z" fill="white" stroke="#263238" stroke-width="0.974334" stroke-miterlimit="10" stroke-linecap="round" stroke-linejoin="round"/>
<path d="M238.667 87.8013C238.667 87.8013 237.495 99.085 238.228 100.404C238.961 101.724 243.943 109.344 243.943 109.344C243.943 109.344 243.357 103.482 243.357 99.8187C243.357 96.1552 244.968 90.4398 244.968 90.4398L238.667 87.8013Z" fill="white" stroke="#263238" stroke-width="0.974334" stroke-miterlimit="10" stroke-linecap="round" stroke-linejoin="round"/>
<path d="M248.925 69.1896C248.925 69.1896 246.14 76.0772 243.357 78.5686C240.572 81.06 238.228 82.2321 238.228 82.2321C238.228 82.2321 237.934 87.0677 238.667 87.8004C239.4 88.5331 245.409 94.688 247.46 93.8091C249.511 92.9303 252.588 87.2148 252.882 82.6715C253.175 78.1282 251.562 72.4137 251.562 72.4137L248.925 69.1896Z" fill="white" stroke="#263238" stroke-width="0.974334" stroke-miterlimit="10" stroke-linecap="round" stroke-linejoin="round"/>
<path d="M250.964 77.7141C250.964 77.7141 249.803 78.0463 249.803 79.7056C249.803 81.3649 251.297 82.6929 251.297 83.5221C251.297 84.3522 249.472 84.8501 249.472 84.8501" stroke="#263238" stroke-width="0.487167" stroke-miterlimit="10" stroke-linecap="round" stroke-linejoin="round"/>
<path d="M248.309 78.5442C248.309 78.5442 247.479 76.5526 244.824 77.2162" stroke="#263238" stroke-width="0.487167" stroke-miterlimit="10" stroke-linecap="round" stroke-linejoin="round"/>
<path d="M248.973 87.5041C248.973 87.5041 247.148 88.002 245.654 86.674" stroke="#263238" stroke-width="0.487167" stroke-miterlimit="10" stroke-linecap="round" stroke-linejoin="round"/>
<path d="M246.65 79.7884C246.65 80.4753 246.464 81.0326 246.235 81.0326C246.006 81.0326 245.82 80.4753 245.82 79.7884C245.82 79.1015 246.006 78.5441 246.235 78.5441C246.464 78.5441 246.65 79.1005 246.65 79.7884Z" fill="#263238"/>
<path d="M250.964 80.3691C250.964 81.056 250.778 81.6133 250.549 81.6133C250.32 81.6133 250.134 81.056 250.134 80.3691C250.134 79.6822 250.32 79.1249 250.549 79.1249C250.778 79.1249 250.964 79.6822 250.964 80.3691Z" fill="#263238"/>
<path d="M221.814 102.309C221.814 102.309 219.029 102.163 216.978 103.628C214.927 105.094 215.367 110.809 216.392 116.964C217.418 123.119 222.986 140.264 224.305 143.195C225.625 146.126 228.702 148.031 231.486 148.031C234.271 148.031 252.588 138.212 252.588 138.212L250.977 133.669C250.977 133.669 235.297 137.626 234.124 137.772C232.952 137.918 227.823 111.687 227.823 111.687" fill="#EC8117"/>
<path d="M221.814 102.309C221.814 102.309 219.029 102.163 216.978 103.628C214.927 105.094 215.367 110.809 216.392 116.964C217.418 123.119 222.986 140.264 224.305 143.195C225.625 146.126 228.702 148.031 231.486 148.031C234.271 148.031 252.588 138.212 252.588 138.212L250.977 133.669C250.977 133.669 235.297 137.626 234.124 137.772C232.952 137.918 227.823 111.687 227.823 111.687" stroke="#263238" stroke-width="0.974334" stroke-miterlimit="10" stroke-linecap="round" stroke-linejoin="round"/>
<path d="M238.52 134.695C238.52 134.695 232.511 134.549 231.633 134.549C230.754 134.549 226.65 139.238 225.624 140.41C224.598 141.583 225.77 141.876 226.21 142.022C226.651 142.168 229.434 140.996 229.434 140.996C229.434 140.996 226.943 145.832 227.53 146.712C228.116 147.591 229.582 148.177 230.167 147.59C230.754 147.004 232.365 146.271 232.952 146.271C233.538 146.271 234.71 146.271 235.883 144.952C237.055 143.633 238.96 138.358 238.96 138.358L241.89 137.479V135.281L238.52 134.695Z" fill="white" stroke="#263238" stroke-width="0.974334" stroke-miterlimit="10" stroke-linecap="round" stroke-linejoin="round"/>
<path d="M237.935 134.549L239.546 144.367C239.546 144.367 259.622 138.799 262.114 137.626C264.605 136.454 263.14 130.152 261.235 128.54C259.33 126.929 237.935 134.549 237.935 134.549Z" fill="#EC8117" stroke="#263238" stroke-width="0.974334" stroke-miterlimit="10" stroke-linecap="round" stroke-linejoin="round"/>
<path d="M238.227 212.803L255.519 209.726C255.519 209.726 259.476 178.805 257.571 163.857C257.154 160.583 256.549 157.537 255.866 154.75C252.898 156.026 248.596 157.316 242.485 157.995C231.14 159.256 223.544 155.987 220.653 154.422C219.973 156.922 219.303 159.758 218.737 162.977C216.393 176.313 219.19 179.52 223.147 189.045C227.103 198.571 238.227 212.803 238.227 212.803Z" fill="#263238" stroke="#263238" stroke-width="0.974334" stroke-miterlimit="10" stroke-linecap="round" stroke-linejoin="round"/>
<path d="M241.256 176.649C243.568 180.575 246.118 185.985 247.751 192.678" stroke="white" stroke-width="0.730751" stroke-miterlimit="10" stroke-linecap="round" stroke-linejoin="round"/>
<path d="M235.948 169.254C235.948 169.254 237.377 170.746 239.305 173.572" stroke="white" stroke-width="0.730751" stroke-miterlimit="10" stroke-linecap="round" stroke-linejoin="round"/>
<path d="M180.386 301.083C204.958 301.083 224.877 296.205 224.877 290.188C224.877 284.171 204.958 279.293 180.386 279.293C155.815 279.293 135.896 284.171 135.896 290.188C135.896 296.205 155.815 301.083 180.386 301.083Z" fill="#EC8117"/>
<path opacity="0.5" d="M180.386 301.083C204.958 301.083 224.877 296.205 224.877 290.188C224.877 284.171 204.958 279.293 180.386 279.293C155.815 279.293 135.896 284.171 135.896 290.188C135.896 296.205 155.815 301.083 180.386 301.083Z" fill="white"/>
<path d="M177.016 67.5225C177.016 67.5225 175.371 64.5303 174.174 65.5778C172.978 66.6252 174.923 74.2532 176.418 73.805C177.914 73.3559 177.016 67.5225 177.016 67.5225Z" fill="white" stroke="#263238" stroke-width="0.974334" stroke-miterlimit="10" stroke-linecap="round" stroke-linejoin="round"/>
<path d="M146.689 171.071C146.689 171.071 159.516 176.883 175.349 178.486C191.182 180.09 209.62 168.666 209.62 168.666C209.62 168.666 191.182 140.207 190.981 139.606C190.781 139.005 168.734 138.203 168.734 138.203L146.689 171.071Z" fill="#263238" stroke="#263238" stroke-width="0.974334" stroke-miterlimit="10" stroke-linecap="round" stroke-linejoin="round"/>
<path d="M160.137 147.373C160.137 147.373 152.783 178.696 152.783 189.864C152.783 201.031 152.783 210.02 152.238 219.008C151.693 227.996 148.697 245.428 149.787 254.416C150.876 263.405 152.238 281.109 152.238 281.109C152.238 281.109 142.705 288.735 142.705 291.46C142.705 294.184 148.425 293.366 153.327 290.37C158.23 287.374 159.592 285.196 159.592 285.196L160.682 286.285L162.316 284.651L162.86 278.659L168.308 229.631L175.934 180.877L189.28 239.437L200.993 280.021L203.717 281.11L204.262 283.562L206.986 285.196L209.709 285.467L212.433 287.919C212.433 287.919 221.15 290.643 222.784 290.097C224.418 289.552 224.418 287.373 220.06 284.105C215.701 280.836 208.347 278.931 208.347 278.931C208.347 278.931 207.53 251.42 205.623 235.351C203.716 219.281 201.265 205.662 201.265 194.222C201.265 182.782 197.451 149.553 197.451 149.553L160.137 147.373Z" fill="#263238" stroke="#263238" stroke-width="0.974334" stroke-miterlimit="10" stroke-linecap="round" stroke-linejoin="round"/>
<path d="M178.931 86.0894L158.594 93.8977L160.228 149.825C160.228 149.825 167.128 153.276 179.293 153.094C191.459 152.913 199.709 152.411 199.709 152.411L204.534 91.3566L184.922 86.8172C184.923 86.8153 181.292 85.5447 178.931 86.0894Z" fill="white" stroke="#263238" stroke-width="0.974334" stroke-miterlimit="10" stroke-linecap="round" stroke-linejoin="round"/>
<path d="M179.112 95.8951L181.292 101.524L175.117 145.285L178.386 152.549L183.834 144.196L183.108 101.887L185.65 96.2576L182.744 90.4476L179.112 95.8951Z" fill="#263238" stroke="#263238" stroke-width="0.974334" stroke-miterlimit="10" stroke-linecap="round" stroke-linejoin="round"/>
<path d="M178.96 83.5279L175.669 87.4175L176.267 99.5343L183.148 94.0001L188.682 102.077C188.682 102.077 190.926 91.457 190.029 88.1657C189.131 84.8744 185.99 82.7806 184.344 83.0797C182.7 83.3779 178.96 83.5279 178.96 83.5279Z" fill="white" stroke="#263238" stroke-width="0.974334" stroke-miterlimit="10" stroke-linecap="round" stroke-linejoin="round"/>
<path d="M178.063 77.8437C178.063 77.8437 178.083 78.0775 178.12 78.478C178.304 80.4754 178.885 86.6205 179.259 88.614C179.708 91.0069 182.85 93.7 184.046 93.2508C185.243 92.8017 188.085 89.2122 188.384 88.0157C188.683 86.8193 189.879 81.2841 189.879 81.2841C189.879 81.2841 185.99 83.0788 184.345 83.0788C182.7 83.0788 178.063 77.8437 178.063 77.8437Z" fill="white" stroke="#263238" stroke-width="0.974334" stroke-miterlimit="10" stroke-linecap="round" stroke-linejoin="round"/>
<path d="M193.719 70.0294C193.719 70.0294 196.152 67.6335 196.999 68.9801C197.846 70.3256 193.799 77.0787 192.494 76.2203C191.19 75.362 193.719 70.0294 193.719 70.0294Z" fill="white" stroke="#263238" stroke-width="0.974334" stroke-miterlimit="10" stroke-linecap="round" stroke-linejoin="round"/>
<path d="M182.506 57.0543C182.506 57.0543 178.771 58.6551 177.971 60.5219C177.171 62.3888 175.837 72.2588 177.171 76.7933C178.505 81.3279 181.706 85.3295 183.573 85.5964C185.439 85.8634 190.241 83.4626 191.575 79.1941C192.909 74.9265 194.243 70.3919 194.51 67.4572C194.777 64.5225 196.91 66.1234 193.976 61.8558C191.042 57.5882 184.906 55.4544 182.506 57.0543Z" fill="white" stroke="#263238" stroke-width="0.974334" stroke-miterlimit="10" stroke-linecap="round" stroke-linejoin="round"/>
<path d="M183.708 69.5822C183.728 70.313 183.447 70.9132 183.082 70.9229C182.716 70.9326 182.404 70.3481 182.385 69.6173C182.365 68.8865 182.646 68.2864 183.011 68.2766C183.377 68.2669 183.689 68.8515 183.708 69.5822Z" fill="#263238"/>
<path d="M188.896 69.9399C188.916 70.6706 188.635 71.2708 188.27 71.2806C187.904 71.2903 187.593 70.7057 187.573 69.975C187.554 69.2442 187.834 68.644 188.2 68.6343C188.566 68.6245 188.877 69.2091 188.896 69.9399Z" fill="#263238"/>
<path d="M181.036 66.2822C181.036 66.2822 182.316 64.429 184.251 65.377" stroke="#263238" stroke-width="0.487167" stroke-miterlimit="10" stroke-linecap="round" stroke-linejoin="round"/>
<path d="M187.117 65.8934C187.117 65.8934 188.808 65.076 190.699 67.278" stroke="#263238" stroke-width="0.487167" stroke-miterlimit="10" stroke-linecap="round" stroke-linejoin="round"/>
<path d="M182.664 76.8031C182.664 76.8031 184.692 77.8378 186.747 77.263" stroke="#263238" stroke-width="0.487167" stroke-miterlimit="10" stroke-linecap="round" stroke-linejoin="round"/>
<path d="M186.519 67.73C186.519 67.73 187.423 74.0564 186.745 74.3955C186.067 74.7345 184.598 73.9434 184.598 73.9434" stroke="#263238" stroke-width="0.487167" stroke-miterlimit="10" stroke-linecap="round" stroke-linejoin="round"/>
<path d="M178.512 54.0602C178.512 54.0602 173.426 55.1076 173.576 57.7996C173.726 60.4917 175.521 65.2786 175.521 65.2786C175.521 65.2786 177.315 66.326 177.016 67.5225C176.717 68.719 176.866 71.262 177.914 70.3647C178.961 69.4673 178.363 66.176 178.811 65.7278C179.259 65.2786 180.606 64.5313 180.606 62.7356C180.606 60.9399 179.558 59.2953 179.857 58.8461C180.157 58.3969 185.392 58.9961 187.935 60.1926C190.478 61.3891 193.918 63.3339 193.021 65.2786C192.123 67.2234 193.32 68.2698 193.32 68.2698C193.32 68.2698 192.272 71.112 193.021 71.8603C193.769 72.6086 194.666 69.3173 194.666 69.3173C194.666 69.3173 196.162 69.1672 196.611 67.2234C197.06 65.2786 197.659 62.2874 197.209 59.8935C196.76 57.5005 191.824 53.4609 186.439 53.3119C181.055 53.1628 178.512 54.0602 178.512 54.0602Z" fill="#263238" stroke="#263238" stroke-width="0.974334" stroke-miterlimit="10" stroke-linecap="round" stroke-linejoin="round"/>
<path d="M179.11 56.6032C179.11 56.6032 185.243 61.9883 190.479 64.0822C195.714 66.176 202.445 62.2874 202.745 59.2952C203.044 56.304 197.958 51.9653 196.612 51.8163C195.266 51.6662 197.36 49.8715 192.424 48.3759C187.488 46.8803 176.567 47.7776 175.969 50.7688C175.371 53.761 179.11 56.6032 179.11 56.6032Z" fill="#263238" stroke="#263238" stroke-width="0.974334" stroke-miterlimit="10" stroke-linecap="round" stroke-linejoin="round"/>
<path d="M176.389 86.9975C176.389 86.9975 175.663 121.499 171.486 133.301C167.31 145.104 162.044 156.906 157.504 161.083C152.965 165.259 144.975 178.515 144.975 178.515C144.975 178.515 142.252 173.248 142.252 171.615C142.252 169.981 154.963 158.359 156.053 157.269C157.142 156.18 157.687 150.55 157.687 142.198C157.687 133.846 155.689 94.6236 155.689 93.8977C155.688 93.1709 172.939 86.0894 176.389 86.9975Z" fill="#EC8117" stroke="#263238" stroke-width="0.974334" stroke-miterlimit="10" stroke-linecap="round" stroke-linejoin="round"/>
<path d="M155.688 93.8978C155.688 93.8978 155.545 94.1072 155.296 94.497C154.141 96.3014 151.363 102.208 148.697 108.697C145.329 116.897 136.44 130.487 138.347 133.21C140.254 135.933 145.157 137.568 148.153 134.3C151.149 131.031 158.503 117.14 158.503 117.14C158.503 117.14 157.504 96.8023 155.688 93.8978Z" fill="#EC8117" stroke="#263238" stroke-width="0.974334" stroke-miterlimit="10" stroke-linecap="round" stroke-linejoin="round"/>
<path d="M189.645 87.3599C189.645 87.3599 190.008 111.147 190.734 127.49C191.461 143.832 193.639 150.006 195.455 153.093C197.272 156.18 210.526 176.7 210.526 176.7C210.526 176.7 213.613 170.344 213.251 167.802C212.887 165.26 203.264 149.099 203.264 148.191C203.264 147.282 207.44 93.7155 206.714 92.2628C205.987 90.81 189.645 87.3599 189.645 87.3599Z" fill="#EC8117" stroke="#263238" stroke-width="0.974334" stroke-miterlimit="10" stroke-linecap="round" stroke-linejoin="round"/>
<path d="M172.575 89.1761L167.31 102.25L171.486 106.427L166.947 111.511L169.489 130.94" stroke="#263238" stroke-width="0.974334" stroke-miterlimit="10" stroke-linecap="round" stroke-linejoin="round"/>
<path d="M192.187 89.3574L197.089 100.979L191.642 104.247L197.089 112.782L191.823 126.582" stroke="#263238" stroke-width="0.974334" stroke-miterlimit="10" stroke-linecap="round" stroke-linejoin="round"/>
<path d="M160.137 158.541L161.051 160.918L154.577 165.913L152.543 161.288L160.137 158.541Z" fill="white" stroke="#263238" stroke-width="0.974334" stroke-miterlimit="10" stroke-linecap="round" stroke-linejoin="round"/>
<path d="M147.335 129.397L160.137 158.541L150.604 165.895C150.604 165.895 136.713 136.751 136.713 134.299C136.713 131.848 139.709 126.945 141.071 126.128" fill="#EC8117"/>
<path d="M147.335 129.397L160.137 158.541L150.604 165.895C150.604 165.895 136.713 136.751 136.713 134.299C136.713 131.848 139.709 126.945 141.071 126.128" stroke="#263238" stroke-width="0.974334" stroke-miterlimit="10" stroke-linecap="round" stroke-linejoin="round"/>
<path d="M161.051 160.918L163.271 162.028L157.167 170.352L154.577 165.913L161.051 160.918Z" fill="white" stroke="#263238" stroke-width="0.974334" stroke-miterlimit="10" stroke-linecap="round" stroke-linejoin="round"/>
<path d="M194.944 158.964L193.797 161.238L199.74 166.854L202.226 162.456L194.944 158.964Z" fill="white" stroke="#263238" stroke-width="0.974334" stroke-miterlimit="10" stroke-linecap="round" stroke-linejoin="round"/>
<path d="M206.713 92.2628C206.713 92.2628 209.513 95.2549 209.883 98.0289C210.253 100.804 220.056 133.357 220.426 134.837C220.796 136.317 217.097 138.722 213.397 139.276C209.697 139.832 205.073 125.404 205.073 125.404L206.713 92.2628Z" fill="#EC8117" stroke="#263238" stroke-width="0.974334" stroke-miterlimit="10" stroke-linecap="round" stroke-linejoin="round"/>
<path d="M210.596 131.245L194.945 158.963L203.696 167.233C203.696 167.233 220.431 139.623 220.675 137.184C220.921 134.746 218.429 129.568 217.156 128.618" fill="#EC8117"/>
<path d="M210.596 131.245L194.945 158.963L203.696 167.233C203.696 167.233 220.431 139.623 220.675 137.184C220.921 134.746 218.429 129.568 217.156 128.618" stroke="#263238" stroke-width="0.974334" stroke-miterlimit="10" stroke-linecap="round" stroke-linejoin="round"/>
<path d="M193.797 161.238L191.477 162.12L196.719 171.012L199.74 166.854L193.797 161.238Z" fill="white" stroke="#263238" stroke-width="0.974334" stroke-miterlimit="10" stroke-linecap="round" stroke-linejoin="round"/>
</g>
<defs>
<clipPath id="clip0_722_1033">
<rect width="363" height="300.865" fill="white" transform="translate(0 0.0675659)"/>
</clipPath>
</defs>
</svg>
