<svg width="184" height="161" viewBox="0 0 184 161" fill="none" xmlns="http://www.w3.org/2000/svg">
<g clip-path="url(#clip0_1629_4583)">
<path d="M22.0634 151.825C31.5897 151.825 39.3123 148.777 39.3123 145.016C39.3123 141.256 31.5897 138.208 22.0634 138.208C12.5371 138.208 4.81458 141.256 4.81458 145.016C4.81458 148.777 12.5371 151.825 22.0634 151.825Z" fill="#EC8117"/>
<path opacity="0.5" d="M22.0634 151.825C31.5897 151.825 39.3123 148.777 39.3123 145.016C39.3123 141.256 31.5897 138.208 22.0634 138.208C12.5371 138.208 4.81458 141.256 4.81458 145.016C4.81458 148.777 12.5371 151.825 22.0634 151.825Z" fill="white"/>
<path d="M9.71984 34.9507C9.71984 34.9507 8.40402 35.7185 7.7458 36.9247C7.08758 38.131 3.24971 49.2062 2.04348 51.7282C0.837255 54.2503 0.288638 55.1277 1.82428 56.0045C3.35931 56.882 5.33335 55.5661 6.64918 53.1537C7.965 50.7412 10.3775 44.0519 10.8159 42.5168C11.2549 40.9818 12.7905 35.1699 9.71984 34.9507Z" fill="#EC8117" stroke="#263238" stroke-width="0.608897" stroke-miterlimit="10" stroke-linecap="round" stroke-linejoin="round"/>
<path d="M33.4607 134.474L34.3668 140.968L33.7628 141.27L31.9507 137.796L33.4607 134.474Z" fill="#263238" stroke="#263238" stroke-width="0.608897" stroke-miterlimit="10" stroke-linecap="round" stroke-linejoin="round"/>
<path d="M14.734 95.208C14.734 95.208 16.6971 104.572 18.6608 110.612C20.6239 116.653 26.9668 130.698 27.4198 133.115C27.8728 135.531 27.2688 135.531 27.2688 137.495C27.2688 139.458 24.5507 141.572 24.3996 142.63C24.2486 143.687 26.3627 143.838 28.3264 143.234C30.2895 142.63 31.6492 140.968 31.6492 139.609C31.6492 138.25 33.4613 135.833 33.4613 134.474C33.4613 133.115 31.1962 132.964 31.0452 130.396C30.8941 127.829 29.9881 118.616 28.4774 113.18C26.9674 107.743 25.4573 104.874 24.2486 103.363C23.0406 101.853 21.5299 98.3791 21.8325 97.1711C22.1339 95.963 14.734 95.208 14.734 95.208Z" fill="white" stroke="#263238" stroke-width="0.608897" stroke-miterlimit="10" stroke-linecap="round" stroke-linejoin="round"/>
<path d="M31.6486 139.608C31.6486 138.249 33.4607 135.832 33.4607 134.473C33.4607 133.9 33.057 133.542 32.5803 133.126C31.9105 134.921 30.5441 138.037 28.4769 139.759C27.1873 140.834 26.3433 140.817 25.8081 140.506C25.1365 141.368 24.4716 142.12 24.3991 142.628C24.2481 143.685 26.3622 143.836 28.3259 143.232C30.289 142.629 31.6486 140.968 31.6486 139.608Z" fill="#263238" stroke="#263238" stroke-width="0.608897" stroke-miterlimit="10" stroke-linecap="round" stroke-linejoin="round"/>
<path d="M18.2078 97.3223C18.2078 97.3223 17.6038 102.306 17.6038 105.477C17.6038 108.648 15.7698 129.565 15.1877 133.567C14.622 137.452 13.5266 139.155 12.9226 141.269C12.3186 143.383 11.7146 145.649 10.6575 146.253C9.60047 146.857 10.6575 147.461 12.4696 147.31C14.2817 147.159 16.0937 146.253 16.2454 144.592C16.3964 142.931 17.8315 141.47 18.8125 140.816C20.6245 139.608 18.3595 135.983 20.9266 128.13C22.0549 124.679 24.8533 120.126 25.4574 114.84C26.0614 109.554 25.0043 104.722 25.0043 103.514C25.0043 102.305 26.0614 97.7747 26.0614 97.7747L18.2078 97.3223Z" fill="white" stroke="#263238" stroke-width="0.608897" stroke-miterlimit="10" stroke-linecap="round" stroke-linejoin="round"/>
<path d="M19.2716 141.071C21.2322 140.325 19.8123 138.648 19.6467 136.819C18.0708 138.346 15.961 142.309 14.7341 143.535C13.8652 144.404 12.7978 144.322 12.047 144.096C11.6683 145.11 11.2293 145.926 10.6569 146.253C9.59986 146.857 10.6569 147.461 12.469 147.31C14.2811 147.159 16.0931 146.253 16.2448 144.592C16.3952 142.931 18.1689 141.491 19.2716 141.071Z" fill="#263238" stroke="#263238" stroke-width="0.608897" stroke-miterlimit="10" stroke-linecap="round" stroke-linejoin="round"/>
<path d="M19.5668 139.608L20.0199 146.253H18.8118L17.7548 141.722C17.7548 141.722 18.8118 139.457 19.5668 139.608Z" fill="#263238" stroke="#263238" stroke-width="0.608897" stroke-miterlimit="10" stroke-linecap="round" stroke-linejoin="round"/>
<path d="M16.8476 33.8542L12.2419 35.6091C12.2419 35.6091 9.71982 41.6402 8.8424 46.0267C7.96498 50.4132 9.17121 54.9087 10.0486 57.6505C10.926 60.3918 12.0227 76.1823 12.4611 82.2135C12.8995 88.2446 13.7769 96.9074 13.7769 96.9074C13.7769 96.9074 15.751 98.4424 19.6984 99.2102C23.6459 99.978 29.2386 98.7718 29.2386 98.7718C29.2386 98.7718 32.5285 89.2316 33.1861 83.6395C33.8443 78.0468 28.3612 68.9456 26.607 64.9981C24.8527 61.0506 24.1945 54.6907 24.5233 52.8263C24.8521 50.9624 29.0194 36.8165 27.5934 36.1583C26.1686 35.4989 21.0143 33.635 16.8476 33.8542Z" fill="#263238" stroke="#263238" stroke-width="0.608897" stroke-miterlimit="10" stroke-linecap="round" stroke-linejoin="round"/>
<path d="M16.8476 30.0161C16.8476 30.0161 16.4092 33.0862 16.0798 34.4026C15.7504 35.719 13.229 40.3241 14.2154 42.2982C15.2024 44.2722 18.4917 44.2722 19.9177 40.8727C21.3431 37.4733 21.1239 33.5258 21.1239 33.5258L21.6725 30.2359C21.6725 30.2359 18.1635 31.4415 16.8476 30.0161Z" fill="white" stroke="#263238" stroke-width="0.608897" stroke-miterlimit="10" stroke-linecap="round" stroke-linejoin="round"/>
<path d="M30.2256 25.1913C29.5753 24.0685 28.4817 23.9991 27.6092 24.1714C29.5978 22.5347 30.8491 19.8799 28.9098 16.0895C26.4973 11.3742 20.795 12.4709 20.795 12.4709C20.795 12.4709 17.3956 12.1421 15.4221 15.3217C13.4481 18.502 14.5447 22.8879 16.1899 24.0941C17.7067 25.2066 22.4823 26.4067 25.3672 25.4696C23.68 27.2117 22.5925 29.7203 24.1324 31.9227C25.5657 33.9723 28.3484 34.2536 30.007 32.3179C31.9799 30.0156 31.4318 27.2744 30.2256 25.1913Z" fill="#263238" stroke="#263238" stroke-width="0.608897" stroke-miterlimit="10" stroke-linecap="round" stroke-linejoin="round"/>
<path d="M16.5773 24.3436C16.5773 24.3436 15.2573 22.1607 14.9205 23.6653C14.5838 25.1698 15.2159 26.3048 15.6543 26.5819C16.0927 26.8589 16.5219 26.7615 16.5219 26.7615" fill="white"/>
<path d="M16.5773 24.3436C16.5773 24.3436 15.2573 22.1607 14.9205 23.6653C14.5838 25.1698 15.2159 26.3048 15.6543 26.5819C16.0927 26.8589 16.5219 26.7615 16.5219 26.7615" stroke="#263238" stroke-width="0.608897" stroke-miterlimit="10" stroke-linecap="round" stroke-linejoin="round"/>
<path d="M16.5066 20.4647C16.5066 20.4647 14.5326 28.5795 17.2744 31.4303C20.0157 34.2812 23.0864 29.6761 25.6084 26.167L26.3762 23.8642C26.3762 23.8642 25.8282 22.7675 24.2926 20.5743C22.7576 18.381 22.4281 17.1748 22.4281 17.1748C22.4281 17.1748 19.5773 20.7935 16.5066 20.4647Z" fill="white" stroke="#263238" stroke-width="0.608897" stroke-miterlimit="10" stroke-linecap="round" stroke-linejoin="round"/>
<path d="M24.9423 26.2106C24.9423 26.2106 27.2239 25.0701 26.7051 26.5217C26.1863 27.9733 25.0459 28.5956 24.5277 28.5956C24.0089 28.5956 23.6978 28.2845 23.6978 28.2845" fill="white"/>
<path d="M24.9423 26.2106C24.9423 26.2106 27.2239 25.0701 26.7051 26.5217C26.1863 27.9733 25.0459 28.5956 24.5277 28.5956C24.0089 28.5956 23.6978 28.2845 23.6978 28.2845" stroke="#263238" stroke-width="0.608897" stroke-miterlimit="10" stroke-linecap="round" stroke-linejoin="round"/>
<path d="M21.105 23.4111C21.105 23.4111 22.3496 22.2706 24.1123 23.3076" stroke="#263238" stroke-width="0.304449" stroke-miterlimit="10"/>
<path d="M19.5492 22.2708C19.5492 22.2708 18.4088 21.0262 17.1642 21.545" stroke="#263238" stroke-width="0.304449" stroke-miterlimit="10"/>
<path d="M19.1348 27.4556L19.8602 27.7666" stroke="#263238" stroke-width="0.304449" stroke-miterlimit="10"/>
<path d="M17.9941 28.5967C17.9941 28.5967 19.2387 29.426 20.6903 29.0113" stroke="#263238" stroke-width="0.304449" stroke-miterlimit="10"/>
<path d="M19.6218 24.6173C19.2747 25.4655 18.2414 25.8448 17.3135 25.4655C16.3861 25.0855 15.9154 24.0906 16.2625 23.2424C16.6096 22.3942 17.6429 22.0149 18.5708 22.3942C19.4982 22.7736 19.9689 23.7691 19.6218 24.6173Z" stroke="#263238" stroke-width="0.304449" stroke-miterlimit="10"/>
<path d="M23.8738 25.7579C23.5267 26.6061 22.4934 26.9855 21.5654 26.6061C20.6381 26.2262 20.1674 25.2312 20.5145 24.383C20.8615 23.5348 21.8948 23.1555 22.8228 23.5348C23.7501 23.9148 24.2208 24.9097 23.8738 25.7579Z" stroke="#263238" stroke-width="0.304449" stroke-miterlimit="10"/>
<path d="M19.6534 24.1367L20.514 24.3826" stroke="#263238" stroke-width="0.304449" stroke-miterlimit="10"/>
<path d="M23.9047 25.3813L25.668 25.589" stroke="#263238" stroke-width="0.304449" stroke-miterlimit="10"/>
<path d="M16.0797 34.4019C16.0797 34.4019 13.2289 40.1042 12.1322 45.5867C11.0356 51.0698 11.1452 61.2676 11.3644 65.2151C11.5836 69.1626 11.3644 80.4576 11.3644 80.4576L6.32031 78.2644C6.32031 78.2644 6.53952 71.1366 7.41694 66.5309C8.29436 61.9252 8.40396 56.1139 8.29436 53.5913C8.18476 51.0692 7.08813 47.4505 7.74635 44.051C8.40457 40.6516 9.39098 35.2787 9.72039 34.9499C10.0486 34.6217 16.0797 34.4019 16.0797 34.4019Z" fill="#EC8117" stroke="#263238" stroke-width="0.608897" stroke-miterlimit="10" stroke-linecap="round" stroke-linejoin="round"/>
<path d="M21.1238 34.1831C21.1238 34.1831 19.1498 41.9685 17.9436 49.0962C16.7373 56.224 19.6984 80.1287 19.6984 80.1287C19.6984 80.1287 21.2334 80.1287 26.0583 79.3609C30.8832 78.593 33.1861 77.1676 33.1861 77.1676C33.1861 77.1676 30.3352 69.9302 28.4708 66.202C26.6063 62.4737 25.1809 59.5126 25.1809 59.5126C25.1809 59.5126 24.5227 55.4555 25.7289 50.9594C26.9351 46.4633 30.225 37.2526 28.9092 36.1559C27.594 35.0605 21.1238 34.1831 21.1238 34.1831Z" fill="#EC8117" stroke="#263238" stroke-width="0.608897" stroke-miterlimit="10" stroke-linecap="round" stroke-linejoin="round"/>
<path d="M25.7295 39.7754C25.7295 39.7754 24.5233 45.2585 24.0849 47.7805C23.6465 50.3026 22.7691 54.0309 22.7691 54.0309C22.7691 54.0309 15.0933 54.3597 13.2289 54.2501C11.3644 54.1405 9.39099 54.1405 9.39099 54.1405L10.0486 57.6496C10.0486 57.6496 16.1893 59.8428 20.0272 60.5004C23.8651 61.1586 25.9487 62.145 26.6063 60.9388C27.2646 59.7326 29.4572 47.3415 30.225 42.6262C30.9928 37.9109 31.5408 36.8143 28.251 35.9375" stroke="#263238" stroke-width="0.608897" stroke-miterlimit="10" stroke-linecap="round" stroke-linejoin="round"/>
<path d="M18.1634 51.1795C18.1634 51.1795 22.33 50.6315 22.6594 50.5213C22.9882 50.4116 27.2651 52.2761 27.2651 52.2761C27.2651 52.2761 27.0459 52.8241 26.7171 52.9337C26.3883 53.0433 23.7567 51.7275 23.7567 51.7275L23.3183 51.8371L26.6081 54.0303C26.6081 54.0303 27.0466 54.5783 26.6081 54.7981C26.1697 55.0173 22.6607 52.7145 22.6607 52.7145L25.7313 55.675C25.7313 55.675 25.0731 56.1134 24.5251 55.675C23.9771 55.2366 22.7709 54.0303 22.7709 54.0303C22.7709 54.0303 24.0867 55.5654 23.4291 55.675C22.7709 55.7846 21.5646 53.9207 21.5646 53.9207L19.5906 53.5919L17.507 53.3727L18.1634 51.1795Z" fill="white" stroke="#263238" stroke-width="0.608897" stroke-miterlimit="10" stroke-linecap="round" stroke-linejoin="round"/>
<path d="M11.8113 51.2618C11.8113 51.2618 9.04695 48.0955 8.8728 47.7959C8.69866 47.4963 4.25736 46.0679 4.25736 46.0679C4.25736 46.0679 4.05948 46.6244 4.23362 46.924C4.40776 47.2236 7.25253 47.9761 7.25253 47.9761L7.50949 48.3482L3.59123 47.8191C3.59123 47.8191 2.89953 47.9408 3.08402 48.3951C3.26791 48.8493 7.42363 49.4412 7.42363 49.4412L3.16257 49.633C3.16257 49.633 3.36655 50.3971 4.06739 50.4306C4.76884 50.4641 6.47131 50.3563 6.47131 50.3563C6.47131 50.3563 4.46926 50.6382 4.89001 51.1558C5.31136 51.6728 7.4486 51.0718 7.4486 51.0718L9.14681 52.13L10.8554 53.343L11.8113 51.2618Z" fill="white" stroke="#263238" stroke-width="0.608897" stroke-miterlimit="10" stroke-linecap="round" stroke-linejoin="round"/>
<path d="M4.01751 50.7412C4.01751 50.7412 14.7639 51.07 16.1894 51.07C17.6148 51.07 18.1634 51.1796 18.1634 51.1796L17.3956 56.5525C17.3956 56.5525 15.0927 56.8813 9.28082 56.8813C3.46889 56.8813 0.837242 57.2101 1.05645 55.0175C1.27626 52.8249 4.01751 50.7412 4.01751 50.7412Z" fill="#EC8117" stroke="#263238" stroke-width="0.608897" stroke-miterlimit="10" stroke-linecap="round" stroke-linejoin="round"/>
<path d="M52.9289 156.364C62.4552 156.364 70.1777 153.316 70.1777 149.555C70.1777 145.795 62.4552 142.747 52.9289 142.747C43.4026 142.747 35.6801 145.795 35.6801 149.555C35.6801 153.316 43.4026 156.364 52.9289 156.364Z" fill="#EC8117"/>
<path opacity="0.5" d="M52.9289 156.364C62.4552 156.364 70.1777 153.316 70.1777 149.555C70.1777 145.795 62.4552 142.747 52.9289 142.747C43.4026 142.747 35.6801 145.795 35.6801 149.555C35.6801 153.316 43.4026 156.364 52.9289 156.364Z" fill="white"/>
<path d="M48.9266 10.4753C48.9266 10.4753 45.3438 10.7043 43.044 15.0463C40.7442 19.3884 41.8524 27.2212 42.6567 29.6276C43.4611 32.0339 47.2649 43.5999 49.4386 51.6703C51.6124 59.7406 55.5337 66.9213 62.5378 66.6644C69.542 66.4074 78.9994 63.1504 75.9086 51.3402C72.8178 39.5301 66.2521 34.6662 64.974 31.6528C63.696 28.6393 63.3872 25.523 62.8094 18.964C62.2316 12.4055 57.7446 8.78624 53.2534 7.47529C48.7615 6.16555 48.9266 10.4753 48.9266 10.4753Z" fill="#263238" stroke="#263238" stroke-width="0.608897" stroke-miterlimit="10" stroke-linecap="round" stroke-linejoin="round"/>
<path d="M62.1178 29.415C63.2613 30.4745 63.7095 30.5007 63.7095 30.5007" stroke="white" stroke-width="0.304449" stroke-miterlimit="10" stroke-linecap="round" stroke-linejoin="round"/>
<path d="M51.9912 11.291C51.9912 11.291 52.0874 15.9978 57.0816 23.201C58.8535 25.7566 60.2022 27.417 61.205 28.4972" stroke="white" stroke-width="0.304449" stroke-miterlimit="10" stroke-linecap="round" stroke-linejoin="round"/>
<path d="M53.1439 14.4609C53.1439 14.4609 57.6583 25.0265 62.8449 28.004" stroke="white" stroke-width="0.304449" stroke-miterlimit="10" stroke-linecap="round" stroke-linejoin="round"/>
<path d="M66.5908 41.2588C66.5908 41.2588 73.9865 49.8071 74.0827 55.8583C74.1789 61.9095 70.3368 64.5028 69.9525 64.5028" stroke="white" stroke-width="0.304449" stroke-miterlimit="10" stroke-linecap="round" stroke-linejoin="round"/>
<path d="M70.3057 42.5234C72.3558 46.4922 74.6319 51.9601 74.0827 55.8583" stroke="white" stroke-width="0.304449" stroke-miterlimit="10" stroke-linecap="round" stroke-linejoin="round"/>
<path d="M67.359 37.4165C67.359 37.4165 68.0903 38.5223 69.0731 40.2515" stroke="white" stroke-width="0.304449" stroke-miterlimit="10" stroke-linecap="round" stroke-linejoin="round"/>
<path d="M45.1714 19.8394C45.1714 19.8394 42.3504 25.5837 42.6567 29.6274" stroke="white" stroke-width="0.304449" stroke-miterlimit="10" stroke-linecap="round" stroke-linejoin="round"/>
<path d="M43.8272 23.2012C43.8272 23.2012 43.731 26.7553 44.7875 28.6758" stroke="white" stroke-width="0.304449" stroke-miterlimit="10" stroke-linecap="round" stroke-linejoin="round"/>
<path d="M69.2699 77.5538C69.2699 77.5538 67.9084 80.6178 67.9084 81.4691C67.9084 82.3203 68.0789 86.065 68.5892 85.3843C69.1001 84.7035 68.5892 82.1504 69.2699 81.9799C69.9507 81.81 70.4616 82.3203 69.7808 84.3631C69.1001 86.406 68.5892 88.4482 69.9513 87.4271C71.3128 86.406 71.3128 85.0439 71.8237 81.9799C72.3345 78.9159 71.6532 76.5327 71.6532 76.5327L69.2699 77.5538Z" fill="white" stroke="#263238" stroke-width="0.608897" stroke-miterlimit="10" stroke-linecap="round" stroke-linejoin="round"/>
<path d="M64.8438 32.6167L67.5674 57.6387L72.5037 76.7033L68.2481 78.5757C68.2481 78.5757 62.6311 62.916 61.2696 60.022C59.9081 57.1285 59.3972 54.7452 59.3972 53.5536C59.3972 52.362 64.8438 32.6167 64.8438 32.6167Z" fill="#EC8117" stroke="#263238" stroke-width="0.608897" stroke-miterlimit="10" stroke-linecap="round" stroke-linejoin="round"/>
<path d="M40.1626 102.405C40.1626 102.405 40.8433 105.81 41.0138 107.511C41.1843 109.214 40.6735 115.341 41.5247 121.129C42.3759 126.916 46.8014 143.938 46.8014 143.938C46.8014 143.938 42.3759 147.853 42.3759 149.726C42.3759 151.598 43.7374 151.258 45.9502 149.896C48.1629 148.535 50.3756 145.471 50.5461 143.428C50.7166 141.385 48.8436 129.47 49.525 124.193C50.2058 118.917 49.1846 109.725 49.1846 105.98C49.1846 102.235 49.1846 102.235 49.1846 102.235L40.1626 102.405Z" fill="white" stroke="#263238" stroke-width="0.608897" stroke-miterlimit="10" stroke-linecap="round" stroke-linejoin="round"/>
<path d="M45.099 147.854C44.5022 147.555 44.8353 146.389 45.2153 145.467C43.9451 146.773 42.376 148.61 42.376 149.726C42.376 151.598 43.7375 151.258 45.9502 149.896C47.6515 148.85 49.3485 146.798 50.1218 144.977C48.2177 147.057 45.8741 148.241 45.099 147.854Z" fill="#263238" stroke="#263238" stroke-width="0.608897" stroke-miterlimit="10" stroke-linecap="round" stroke-linejoin="round"/>
<path d="M48.5033 103.597C48.5033 103.597 48.3329 109.725 49.0142 112.278C49.695 114.831 53.9505 127.938 54.6313 131.853C55.312 135.767 55.9928 141.555 55.9928 144.278C55.9928 147.002 58.5459 153.13 60.2484 153.47C61.9508 153.811 62.972 153.811 62.4611 151.087C61.9502 148.364 58.7164 144.109 58.7164 144.109C58.7164 144.109 60.4188 126.746 59.7375 121.299C59.0567 115.852 57.1844 110.405 57.1844 109.895C57.1844 109.384 58.0356 103.086 58.0356 103.086L48.5033 103.597Z" fill="white" stroke="#263238" stroke-width="0.608897" stroke-miterlimit="10" stroke-linecap="round" stroke-linejoin="round"/>
<path d="M61.2033 147.961C60.9956 148.819 60.6145 149.555 59.9082 149.555C58.2057 149.555 56.5038 146.662 56.5038 146.662L56.4174 146.81C57.2144 149.699 58.9711 153.215 60.2485 153.47C61.951 153.811 62.9721 153.811 62.4613 151.087C62.2853 150.148 61.783 149.028 61.2033 147.961Z" fill="#263238" stroke="#263238" stroke-width="0.608897" stroke-miterlimit="10" stroke-linecap="round" stroke-linejoin="round"/>
<path d="M47.6521 29.5529C47.6521 29.5529 35.5667 32.106 35.3962 32.7868C35.2257 33.4675 39.3114 54.7448 39.3114 55.5961C39.3114 56.4473 34.5456 67.511 34.2046 74.3196C33.8642 81.1283 36.4173 103.767 36.4173 103.767C36.4173 103.767 41.5235 105.98 46.4599 105.98C51.3962 105.98 59.7369 104.788 59.7369 104.788C59.7369 104.788 63.8219 91.6817 64.1623 80.6175C64.5027 69.5532 59.5664 55.7659 59.5664 55.7659C59.5664 55.7659 64.8431 33.4675 64.8431 32.6163C64.8437 31.7663 53.6095 28.8722 47.6521 29.5529Z" fill="#263238" stroke="#263238" stroke-width="0.608897" stroke-miterlimit="10" stroke-linecap="round" stroke-linejoin="round"/>
<path d="M59.5671 55.7661C59.5671 55.7661 64.8438 33.4677 64.8438 32.6164C64.8438 31.7652 53.6097 28.8717 47.6522 29.5524C47.6522 29.5524 35.5668 32.1056 35.3963 32.7863C35.2258 33.467 39.3115 54.7443 39.3115 55.5956C39.3115 56.202 36.893 61.9927 35.3787 67.7346C36.9344 68.5608 39.3791 69.7043 42.3755 70.5745C47.6522 72.1064 49.6951 69.8937 49.6951 69.8937C49.6951 69.8937 49.1842 71.0853 52.2482 71.4257C54.9626 71.7271 59.5452 71.6236 63.1596 69.4663C61.8011 62.0115 59.5671 55.7661 59.5671 55.7661Z" fill="#EC8117" stroke="#263238" stroke-width="0.608897" stroke-miterlimit="10" stroke-linecap="round" stroke-linejoin="round"/>
<path d="M49.9763 64.6143C49.7291 66.2796 49.5494 67.3896 49.5494 67.3896" stroke="#263238" stroke-width="0.608897" stroke-miterlimit="10" stroke-linecap="round" stroke-linejoin="round"/>
<path d="M50.9111 42.105C50.9111 42.105 51.6613 49.0202 51.2387 54.2988C51.0749 56.3471 50.7838 58.7766 50.4891 60.9832" stroke="#263238" stroke-width="0.608897" stroke-miterlimit="10" stroke-linecap="round" stroke-linejoin="round"/>
<path d="M49.0866 28.2419C49.0866 28.2419 45.8028 29.3367 44.3439 30.6135C42.8844 31.8904 40.5133 34.0794 40.5133 34.0794L46.5329 34.4441L50.9108 42.1058L54.0119 34.6268C54.0119 34.6268 56.0183 34.6268 57.6605 34.6268C59.302 34.6268 60.5789 35.3562 60.5789 35.3562C60.5789 35.3562 56.383 29.7014 54.0119 28.6066C51.6403 27.5118 49.0866 28.2419 49.0866 28.2419Z" fill="white" stroke="#263238" stroke-width="0.608897" stroke-miterlimit="10" stroke-linecap="round" stroke-linejoin="round"/>
<path d="M47.0798 26.0527C47.0798 26.0527 47.6272 33.7145 49.0861 35.7208C50.5457 37.7271 52.552 32.437 52.552 30.066C52.552 27.6943 52.7347 24.4111 52.7347 24.4111L47.0798 26.0527Z" fill="white" stroke="#263238" stroke-width="0.608897" stroke-miterlimit="10" stroke-linecap="round" stroke-linejoin="round"/>
<path d="M35.397 32.7871C35.397 32.7871 28.0774 57.1284 28.0774 58.8303C28.0774 60.5321 30.1203 62.4045 32.1625 61.2135C34.2053 60.0219 38.2904 48.6172 38.2904 48.6172L35.397 32.7871Z" fill="#EC8117" stroke="#263238" stroke-width="0.608897" stroke-miterlimit="10" stroke-linecap="round" stroke-linejoin="round"/>
<path d="M25.8646 48.2767L34.0348 64.1068L45.269 65.2984L38.6308 46.064L25.8646 48.2767Z" fill="white" stroke="#263238" stroke-width="0.608897" stroke-miterlimit="10" stroke-linecap="round" stroke-linejoin="round"/>
<path d="M35.7373 58.3194L38.8013 52.7024L42.3761 51.5107L42.887 52.1915L40.8441 53.3831C40.8441 53.3831 43.3972 53.5536 44.078 53.5536C44.7587 53.5536 44.5888 54.5747 44.5888 54.5747L44.2485 55.2555C44.2485 55.2555 44.5888 57.4682 44.5888 58.1489C44.5888 58.8297 37.0994 61.0424 37.0994 61.0424L35.7373 58.3194Z" fill="white" stroke="#263238" stroke-width="0.608897" stroke-miterlimit="10" stroke-linecap="round" stroke-linejoin="round"/>
<path d="M36.0459 56.6387L38.3487 62.8695C38.3487 62.8695 34.014 64.9014 30.8989 64.9014C27.7831 64.9014 26.158 60.8376 27.377 58.8057C28.596 56.7738 36.0459 56.6387 36.0459 56.6387Z" fill="#EC8117" stroke="#263238" stroke-width="0.608897" stroke-miterlimit="10" stroke-linecap="round" stroke-linejoin="round"/>
<path d="M50.1614 12.3579L44.4803 19.2159C44.4803 19.2159 44.2891 24.4549 46.8788 28.487C50.4439 34.0383 55.0843 23.0258 55.0843 23.0258L50.1614 12.3579Z" fill="white" stroke="#263238" stroke-width="0.608897" stroke-miterlimit="10" stroke-linecap="round" stroke-linejoin="round"/>
<path d="M47.8464 20.8855C47.9073 21.3775 47.7587 21.8013 47.5145 21.8318C47.2698 21.8622 47.0219 21.4883 46.961 20.9964C46.9001 20.5044 47.0487 20.0806 47.2929 20.0495C47.5377 20.0197 47.7855 20.3935 47.8464 20.8855Z" fill="#263238"/>
<path d="M51.0931 21.1457C51.0895 21.6413 50.8873 22.042 50.6407 22.0402C50.3941 22.0383 50.1974 21.6352 50.2005 21.1396C50.2041 20.6439 50.4063 20.2433 50.6529 20.2451C50.8995 20.2463 51.0968 20.6494 51.0931 21.1457Z" fill="#263238"/>
<path d="M47.6484 25.4885C47.6484 25.4885 49.0988 25.9945 50.4183 25.416" stroke="#263238" stroke-width="0.304449" stroke-miterlimit="10" stroke-linecap="round" stroke-linejoin="round"/>
<path d="M49.6403 19.0183C49.6403 19.0183 50.7588 18.1177 51.878 19.1309" stroke="#263238" stroke-width="0.304449" stroke-miterlimit="10" stroke-linecap="round" stroke-linejoin="round"/>
<path d="M47.962 19.2432C47.962 19.2432 47.179 18.118 46.0604 19.1306" stroke="#263238" stroke-width="0.304449" stroke-miterlimit="10" stroke-linecap="round" stroke-linejoin="round"/>
<path d="M48.5216 20.3687C48.5216 20.3687 48.7451 20.9313 48.4096 21.9445C48.0741 22.9577 47.6266 23.5203 47.9621 23.745C48.2976 23.9703 48.9692 23.9703 48.9692 23.9703" stroke="#263238" stroke-width="0.304449" stroke-miterlimit="10" stroke-linecap="round" stroke-linejoin="round"/>
<path d="M157.782 150.918C170.818 150.918 181.386 147.869 181.386 144.109C181.386 140.349 170.818 137.3 157.782 137.3C144.747 137.3 134.179 140.349 134.179 144.109C134.179 147.869 144.747 150.918 157.782 150.918Z" fill="#EC8117"/>
<path opacity="0.5" d="M157.782 150.918C170.818 150.918 181.386 147.869 181.386 144.109C181.386 140.349 170.818 137.3 157.782 137.3C144.747 137.3 134.179 140.349 134.179 144.109C134.179 147.869 144.747 150.918 157.782 150.918Z" fill="white"/>
<path d="M154.954 21.8385C154.954 21.8385 153.782 20.334 153.225 20.9818C152.668 21.6303 154.428 25.6222 155.203 25.277C155.979 24.9317 154.954 21.8385 154.954 21.8385Z" fill="white" stroke="#263238" stroke-width="0.608897" stroke-miterlimit="10" stroke-linecap="round" stroke-linejoin="round"/>
<path d="M164.3 22.0474C164.3 22.0474 165.409 20.5849 165.994 21.2547C166.579 21.9245 164.989 25.8537 164.199 25.4792C163.408 25.1047 164.3 22.0474 164.3 22.0474Z" fill="white" stroke="#263238" stroke-width="0.608897" stroke-miterlimit="10" stroke-linecap="round" stroke-linejoin="round"/>
<path d="M156.32 31.6059C156.32 31.6059 154.327 32.4675 154.102 33.9927C153.877 35.518 154.686 68.1056 154.686 68.1056L168.345 68.8399L167.712 33.5836C167.712 33.5836 165.316 31.7782 162.203 31.3081C159.09 30.838 156.32 31.6059 156.32 31.6059Z" fill="white" stroke="#263238" stroke-width="0.608897" stroke-miterlimit="10" stroke-linecap="round" stroke-linejoin="round"/>
<path d="M149.417 66.8037L170.335 67.5563C170.335 67.5563 172.228 83.0746 173.132 93.2274C174.036 103.38 175.382 112.757 175.242 119.813C175.103 126.87 175.276 137.435 175.309 137.811C175.343 138.188 177.526 139.719 178.911 140.911C180.296 142.103 183.21 143.221 182.247 143.897C181.284 144.573 180.021 144.76 177.811 144.363C175.601 143.966 173.036 142.453 172.366 142.108C171.696 141.763 171.696 141.763 171.696 141.763L171.657 142.772L169.137 141.76C169.137 141.76 168.71 141.277 168.371 138.902C168.032 136.527 167.501 129.125 167.222 125.992C166.943 122.858 164.043 100.339 162.938 95.1046C161.833 89.8706 159.617 80.7882 159.617 80.7882C159.617 80.7882 151.112 110.278 150.035 113.981C148.957 117.684 144.468 137.665 144.396 138.297C144.324 138.93 143.173 140.371 143.207 140.746C143.24 141.123 142.078 142.437 141.159 143.615C140.241 144.792 136.37 145.86 135.351 145.909C134.332 145.959 133.888 143.84 135.919 142.231C137.951 140.622 139.822 138.644 139.822 138.644C139.822 138.644 140.787 123.617 140.745 118.835C140.703 114.054 143.523 98.3074 144.048 97.0233C144.573 95.7391 147.48 78.1006 147.48 78.1006L149.417 66.8037Z" fill="#263238" stroke="#263238" stroke-width="0.608897" stroke-miterlimit="10" stroke-linecap="round" stroke-linejoin="round"/>
<path d="M156.188 35.3228C156.188 35.3228 158.408 48.8495 158.662 50.2786C158.917 51.7076 155.484 80.0159 155.484 80.0159C155.484 80.0159 153.281 80.4969 150.24 79.4551C147.2 78.4133 144.445 77.2752 144.445 77.2752L150.253 59.3487L145.008 35.3472C145.008 35.3472 146.324 34.4868 149.376 33.5278C152.428 32.5688 156.243 32.0835 156.243 32.0835L156.188 35.3228Z" fill="#EC8117" stroke="#263238" stroke-width="0.608897" stroke-miterlimit="10" stroke-linecap="round" stroke-linejoin="round"/>
<path d="M158.408 38.0147L159.902 40.1494L157.934 65.8041L161.017 69.3181L162.53 65.9204L161.065 40.5239L162.605 37.7547L160.425 34.4897L158.408 38.0147Z" fill="#263238" stroke="#263238" stroke-width="0.608897" stroke-miterlimit="10" stroke-linecap="round" stroke-linejoin="round"/>
<path d="M164.152 31.6851C164.152 31.6851 162.682 42.5514 162.718 43.4088C162.755 44.2661 162.383 51.4139 162.412 52.0807C162.44 52.7474 165.438 79.9943 165.438 79.9943C165.438 79.9943 167.878 80.5612 171.241 80.0778C174.603 79.5943 178.182 77.3956 178.182 77.3956L171.427 59.4952L174.01 34.363C174.01 34.363 166.101 32.0626 164.152 31.6851Z" fill="#EC8117" stroke="#263238" stroke-width="0.608897" stroke-miterlimit="10" stroke-linecap="round" stroke-linejoin="round"/>
<path d="M160.3 36.5534L157.514 39.2271C157.514 39.2271 155.704 33.037 155.663 32.0841C155.622 31.1312 156.053 29.8914 157.092 29.3179C158.131 28.7437 162.306 29.2119 163.293 29.6863C164.28 30.1606 165.054 32.4458 165.054 32.4458L162.85 39.6923L160.3 36.5534Z" fill="white" stroke="#263238" stroke-width="0.608897" stroke-miterlimit="10" stroke-linecap="round" stroke-linejoin="round"/>
<path d="M156.809 27.2217C156.809 27.2217 157.148 30.6516 157.995 32.365C158.841 34.0785 160.018 36.7442 160.3 36.553C160.581 36.3618 162.843 32.7359 162.907 31.9735C162.971 31.2112 163.132 28.1612 163.132 28.1612L156.809 27.2217Z" fill="white" stroke="#263238" stroke-width="0.608897" stroke-miterlimit="10" stroke-linecap="round" stroke-linejoin="round"/>
<path d="M156.993 15.8006C156.993 15.8006 155.101 16.9228 154.835 17.9871C154.57 19.0521 154.745 24.4804 155.888 26.8411C157.031 29.2018 159.144 31.146 160.188 31.1618C161.232 31.1777 163.632 29.5501 163.969 27.1504C164.307 24.7507 164.619 22.2074 164.496 20.6017C164.373 18.9967 165.684 19.7158 163.692 17.609C161.7 15.5034 158.156 14.7703 156.993 15.8006Z" fill="white" stroke="#263238" stroke-width="0.608897" stroke-miterlimit="10" stroke-linecap="round" stroke-linejoin="round"/>
<path d="M158.441 23.2969C158.441 23.6748 158.287 23.981 158.099 23.981C157.91 23.981 157.757 23.6748 157.757 23.2969C157.757 22.9189 157.91 22.6128 158.099 22.6128C158.287 22.6128 158.441 22.9189 158.441 23.2969Z" fill="#263238"/>
<path d="M161.691 23.2969C161.691 23.6748 161.538 23.981 161.349 23.981C161.16 23.981 161.007 23.6748 161.007 23.2969C161.007 22.9189 161.16 22.6128 161.349 22.6128C161.538 22.6128 161.691 22.9189 161.691 23.2969Z" fill="#263238"/>
<path d="M156.901 22.1844C156.901 22.1844 157.415 21.3289 158.441 21.9274" stroke="#263238" stroke-width="0.304449" stroke-miterlimit="10" stroke-linecap="round" stroke-linejoin="round"/>
<path d="M160.58 22.0135C160.58 22.0135 161.264 20.9017 162.462 22.1846" stroke="#263238" stroke-width="0.304449" stroke-miterlimit="10" stroke-linecap="round" stroke-linejoin="round"/>
<path d="M160.323 23.2109L160.494 26.2049L159.125 26.0338" stroke="#263238" stroke-width="0.304449" stroke-miterlimit="10" stroke-linecap="round" stroke-linejoin="round"/>
<path d="M158.697 27.1459C158.697 27.1459 159.98 27.7445 161.777 27.0601" stroke="#263238" stroke-width="0.304449" stroke-miterlimit="10" stroke-linecap="round" stroke-linejoin="round"/>
<path d="M155.641 15.6941C155.641 15.6941 153.777 15.031 153.471 16.9375C153.166 18.8439 154.761 22.2714 154.761 22.2714C154.761 22.2714 155.015 21.4135 155.453 20.3644C155.891 19.3152 156.833 18.7417 156.479 17.2176C156.125 15.6929 155.641 15.6941 155.641 15.6941Z" fill="#263238" stroke="#263238" stroke-width="0.608897" stroke-miterlimit="10" stroke-linecap="round" stroke-linejoin="round"/>
<path d="M155.98 16.8366C155.98 16.8366 156.915 18.3594 159.54 18.7351C162.166 19.1108 163.502 18.7272 163.813 19.2027C164.123 19.6783 164.14 22.3465 164.14 22.3465C164.14 22.3465 165.022 22.6308 165.074 21.5823C165.125 20.5338 165.862 19.6746 166.14 19.3885C166.418 19.1023 167.831 18.2413 166.279 15.8623C164.728 13.4834 162.763 12.7247 159.381 12.732C155.999 12.7393 153.946 14.4588 155.98 16.8366Z" fill="#263238" stroke="#263238" stroke-width="0.608897" stroke-miterlimit="10" stroke-linecap="round" stroke-linejoin="round"/>
<path d="M174.01 34.3628C174.01 34.3628 178.864 51.175 179.194 52.9348C179.524 54.6945 177.527 55.7046 175.454 54.9545C173.382 54.2043 172.028 43.3933 172.028 43.3933L174.01 34.3628Z" fill="#EC8117" stroke="#263238" stroke-width="0.608897" stroke-miterlimit="10" stroke-linecap="round" stroke-linejoin="round"/>
<path d="M177.126 49.2924C177.126 49.2924 169.288 47.9254 167.248 47.9297C165.207 47.934 155.425 48.8345 155.425 48.8345L155.06 52.2303C155.06 52.2303 169.997 55.5945 172.946 55.9659C175.895 56.3374 178.823 56.2052 179.125 54.3189C179.427 52.4319 178.753 51.5532 178.753 51.5532" fill="#EC8117"/>
<path d="M177.126 49.2924C177.126 49.2924 169.288 47.9254 167.248 47.9297C165.207 47.934 155.425 48.8345 155.425 48.8345L155.06 52.2303C155.06 52.2303 169.997 55.5945 172.946 55.9659C175.895 56.3374 178.823 56.2052 179.125 54.3189C179.427 52.4319 178.753 51.5532 178.753 51.5532" stroke="#263238" stroke-width="0.608897" stroke-miterlimit="10" stroke-linecap="round" stroke-linejoin="round"/>
<path d="M145.007 35.3462C145.007 35.3462 145.206 45.0605 145.431 50.3415C145.656 55.6219 147.123 57.5271 149.801 57.5216C152.479 57.5161 150.305 42.4167 150.305 42.4167" fill="#EC8117"/>
<path d="M145.007 35.3462C145.007 35.3462 145.206 45.0605 145.431 50.3415C145.656 55.6219 147.123 57.5271 149.801 57.5216C152.479 57.5161 150.305 42.4167 150.305 42.4167" stroke="#263238" stroke-width="0.608897" stroke-miterlimit="10" stroke-linecap="round" stroke-linejoin="round"/>
<path d="M155.425 48.8347C155.425 48.8347 153.469 47.833 152.322 47.8355C151.174 47.8379 147.822 49.9824 147.838 50.3593C147.854 50.7362 149.661 51.2355 151.945 50.9798C154.23 50.7235 155.643 50.9725 155.643 50.9725L155.425 48.8347Z" fill="white" stroke="#263238" stroke-width="0.608897" stroke-miterlimit="10" stroke-linecap="round" stroke-linejoin="round"/>
<path d="M168.58 46.2927C168.58 46.2927 170.222 45.9121 171.498 45.9097C172.773 45.9072 174.283 48.4189 174.283 48.4189L169.326 48.8062L168.58 46.2927Z" fill="white" stroke="#263238" stroke-width="0.608897" stroke-miterlimit="10" stroke-linecap="round" stroke-linejoin="round"/>
<path d="M148.264 51.3639L167.539 45.7918C167.539 45.7918 167.906 45.4137 168.581 46.2924C169.256 47.171 169.326 48.8059 169.326 48.8059C169.326 48.8059 157.946 54.1106 154.44 55.6261C150.933 57.1423 149.76 59.5334 147.878 57.2744C145.997 55.0148 147.192 53.1266 147.192 53.1266" fill="#EC8117"/>
<path d="M148.264 51.3639L167.539 45.7918C167.539 45.7918 167.906 45.4137 168.581 46.2924C169.256 47.171 169.326 48.8059 169.326 48.8059C169.326 48.8059 157.946 54.1106 154.44 55.6261C150.933 57.1423 149.76 59.5334 147.878 57.2744C145.997 55.0148 147.192 53.1266 147.192 53.1266" stroke="#263238" stroke-width="0.608897" stroke-miterlimit="10" stroke-linecap="round" stroke-linejoin="round"/>
<path d="M133.271 156.818C142.797 156.818 150.52 153.77 150.52 150.009C150.52 146.249 142.797 143.201 133.271 143.201C123.745 143.201 116.022 146.249 116.022 150.009C116.022 153.77 123.745 156.818 133.271 156.818Z" fill="#EC8117"/>
<path opacity="0.5" d="M133.271 156.818C142.797 156.818 150.52 153.77 150.52 150.009C150.52 146.249 142.797 143.201 133.271 143.201C123.745 143.201 116.022 146.249 116.022 150.009C116.022 153.77 123.745 156.818 133.271 156.818Z" fill="white"/>
<path d="M140.017 18.1903C140.017 18.1903 142.215 15.9922 142.49 13.0616C142.765 10.131 139.376 8.57402 137.087 8.66596C134.797 8.7573 133.149 10.1316 133.149 10.1316C133.149 10.1316 127.837 9.85697 123.808 12.8789C119.778 15.9009 120.328 24.9674 120.602 28.3559C120.877 31.7444 120.419 36.14 120.419 36.14C120.419 36.14 124.54 37.8802 129.211 38.5208C133.882 39.162 140.2 38.0629 140.842 37.8796C141.483 37.6964 139.01 37.1471 138.644 33.5753C138.277 30.0036 139.193 25.8825 139.559 23.9596C139.926 22.0361 139.285 18.2817 139.285 18.2817L140.017 18.1903Z" fill="#263238" stroke="#263238" stroke-width="0.608897" stroke-miterlimit="10" stroke-linecap="round" stroke-linejoin="round"/>
<path d="M139.533 10.1372C139.533 10.1372 138.6 13.3522 138.081 14.5962" stroke="white" stroke-width="0.304449" stroke-miterlimit="10" stroke-linecap="round" stroke-linejoin="round"/>
<path d="M135.696 11.4854C135.696 11.4854 136.526 14.1815 133.622 18.8481C130.718 23.5147 124.807 28.4925 124.6 31.9145" stroke="white" stroke-width="0.304449" stroke-miterlimit="10" stroke-linecap="round" stroke-linejoin="round"/>
<path d="M125.948 24.1367C125.948 24.1367 122.318 30.2549 123.874 33.9887" stroke="white" stroke-width="0.304449" stroke-miterlimit="10" stroke-linecap="round" stroke-linejoin="round"/>
<path d="M134.98 34.6748C134.98 34.6748 139.926 37.2389 140.658 37.5141C141.391 37.7887 142.032 38.4299 142.581 40.0782C143.13 41.7264 146.153 53.6322 146.428 54.9139C146.702 56.1963 144.138 57.478 142.49 57.57C140.842 57.6613 138.735 56.1963 138.735 55.0972C138.735 53.9982 134.98 34.6748 134.98 34.6748Z" fill="#EC8117" stroke="#263238" stroke-width="0.608897" stroke-miterlimit="10" stroke-linecap="round" stroke-linejoin="round"/>
<path d="M136.995 54.0904C136.995 54.0904 139.193 51.2511 140.292 50.3354C141.391 49.4196 143.681 48.6871 145.054 49.4196C146.428 50.1521 146.154 51.4344 145.604 51.6177C145.054 51.801 143.681 51.801 142.764 52.3502C141.849 52.8994 140.383 53.9072 139.376 54.1818C138.369 54.4564 136.995 54.0904 136.995 54.0904Z" fill="white" stroke="#263238" stroke-width="0.608897" stroke-miterlimit="10" stroke-linecap="round" stroke-linejoin="round"/>
<path d="M122.114 144.2L122.032 149.132H122.608L123.347 145.762L122.114 144.2Z" fill="#263238" stroke="#263238" stroke-width="0.608897" stroke-miterlimit="10" stroke-linecap="round" stroke-linejoin="round"/>
<path d="M140.988 102.349C140.988 102.349 140.08 114.605 137.697 122.548C135.313 130.491 130.548 142.86 130.434 144.789C130.434 144.789 133.384 147.626 134.406 148.194C135.427 148.761 136.222 148.647 135.541 149.215C134.86 149.782 132.931 150.123 131.456 149.555C129.981 148.988 128.846 147.286 128.052 146.832C127.258 146.377 126.236 145.811 126.123 144.789C126.009 143.768 127.598 142.292 127.598 142.292C127.598 142.292 131.343 133.895 130.889 128.562C130.436 123.228 131.57 117.214 132.705 115.058C133.84 112.901 134.521 110.632 134.521 110.632L131.343 103.029C131.342 103.029 137.811 101.1 140.988 102.349Z" fill="white" stroke="#263238" stroke-width="0.608897" stroke-miterlimit="10" stroke-linecap="round" stroke-linejoin="round"/>
<path d="M134.406 148.194C134.275 148.121 134.111 148.01 133.926 147.873C133.338 148.157 131.825 148.725 130.661 147.74C129.354 146.634 127.959 144.643 126.632 143.413C126.325 143.857 126.075 144.362 126.122 144.79C126.235 145.811 127.256 146.379 128.05 146.833C128.845 147.286 129.979 148.989 131.455 149.556C132.93 150.124 134.859 149.783 135.54 149.216C136.222 148.647 135.427 148.761 134.406 148.194Z" fill="#263238" stroke="#263238" stroke-width="0.608897" stroke-miterlimit="10" stroke-linecap="round" stroke-linejoin="round"/>
<path d="M139.399 101.213C139.399 101.213 141.612 107.852 141.612 109.554C141.612 111.257 130.888 135.427 129.867 137.81C128.846 140.193 127.314 144.619 127.314 144.619C127.314 144.619 127.654 146.491 129.526 147.852C131.399 149.214 132.08 150.406 131.229 150.746C130.378 151.086 126.463 151.427 125.441 150.065C124.42 148.704 123.399 145.81 122.377 144.958C121.356 144.107 122.377 142.235 123.058 141.725C123.739 141.214 124.931 139.682 124.931 139.682C124.931 139.682 127.484 134.235 127.484 129.469C127.484 124.702 128.335 120.107 130.888 116.192C133.441 112.276 134.292 109.553 134.292 109.553L131.569 103.936C131.569 103.936 135.995 100.873 139.399 101.213Z" fill="white" stroke="#263238" stroke-width="0.608897" stroke-miterlimit="10" stroke-linecap="round" stroke-linejoin="round"/>
<path d="M129.634 147.937C128.643 148.414 127.945 148.773 125.782 146.321C124.293 144.634 123.213 143.182 122.568 142.262C122.018 143.04 121.589 144.303 122.377 144.96C123.398 145.811 124.42 148.704 125.441 150.067C126.462 151.428 130.378 151.088 131.229 150.747C132.062 150.414 131.418 149.263 129.634 147.937Z" fill="#263238" stroke="#263238" stroke-width="0.608897" stroke-miterlimit="10" stroke-linecap="round" stroke-linejoin="round"/>
<path d="M130.218 33.5762C130.218 33.5762 118.954 35.3164 118.588 35.9576C118.221 36.5987 122.068 57.7537 122.434 59.4019C122.801 61.0502 120.236 65.3545 118.771 73.6885C117.306 82.0225 119.054 84.027 121.527 89.9795C124 95.9321 130.951 104.826 130.951 104.826L141.758 102.903C141.758 102.903 144.231 83.5794 143.04 74.2377C141.85 64.8966 138.278 58.3029 138.278 58.3029L138.553 53.3574C138.553 53.3574 141.621 51.4826 141.712 49.1018C141.804 46.721 140.109 43.2838 138.553 40.1699C136.995 37.056 132.691 33.5762 130.218 33.5762Z" fill="#EC8117" stroke="#263238" stroke-width="0.608897" stroke-miterlimit="10" stroke-linecap="round" stroke-linejoin="round"/>
<path d="M131.043 32.2021C131.043 32.2021 128.662 32.4768 128.295 32.9347C127.929 33.3925 126.83 39.7117 126.83 39.7117C126.83 39.7117 131.135 38.4293 131.592 38.4293C132.05 38.4293 135.805 42.825 135.805 42.825V38.9786L139.103 41.4513C139.103 41.4513 138.187 38.7039 136.721 36.1399C135.255 33.5758 133.057 32.2935 131.043 32.2021Z" fill="white" stroke="#263238" stroke-width="0.608897" stroke-miterlimit="10" stroke-linecap="round" stroke-linejoin="round"/>
<path d="M131.226 26.7075C131.226 26.7075 130.493 33.7592 130.951 34.5836C131.409 35.4081 134.523 40.1702 134.523 40.1702C134.523 40.1702 134.156 36.5071 134.156 34.2177C134.156 31.9282 135.164 28.3564 135.164 28.3564L131.226 26.7075Z" fill="white" stroke="#263238" stroke-width="0.608897" stroke-miterlimit="10" stroke-linecap="round" stroke-linejoin="round"/>
<path d="M137.636 15.0762C137.636 15.0762 135.896 19.3805 134.156 20.9374C132.416 22.4944 130.951 23.2269 130.951 23.2269C130.951 23.2269 130.768 26.2488 131.226 26.7067C131.684 27.1646 135.439 31.011 136.72 30.4618C138.003 29.9126 139.926 26.3408 140.109 23.5015C140.292 20.6622 139.285 17.091 139.285 17.091L137.636 15.0762Z" fill="white" stroke="#263238" stroke-width="0.608897" stroke-miterlimit="10" stroke-linecap="round" stroke-linejoin="round"/>
<path d="M138.911 20.4033C138.911 20.4033 138.185 20.6109 138.185 21.6479C138.185 22.6849 139.118 23.5148 139.118 24.033C139.118 24.5517 137.978 24.8629 137.978 24.8629" stroke="#263238" stroke-width="0.304449" stroke-miterlimit="10" stroke-linecap="round" stroke-linejoin="round"/>
<path d="M137.251 20.9223C137.251 20.9223 136.733 19.6777 135.073 20.0924" stroke="#263238" stroke-width="0.304449" stroke-miterlimit="10" stroke-linecap="round" stroke-linejoin="round"/>
<path d="M137.666 26.5217C137.666 26.5217 136.526 26.8329 135.592 26.0029" stroke="#263238" stroke-width="0.304449" stroke-miterlimit="10" stroke-linecap="round" stroke-linejoin="round"/>
<path d="M136.214 21.6999C136.214 22.1292 136.098 22.4775 135.955 22.4775C135.812 22.4775 135.696 22.1292 135.696 21.6999C135.696 21.2707 135.812 20.9224 135.955 20.9224C136.098 20.9224 136.214 21.27 136.214 21.6999Z" fill="#263238"/>
<path d="M138.911 22.0627C138.911 22.492 138.794 22.8403 138.651 22.8403C138.508 22.8403 138.392 22.492 138.392 22.0627C138.392 21.6334 138.508 21.2852 138.651 21.2852C138.794 21.2852 138.911 21.6334 138.911 22.0627Z" fill="#263238"/>
<path d="M120.694 35.774C120.694 35.774 118.953 35.6827 117.672 36.5985C116.389 37.5142 116.665 41.086 117.305 44.9324C117.946 48.7788 121.426 59.4936 122.251 61.3252C123.075 63.1567 124.998 64.3471 126.738 64.3471C128.478 64.3471 139.926 58.2113 139.926 58.2113L138.919 55.372C138.919 55.372 129.12 57.8447 128.387 57.936C127.654 58.0274 124.449 41.6346 124.449 41.6346" fill="#EC8117"/>
<path d="M120.694 35.774C120.694 35.774 118.953 35.6827 117.672 36.5985C116.389 37.5142 116.665 41.086 117.305 44.9324C117.946 48.7788 121.426 59.4936 122.251 61.3252C123.075 63.1567 124.998 64.3471 126.738 64.3471C128.478 64.3471 139.926 58.2113 139.926 58.2113L138.919 55.372C138.919 55.372 129.12 57.8447 128.387 57.936C127.654 58.0274 124.449 41.6346 124.449 41.6346" stroke="#263238" stroke-width="0.608897" stroke-miterlimit="10" stroke-linecap="round" stroke-linejoin="round"/>
<path d="M131.134 56.0132C131.134 56.0132 127.379 55.9219 126.83 55.9219C126.28 55.9219 123.716 58.8525 123.075 59.585C122.433 60.3175 123.166 60.5008 123.441 60.5921C123.716 60.6835 125.456 59.9509 125.456 59.9509C125.456 59.9509 123.899 62.9729 124.266 63.5227C124.632 64.0726 125.548 64.4385 125.914 64.072C126.28 63.7054 127.288 63.2475 127.654 63.2475C128.021 63.2475 128.753 63.2475 129.486 62.4231C130.218 61.5986 131.409 58.3021 131.409 58.3021L133.24 57.7528V56.3792L131.134 56.0132Z" fill="white" stroke="#263238" stroke-width="0.608897" stroke-miterlimit="10" stroke-linecap="round" stroke-linejoin="round"/>
<path d="M130.768 55.9218L131.775 62.0576C131.775 62.0576 144.321 58.5778 145.878 57.8447C147.435 57.1122 146.52 53.1738 145.329 52.1667C144.139 51.1596 130.768 55.9218 130.768 55.9218Z" fill="#EC8117" stroke="#263238" stroke-width="0.608897" stroke-miterlimit="10" stroke-linecap="round" stroke-linejoin="round"/>
<path d="M130.951 104.826L141.757 102.903C141.757 102.903 144.23 83.5794 143.04 74.2377C142.779 72.1919 142.401 70.2884 141.974 68.5464C140.119 69.344 137.431 70.1502 133.612 70.5746C126.522 71.3625 121.775 69.3197 119.968 68.3418C119.543 69.9036 119.125 71.6761 118.771 73.6879C117.306 82.0219 119.054 84.0264 121.527 89.979C123.999 95.9321 130.951 104.826 130.951 104.826Z" fill="#263238" stroke="#263238" stroke-width="0.608897" stroke-miterlimit="10" stroke-linecap="round" stroke-linejoin="round"/>
<path d="M132.844 82.2319C134.289 84.6858 135.882 88.0664 136.903 92.2489" stroke="white" stroke-width="0.456673" stroke-miterlimit="10" stroke-linecap="round" stroke-linejoin="round"/>
<path d="M129.526 77.6099C129.526 77.6099 130.42 78.5427 131.625 80.3085" stroke="white" stroke-width="0.456673" stroke-miterlimit="10" stroke-linecap="round" stroke-linejoin="round"/>
<path d="M94.8041 159.995C110.16 159.995 122.608 156.947 122.608 153.187C122.608 149.426 110.16 146.378 94.8041 146.378C79.4486 146.378 67.0006 149.426 67.0006 153.187C67.0006 156.947 79.4486 159.995 94.8041 159.995Z" fill="#EC8117"/>
<path opacity="0.5" d="M94.8041 159.995C110.16 159.995 122.608 156.947 122.608 153.187C122.608 149.426 110.16 146.378 94.8041 146.378C79.4486 146.378 67.0006 149.426 67.0006 153.187C67.0006 156.947 79.4486 159.995 94.8041 159.995Z" fill="white"/>
<path d="M92.6981 14.0345C92.6981 14.0345 91.6697 12.1646 90.922 12.8192C90.1742 13.4737 91.3896 18.2408 92.3242 17.9607C93.2589 17.68 92.6981 14.0345 92.6981 14.0345Z" fill="white" stroke="#263238" stroke-width="0.608897" stroke-miterlimit="10" stroke-linecap="round" stroke-linejoin="round"/>
<path d="M73.7454 78.7456C73.7454 78.7456 81.7615 82.3777 91.6561 83.3799C101.551 84.3822 113.073 77.2429 113.073 77.2429C113.073 77.2429 101.551 59.4576 101.425 59.0819C101.3 58.7062 87.5223 58.2051 87.5223 58.2051L73.7454 78.7456Z" fill="#263238" stroke="#263238" stroke-width="0.608897" stroke-miterlimit="10" stroke-linecap="round" stroke-linejoin="round"/>
<path d="M82.1494 63.936C82.1494 63.936 77.5534 83.5109 77.5534 90.49C77.5534 97.4686 77.5534 103.086 77.2131 108.703C76.8727 114.32 75.0003 125.214 75.6811 130.831C76.3618 136.448 77.2131 147.513 77.2131 147.513C77.2131 147.513 71.2556 152.278 71.2556 153.981C71.2556 155.683 74.8298 155.173 77.8938 153.3C80.9578 151.428 81.809 150.066 81.809 150.066L82.4898 150.747L83.5109 149.726L83.8513 145.981L87.2556 115.342L92.0214 84.8736L100.362 121.47L107.682 146.833L109.384 147.513L109.725 149.045L111.427 150.066L113.129 150.236L114.831 151.768C114.831 151.768 120.279 153.471 121.3 153.13C122.321 152.789 122.321 151.427 119.597 149.385C116.874 147.342 112.278 146.151 112.278 146.151C112.278 146.151 111.767 128.959 110.575 118.916C109.384 108.874 107.852 100.363 107.852 93.2136C107.852 86.0646 105.468 65.2981 105.468 65.2981L82.1494 63.936Z" fill="#263238" stroke="#263238" stroke-width="0.608897" stroke-miterlimit="10" stroke-linecap="round" stroke-linejoin="round"/>
<path d="M93.8945 25.6375L81.1849 30.5173L82.2061 65.4686C82.2061 65.4686 86.5183 67.6247 94.121 67.5114C101.724 67.3982 106.879 67.0846 106.879 67.0846L109.894 28.9292L97.6386 26.0924C97.6392 26.0912 95.3698 25.2972 93.8945 25.6375Z" fill="white" stroke="#263238" stroke-width="0.608897" stroke-miterlimit="10" stroke-linecap="round" stroke-linejoin="round"/>
<path d="M94.0077 31.7657L95.3698 35.2833L91.5112 62.6313L93.5541 67.1706L96.9584 61.9505L96.5048 35.5104L98.0934 31.9922L96.2777 28.3613L94.0077 31.7657Z" fill="#263238" stroke="#263238" stroke-width="0.608897" stroke-miterlimit="10" stroke-linecap="round" stroke-linejoin="round"/>
<path d="M93.9126 24.0371L91.8557 26.4678L92.2296 34.04L96.5296 30.5815L99.9882 35.6292C99.9882 35.6292 101.39 28.9923 100.83 26.9354C100.269 24.8785 98.3058 23.57 97.2773 23.757C96.2495 23.9433 93.9126 24.0371 93.9126 24.0371Z" fill="white" stroke="#263238" stroke-width="0.608897" stroke-miterlimit="10" stroke-linecap="round" stroke-linejoin="round"/>
<path d="M93.3519 20.4844C93.3519 20.4844 93.3647 20.6305 93.3879 20.8808C93.5029 22.129 93.8658 25.9693 94.0997 27.2151C94.3804 28.7106 96.3434 30.3936 97.0912 30.1129C97.8389 29.8322 99.6151 27.589 99.802 26.8413C99.9889 26.0935 100.737 22.6344 100.737 22.6344C100.737 22.6344 98.3059 23.756 97.2781 23.756C96.2497 23.756 93.3519 20.4844 93.3519 20.4844Z" fill="white" stroke="#263238" stroke-width="0.608897" stroke-miterlimit="10" stroke-linecap="round" stroke-linejoin="round"/>
<path d="M103.136 15.6014C103.136 15.6014 104.657 14.1041 105.186 14.9456C105.715 15.7865 103.186 20.0068 102.37 19.4703C101.556 18.9339 103.136 15.6014 103.136 15.6014Z" fill="white" stroke="#263238" stroke-width="0.608897" stroke-miterlimit="10" stroke-linecap="round" stroke-linejoin="round"/>
<path d="M96.1285 7.49253C96.1285 7.49253 93.7946 8.49296 93.2947 9.6596C92.7948 10.8262 91.9612 16.9944 92.7948 19.8282C93.6284 22.662 95.6286 25.1627 96.7952 25.3296C97.9619 25.4964 100.963 23.9961 101.796 21.3285C102.63 18.6615 103.463 15.8277 103.63 13.9937C103.797 12.1597 105.13 13.1602 103.296 10.4932C101.463 7.82622 97.6288 6.49273 96.1285 7.49253Z" fill="white" stroke="#263238" stroke-width="0.608897" stroke-miterlimit="10" stroke-linecap="round" stroke-linejoin="round"/>
<path d="M96.8798 15.3219C96.892 15.7785 96.7167 16.1536 96.4883 16.1597C96.26 16.1658 96.0651 15.8005 96.053 15.3438C96.0408 14.8871 96.2162 14.512 96.4445 14.5059C96.6728 14.4998 96.8677 14.8652 96.8798 15.3219Z" fill="#263238"/>
<path d="M100.122 15.545C100.134 16.0017 99.9588 16.3768 99.7305 16.3828C99.5022 16.3889 99.3073 16.0236 99.2952 15.5669C99.283 15.1102 99.4583 14.7352 99.6867 14.7291C99.9156 14.723 100.11 15.0883 100.122 15.545Z" fill="#263238"/>
<path d="M95.2101 13.2593C95.2101 13.2593 96.0096 12.1012 97.2188 12.6936" stroke="#263238" stroke-width="0.304449" stroke-miterlimit="10" stroke-linecap="round" stroke-linejoin="round"/>
<path d="M99.0104 13.0166C99.0104 13.0166 100.067 12.5057 101.249 13.8818" stroke="#263238" stroke-width="0.304449" stroke-miterlimit="10" stroke-linecap="round" stroke-linejoin="round"/>
<path d="M96.2269 19.8345C96.2269 19.8345 97.4946 20.4811 98.7788 20.1219" stroke="#263238" stroke-width="0.304449" stroke-miterlimit="10" stroke-linecap="round" stroke-linejoin="round"/>
<path d="M98.6363 14.1641C98.6363 14.1641 99.2014 18.1176 98.7776 18.3295C98.3538 18.5414 97.4362 18.047 97.4362 18.047" stroke="#263238" stroke-width="0.304449" stroke-miterlimit="10" stroke-linecap="round" stroke-linejoin="round"/>
<path d="M93.6325 5.62162C93.6325 5.62162 90.454 6.27619 90.5478 7.95857C90.6416 9.64095 91.7632 12.6325 91.7632 12.6325C91.7632 12.6325 92.8848 13.287 92.6978 14.0348C92.5109 14.7825 92.6041 16.3717 93.2586 15.8109C93.9132 15.2501 93.5393 13.1933 93.8194 12.9132C94.0995 12.6325 94.941 12.1654 94.941 11.0432C94.941 9.92105 94.2864 8.89323 94.4734 8.61253C94.6603 8.33183 97.9319 8.7063 99.5211 9.45403C101.11 10.2018 103.26 11.4171 102.7 12.6325C102.139 13.8478 102.887 14.5018 102.887 14.5018C102.887 14.5018 102.232 16.2779 102.7 16.7456C103.167 17.2132 103.728 15.1564 103.728 15.1564C103.728 15.1564 104.663 15.0626 104.943 13.8478C105.224 12.6325 105.598 10.7632 105.317 9.26709C105.037 7.77164 101.952 5.24716 98.5865 5.154C95.2217 5.06084 93.6325 5.62162 93.6325 5.62162Z" fill="#263238" stroke="#263238" stroke-width="0.608897" stroke-miterlimit="10" stroke-linecap="round" stroke-linejoin="round"/>
<path d="M94.0064 7.21053C94.0064 7.21053 97.8388 10.5759 101.111 11.8844C104.383 13.1929 108.589 10.7628 108.776 8.89291C108.963 7.0236 105.785 4.31218 104.944 4.21902C104.103 4.12525 105.412 3.00366 102.326 2.069C99.2417 1.13434 92.4172 1.69514 92.0433 3.56446C91.6695 5.43438 94.0064 7.21053 94.0064 7.21053Z" fill="#263238" stroke="#263238" stroke-width="0.608897" stroke-miterlimit="10" stroke-linecap="round" stroke-linejoin="round"/>
<path d="M92.3059 26.2049C92.3059 26.2049 91.8522 47.766 89.2419 55.1416C86.6322 62.5177 83.3411 69.8933 80.5042 72.5037C77.6674 75.1134 72.6744 83.3974 72.6744 83.3974C72.6744 83.3974 70.9725 80.1064 70.9725 79.0852C70.9725 78.0641 78.9162 70.8012 79.597 70.1204C80.2777 69.4397 80.6181 65.9215 80.6181 60.702C80.6181 55.4825 79.3698 30.9708 79.3698 30.5172C79.3692 30.0629 90.1498 25.6375 92.3059 26.2049Z" fill="#EC8117" stroke="#263238" stroke-width="0.608897" stroke-miterlimit="10" stroke-linecap="round" stroke-linejoin="round"/>
<path d="M79.3692 30.5176C79.3692 30.5176 79.2797 30.6485 79.1238 30.892C78.4022 32.0197 76.6663 35.7109 75.0003 39.7661C72.8954 44.8906 67.3404 53.3835 68.532 55.0854C69.7236 56.7872 72.7876 57.809 74.66 55.7661C76.5323 53.7233 81.1283 45.0422 81.1283 45.0422C81.1283 45.0422 80.5042 32.3327 79.3692 30.5176Z" fill="#EC8117" stroke="#263238" stroke-width="0.608897" stroke-miterlimit="10" stroke-linecap="round" stroke-linejoin="round"/>
<path d="M100.59 26.4316C100.59 26.4316 100.817 41.2973 101.27 51.5103C101.725 61.7233 103.086 65.5813 104.221 67.5109C105.356 69.4399 113.64 82.2633 113.64 82.2633C113.64 82.2633 115.569 78.2914 115.342 76.7028C115.115 75.1142 109.101 65.0144 109.101 64.4469C109.101 63.8794 111.711 30.4035 111.257 29.4956C110.803 28.5877 100.59 26.4316 100.59 26.4316Z" fill="#EC8117" stroke="#263238" stroke-width="0.608897" stroke-miterlimit="10" stroke-linecap="round" stroke-linejoin="round"/>
<path d="M89.9226 27.5669L86.6321 35.7371L89.2419 38.3474L86.405 41.5247L87.9936 53.6667" stroke="#263238" stroke-width="0.608897" stroke-miterlimit="10" stroke-linecap="round" stroke-linejoin="round"/>
<path d="M102.178 27.6797L105.242 34.9426L101.838 36.9849L105.242 42.3188L101.951 50.9426" stroke="#263238" stroke-width="0.608897" stroke-miterlimit="10" stroke-linecap="round" stroke-linejoin="round"/>
<path d="M82.1493 70.9155L82.7205 72.4012L78.6749 75.5224L77.4036 72.6326L82.1493 70.9155Z" fill="white" stroke="#263238" stroke-width="0.608897" stroke-miterlimit="10" stroke-linecap="round" stroke-linejoin="round"/>
<path d="M74.1491 52.702L82.1494 70.9154L76.1919 75.5113C76.1919 75.5113 67.5109 57.298 67.5109 55.766C67.5109 54.234 69.3832 51.17 70.2345 50.6592" fill="#EC8117"/>
<path d="M74.1491 52.702L82.1494 70.9154L76.1919 75.5113C76.1919 75.5113 67.5109 57.298 67.5109 55.766C67.5109 54.234 69.3832 51.17 70.2345 50.6592" stroke="#263238" stroke-width="0.608897" stroke-miterlimit="10" stroke-linecap="round" stroke-linejoin="round"/>
<path d="M82.7206 72.4009L84.1082 73.0944L80.2935 78.2962L78.675 75.5221L82.7206 72.4009Z" fill="white" stroke="#263238" stroke-width="0.608897" stroke-miterlimit="10" stroke-linecap="round" stroke-linejoin="round"/>
<path d="M103.902 71.1797L103.185 72.6008L106.899 76.1105L108.453 73.362L103.902 71.1797Z" fill="white" stroke="#263238" stroke-width="0.608897" stroke-miterlimit="10" stroke-linecap="round" stroke-linejoin="round"/>
<path d="M111.256 29.4956C111.256 29.4956 113.006 31.3655 113.237 33.0991C113.469 34.8332 119.595 55.1771 119.826 56.102C120.057 57.0269 117.745 58.5296 115.433 58.8761C113.122 59.2232 110.232 50.2066 110.232 50.2066L111.256 29.4956Z" fill="#EC8117" stroke="#263238" stroke-width="0.608897" stroke-miterlimit="10" stroke-linecap="round" stroke-linejoin="round"/>
<path d="M113.683 53.8569L103.902 71.1788L109.371 76.3471C109.371 76.3471 119.829 59.0928 119.982 57.5688C120.135 56.0447 118.578 52.809 117.783 52.2153" fill="#EC8117"/>
<path d="M113.683 53.8569L103.902 71.1788L109.371 76.3471C109.371 76.3471 119.829 59.0928 119.982 57.5688C120.135 56.0447 118.578 52.809 117.783 52.2153" stroke="#263238" stroke-width="0.608897" stroke-miterlimit="10" stroke-linecap="round" stroke-linejoin="round"/>
<path d="M103.185 72.6006L101.735 73.1516L105.011 78.7091L106.899 76.1103L103.185 72.6006Z" fill="white" stroke="#263238" stroke-width="0.608897" stroke-miterlimit="10" stroke-linecap="round" stroke-linejoin="round"/>
</g>
<defs>
<clipPath id="clip0_1629_4583">
<rect width="183" height="160" fill="white" transform="translate(0.5 0.439941)"/>
</clipPath>
</defs>
</svg>
