<svg width="224" height="129" viewBox="0 0 224 129" fill="none" xmlns="http://www.w3.org/2000/svg">
<path d="M179.627 31.5532H199.77C202.215 31.5532 204.198 33.6536 204.198 36.245V52.4389C204.198 55.0303 202.215 57.1307 199.77 57.1307H183.124L175.508 64.1776L179.173 57.1061C176.941 56.865 175.199 54.8674 175.199 52.4389V36.245C175.199 33.654 177.182 31.5532 179.627 31.5532Z" fill="white" stroke="#263238" stroke-width="0.404017" stroke-miterlimit="10" stroke-linecap="round" stroke-linejoin="round"/>
<path d="M187.183 48.6343V45.483C187.895 44.8758 188.538 44.2191 189.111 43.5132C189.684 42.8077 190.138 42.0567 190.471 41.2604C190.804 40.4646 190.97 39.6233 190.97 38.7372C190.97 38.097 190.851 37.6168 190.61 37.2967C190.37 36.9766 190.01 36.8166 189.53 36.8166C189.111 36.8166 188.778 36.948 188.53 37.2105C188.283 37.4733 188.159 37.8261 188.159 38.2691C188.159 38.5316 188.186 38.7614 188.24 38.9585C188.295 39.1556 188.352 39.3689 188.414 39.5987L185.231 40.3618C185.123 40.001 185.037 39.6442 184.976 39.2911C184.914 38.9383 184.882 38.5812 184.882 38.2199C184.882 36.792 185.289 35.6721 186.102 34.8593C186.916 34.047 188.081 33.6406 189.599 33.6406C191.148 33.6406 192.341 34.0756 193.177 34.9456C194.014 35.8156 194.432 37.0548 194.432 38.6634C194.432 39.6813 194.269 40.6328 193.944 41.5193C193.619 42.4058 193.15 43.2391 192.539 44.0184C191.927 44.798 191.203 45.5326 190.366 46.2219V48.6343H187.183ZM187.067 53.8293V50.2594H190.505V53.8293H187.067Z" fill="#263238"/>
<path d="M82.3429 0.233887H54.9899C52.5443 0.233887 50.562 2.33427 50.562 4.92567V21.1196C50.562 23.711 52.5443 25.8113 54.9899 25.8113H78.8471L86.463 32.8583L82.7975 25.7868C85.0294 25.5457 86.7712 23.5481 86.7712 21.1196V4.92567C86.7708 2.33427 84.7885 0.233887 82.3429 0.233887Z" fill="white" stroke="#263238" stroke-width="0.404017" stroke-miterlimit="10" stroke-linecap="round" stroke-linejoin="round"/>
<path d="M63.2473 13.5443C63.2473 12.5353 62.4753 11.7173 61.523 11.7173C60.5707 11.7173 59.7987 12.5353 59.7987 13.5443C59.7987 14.5534 60.5707 15.3714 61.523 15.3714C62.4753 15.3714 63.2473 14.5534 63.2473 13.5443Z" fill="#263238" stroke="#263238" stroke-width="0.404017" stroke-miterlimit="10" stroke-linecap="round" stroke-linejoin="round"/>
<path d="M70.3907 13.5443C70.3907 12.5353 69.6188 11.7173 68.6664 11.7173C67.7141 11.7173 66.9421 12.5353 66.9421 13.5443C66.9421 14.5534 67.7141 15.3714 68.6664 15.3714C69.6188 15.3714 70.3907 14.5534 70.3907 13.5443Z" fill="#263238" stroke="#263238" stroke-width="0.404017" stroke-miterlimit="10" stroke-linecap="round" stroke-linejoin="round"/>
<path d="M77.534 13.5443C77.534 12.5353 76.7621 11.7173 75.8098 11.7173C74.8574 11.7173 74.0854 12.5353 74.0854 13.5443C74.0854 14.5534 74.8574 15.3714 75.8098 15.3714C76.7621 15.3714 77.534 14.5534 77.534 13.5443Z" fill="#263238" stroke="#263238" stroke-width="0.404017" stroke-miterlimit="10" stroke-linecap="round" stroke-linejoin="round"/>
<path d="M123.22 128.121L117.326 102.835L71.8076 103.178C69.43 107.421 64.3484 121.797 62.1584 128.122H123.22V128.121Z" fill="#263238" stroke="#263238" stroke-width="0.404017" stroke-miterlimit="10" stroke-linecap="round" stroke-linejoin="round"/>
<path d="M152.544 90.2627L156.029 90.8956C156.029 90.8956 163.197 90.3679 163.795 90.3679C164.392 90.3679 168.674 94.0603 168.674 94.0603L161.405 93.9547C161.405 93.9547 156.228 95.537 154.435 95.537C152.643 95.537 150.452 93.3213 150.452 93.3213L152.544 90.2627Z" fill="white" stroke="#263238" stroke-width="0.404017" stroke-miterlimit="10" stroke-linecap="round" stroke-linejoin="round"/>
<path d="M153.938 92.6887C153.938 92.6887 160.41 92.8995 161.107 92.7943C161.804 92.6887 163.297 91.7393 163.297 92.6887C163.297 93.6381 162.301 93.3216 161.405 93.9545C160.509 94.5875 159.713 94.9039 159.713 94.9039C159.713 94.9039 158.319 95.326 157.124 95.5369C155.929 95.7477 155.631 95.6425 154.436 95.5369C153.241 95.4312 152.444 94.7983 152.444 94.7983" fill="white"/>
<path d="M153.938 92.6887C153.938 92.6887 160.41 92.8995 161.107 92.7943C161.804 92.6887 163.297 91.7393 163.297 92.6887C163.297 93.6381 162.301 93.3216 161.405 93.9545C160.509 94.5875 159.713 94.9039 159.713 94.9039C159.713 94.9039 158.319 95.326 157.124 95.5369C155.929 95.7477 155.631 95.6425 154.436 95.5369C153.241 95.4312 152.444 94.7983 152.444 94.7983" stroke="#263238" stroke-width="0.404017" stroke-miterlimit="10" stroke-linecap="round" stroke-linejoin="round"/>
<path d="M135.997 68.0304L131.059 57.1777C131.059 57.1777 131.267 45.0056 131.059 43.235C130.85 41.4644 130.641 39.8046 127.403 38.8089C124.166 37.8131 105.054 39.4729 105.054 39.4729C105.054 39.4729 99.9667 40.003 95.4612 40.8448C90.9556 41.6861 81.0154 41.7506 80.493 43.4104C79.971 45.0701 77.6387 82.9245 77.6387 82.9245L68.2939 105.203C68.2939 105.203 77.0665 112.838 95.2378 111.732C113.409 110.625 119.78 104.65 119.78 104.65L114.662 85.2849C114.662 85.2849 123.122 77.3176 123.33 74.883C123.539 72.4484 123.644 70.5673 123.644 70.5673C123.644 70.5673 128.865 79.0878 129.91 79.7518C130.954 80.4157 150.644 95.0398 150.644 95.0398L153.359 89.9497L136.698 69.5716L135.997 68.0304Z" fill="white" stroke="#263238" stroke-width="0.404017" stroke-miterlimit="10" stroke-linecap="round" stroke-linejoin="round"/>
<path d="M123.644 70.5675L125.407 52.7627" stroke="#263238" stroke-width="0.404017" stroke-miterlimit="10" stroke-linecap="round" stroke-linejoin="round"/>
<path d="M124.971 58.5433C124.971 58.5433 128.244 55.4218 129.553 51.4907" stroke="#263238" stroke-width="0.404017" stroke-miterlimit="10" stroke-linecap="round" stroke-linejoin="round"/>
<path d="M128.219 59.4944C128.857 59.298 129.427 59.0892 129.771 58.8896" stroke="#263238" stroke-width="0.404017" stroke-miterlimit="10" stroke-linecap="round" stroke-linejoin="round"/>
<path d="M124.643 60.3931C124.643 60.3931 125.782 60.1584 127.021 59.8335" stroke="#263238" stroke-width="0.404017" stroke-miterlimit="10" stroke-linecap="round" stroke-linejoin="round"/>
<path d="M100.773 39.0302L97.0129 53.3047L101.086 56.9564L96.5951 61.6038C96.5951 61.6038 98.2661 68.5754 100.668 73.9973C103.07 79.4196 104.636 81.8538 104.636 81.8538C104.636 81.8538 114.349 76.985 116.855 72.6693C119.362 68.3537 122.703 61.6038 122.703 61.6038L119.779 58.5053L124.061 56.0707C124.061 56.0707 122.652 49.6849 121.763 45.6688C120.875 41.6531 119.466 38.9189 119.466 38.9189L100.773 39.0302Z" fill="#1C4F75" stroke="#263238" stroke-width="0.404017" stroke-miterlimit="10" stroke-linecap="round" stroke-linejoin="round"/>
<path d="M103.907 40.876C103.907 40.876 103.817 53.6266 103.458 58.0991C103.099 62.5712 103.458 69.2323 103.997 72.087C104.536 74.9416 105.614 79.2234 105.614 79.2234C105.614 79.2234 112.978 72.8481 113.965 70.1837C114.953 67.5194 116.749 56.957 116.749 56.957L118.366 44.7772L103.907 40.876Z" fill="white" stroke="#263238" stroke-width="0.404017" stroke-miterlimit="10" stroke-linecap="round" stroke-linejoin="round"/>
<path d="M104.267 38.5923L103.458 56.4814L110.643 51.5336L116.659 58.5749L118.186 43.921L104.267 38.5923Z" fill="white" stroke="#263238" stroke-width="0.404017" stroke-miterlimit="10" stroke-linecap="round" stroke-linejoin="round"/>
<path d="M106.871 44.6821L109.834 59.1457L115.312 47.3465C115.312 47.3465 108.84 47.0748 106.871 44.6821Z" fill="white" stroke="#263238" stroke-width="0.404017" stroke-miterlimit="10" stroke-linecap="round" stroke-linejoin="round"/>
<path d="M100.853 29.8789C100.853 29.8789 99.2882 27.2988 98.3313 24.9952C97.3748 22.6917 97.5487 21.7701 98.5052 19.3742C99.4617 16.9783 103.375 10.0676 105.984 8.86949C108.593 7.67175 110.767 7.57943 110.767 7.57943C110.767 7.57943 120.42 7.30288 124.855 12.2789C129.29 17.2549 129.377 25.7322 128.334 27.9438C127.29 30.1555 125.464 31.169 124.595 31.4455C123.725 31.7221 123.038 31.9817 123.038 31.9817C123.038 31.9817 121.986 31.9987 121.29 31.9987C120.594 31.9987 116.942 29.787 113.724 26.9307C110.506 24.0741 109.463 22.8763 109.463 22.8763C109.463 22.8763 105.723 25.733 104.419 27.0231C103.115 28.3131 102.766 29.1424 102.766 29.1424L102.259 31.2186L100.853 29.8789Z" fill="#263238" stroke="#263238" stroke-width="0.404017" stroke-miterlimit="10" stroke-linecap="round" stroke-linejoin="round"/>
<path d="M100.766 31.722C100.766 31.722 97.5485 31.1693 95.7223 33.0121C93.896 34.8548 93.7221 39.4624 95.4612 40.8443C97.2004 42.2267 101.153 43.4531 103.027 42.8718C104.902 42.29 105.462 40.384 105.462 38.4489C105.462 36.5138 103.636 32.6436 103.288 31.9067C102.94 31.1689 100.766 31.722 100.766 31.722Z" fill="#263238" stroke="#263238" stroke-width="0.404017" stroke-miterlimit="10" stroke-linecap="round" stroke-linejoin="round"/>
<path d="M102.26 31.2182C102.26 31.2182 100.698 28.5457 99.4969 30.8364C98.2958 33.1271 100.097 35.2907 101.419 36.0543C102.74 36.8179 103.461 36.9452 103.461 36.9452L102.26 31.2182Z" fill="white" stroke="#263238" stroke-width="0.404017" stroke-miterlimit="10" stroke-linecap="round" stroke-linejoin="round"/>
<path d="M123.038 31.9814C123.038 31.9814 125.32 30.5817 125.56 32.6175C125.8 34.6538 124.119 36.6901 123.278 37.3263C122.437 37.9624 121.837 38.4716 121.837 38.4716L123.038 31.9814Z" fill="white" stroke="#263238" stroke-width="0.404017" stroke-miterlimit="10" stroke-linecap="round" stroke-linejoin="round"/>
<path d="M102.019 27.5274C102.019 27.5274 103.46 39.7447 104.901 42.2901C106.343 44.8356 108.985 49.2895 112.348 49.2895C115.711 49.2895 119.434 45.3443 120.876 41.6536C122.317 37.9628 123.037 31.9813 123.037 31.9813C123.037 31.9813 117.392 29.5633 112.948 24.7272C108.505 19.891 109.585 19.2549 109.585 19.2549C109.585 19.2549 104.421 26.3821 102.019 27.5274Z" fill="white" stroke="#263238" stroke-width="0.404017" stroke-miterlimit="10" stroke-linecap="round" stroke-linejoin="round"/>
<path d="M111.115 38.7251C111.115 38.7251 113.289 40.5679 115.202 38.9093" stroke="#263238" stroke-width="0.404017" stroke-miterlimit="10" stroke-linecap="round" stroke-linejoin="round"/>
<path d="M109.81 41.397C109.81 41.397 112.767 44.4379 116.593 41.3047" stroke="#263238" stroke-width="0.404017" stroke-miterlimit="10" stroke-linecap="round" stroke-linejoin="round"/>
<path d="M109.299 32.7079C109.299 33.3339 108.905 33.8415 108.419 33.8415C107.933 33.8415 107.539 33.3339 107.539 32.7079C107.539 32.0818 107.933 31.5742 108.419 31.5742C108.905 31.5742 109.299 32.0818 109.299 32.7079Z" fill="#263238"/>
<path d="M118.256 33.2884C118.256 33.9145 117.862 34.4221 117.376 34.4221C116.89 34.4221 116.496 33.9145 116.496 33.2884C116.496 32.6623 116.891 32.1548 117.376 32.1548C117.862 32.1548 118.256 32.6628 118.256 33.2884Z" fill="#263238"/>
<path d="M106.419 29.3264C106.419 29.3264 108.071 28.2205 110.767 29.1421" stroke="#263238" stroke-width="0.404017" stroke-miterlimit="10" stroke-linecap="round" stroke-linejoin="round"/>
<path d="M116.072 29.7874C116.072 29.7874 117.289 28.4973 121.116 31.1697" stroke="#263238" stroke-width="0.404017" stroke-miterlimit="10" stroke-linecap="round" stroke-linejoin="round"/>
<path d="M111.01 35.6378L106.246 35.3681C105.379 35.3189 104.714 34.5348 104.761 33.6164L104.862 31.6051C104.909 30.6867 105.649 29.9821 106.515 30.0312L111.279 30.3009C112.146 30.3501 112.811 31.1342 112.765 32.0526L112.663 34.0639C112.617 34.9822 111.877 35.6869 111.01 35.6378Z" stroke="#263238" stroke-width="0.404017" stroke-miterlimit="10" stroke-linecap="round" stroke-linejoin="round"/>
<path d="M120.501 36.2418L115.737 35.9721C114.87 35.9229 114.205 35.1388 114.252 34.2204L114.353 32.2091C114.4 31.2908 115.14 30.5861 116.006 30.6352L120.77 30.9049C121.637 30.9541 122.302 31.7382 122.256 32.6566L122.154 34.6679C122.108 35.5862 121.368 36.2909 120.501 36.2418Z" stroke="#263238" stroke-width="0.404017" stroke-miterlimit="10" stroke-linecap="round" stroke-linejoin="round"/>
<path d="M112.753 31.6055L114.481 31.7272" stroke="#263238" stroke-width="0.404017" stroke-miterlimit="10" stroke-linecap="round" stroke-linejoin="round"/>
<path d="M104.865 31.5512L102.153 30.6699" stroke="#263238" stroke-width="0.404017" stroke-miterlimit="10" stroke-linecap="round" stroke-linejoin="round"/>
<path d="M122.258 32.6024L123.038 31.9819" stroke="#263238" stroke-width="0.404017" stroke-miterlimit="10" stroke-linecap="round" stroke-linejoin="round"/>
<path d="M63.2893 65.3942L62.2449 62.1852C62.2449 62.1852 61.4093 59.0867 60.4696 57.7591C59.5298 56.4311 57.7542 55.9885 57.0233 54.9927C56.2924 53.997 55.3522 51.2306 54.7256 50.4558C54.099 49.6813 52.8457 50.3453 53.1592 52.1155C53.4723 53.8861 54.2036 54.4392 54.5167 55.1032C54.8298 55.7672 55.5611 57.5378 55.5611 57.5378C55.5611 57.5378 48.7727 56.3207 48.3553 56.2098C47.938 56.099 46.6843 54.6605 46.3712 53.7752C46.0577 52.8899 46.1623 49.3491 44.909 50.4553C43.6558 51.562 44.387 53.8857 44.5959 54.4388C44.8048 54.9919 44.5959 58.8649 45.1179 60.8569C45.6399 62.8488 47.4156 64.8407 50.0264 66.1683C52.6372 67.4962 57.7545 67.9389 57.7545 67.9389L59.7387 70.0413L63.2893 65.3942Z" fill="white" stroke="#263238" stroke-width="0.404017" stroke-miterlimit="10" stroke-linecap="round" stroke-linejoin="round"/>
<path d="M43.8644 59.9719C43.8644 59.9719 42.521 57.3817 42.521 55.4853C42.521 53.5889 42.6443 51.8235 43.57 52.2811C44.4956 52.7387 44.3244 52.6734 44.5953 54.4391C44.8658 56.2045 45.545 58.1662 45.6683 58.3625C45.7915 58.5589 46.7792 61.1745 45.9152 61.2398C45.0511 61.3051 43.8644 59.9719 43.8644 59.9719Z" fill="white" stroke="#263238" stroke-width="0.404017" stroke-miterlimit="10" stroke-linecap="round" stroke-linejoin="round"/>
<path d="M46.684 59.9724C46.684 59.9724 44.8041 54.3288 43.8643 55.3249C42.9245 56.3207 43.0288 57.5382 43.8643 59.9724C44.6998 62.407 46.4751 64.288 47.9373 64.5094C49.3994 64.7307 49.3994 64.7307 49.3994 64.7307L46.684 59.9724Z" fill="white" stroke="#263238" stroke-width="0.404017" stroke-miterlimit="10" stroke-linecap="round" stroke-linejoin="round"/>
<path d="M58.1719 64.288C58.1719 64.288 55.8742 62.296 54.4124 62.296C52.9503 62.296 49.504 62.8491 49.504 62.8491C49.504 62.8491 47.102 54.3287 46.3712 55.7671C45.6403 57.2055 45.8491 58.6443 46.58 60.8572C47.3109 63.0705 48.3553 65.062 50.0263 66.1686C51.6974 67.2753 57.7545 67.9392 57.7545 67.9392" fill="white"/>
<path d="M58.1719 64.288C58.1719 64.288 55.8742 62.296 54.4124 62.296C52.9503 62.296 49.504 62.8491 49.504 62.8491C49.504 62.8491 47.102 54.3287 46.3712 55.7671C45.6403 57.2055 45.8491 58.6443 46.58 60.8572C47.3109 63.0705 48.3553 65.062 50.0263 66.1686C51.6974 67.2753 57.7545 67.9392 57.7545 67.9392" stroke="#263238" stroke-width="0.404017" stroke-miterlimit="10" stroke-linecap="round" stroke-linejoin="round"/>
<path d="M65.6913 66.9435L63.2894 64.3984L57.9631 69.8203L60.5739 72.0336L65.6913 66.9435Z" fill="white" stroke="#263238" stroke-width="0.404017" stroke-miterlimit="10" stroke-linecap="round" stroke-linejoin="round"/>
<path d="M89.8514 41.5508C89.8514 41.5508 82.4002 41.8245 80.6249 42.7098C78.8496 43.5951 78.6408 44.9231 78.5361 45.4762C78.4315 46.0293 75.2987 75.5749 75.2987 75.5749L65.064 65.2839L58.4849 72.0337C58.4849 72.0337 67.5705 84.6485 69.6593 88.0788C71.7481 91.5092 73.6277 94.7182 75.4033 95.0504C77.1786 95.3822 77.8052 95.493 79.9983 94.8291C82.1913 94.1651 85.0118 88.9803 85.1164 88.5376C85.2207 88.0949 89.9195 60.1934 89.9195 60.1934" fill="white"/>
<path d="M89.8514 41.5508C89.8514 41.5508 82.4002 41.8245 80.6249 42.7098C78.8496 43.5951 78.6408 44.9231 78.5361 45.4762C78.4315 46.0293 75.2987 75.5749 75.2987 75.5749L65.064 65.2839L58.4849 72.0337C58.4849 72.0337 67.5705 84.6485 69.6593 88.0788C71.7481 91.5092 73.6277 94.7182 75.4033 95.0504C77.1786 95.3822 77.8052 95.493 79.9983 94.8291C82.1913 94.1651 85.0118 88.9803 85.1164 88.5376C85.2207 88.0949 89.9195 60.1934 89.9195 60.1934" stroke="#263238" stroke-width="0.404017" stroke-miterlimit="10" stroke-linecap="round" stroke-linejoin="round"/>
<path d="M80.5771 78.8135L81.9693 79.6677" stroke="#263238" stroke-width="0.404017" stroke-miterlimit="10" stroke-linecap="round" stroke-linejoin="round"/>
<path d="M75.2988 75.5747L79.7222 78.2891" stroke="#263238" stroke-width="0.404017" stroke-miterlimit="10" stroke-linecap="round" stroke-linejoin="round"/>
<path d="M92.2322 90.2153C91.3883 90.5842 90.6151 90.9067 89.9501 91.1631" stroke="#263238" stroke-width="0.404017" stroke-miterlimit="10" stroke-linecap="round" stroke-linejoin="round"/>
<path d="M107.606 82.7524C107.606 82.7524 100.551 86.3916 94.8038 89.054" stroke="#263238" stroke-width="0.404017" stroke-miterlimit="10" stroke-linecap="round" stroke-linejoin="round"/>
<path d="M111.17 83.2671L102.261 88.2447" stroke="#263238" stroke-width="0.404017" stroke-miterlimit="10" stroke-linecap="round" stroke-linejoin="round"/>
<path d="M184.876 92.7176H196.525C196.525 92.7176 198.21 92.7176 197.597 95.4783C196.985 98.2391 194.532 113.342 194.226 119.027C193.919 124.711 193.613 128.121 193.613 128.121H148.407L153.861 94.8168C154.075 93.511 155.147 92.56 156.397 92.5664L184.876 92.7176Z" fill="#263238" stroke="#263238" stroke-width="0.404017" stroke-miterlimit="10" stroke-linecap="round" stroke-linejoin="round"/>
<path d="M148.471 71.0953C148.471 71.0953 135.237 75.0215 135.026 76.3676C134.814 77.7137 129.203 110.582 129.203 110.582C129.203 110.582 101.465 102.954 99.8771 102.954C98.289 102.954 92.1485 108.451 91.3016 109.124C90.4547 109.797 89.29 110.358 89.1843 111.704C89.0785 113.05 88.0196 115.181 89.1843 116.191C90.3489 117.2 91.0901 118.098 91.5135 117.537C91.937 116.976 91.4077 115.069 91.3016 114.732C91.1958 114.396 97.9717 110.694 97.9717 110.694L100.724 110.021C100.724 110.021 99.3482 111.367 97.5482 112.489C95.7486 113.611 95.1132 115.518 96.0659 115.63C97.0186 115.742 97.1247 115.293 99.8771 114.396C102.63 113.498 104.959 110.582 104.959 110.582C104.959 110.582 131.744 123.819 133.227 123.819C134.709 123.819 134.497 124.155 135.767 122.361C137.038 120.566 141.167 107.777 141.167 107.777L142.755 124.38V128.087H184.362C184.362 128.087 184.15 80.2934 183.939 79.6206C183.727 78.9473 167.48 68.0991 167.48 68.0991L148.471 71.0953Z" fill="#1C4F75" stroke="#263238" stroke-width="0.404017" stroke-miterlimit="10" stroke-linecap="round" stroke-linejoin="round"/>
<path d="M137.241 102.455L136.323 101.21" stroke="#263238" stroke-width="0.404017" stroke-miterlimit="10" stroke-linecap="round" stroke-linejoin="round"/>
<path d="M141.166 107.778L138.047 103.549" stroke="#263238" stroke-width="0.404017" stroke-miterlimit="10" stroke-linecap="round" stroke-linejoin="round"/>
<path d="M137.17 94.0846L136.694 92.4531" stroke="#263238" stroke-width="0.404017" stroke-miterlimit="10" stroke-linecap="round" stroke-linejoin="round"/>
<path d="M139.048 92.7178L141.166 107.778L137.666 95.7845" stroke="#263238" stroke-width="0.404017" stroke-miterlimit="10" stroke-linecap="round" stroke-linejoin="round"/>
<path d="M170.833 70.3524C168.866 69.0256 167.479 68.0996 167.479 68.0996L148.471 71.0954L157.364 91.3997L170.833 70.3524Z" fill="white" stroke="#263238" stroke-width="0.404017" stroke-miterlimit="10" stroke-linecap="round" stroke-linejoin="round"/>
<path d="M147.525 41.1193C144.993 42.9645 141.386 47.006 142.199 49.5889C143.051 52.2976 144.329 52.8995 144.329 52.8995C144.329 52.8995 143.193 56.6617 144.187 57.8655C145.181 59.0692 145.607 60.2734 145.607 60.2734C145.607 60.2734 143.477 66.5939 144.471 67.3462C145.465 68.0985 145.465 68.0985 145.465 68.0985C145.465 68.0985 147.17 75.322 148.448 75.7735C149.726 76.225 153.561 75.0212 153.561 75.0212L157.395 86.0069L167.479 68.0989L166.485 64.4871C166.485 64.4871 172.45 54.1033 170.036 46.7294C168.649 42.4944 165.049 39.5651 161.078 38.338C156.69 36.9818 152.9 38.4742 148.821 40.3263C148.454 40.4936 148.009 40.7665 147.525 41.1193Z" fill="white" stroke="#263238" stroke-width="0.404017" stroke-miterlimit="10" stroke-linecap="round" stroke-linejoin="round"/>
<path d="M170.035 46.7299C168.648 42.4949 165.048 39.5656 161.078 38.3385C156.689 36.9823 152.899 38.4747 148.82 40.3268C148.453 40.4933 148.008 40.7662 147.524 41.1194C144.992 42.9645 141.385 47.0061 142.198 49.589C143.05 52.2977 144.328 52.8996 144.328 52.8996C144.328 52.8996 145.718 53.1459 146.777 52.024C147.835 50.902 150.588 48.8831 152.811 49.2197C155.035 49.5563 155.035 52.3606 154.294 53.7067C153.552 55.0528 153.341 56.6235 155.246 57.0722C157.152 57.5209 157.681 57.5209 157.681 59.0915C157.681 60.6622 157.575 61.8958 158.74 61.6716C159.905 61.4471 160.011 60.8863 160.54 59.6523C161.069 58.4183 163.398 56.5114 164.669 60.3251C165.939 64.1393 163.398 65.9341 163.398 65.9341C163.398 65.9341 165.039 65.3326 166.583 64.309C167.34 62.9319 172.268 53.5479 170.035 46.7299Z" fill="#263238" stroke="#263238" stroke-width="0.404017" stroke-miterlimit="10" stroke-linecap="round" stroke-linejoin="round"/>
<path d="M146.883 59.6525C146.883 59.6525 149.954 58.1943 151.965 59.6525" stroke="#263238" stroke-width="0.404017" stroke-miterlimit="10" stroke-linecap="round" stroke-linejoin="round"/>
<path d="M146.777 69.7489C146.777 69.7489 150.059 71.095 152.176 68.627" stroke="#263238" stroke-width="0.404017" stroke-miterlimit="10" stroke-linecap="round" stroke-linejoin="round"/>
<path d="M145.465 68.0991L147.2 68.4027" stroke="#263238" stroke-width="0.404017" stroke-miterlimit="10" stroke-linecap="round" stroke-linejoin="round"/>
<path d="M150.694 62.2007C150.694 62.8341 150.362 63.3473 149.952 63.3473C149.542 63.3473 149.209 62.8341 149.209 62.2007C149.209 61.5674 149.542 61.0542 149.952 61.0542C150.362 61.0546 150.694 61.5678 150.694 62.2007Z" fill="#263238"/>
<path d="M153.56 75.0218C153.56 75.0218 157.364 73.4508 158.423 72.6654C159.482 71.8801 160.117 71.3193 160.117 71.3193L154.929 78.611L153.56 75.0218Z" fill="#263238"/>
<path d="M109.267 105.214C104.422 103.946 100.449 102.954 99.8767 102.954C98.2886 102.954 92.1481 108.451 91.3012 109.124C90.4543 109.797 89.2897 110.358 89.1839 111.704C89.0781 113.05 88.0193 115.181 89.1839 116.191C90.3485 117.2 91.0897 118.098 91.5131 117.537C91.9366 116.976 91.4074 115.069 91.3012 114.732C91.1954 114.396 97.9709 110.694 97.9709 110.694L100.724 110.021C100.724 110.021 99.3474 111.367 97.5474 112.489C95.7478 113.611 95.1124 115.518 96.0651 115.63C97.0178 115.742 97.124 115.294 99.8763 114.396C102.629 113.499 104.958 110.582 104.958 110.582C104.958 110.582 106.194 111.193 108.147 112.151C109.82 109.433 109.576 106.662 109.267 105.214Z" fill="white" stroke="#263238" stroke-width="0.404017" stroke-miterlimit="10" stroke-linecap="round" stroke-linejoin="round"/>
<path d="M104.958 110.582L106.123 107.666" stroke="#263238" stroke-width="0.404017" stroke-miterlimit="10" stroke-linecap="round" stroke-linejoin="round"/>
<path d="M94.583 109.349C94.583 109.349 89.3952 112.826 88.4425 113.499C87.4898 114.173 84.2079 114.958 84.5252 115.631C84.8429 116.304 85.584 116.64 87.066 116.192C88.5483 115.743 90.3479 115.294 92.0418 114.509C93.7357 113.724 97.9707 110.695 97.9707 110.695" fill="white"/>
<path d="M94.583 109.349C94.583 109.349 89.3952 112.826 88.4425 113.499C87.4898 114.173 84.2079 114.958 84.5252 115.631C84.8429 116.304 85.584 116.64 87.066 116.192C88.5483 115.743 90.3479 115.294 92.0418 114.509C93.7357 113.724 97.9707 110.695 97.9707 110.695" stroke="#263238" stroke-width="0.404017" stroke-miterlimit="10" stroke-linecap="round" stroke-linejoin="round"/>
<path d="M179.068 76.0308C179.068 76.0308 186.267 79.3962 187.22 81.3031C188.172 83.2099 190.078 124.829 190.184 126.063C190.29 127.297 189.337 127.745 188.808 127.857C188.279 127.969 154.506 127.745 153.553 127.745C152.6 127.745 150.271 127.521 148.895 126.848C147.519 126.175 146.46 126.399 146.354 124.604C146.248 122.81 146.46 121.351 146.46 120.678C146.46 120.005 146.036 118.098 146.46 116.976C146.883 115.854 147.73 115.854 148.154 115.742C148.577 115.63 150.165 115.742 150.165 115.742C150.165 115.742 151.224 114.733 152.812 115.405C154.4 116.079 157.047 120.117 157.047 120.117C157.047 120.117 159.588 120.902 163.611 120.229C167.634 119.556 176.738 117.537 176.738 117.537L173.139 93.6425" fill="#1C4F75"/>
<path d="M179.068 76.0308C179.068 76.0308 186.267 79.3962 187.22 81.3031C188.172 83.2099 190.078 124.829 190.184 126.063C190.29 127.297 189.337 127.745 188.808 127.857C188.279 127.969 154.506 127.745 153.553 127.745C152.6 127.745 150.271 127.521 148.895 126.848C147.519 126.175 146.46 126.399 146.354 124.604C146.248 122.81 146.46 121.351 146.46 120.678C146.46 120.005 146.036 118.098 146.46 116.976C146.883 115.854 147.73 115.854 148.154 115.742C148.577 115.63 150.165 115.742 150.165 115.742C150.165 115.742 151.224 114.733 152.812 115.405C154.4 116.079 157.047 120.117 157.047 120.117C157.047 120.117 159.588 120.902 163.611 120.229C167.634 119.556 176.738 117.537 176.738 117.537L173.139 93.6425" stroke="#263238" stroke-width="0.404017" stroke-miterlimit="10" stroke-linecap="round" stroke-linejoin="round"/>
<path d="M176.739 117.538L177.268 121.576" stroke="#263238" stroke-width="0.404017" stroke-miterlimit="10" stroke-linecap="round" stroke-linejoin="round"/>
<path d="M159.478 127.78C158.368 123.882 159.256 121.653 160.134 120.498C158.184 120.466 157.047 120.118 157.047 120.118C157.047 120.118 154.4 116.079 152.812 115.406C151.224 114.733 150.165 115.743 150.165 115.743C150.165 115.743 148.577 115.631 148.154 115.743C147.73 115.855 146.883 115.855 146.46 116.977C146.036 118.099 146.46 120.006 146.46 120.679C146.46 121.352 146.248 122.81 146.354 124.605C146.46 126.4 147.519 126.176 148.895 126.849C150.271 127.522 152.6 127.746 153.553 127.746C153.793 127.746 156.122 127.76 159.478 127.78Z" fill="white" stroke="#263238" stroke-width="0.404017" stroke-miterlimit="10" stroke-linecap="round" stroke-linejoin="round"/>
<path d="M96.3793 126.001H51.7518L44.0731 92.5562H88.7006L96.3793 126.001Z" fill="#1C4F75" stroke="#263238" stroke-width="0.404017" stroke-miterlimit="10" stroke-linecap="round" stroke-linejoin="round"/>
<path d="M75.5496 109.921C75.5496 110.955 72.6675 111.794 69.1124 111.794C65.5573 111.794 62.6752 110.955 62.6752 109.921C62.6752 108.887 65.5573 108.049 69.1124 108.049C72.6675 108.049 75.5496 108.887 75.5496 109.921Z" fill="#1C4F75" stroke="#263238" stroke-width="0.404017" stroke-miterlimit="10" stroke-linecap="round" stroke-linejoin="round"/>
<path d="M124.868 126H51.7518V128.121H124.868V126Z" fill="#1C4F75" stroke="#263238" stroke-width="0.404017" stroke-miterlimit="10" stroke-linecap="round" stroke-linejoin="round"/>
<path d="M124.868 126H97.0048V128.121H124.868V126Z" fill="#1C4F75" stroke="#263238" stroke-width="0.404017" stroke-miterlimit="10" stroke-linecap="round" stroke-linejoin="round"/>
<path d="M101.576 126.605H99.1655V127.069H101.576V126.605Z" fill="#1C4F75" stroke="#263238" stroke-width="0.404017" stroke-miterlimit="10" stroke-linecap="round" stroke-linejoin="round"/>
<path d="M107.712 126.605H105.301V127.069H107.712V126.605Z" fill="#1C4F75" stroke="#263238" stroke-width="0.404017" stroke-miterlimit="10" stroke-linecap="round" stroke-linejoin="round"/>
<path d="M223.593 128.122H0.407104" stroke="#263238" stroke-width="0.404017" stroke-miterlimit="10" stroke-linecap="round" stroke-linejoin="round"/>
</svg>
