<svg width="437" height="308" viewBox="0 0 437 308" fill="none" xmlns="http://www.w3.org/2000/svg">
<g clip-path="url(#clip0_758_9063)">
<path d="M409.341 131.783C409.341 131.783 368.693 51.0255 307.085 20.0684C245.477 -10.8887 171.167 -4.15873 134.964 30.1633C98.7622 64.4854 108.289 88.0395 51.1275 149.28C-6.03451 210.52 4.763 290.605 98.7622 303.392C192.761 316.178 194.032 291.278 272.788 296.662C351.544 302.046 416.328 308.776 432.206 260.994C448.084 213.212 409.341 131.783 409.341 131.783Z" fill="#1C4F75"/>
<path opacity="0.7" d="M409.341 131.783C409.341 131.783 368.693 51.0255 307.085 20.0684C245.477 -10.8887 171.167 -4.15873 134.964 30.1633C98.7622 64.4854 108.289 88.0395 51.1275 149.28C-6.03451 210.52 4.763 290.605 98.7622 303.392C192.761 316.178 194.032 291.278 272.788 296.662C351.544 302.046 416.328 308.776 432.206 260.994C448.084 213.212 409.341 131.783 409.341 131.783Z" fill="white"/>
<g opacity="0.3">
<path d="M432.054 161.812H376.172V216.135H432.054V161.812Z" stroke="black" stroke-width="0.733101" stroke-miterlimit="10" stroke-linecap="round" stroke-linejoin="round"/>
<path d="M385.314 183.943H380.107V189.459H385.314V183.943Z" stroke="black" stroke-width="0.733101" stroke-miterlimit="10" stroke-linecap="round" stroke-linejoin="round"/>
<path d="M392.447 183.943H387.241V189.459H392.447V183.943Z" stroke="black" stroke-width="0.733101" stroke-miterlimit="10" stroke-linecap="round" stroke-linejoin="round"/>
<path d="M399.582 183.943H394.375V189.459H399.582V183.943Z" stroke="black" stroke-width="0.733101" stroke-miterlimit="10" stroke-linecap="round" stroke-linejoin="round"/>
<path d="M406.716 183.943H401.51V189.459H406.716V183.943Z" stroke="black" stroke-width="0.733101" stroke-miterlimit="10" stroke-linecap="round" stroke-linejoin="round"/>
<path d="M413.85 183.943H408.643V189.459H413.85V183.943Z" stroke="black" stroke-width="0.733101" stroke-miterlimit="10" stroke-linecap="round" stroke-linejoin="round"/>
<path d="M420.984 183.943H415.778V189.459H420.984V183.943Z" stroke="black" stroke-width="0.733101" stroke-miterlimit="10" stroke-linecap="round" stroke-linejoin="round"/>
<path d="M428.118 183.943H422.912V189.459H428.118V183.943Z" stroke="black" stroke-width="0.733101" stroke-miterlimit="10" stroke-linecap="round" stroke-linejoin="round"/>
<path d="M385.314 193.117H380.107V198.633H385.314V193.117Z" stroke="black" stroke-width="0.733101" stroke-miterlimit="10" stroke-linecap="round" stroke-linejoin="round"/>
<path d="M392.447 193.117H387.241V198.633H392.447V193.117Z" stroke="black" stroke-width="0.733101" stroke-miterlimit="10" stroke-linecap="round" stroke-linejoin="round"/>
<path d="M399.582 193.117H394.375V198.633H399.582V193.117Z" stroke="black" stroke-width="0.733101" stroke-miterlimit="10" stroke-linecap="round" stroke-linejoin="round"/>
<path d="M406.716 193.117H401.51V198.633H406.716V193.117Z" stroke="black" stroke-width="0.733101" stroke-miterlimit="10" stroke-linecap="round" stroke-linejoin="round"/>
<path d="M413.85 193.117H408.643V198.633H413.85V193.117Z" stroke="black" stroke-width="0.733101" stroke-miterlimit="10" stroke-linecap="round" stroke-linejoin="round"/>
<path d="M420.984 193.117H415.778V198.633H420.984V193.117Z" stroke="black" stroke-width="0.733101" stroke-miterlimit="10" stroke-linecap="round" stroke-linejoin="round"/>
<path d="M428.118 193.117H422.912V198.633H428.118V193.117Z" stroke="black" stroke-width="0.733101" stroke-miterlimit="10" stroke-linecap="round" stroke-linejoin="round"/>
<path d="M385.314 202.291H380.107V207.807H385.314V202.291Z" stroke="black" stroke-width="0.733101" stroke-miterlimit="10" stroke-linecap="round" stroke-linejoin="round"/>
<path d="M392.447 202.291H387.241V207.807H392.447V202.291Z" stroke="black" stroke-width="0.733101" stroke-miterlimit="10" stroke-linecap="round" stroke-linejoin="round"/>
<path d="M399.582 202.291H394.375V207.807H399.582V202.291Z" stroke="black" stroke-width="0.733101" stroke-miterlimit="10" stroke-linecap="round" stroke-linejoin="round"/>
<path d="M406.716 202.291H401.51V207.807H406.716V202.291Z" stroke="black" stroke-width="0.733101" stroke-miterlimit="10" stroke-linecap="round" stroke-linejoin="round"/>
<path d="M413.85 202.291H408.643V207.807H413.85V202.291Z" stroke="black" stroke-width="0.733101" stroke-miterlimit="10" stroke-linecap="round" stroke-linejoin="round"/>
<path d="M420.984 202.291H415.778V207.807H420.984V202.291Z" stroke="black" stroke-width="0.733101" stroke-miterlimit="10" stroke-linecap="round" stroke-linejoin="round"/>
<path d="M428.118 202.291H422.912V207.807H428.118V202.291Z" stroke="black" stroke-width="0.733101" stroke-miterlimit="10" stroke-linecap="round" stroke-linejoin="round"/>
<path d="M389.158 155.011H385.748V164.463H389.158V155.011Z" fill="black"/>
<path d="M405.818 155.011H402.407V164.463H405.818V155.011Z" fill="black"/>
<path d="M422.477 155.011H419.067V164.463H422.477V155.011Z" fill="black"/>
<path d="M428.497 170.856H380.748V180.03H428.497V170.856Z" stroke="black" stroke-width="0.733101" stroke-miterlimit="10" stroke-linecap="round" stroke-linejoin="round"/>
</g>
<g opacity="0.3">
<path d="M370.001 73.1647C381.16 61.341 381.16 42.171 370.001 30.3473C358.843 18.5236 340.751 18.5236 329.592 30.3473C318.433 42.171 318.433 61.341 329.592 73.1647C340.751 84.9884 358.843 84.9884 370.001 73.1647Z" stroke="black" stroke-width="0.733101" stroke-miterlimit="10" stroke-linecap="round" stroke-linejoin="round"/>
<path d="M366.935 69.9158C376.401 59.8864 376.401 43.6256 366.935 33.5962C357.47 23.5668 342.123 23.5668 332.658 33.5962C323.193 43.6256 323.193 59.8864 332.658 69.9158C342.123 79.9452 357.47 79.9452 366.935 69.9158Z" stroke="black" stroke-width="0.733101" stroke-miterlimit="10" stroke-linecap="round" stroke-linejoin="round"/>
<path d="M352.137 51.7541C352.137 53.1221 351.09 54.2303 349.8 54.2303C348.509 54.2303 347.463 53.1221 347.463 51.7541C347.463 50.3869 348.509 49.278 349.8 49.278C351.09 49.278 352.137 50.3862 352.137 51.7541Z" stroke="black" stroke-width="0.733101" stroke-miterlimit="10" stroke-linecap="round" stroke-linejoin="round"/>
<path d="M348.041 53.6904L340.705 60.4131" stroke="black" stroke-width="0.733101" stroke-miterlimit="10" stroke-linecap="round" stroke-linejoin="round"/>
<path d="M352.137 51.754H371.039" stroke="black" stroke-width="0.733101" stroke-miterlimit="10" stroke-linecap="round" stroke-linejoin="round"/>
</g>
<g opacity="0.3">
<path d="M136.372 250.598H57.6372V8.80823H136.371L136.372 250.598ZM218.274 8.80823H139.54V250.599H218.274V8.80823ZM300.176 8.80823H221.441V250.599H300.176V8.80823Z" stroke="black" stroke-width="0.733101" stroke-miterlimit="10" stroke-linecap="round" stroke-linejoin="round"/>
<path d="M57.6378 73.347C60.4338 74.0712 67.1719 70.26 80.8759 36.3835C85.4946 24.9718 90.3548 15.9376 95.0839 8.8053" stroke="black" stroke-width="0.733101" stroke-miterlimit="10" stroke-linecap="round" stroke-linejoin="round"/>
<path d="M221.444 145.394C226.09 151.627 231.164 159.103 236.729 168.269C255.797 199.702 267.347 228.933 274.175 250.594" stroke="black" stroke-width="0.733101" stroke-miterlimit="10" stroke-linecap="round" stroke-linejoin="round"/>
<path d="M172.006 8.8053C168.602 23.2016 166.793 43.3402 171.792 68.4971C180.705 113.39 192.565 108.431 218.275 141.254" stroke="black" stroke-width="0.733101" stroke-miterlimit="10" stroke-linecap="round" stroke-linejoin="round"/>
<path d="M57.6363 167.362C62.4827 159.352 67.3706 148.364 71.6786 133.288C87.9094 76.5219 126.874 53.011 126.874 105.768C126.874 158.518 102.621 186.293 101.979 222.738C101.779 233.93 103.54 243.161 106.08 250.594" stroke="black" stroke-width="0.733101" stroke-miterlimit="10" stroke-linecap="round" stroke-linejoin="round"/>
<path d="M185.227 250.594C177.135 211.618 175.202 170.31 185.862 166.542C196.997 162.614 207.878 216.417 213.615 250.594" stroke="black" stroke-width="0.733101" stroke-miterlimit="10" stroke-linecap="round" stroke-linejoin="round"/>
<path d="M261.078 8.8053C243.391 47.4879 214.188 117.297 232.939 118.957C247.878 120.274 277.503 84.6051 300.175 53.7351" stroke="black" stroke-width="0.733101" stroke-miterlimit="10" stroke-linecap="round" stroke-linejoin="round"/>
<path d="M211.939 43.87C214.046 34.3103 208.44 24.7509 199.418 22.5185C190.396 20.2862 181.374 26.2262 179.267 35.7859C177.16 45.3456 182.766 54.905 191.789 57.1374C200.811 59.3698 209.832 53.4298 211.939 43.87Z" stroke="black" stroke-width="0.733101" stroke-miterlimit="10" stroke-linecap="round" stroke-linejoin="round"/>
<path d="M271.361 75.9491C271.361 78.1656 269.665 79.963 267.573 79.963C265.481 79.963 263.785 78.1664 263.785 75.9491C263.785 73.7326 265.481 71.9353 267.573 71.9353C269.665 71.9353 271.361 73.7326 271.361 75.9491Z" stroke="black" stroke-width="0.733101" stroke-miterlimit="10" stroke-linecap="round" stroke-linejoin="round"/>
<path d="M83.8534 182.6C87.2903 182.6 90.0765 179.648 90.0765 176.006C90.0765 172.364 87.2903 169.412 83.8534 169.412C80.4165 169.412 77.6303 172.364 77.6303 176.006C77.6303 179.648 80.4165 182.6 83.8534 182.6Z" stroke="black" stroke-width="0.733101" stroke-miterlimit="10" stroke-linecap="round" stroke-linejoin="round"/>
<path d="M103.335 34.0915C105.577 34.0915 107.394 32.1661 107.394 29.7909C107.394 27.4158 105.577 25.4904 103.335 25.4904C101.094 25.4904 99.2765 27.4158 99.2765 29.7909C99.2765 32.1661 101.094 34.0915 103.335 34.0915Z" stroke="black" stroke-width="0.733101" stroke-miterlimit="10" stroke-linecap="round" stroke-linejoin="round"/>
<path d="M160.77 133.909C164.08 132.446 165.644 128.417 164.264 124.91C162.884 121.402 159.081 119.745 155.771 121.207C152.461 122.67 150.896 126.699 152.277 130.207C153.657 133.714 157.46 135.372 160.77 133.909Z" stroke="black" stroke-width="0.733101" stroke-miterlimit="10" stroke-linecap="round" stroke-linejoin="round"/>
<path d="M270.549 188.334C278.768 188.334 285.431 181.275 285.431 172.566C285.431 163.857 278.768 156.797 270.549 156.797C262.33 156.797 255.667 163.857 255.667 172.566C255.667 181.275 262.33 188.334 270.549 188.334Z" stroke="black" stroke-width="0.733101" stroke-miterlimit="10" stroke-linecap="round" stroke-linejoin="round"/>
</g>
<path d="M329.585 102.142H366.134C370.571 102.142 374.169 105.953 374.169 110.655V140.039C374.169 144.742 370.571 148.553 366.134 148.553H335.929L322.109 161.34L328.761 148.508C324.711 148.071 321.55 144.446 321.55 140.039V110.655C321.55 105.954 325.148 102.142 329.585 102.142Z" fill="white" stroke="#263238" stroke-width="0.733101" stroke-miterlimit="10" stroke-linecap="round" stroke-linejoin="round"/>
<path d="M343.294 133.136V127.418C344.587 126.316 345.753 125.124 346.794 123.844C347.834 122.563 348.656 121.201 349.261 119.756C349.865 118.312 350.167 116.785 350.167 115.177C350.167 114.016 349.95 113.144 349.513 112.564C349.078 111.983 348.424 111.692 347.553 111.692C346.794 111.692 346.189 111.931 345.74 112.407C345.29 112.884 345.065 113.524 345.065 114.328C345.065 114.804 345.114 115.221 345.213 115.579C345.312 115.937 345.417 116.324 345.529 116.741L339.753 118.125C339.557 117.471 339.401 116.823 339.289 116.182C339.177 115.542 339.12 114.894 339.12 114.239C339.12 111.648 339.858 109.616 341.334 108.141C342.81 106.667 344.924 105.929 347.679 105.929C350.49 105.929 352.654 106.719 354.171 108.297C355.689 109.876 356.448 112.125 356.448 115.043C356.448 116.89 356.153 118.617 355.563 120.225C354.974 121.834 354.123 123.346 353.013 124.76C351.902 126.175 350.589 127.508 349.071 128.759V133.136H343.294ZM343.084 142.562V136.085H349.323V142.562H343.084Z" fill="#263238"/>
<path d="M153.059 45.3116H103.426C98.9886 45.3116 95.3917 49.1228 95.3917 53.825V83.2093C95.3917 87.9115 98.9886 91.7227 103.426 91.7227H146.716L160.535 104.51L153.884 91.6781C157.934 91.2407 161.094 87.616 161.094 83.2093V53.825C161.094 49.1228 157.497 45.3116 153.059 45.3116Z" fill="white" stroke="#263238" stroke-width="0.733101" stroke-miterlimit="10" stroke-linecap="round" stroke-linejoin="round"/>
<path d="M118.41 69.4642C118.41 67.6332 117.009 66.1489 115.281 66.1489C113.553 66.1489 112.152 67.6332 112.152 69.4642C112.152 71.2951 113.553 72.7794 115.281 72.7794C117.009 72.7794 118.41 71.2951 118.41 69.4642Z" fill="#263238" stroke="#263238" stroke-width="0.733101" stroke-miterlimit="10" stroke-linecap="round" stroke-linejoin="round"/>
<path d="M131.371 69.4642C131.371 67.6332 129.971 66.1489 128.243 66.1489C126.515 66.1489 125.114 67.6332 125.114 69.4642C125.114 71.2951 126.515 72.7794 128.243 72.7794C129.971 72.7794 131.371 71.2951 131.371 69.4642Z" fill="#263238" stroke="#263238" stroke-width="0.733101" stroke-miterlimit="10" stroke-linecap="round" stroke-linejoin="round"/>
<path d="M144.333 69.4642C144.333 67.6332 142.933 66.1489 141.204 66.1489C139.476 66.1489 138.076 67.6332 138.076 69.4642C138.076 71.2951 139.476 72.7794 141.204 72.7794C142.933 72.7794 144.333 71.2951 144.333 69.4642Z" fill="#263238" stroke="#263238" stroke-width="0.733101" stroke-miterlimit="10" stroke-linecap="round" stroke-linejoin="round"/>
<path d="M15.7213 163.315L26.9255 277.069" stroke="#263238" stroke-width="0.733101" stroke-miterlimit="10" stroke-linecap="round" stroke-linejoin="round"/>
<path d="M26.6983 274.971L20.991 268.614" stroke="#263238" stroke-width="0.733101" stroke-miterlimit="10" stroke-linecap="round" stroke-linejoin="round"/>
<path d="M22.8737 270.692C22.8737 270.692 23.0511 267.624 20.4069 265.122C18.8163 263.616 10.4441 259.885 9.65013 263.009C8.78647 266.407 17.3555 273.08 22.8737 270.692Z" fill="#1C4F75" stroke="#263238" stroke-width="0.733101" stroke-miterlimit="10" stroke-linecap="round" stroke-linejoin="round"/>
<path d="M22.8736 270.692L14.9039 265.429" stroke="#263238" stroke-width="0.733101" stroke-miterlimit="10" stroke-linecap="round" stroke-linejoin="round"/>
<path d="M22.8254 235.46L17.1974 230.095" stroke="#263238" stroke-width="0.733101" stroke-miterlimit="10" stroke-linecap="round" stroke-linejoin="round"/>
<path d="M19.08 232.173C19.08 232.173 19.2574 229.105 16.6133 226.603C15.0227 225.097 6.65043 221.366 5.85649 224.49C4.99214 227.888 13.5618 234.562 19.08 232.173Z" fill="#1C4F75" stroke="#263238" stroke-width="0.733101" stroke-miterlimit="10" stroke-linecap="round" stroke-linejoin="round"/>
<path d="M19.08 232.173L11.1103 226.911" stroke="#263238" stroke-width="0.733101" stroke-miterlimit="10" stroke-linecap="round" stroke-linejoin="round"/>
<path d="M24.3938 252.245L18.752 245.88" stroke="#263238" stroke-width="0.733101" stroke-miterlimit="10" stroke-linecap="round" stroke-linejoin="round"/>
<path d="M20.6347 247.958C20.6347 247.958 20.8122 244.89 18.168 242.388C16.5774 240.882 8.20515 237.151 7.41121 240.275C6.54755 243.674 15.1165 250.346 20.6347 247.958Z" fill="#1C4F75" stroke="#263238" stroke-width="0.733101" stroke-miterlimit="10" stroke-linecap="round" stroke-linejoin="round"/>
<path d="M20.6347 247.958L12.665 242.696" stroke="#263238" stroke-width="0.733101" stroke-miterlimit="10" stroke-linecap="round" stroke-linejoin="round"/>
<path d="M20.3172 210.551L14.6719 204.453" stroke="#263238" stroke-width="0.733101" stroke-miterlimit="10" stroke-linecap="round" stroke-linejoin="round"/>
<path d="M16.5546 206.532C16.5546 206.532 16.732 203.464 14.0879 200.962C12.4972 199.456 4.125 195.725 3.33037 198.849C2.46671 202.246 11.0357 208.92 16.5546 206.532Z" fill="#1C4F75" stroke="#263238" stroke-width="0.733101" stroke-miterlimit="10" stroke-linecap="round" stroke-linejoin="round"/>
<path d="M16.5546 206.532L8.58487 201.269" stroke="#263238" stroke-width="0.733101" stroke-miterlimit="10" stroke-linecap="round" stroke-linejoin="round"/>
<path d="M17.5992 183.129L12.1355 178.7" stroke="#263238" stroke-width="0.733101" stroke-miterlimit="10" stroke-linecap="round" stroke-linejoin="round"/>
<path d="M14.0181 180.778C14.0181 180.778 14.1956 177.71 11.5514 175.208C9.96078 173.702 1.58856 169.971 0.793932 173.095C-0.0697319 176.492 8.49925 183.166 14.0181 180.778Z" fill="#1C4F75" stroke="#263238" stroke-width="0.733101" stroke-miterlimit="10" stroke-linecap="round" stroke-linejoin="round"/>
<path d="M14.0181 180.778L6.0477 175.515" stroke="#263238" stroke-width="0.733101" stroke-miterlimit="10" stroke-linecap="round" stroke-linejoin="round"/>
<path d="M26.1467 266.21L30.8592 258.068" stroke="#263238" stroke-width="0.733101" stroke-miterlimit="10" stroke-linecap="round" stroke-linejoin="round"/>
<path d="M29.4218 260.513C29.4218 260.513 28.6507 257.55 30.7501 254.523C32.0135 252.703 39.4772 247.22 40.8635 250.102C42.3706 253.238 35.2866 261.643 29.4218 260.513Z" fill="#1C4F75" stroke="#263238" stroke-width="0.733101" stroke-miterlimit="10" stroke-linecap="round" stroke-linejoin="round"/>
<path d="M29.4219 260.513L35.0291 254.938" stroke="#263238" stroke-width="0.733101" stroke-miterlimit="10" stroke-linecap="round" stroke-linejoin="round"/>
<path d="M22.0555 224.671L26.7681 216.529" stroke="#263238" stroke-width="0.733101" stroke-miterlimit="10" stroke-linecap="round" stroke-linejoin="round"/>
<path d="M25.33 218.974C25.33 218.974 24.5589 216.01 26.6583 212.984C27.9217 211.163 33.7609 206.602 35.1472 209.485C36.655 212.621 31.1955 220.104 25.33 218.974Z" fill="#1C4F75" stroke="#263238" stroke-width="0.733101" stroke-miterlimit="10" stroke-linecap="round" stroke-linejoin="round"/>
<path d="M25.33 218.974L32.5072 211.706" stroke="#263238" stroke-width="0.733101" stroke-miterlimit="10" stroke-linecap="round" stroke-linejoin="round"/>
<path d="M20.2578 206.417L24.9696 198.274" stroke="#263238" stroke-width="0.733101" stroke-miterlimit="10" stroke-linecap="round" stroke-linejoin="round"/>
<path d="M23.5323 200.72C23.5323 200.72 22.7611 197.756 24.8606 194.73C26.1233 192.909 33.5877 187.426 34.9739 190.309C36.4817 193.445 29.3978 201.849 23.5323 200.72Z" fill="#1C4F75" stroke="#263238" stroke-width="0.733101" stroke-miterlimit="10" stroke-linecap="round" stroke-linejoin="round"/>
<path d="M23.5323 200.719L30.7095 193.451" stroke="#263238" stroke-width="0.733101" stroke-miterlimit="10" stroke-linecap="round" stroke-linejoin="round"/>
<path d="M17.6219 179.655L22.3338 171.512" stroke="#263238" stroke-width="0.733101" stroke-miterlimit="10" stroke-linecap="round" stroke-linejoin="round"/>
<path d="M20.8964 173.958C20.8964 173.958 20.1252 170.994 22.2247 167.968C23.4874 166.147 30.9517 160.665 32.338 163.548C33.8458 166.683 26.7618 175.088 20.8964 173.958Z" fill="#1C4F75" stroke="#263238" stroke-width="0.733101" stroke-miterlimit="10" stroke-linecap="round" stroke-linejoin="round"/>
<path d="M20.8964 173.958L28.0735 166.689" stroke="#263238" stroke-width="0.733101" stroke-miterlimit="10" stroke-linecap="round" stroke-linejoin="round"/>
<path d="M15.606 162.545C15.606 162.545 14.8348 159.581 16.9343 156.555C18.197 154.734 25.6614 149.251 27.0476 152.135C28.5554 155.27 21.4715 163.674 15.606 162.545Z" fill="#1C4F75" stroke="#263238" stroke-width="0.733101" stroke-miterlimit="10" stroke-linecap="round" stroke-linejoin="round"/>
<path d="M15.606 162.545L22.7832 155.276" stroke="#263238" stroke-width="0.733101" stroke-miterlimit="10" stroke-linecap="round" stroke-linejoin="round"/>
<path d="M16.0223 162.858C16.0223 162.858 13.1607 163.36 10.54 160.831C8.96316 159.308 4.59997 150.868 7.45123 149.71C10.5524 148.45 17.6971 156.796 16.0223 162.858Z" fill="#1C4F75" stroke="#263238" stroke-width="0.733101" stroke-miterlimit="10" stroke-linecap="round" stroke-linejoin="round"/>
<path d="M16.0223 162.859L9.95316 154.534" stroke="#263238" stroke-width="0.733101" stroke-miterlimit="10" stroke-linecap="round" stroke-linejoin="round"/>
<path d="M36.2 125.908V277.368" stroke="#263238" stroke-width="0.733101" stroke-miterlimit="10" stroke-linecap="round" stroke-linejoin="round"/>
<path d="M51.7777 182.429L42.4072 276.891" stroke="#263238" stroke-width="0.733101" stroke-miterlimit="10" stroke-linecap="round" stroke-linejoin="round"/>
<path d="M44.896 253.247L40.2284 249.115" stroke="#263238" stroke-width="0.733101" stroke-miterlimit="10" stroke-linecap="round" stroke-linejoin="round"/>
<path d="M41.6837 250.545C41.6837 250.545 42.4535 247.581 40.3527 244.556C39.0886 242.736 31.6214 237.257 30.2365 240.141C28.7308 243.278 35.8189 251.678 41.6837 250.545Z" fill="#1C4F75" stroke="#263238" stroke-width="0.733101" stroke-miterlimit="10" stroke-linecap="round" stroke-linejoin="round"/>
<path d="M41.6837 250.545L34.9069 243.656" stroke="#263238" stroke-width="0.733101" stroke-miterlimit="10" stroke-linecap="round" stroke-linejoin="round"/>
<path d="M43.1576 270.688L38.6991 263.887" stroke="#263238" stroke-width="0.733101" stroke-miterlimit="10" stroke-linecap="round" stroke-linejoin="round"/>
<path d="M40.1379 266.331C40.1379 266.331 40.9077 263.368 38.8062 260.343C37.5421 258.523 30.0749 253.044 28.69 255.928C27.185 259.065 34.2731 267.465 40.1379 266.331Z" fill="#1C4F75" stroke="#263238" stroke-width="0.733101" stroke-miterlimit="10" stroke-linecap="round" stroke-linejoin="round"/>
<path d="M40.1379 266.331L33.3611 259.443" stroke="#263238" stroke-width="0.733101" stroke-miterlimit="10" stroke-linecap="round" stroke-linejoin="round"/>
<path d="M47.2598 227.955L42.7565 222.457" stroke="#263238" stroke-width="0.733101" stroke-miterlimit="10" stroke-linecap="round" stroke-linejoin="round"/>
<path d="M44.1953 224.902C44.1953 224.902 44.9651 221.938 42.8642 218.913C41.6001 217.093 34.133 211.614 32.7481 214.498C31.2417 217.635 38.3305 226.035 44.1953 224.902Z" fill="#1C4F75" stroke="#263238" stroke-width="0.733101" stroke-miterlimit="10" stroke-linecap="round" stroke-linejoin="round"/>
<path d="M44.1953 224.902L37.4185 218.013" stroke="#263238" stroke-width="0.733101" stroke-miterlimit="10" stroke-linecap="round" stroke-linejoin="round"/>
<path d="M49.623 203.851L45.2785 196.702" stroke="#263238" stroke-width="0.733101" stroke-miterlimit="10" stroke-linecap="round" stroke-linejoin="round"/>
<path d="M46.7172 199.147C46.7172 199.147 47.487 196.183 45.3855 193.158C44.1214 191.338 36.6543 185.859 35.2694 188.743C33.7644 191.88 40.8525 200.28 46.7172 199.147Z" fill="#1C4F75" stroke="#263238" stroke-width="0.733101" stroke-miterlimit="10" stroke-linecap="round" stroke-linejoin="round"/>
<path d="M46.7173 199.147L39.9405 192.258" stroke="#263238" stroke-width="0.733101" stroke-miterlimit="10" stroke-linecap="round" stroke-linejoin="round"/>
<path d="M46.0531 243.852L52.2465 236.913" stroke="#263238" stroke-width="0.733101" stroke-miterlimit="10" stroke-linecap="round" stroke-linejoin="round"/>
<path d="M50.3652 238.992C50.3652 238.992 50.1864 235.924 52.8285 233.421C54.4185 231.915 62.7879 228.178 63.5846 231.302C64.4503 234.698 55.8848 241.377 50.3652 238.992Z" fill="#1C4F75" stroke="#263238" stroke-width="0.733101" stroke-miterlimit="10" stroke-linecap="round" stroke-linejoin="round"/>
<path d="M50.3653 238.992L58.8003 233.445" stroke="#263238" stroke-width="0.733101" stroke-miterlimit="10" stroke-linecap="round" stroke-linejoin="round"/>
<path d="M47.8412 225.597L54.0346 218.657" stroke="#263238" stroke-width="0.733101" stroke-miterlimit="10" stroke-linecap="round" stroke-linejoin="round"/>
<path d="M52.1526 220.737C52.1526 220.737 51.9738 217.669 54.6159 215.165C56.2058 213.659 64.5753 209.921 65.372 213.045C66.2384 216.443 57.6729 223.121 52.1526 220.737Z" fill="#1C4F75" stroke="#263238" stroke-width="0.733101" stroke-miterlimit="10" stroke-linecap="round" stroke-linejoin="round"/>
<path d="M52.1526 220.737L60.5876 215.19" stroke="#263238" stroke-width="0.733101" stroke-miterlimit="10" stroke-linecap="round" stroke-linejoin="round"/>
<path d="M50.3908 197.466L56.6553 191.894" stroke="#263238" stroke-width="0.733101" stroke-miterlimit="10" stroke-linecap="round" stroke-linejoin="round"/>
<path d="M54.774 193.973C54.774 193.973 54.5952 190.905 57.2373 188.401C58.8272 186.895 67.1967 183.158 67.9934 186.281C68.8591 189.679 60.2936 196.359 54.774 193.973Z" fill="#1C4F75" stroke="#263238" stroke-width="0.733101" stroke-miterlimit="10" stroke-linecap="round" stroke-linejoin="round"/>
<path d="M54.774 193.974L63.2091 188.427" stroke="#263238" stroke-width="0.733101" stroke-miterlimit="10" stroke-linecap="round" stroke-linejoin="round"/>
<path d="M51.8143 181.65C51.8143 181.65 51.6355 178.582 54.2776 176.078C55.8675 174.572 64.237 170.835 65.0337 173.959C65.8994 177.356 57.3346 184.036 51.8143 181.65Z" fill="#1C4F75" stroke="#263238" stroke-width="0.733101" stroke-miterlimit="10" stroke-linecap="round" stroke-linejoin="round"/>
<path d="M51.8143 181.65L60.2501 176.104" stroke="#263238" stroke-width="0.733101" stroke-miterlimit="10" stroke-linecap="round" stroke-linejoin="round"/>
<path d="M52.1602 182.048C52.1602 182.048 49.262 181.915 47.1895 178.868C45.9426 177.035 43.3123 167.823 46.3279 167.312C49.6079 166.755 54.9776 176.481 52.1602 182.048Z" fill="#1C4F75" stroke="#263238" stroke-width="0.733101" stroke-miterlimit="10" stroke-linecap="round" stroke-linejoin="round"/>
<path d="M52.1602 182.048L47.8391 172.578" stroke="#263238" stroke-width="0.733101" stroke-miterlimit="10" stroke-linecap="round" stroke-linejoin="round"/>
<path d="M35.9743 274.72L30.8475 267.464" stroke="#263238" stroke-width="0.733101" stroke-miterlimit="10" stroke-linecap="round" stroke-linejoin="round"/>
<path d="M32.5168 269.737C32.5168 269.737 32.9939 266.705 30.6093 263.926C29.1747 262.254 21.2133 257.622 20.1176 260.642C18.9247 263.926 26.7936 271.506 32.5168 269.737Z" fill="#1C4F75" stroke="#263238" stroke-width="0.733101" stroke-miterlimit="10" stroke-linecap="round" stroke-linejoin="round"/>
<path d="M32.5168 269.737L25.1049 263.627" stroke="#263238" stroke-width="0.733101" stroke-miterlimit="10" stroke-linecap="round" stroke-linejoin="round"/>
<path d="M36.1524 239.714L30.8475 234.478" stroke="#263238" stroke-width="0.733101" stroke-miterlimit="10" stroke-linecap="round" stroke-linejoin="round"/>
<path d="M32.5168 236.751C32.5168 236.751 32.9939 233.719 30.6093 230.94C29.1747 229.268 21.2133 224.636 20.1176 227.655C18.9247 230.94 26.7936 238.52 32.5168 236.751Z" fill="#1C4F75" stroke="#263238" stroke-width="0.733101" stroke-miterlimit="10" stroke-linecap="round" stroke-linejoin="round"/>
<path d="M32.5168 236.751L25.1049 230.641" stroke="#263238" stroke-width="0.733101" stroke-miterlimit="10" stroke-linecap="round" stroke-linejoin="round"/>
<path d="M36.3319 203.33L30.8475 195.75" stroke="#263238" stroke-width="0.733101" stroke-miterlimit="10" stroke-linecap="round" stroke-linejoin="round"/>
<path d="M32.5168 198.024C32.5168 198.024 32.9939 194.992 30.6093 192.213C29.1747 190.541 21.2133 185.909 20.1176 188.928C18.9247 192.213 26.7936 199.793 32.5168 198.024Z" fill="#1C4F75" stroke="#263238" stroke-width="0.733101" stroke-miterlimit="10" stroke-linecap="round" stroke-linejoin="round"/>
<path d="M32.5168 198.024L25.1049 191.913" stroke="#263238" stroke-width="0.733101" stroke-miterlimit="10" stroke-linecap="round" stroke-linejoin="round"/>
<path d="M35.9743 174.865L30.8475 169.969" stroke="#263238" stroke-width="0.733101" stroke-miterlimit="10" stroke-linecap="round" stroke-linejoin="round"/>
<path d="M32.5168 172.243C32.5168 172.243 32.9939 169.211 30.6093 166.432C29.1747 164.76 21.2133 160.127 20.1176 163.147C18.9247 166.431 26.7936 174.011 32.5168 172.243Z" fill="#1C4F75" stroke="#263238" stroke-width="0.733101" stroke-miterlimit="10" stroke-linecap="round" stroke-linejoin="round"/>
<path d="M32.5168 172.243L25.1049 166.132" stroke="#263238" stroke-width="0.733101" stroke-miterlimit="10" stroke-linecap="round" stroke-linejoin="round"/>
<path d="M36.2697 149.072L30.9524 144.94" stroke="#263238" stroke-width="0.733101" stroke-miterlimit="10" stroke-linecap="round" stroke-linejoin="round"/>
<path d="M32.5168 146.349C32.5168 146.349 32.9939 143.317 30.6093 140.538C29.1747 138.865 21.2133 134.233 20.1176 137.253C18.9247 140.538 26.7936 148.118 32.5168 146.349Z" fill="#1C4F75" stroke="#263238" stroke-width="0.733101" stroke-miterlimit="10" stroke-linecap="round" stroke-linejoin="round"/>
<path d="M32.5168 146.349L25.1049 140.238" stroke="#263238" stroke-width="0.733101" stroke-miterlimit="10" stroke-linecap="round" stroke-linejoin="round"/>
<path d="M36.211 232.654L41.6954 225.074" stroke="#263238" stroke-width="0.733101" stroke-miterlimit="10" stroke-linecap="round" stroke-linejoin="round"/>
<path d="M40.0261 227.347C40.0261 227.347 39.549 224.315 41.9336 221.536C43.3682 219.864 51.3297 215.231 52.4253 218.252C53.6183 221.536 45.7486 229.116 40.0261 227.347Z" fill="#1C4F75" stroke="#263238" stroke-width="0.733101" stroke-miterlimit="10" stroke-linecap="round" stroke-linejoin="round"/>
<path d="M40.0261 227.347L47.8764 220.908" stroke="#263238" stroke-width="0.733101" stroke-miterlimit="10" stroke-linecap="round" stroke-linejoin="round"/>
<path d="M36.211 206.761L41.6954 199.181" stroke="#263238" stroke-width="0.733101" stroke-miterlimit="10" stroke-linecap="round" stroke-linejoin="round"/>
<path d="M40.0261 201.454C40.0261 201.454 39.549 198.422 41.9336 195.643C43.3682 193.97 51.3297 189.338 52.4253 192.358C53.6183 195.643 45.7486 203.223 40.0261 201.454Z" fill="#1C4F75" stroke="#263238" stroke-width="0.733101" stroke-miterlimit="10" stroke-linecap="round" stroke-linejoin="round"/>
<path d="M40.0261 201.454L47.8764 195.015" stroke="#263238" stroke-width="0.733101" stroke-miterlimit="10" stroke-linecap="round" stroke-linejoin="round"/>
<path d="M36.211 172.536L41.6954 164.956" stroke="#263238" stroke-width="0.733101" stroke-miterlimit="10" stroke-linecap="round" stroke-linejoin="round"/>
<path d="M40.0261 167.229C40.0261 167.229 39.549 164.197 41.9336 161.418C43.3682 159.746 51.3297 155.113 52.4253 158.133C53.6183 161.419 45.7486 168.998 40.0261 167.229Z" fill="#1C4F75" stroke="#263238" stroke-width="0.733101" stroke-miterlimit="10" stroke-linecap="round" stroke-linejoin="round"/>
<path d="M40.0261 167.229L47.8764 160.79" stroke="#263238" stroke-width="0.733101" stroke-miterlimit="10" stroke-linecap="round" stroke-linejoin="round"/>
<path d="M36.4471 142.999L41.8238 138.554" stroke="#263238" stroke-width="0.733101" stroke-miterlimit="10" stroke-linecap="round" stroke-linejoin="round"/>
<path d="M40.0261 140.323C40.0261 140.323 39.549 137.291 41.9336 134.512C43.3682 132.839 51.3296 128.207 52.4253 131.227C53.6182 134.512 45.7486 142.092 40.0261 140.323Z" fill="#1C4F75" stroke="#263238" stroke-width="0.733101" stroke-miterlimit="10" stroke-linecap="round" stroke-linejoin="round"/>
<path d="M40.0261 140.322L47.8764 133.883" stroke="#263238" stroke-width="0.733101" stroke-miterlimit="10" stroke-linecap="round" stroke-linejoin="round"/>
<path d="M35.8825 128.389C35.8825 128.389 35.4054 125.357 37.79 122.578C39.2246 120.906 47.1853 116.274 48.2817 119.294C49.474 122.578 41.605 130.158 35.8825 128.389Z" fill="#1C4F75" stroke="#263238" stroke-width="0.733101" stroke-miterlimit="10" stroke-linecap="round" stroke-linejoin="round"/>
<path d="M35.8824 128.389L43.7321 121.95" stroke="#263238" stroke-width="0.733101" stroke-miterlimit="10" stroke-linecap="round" stroke-linejoin="round"/>
<path d="M36.2649 128.746C36.2649 128.746 33.3694 128.931 31.0104 126.127C29.5917 124.44 26.0784 115.565 29.0283 114.727C32.2365 113.814 38.5252 122.901 36.2649 128.746Z" fill="#1C4F75" stroke="#263238" stroke-width="0.733101" stroke-miterlimit="10" stroke-linecap="round" stroke-linejoin="round"/>
<path d="M36.265 128.746L31.0443 119.8" stroke="#263238" stroke-width="0.733101" stroke-miterlimit="10" stroke-linecap="round" stroke-linejoin="round"/>
<path d="M227.232 277.367L216.537 231.484L133.943 232.107C129.628 239.806 120.408 265.891 116.434 277.368H227.232V277.367Z" fill="#263238" stroke="#263238" stroke-width="0.733101" stroke-miterlimit="10" stroke-linecap="round" stroke-linejoin="round"/>
<path d="M280.441 208.672L286.764 209.82C286.764 209.82 299.772 208.863 300.856 208.863C301.94 208.863 309.709 215.563 309.709 215.563L296.52 215.371C296.52 215.371 287.125 218.242 283.873 218.242C280.621 218.242 276.646 214.222 276.646 214.222L280.441 208.672Z" fill="white" stroke="#263238" stroke-width="0.733101" stroke-miterlimit="10" stroke-linecap="round" stroke-linejoin="round"/>
<path d="M282.971 213.074C282.971 213.074 294.714 213.457 295.979 213.266C297.243 213.074 299.953 211.351 299.953 213.074C299.953 214.797 298.146 214.222 296.521 215.371C294.895 216.519 293.449 217.094 293.449 217.094C293.449 217.094 290.92 217.86 288.752 218.242C286.584 218.625 286.042 218.434 283.874 218.242C281.706 218.05 280.26 216.902 280.26 216.902" fill="white"/>
<path d="M282.971 213.074C282.971 213.074 294.714 213.457 295.979 213.266C297.243 213.074 299.953 211.351 299.953 213.074C299.953 214.797 298.146 214.222 296.521 215.371C294.895 216.519 293.449 217.094 293.449 217.094C293.449 217.094 290.92 217.86 288.752 218.242C286.584 218.625 286.042 218.434 283.874 218.242C281.706 218.05 280.26 216.902 280.26 216.902" stroke="#263238" stroke-width="0.733101" stroke-miterlimit="10" stroke-linecap="round" stroke-linejoin="round"/>
<path d="M250.416 168.331L241.455 148.638C241.455 148.638 241.834 126.552 241.455 123.339C241.076 120.126 240.697 117.114 234.823 115.308C228.948 113.501 194.27 116.512 194.27 116.512C194.27 116.512 185.038 117.474 176.863 119.002C168.687 120.528 150.65 120.646 149.703 123.657C148.755 126.669 144.523 195.357 144.523 195.357L127.567 235.782C127.567 235.782 143.485 249.636 176.457 247.629C209.43 245.621 220.99 234.778 220.99 234.778L211.704 199.64C211.704 199.64 227.053 185.183 227.432 180.765C227.811 176.348 228 172.934 228 172.934C228 172.934 237.475 188.395 239.37 189.6C241.265 190.805 276.994 217.34 276.994 217.34L281.92 208.104L251.687 171.128L250.416 168.331Z" fill="white" stroke="#263238" stroke-width="0.733101" stroke-miterlimit="10" stroke-linecap="round" stroke-linejoin="round"/>
<path d="M228 172.934L231.2 140.627" stroke="#263238" stroke-width="0.733101" stroke-miterlimit="10" stroke-linecap="round" stroke-linejoin="round"/>
<path d="M230.409 151.116C230.409 151.116 236.348 145.452 238.724 138.319" stroke="#263238" stroke-width="0.733101" stroke-miterlimit="10" stroke-linecap="round" stroke-linejoin="round"/>
<path d="M236.304 152.842C237.46 152.486 238.494 152.107 239.12 151.745" stroke="#263238" stroke-width="0.733101" stroke-miterlimit="10" stroke-linecap="round" stroke-linejoin="round"/>
<path d="M229.814 154.473C229.814 154.473 231.881 154.047 234.129 153.458" stroke="#263238" stroke-width="0.733101" stroke-miterlimit="10" stroke-linecap="round" stroke-linejoin="round"/>
<path d="M186.5 115.709L179.678 141.611L187.069 148.237L178.92 156.67C178.92 156.67 181.952 169.32 186.311 179.158C190.669 188.997 193.511 193.414 193.511 193.414C193.511 193.414 211.134 184.579 215.683 176.748C220.231 168.917 226.295 156.67 226.295 156.67L220.988 151.047L228.758 146.63C228.758 146.63 226.201 135.042 224.589 127.755C222.977 120.468 220.419 115.507 220.419 115.507L186.5 115.709Z" fill="#1C4F75" stroke="#263238" stroke-width="0.733101" stroke-miterlimit="10" stroke-linecap="round" stroke-linejoin="round"/>
<path d="M192.188 119.059C192.188 119.059 192.026 142.195 191.374 150.311C190.722 158.425 191.374 170.512 192.351 175.692C193.329 180.872 195.285 188.641 195.285 188.641C195.285 188.641 208.647 177.073 210.439 172.239C212.232 167.404 215.491 148.238 215.491 148.238L218.424 126.138L192.188 119.059Z" fill="white" stroke="#263238" stroke-width="0.733101" stroke-miterlimit="10" stroke-linecap="round" stroke-linejoin="round"/>
<path d="M192.84 114.915L191.373 147.375L204.409 138.397L215.327 151.174L218.098 124.584L192.84 114.915Z" fill="white" stroke="#263238" stroke-width="0.733101" stroke-miterlimit="10" stroke-linecap="round" stroke-linejoin="round"/>
<path d="M197.566 125.965L202.943 152.21L212.883 130.8C212.883 130.8 201.139 130.307 197.566 125.965Z" fill="white" stroke="#263238" stroke-width="0.733101" stroke-miterlimit="10" stroke-linecap="round" stroke-linejoin="round"/>
<path d="M186.647 99.1038C186.647 99.1038 183.807 94.4221 182.07 90.2422C180.335 86.0623 180.65 84.39 182.386 80.0426C184.121 75.6952 191.223 63.1556 195.957 60.9815C200.69 58.8082 204.635 58.6406 204.635 58.6406C204.635 58.6406 222.151 58.1388 230.199 67.1679C238.246 76.1971 238.404 91.5794 236.511 95.5925C234.617 99.6056 231.303 101.445 229.726 101.946C228.148 102.448 226.901 102.919 226.901 102.919C226.901 102.919 224.992 102.95 223.729 102.95C222.467 102.95 215.839 98.937 210.001 93.7542C204.162 88.5707 202.269 86.3973 202.269 86.3973C202.269 86.3973 195.484 91.5809 193.116 93.9217C190.75 96.2626 190.118 97.7673 190.118 97.7673L189.198 101.535L186.647 99.1038Z" fill="#263238" stroke="#263238" stroke-width="0.733101" stroke-miterlimit="10" stroke-linecap="round" stroke-linejoin="round"/>
<path d="M186.489 102.448C186.489 102.448 180.65 101.445 177.336 104.789C174.022 108.133 173.707 116.493 176.863 119.001C180.018 121.509 187.19 123.735 190.591 122.68C193.992 121.624 195.009 118.165 195.009 114.654C195.009 111.143 191.695 104.12 191.064 102.783C190.433 101.444 186.489 102.448 186.489 102.448Z" fill="#263238" stroke="#263238" stroke-width="0.733101" stroke-miterlimit="10" stroke-linecap="round" stroke-linejoin="round"/>
<path d="M189.198 101.534C189.198 101.534 186.365 96.6845 184.186 100.841C182.006 104.997 185.275 108.923 187.673 110.309C190.07 111.694 191.378 111.926 191.378 111.926L189.198 101.534Z" fill="white" stroke="#263238" stroke-width="0.733101" stroke-miterlimit="10" stroke-linecap="round" stroke-linejoin="round"/>
<path d="M226.901 102.919C226.901 102.919 231.042 100.379 231.478 104.073C231.914 107.768 228.863 111.463 227.337 112.618C225.811 113.772 224.722 114.696 224.722 114.696L226.901 102.919Z" fill="white" stroke="#263238" stroke-width="0.733101" stroke-miterlimit="10" stroke-linecap="round" stroke-linejoin="round"/>
<path d="M188.762 94.8367C188.762 94.8367 191.377 117.005 193.992 121.624C196.608 126.243 201.402 134.325 207.504 134.325C213.607 134.325 220.363 127.166 222.978 120.469C225.593 113.772 226.901 102.918 226.901 102.918C226.901 102.918 216.658 98.5308 208.594 89.7555C200.53 80.9803 202.492 79.8259 202.492 79.8259C202.492 79.8259 193.121 92.7584 188.762 94.8367Z" fill="white" stroke="#263238" stroke-width="0.733101" stroke-miterlimit="10" stroke-linecap="round" stroke-linejoin="round"/>
<path d="M205.267 115.155C205.267 115.155 209.212 118.499 212.684 115.49" stroke="#263238" stroke-width="0.733101" stroke-miterlimit="10" stroke-linecap="round" stroke-linejoin="round"/>
<path d="M202.9 120.004C202.9 120.004 208.265 125.522 215.208 119.836" stroke="#263238" stroke-width="0.733101" stroke-miterlimit="10" stroke-linecap="round" stroke-linejoin="round"/>
<path d="M201.972 104.237C201.972 105.373 201.257 106.294 200.376 106.294C199.493 106.294 198.778 105.373 198.778 104.237C198.778 103.101 199.493 102.18 200.376 102.18C201.257 102.18 201.972 103.101 201.972 104.237Z" fill="#263238"/>
<path d="M218.225 105.29C218.225 106.426 217.51 107.347 216.629 107.347C215.746 107.347 215.032 106.426 215.032 105.29C215.032 104.154 215.747 103.233 216.629 103.233C217.51 103.233 218.225 104.155 218.225 105.29Z" fill="#263238"/>
<path d="M196.746 98.1006C196.746 98.1006 199.744 96.094 204.635 97.7663" stroke="#263238" stroke-width="0.733101" stroke-miterlimit="10" stroke-linecap="round" stroke-linejoin="round"/>
<path d="M214.261 98.9368C214.261 98.9368 216.47 96.5959 223.414 101.445" stroke="#263238" stroke-width="0.733101" stroke-miterlimit="10" stroke-linecap="round" stroke-linejoin="round"/>
<path d="M205.076 109.553L196.432 109.064C194.86 108.975 193.653 107.552 193.737 105.885L193.921 102.236C194.006 100.569 195.348 99.2908 196.921 99.38L205.565 99.8694C207.138 99.9586 208.345 101.381 208.26 103.048L208.076 106.697C207.992 108.364 206.649 109.642 205.076 109.553Z" stroke="#263238" stroke-width="0.733101" stroke-miterlimit="10" stroke-linecap="round" stroke-linejoin="round"/>
<path d="M222.298 110.649L213.654 110.16C212.081 110.07 210.874 108.647 210.958 106.981L211.143 103.332C211.227 101.665 212.57 100.386 214.142 100.476L222.787 100.965C224.359 101.054 225.566 102.477 225.482 104.144L225.298 107.793C225.213 109.459 223.871 110.738 222.298 110.649Z" stroke="#263238" stroke-width="0.733101" stroke-miterlimit="10" stroke-linecap="round" stroke-linejoin="round"/>
<path d="M208.239 102.236L211.375 102.457" stroke="#263238" stroke-width="0.733101" stroke-miterlimit="10" stroke-linecap="round" stroke-linejoin="round"/>
<path d="M193.925 102.137L189.004 100.538" stroke="#263238" stroke-width="0.733101" stroke-miterlimit="10" stroke-linecap="round" stroke-linejoin="round"/>
<path d="M225.487 104.045L226.901 102.919" stroke="#263238" stroke-width="0.733101" stroke-miterlimit="10" stroke-linecap="round" stroke-linejoin="round"/>
<path d="M118.486 163.547L116.591 157.724C116.591 157.724 115.074 152.102 113.369 149.693C111.664 147.284 108.442 146.48 107.116 144.673C105.79 142.867 104.084 137.847 102.947 136.441C101.81 135.036 99.5354 136.241 100.104 139.453C100.672 142.665 101.999 143.669 102.568 144.874C103.136 146.079 104.463 149.292 104.463 149.292C104.463 149.292 92.1449 147.083 91.3876 146.882C90.6302 146.681 88.3554 144.071 87.7872 142.464C87.2184 140.858 87.4082 134.433 85.1341 136.44C82.86 138.448 84.1869 142.665 84.5659 143.668C84.945 144.672 84.5659 151.7 85.5131 155.314C86.4603 158.929 89.6823 162.543 94.4197 164.952C99.1571 167.361 108.443 168.165 108.443 168.165L112.043 171.98L118.486 163.547Z" fill="white" stroke="#263238" stroke-width="0.733101" stroke-miterlimit="10" stroke-linecap="round" stroke-linejoin="round"/>
<path d="M83.239 153.709C83.239 153.709 80.8013 149.009 80.8013 145.567C80.8013 142.126 81.025 138.923 82.7047 139.753C84.3844 140.584 84.0737 140.465 84.5652 143.669C85.0561 146.872 86.2884 150.432 86.5121 150.788C86.7358 151.145 88.528 155.891 86.9602 156.009C85.3923 156.128 83.239 153.709 83.239 153.709Z" fill="white" stroke="#263238" stroke-width="0.733101" stroke-miterlimit="10" stroke-linecap="round" stroke-linejoin="round"/>
<path d="M88.3548 153.709C88.3548 153.709 84.9436 143.468 83.2384 145.276C81.5332 147.082 81.7223 149.292 83.2384 153.709C84.7545 158.126 87.9758 161.539 90.6289 161.941C93.282 162.343 93.282 162.343 93.282 162.343L88.3548 153.709Z" fill="white" stroke="#263238" stroke-width="0.733101" stroke-miterlimit="10" stroke-linecap="round" stroke-linejoin="round"/>
<path d="M109.2 161.54C109.2 161.54 105.031 157.925 102.378 157.925C99.7253 157.925 93.4718 158.929 93.4718 158.929C93.4718 158.929 89.1135 143.468 87.7873 146.078C86.461 148.688 86.8401 151.299 88.1663 155.314C89.4925 159.33 91.3876 162.944 94.4197 164.952C97.4519 166.96 108.443 168.165 108.443 168.165" fill="white"/>
<path d="M109.2 161.54C109.2 161.54 105.031 157.925 102.378 157.925C99.7253 157.925 93.4718 158.929 93.4718 158.929C93.4718 158.929 89.1135 143.468 87.7873 146.078C86.461 148.688 86.8401 151.299 88.1663 155.314C89.4925 159.33 91.3876 162.944 94.4197 164.952C97.4519 166.96 108.443 168.165 108.443 168.165" stroke="#263238" stroke-width="0.733101" stroke-miterlimit="10" stroke-linecap="round" stroke-linejoin="round"/>
<path d="M122.844 166.359L118.486 161.741L108.821 171.579L113.558 175.595L122.844 166.359Z" fill="white" stroke="#263238" stroke-width="0.733101" stroke-miterlimit="10" stroke-linecap="round" stroke-linejoin="round"/>
<path d="M166.684 120.282C166.684 120.282 153.163 120.779 149.942 122.386C146.721 123.992 146.342 126.402 146.152 127.405C145.962 128.409 140.277 182.02 140.277 182.02L121.706 163.347L109.768 175.595C109.768 175.595 126.255 198.485 130.045 204.709C133.835 210.934 137.245 216.756 140.467 217.359C143.689 217.961 144.826 218.162 148.805 216.958C152.784 215.753 157.902 206.345 158.092 205.542C158.281 204.738 166.807 154.11 166.807 154.11" fill="white"/>
<path d="M166.684 120.282C166.684 120.282 153.163 120.779 149.942 122.386C146.721 123.992 146.342 126.402 146.152 127.405C145.962 128.409 140.277 182.02 140.277 182.02L121.706 163.347L109.768 175.595C109.768 175.595 126.255 198.485 130.045 204.709C133.835 210.934 137.245 216.756 140.467 217.359C143.689 217.961 144.826 218.162 148.805 216.958C152.784 215.753 157.902 206.345 158.092 205.542C158.281 204.738 166.807 154.11 166.807 154.11" stroke="#263238" stroke-width="0.733101" stroke-miterlimit="10" stroke-linecap="round" stroke-linejoin="round"/>
<path d="M149.855 187.897L152.381 189.448" stroke="#263238" stroke-width="0.733101" stroke-miterlimit="10" stroke-linecap="round" stroke-linejoin="round"/>
<path d="M140.277 182.021L148.304 186.946" stroke="#263238" stroke-width="0.733101" stroke-miterlimit="10" stroke-linecap="round" stroke-linejoin="round"/>
<path d="M171.003 208.586C169.472 209.255 168.069 209.84 166.863 210.305" stroke="#263238" stroke-width="0.733101" stroke-miterlimit="10" stroke-linecap="round" stroke-linejoin="round"/>
<path d="M198.9 195.044C198.9 195.044 186.099 201.648 175.67 206.479" stroke="#263238" stroke-width="0.733101" stroke-miterlimit="10" stroke-linecap="round" stroke-linejoin="round"/>
<path d="M205.367 195.978L189.201 205.01" stroke="#263238" stroke-width="0.733101" stroke-miterlimit="10" stroke-linecap="round" stroke-linejoin="round"/>
<path d="M339.109 213.127H360.245C360.245 213.127 363.304 213.127 362.192 218.136C361.08 223.146 356.63 250.551 356.074 260.866C355.518 271.179 354.962 277.368 354.962 277.368H272.934L282.83 216.936C283.218 214.567 285.164 212.841 287.433 212.853L339.109 213.127Z" fill="#263238" stroke="#263238" stroke-width="0.733101" stroke-miterlimit="10" stroke-linecap="round" stroke-linejoin="round"/>
<path d="M273.051 173.892C273.051 173.892 249.038 181.016 248.654 183.459C248.27 185.901 238.088 245.542 238.088 245.542C238.088 245.542 187.757 231.701 184.875 231.701C181.994 231.701 170.852 241.675 169.315 242.896C167.778 244.117 165.665 245.135 165.473 247.578C165.281 250.02 163.36 253.888 165.473 255.719C167.586 257.551 168.931 259.179 169.699 258.162C170.468 257.144 169.507 253.684 169.315 253.073C169.123 252.462 181.418 245.745 181.418 245.745L186.413 244.523C186.413 244.523 183.916 246.966 180.649 249.002C177.384 251.038 176.231 254.498 177.96 254.701C179.688 254.904 179.881 254.09 184.875 252.462C189.87 250.834 194.097 245.541 194.097 245.541C194.097 245.541 242.699 269.56 245.389 269.56C248.079 269.56 247.694 270.171 249.999 266.914C252.304 263.658 259.796 240.453 259.796 240.453L262.678 270.579V277.306H338.176C338.176 277.306 337.791 190.582 337.408 189.361C337.023 188.14 307.542 168.455 307.542 168.455L273.051 173.892Z" fill="#1C4F75" stroke="#263238" stroke-width="0.733101" stroke-miterlimit="10" stroke-linecap="round" stroke-linejoin="round"/>
<path d="M252.672 230.795L251.007 228.536" stroke="#263238" stroke-width="0.733101" stroke-miterlimit="10" stroke-linecap="round" stroke-linejoin="round"/>
<path d="M259.796 240.453L254.137 232.78" stroke="#263238" stroke-width="0.733101" stroke-miterlimit="10" stroke-linecap="round" stroke-linejoin="round"/>
<path d="M252.545 215.607L251.681 212.647" stroke="#263238" stroke-width="0.733101" stroke-miterlimit="10" stroke-linecap="round" stroke-linejoin="round"/>
<path d="M255.953 213.127L259.796 240.453L253.445 218.691" stroke="#263238" stroke-width="0.733101" stroke-miterlimit="10" stroke-linecap="round" stroke-linejoin="round"/>
<path d="M313.627 172.544C310.058 170.136 307.542 168.456 307.542 168.456L273.051 173.892L289.188 210.735L313.627 172.544Z" fill="white" stroke="#263238" stroke-width="0.733101" stroke-miterlimit="10" stroke-linecap="round" stroke-linejoin="round"/>
<path d="M271.333 119.5C266.739 122.848 260.194 130.181 261.669 134.868C263.215 139.783 265.534 140.875 265.534 140.875C265.534 140.875 263.473 147.702 265.277 149.886C267.081 152.07 267.854 154.256 267.854 154.256C267.854 154.256 263.988 165.724 265.792 167.089C267.596 168.454 267.596 168.454 267.596 168.454C267.596 168.454 270.689 181.562 273.008 182.381C275.327 183.2 282.286 181.016 282.286 181.016L289.244 200.95L307.541 168.455L305.737 161.901C305.737 161.901 316.561 143.06 312.18 129.679C309.663 121.995 303.131 116.68 295.926 114.453C287.963 111.992 281.086 114.7 273.685 118.061C273.019 118.364 272.212 118.86 271.333 119.5Z" fill="white" stroke="#263238" stroke-width="0.733101" stroke-miterlimit="10" stroke-linecap="round" stroke-linejoin="round"/>
<path d="M312.18 129.68C309.663 121.996 303.131 116.68 295.926 114.454C287.963 111.993 281.086 114.701 273.685 118.062C273.019 118.364 272.211 118.859 271.332 119.5C266.738 122.848 260.193 130.181 261.668 134.868C263.215 139.783 265.534 140.875 265.534 140.875C265.534 140.875 268.055 141.322 269.976 139.286C271.897 137.251 276.892 133.587 280.926 134.198C284.961 134.809 284.961 139.897 283.616 142.34C282.271 144.782 281.887 147.632 285.345 148.447C288.803 149.261 289.763 149.261 289.763 152.111C289.763 154.961 289.571 157.199 291.684 156.792C293.798 156.385 293.99 155.367 294.95 153.128C295.91 150.889 300.137 147.429 302.442 154.349C304.747 161.27 300.137 164.527 300.137 164.527C300.137 164.527 303.114 163.435 305.916 161.578C307.29 159.079 316.231 142.052 312.18 129.68Z" fill="#263238" stroke="#263238" stroke-width="0.733101" stroke-miterlimit="10" stroke-linecap="round" stroke-linejoin="round"/>
<path d="M270.169 153.129C270.169 153.129 275.741 150.483 279.391 153.129" stroke="#263238" stroke-width="0.733101" stroke-miterlimit="10" stroke-linecap="round" stroke-linejoin="round"/>
<path d="M269.977 171.449C269.977 171.449 275.932 173.892 279.774 169.413" stroke="#263238" stroke-width="0.733101" stroke-miterlimit="10" stroke-linecap="round" stroke-linejoin="round"/>
<path d="M267.596 168.456L270.745 169.007" stroke="#263238" stroke-width="0.733101" stroke-miterlimit="10" stroke-linecap="round" stroke-linejoin="round"/>
<path d="M277.085 157.752C277.085 158.902 276.482 159.833 275.737 159.833C274.993 159.833 274.39 158.902 274.39 157.752C274.39 156.603 274.993 155.672 275.737 155.672C276.482 155.673 277.085 156.604 277.085 157.752Z" fill="#263238"/>
<path d="M282.286 181.017C282.286 181.017 289.187 178.166 291.109 176.741C293.03 175.316 294.182 174.298 294.182 174.298L284.769 187.529L282.286 181.017Z" fill="#263238"/>
<path d="M201.914 235.802C193.122 233.5 185.914 231.701 184.875 231.701C181.993 231.701 170.851 241.675 169.314 242.896C167.777 244.118 165.664 245.135 165.472 247.578C165.28 250.02 163.359 253.888 165.472 255.719C167.585 257.551 168.93 259.18 169.699 258.162C170.467 257.144 169.507 253.684 169.314 253.073C169.122 252.462 181.416 245.745 181.416 245.745L186.411 244.524C186.411 244.524 183.914 246.967 180.648 249.003C177.383 251.038 176.23 254.499 177.958 254.702C179.687 254.905 179.88 254.091 184.874 252.463C189.869 250.834 194.095 245.542 194.095 245.542C194.095 245.542 196.338 246.65 199.881 248.388C202.916 243.458 202.474 238.429 201.914 235.802Z" fill="white" stroke="#263238" stroke-width="0.733101" stroke-miterlimit="10" stroke-linecap="round" stroke-linejoin="round"/>
<path d="M194.095 245.543L196.208 240.25" stroke="#263238" stroke-width="0.733101" stroke-miterlimit="10" stroke-linecap="round" stroke-linejoin="round"/>
<path d="M175.269 243.303C175.269 243.303 165.856 249.614 164.127 250.835C162.398 252.057 156.443 253.481 157.019 254.703C157.596 255.924 158.94 256.534 161.629 255.72C164.319 254.906 167.585 254.092 170.658 252.667C173.732 251.242 181.416 245.746 181.416 245.746" fill="white"/>
<path d="M175.269 243.303C175.269 243.303 165.856 249.614 164.127 250.835C162.398 252.057 156.443 253.481 157.019 254.703C157.596 255.924 158.94 256.534 161.629 255.72C164.319 254.906 167.585 254.092 170.658 252.667C173.732 251.242 181.416 245.746 181.416 245.746" stroke="#263238" stroke-width="0.733101" stroke-miterlimit="10" stroke-linecap="round" stroke-linejoin="round"/>
<path d="M328.569 182.848C328.569 182.848 341.633 188.954 343.361 192.414C345.09 195.875 348.548 271.393 348.74 273.632C348.932 275.871 347.203 276.685 346.243 276.889C345.283 277.092 284 276.685 282.272 276.685C280.543 276.685 276.317 276.278 273.819 275.057C271.322 273.836 269.401 274.243 269.209 270.986C269.017 267.729 269.401 265.083 269.401 263.862C269.401 262.64 268.633 259.18 269.401 257.144C270.169 255.108 271.706 255.108 272.475 254.905C273.243 254.702 276.125 254.905 276.125 254.905C276.125 254.905 278.046 253.073 280.928 254.294C283.809 255.516 288.612 262.843 288.612 262.843C288.612 262.843 293.222 264.268 300.522 263.047C307.822 261.826 324.343 258.162 324.343 258.162L317.811 214.805" fill="#1C4F75"/>
<path d="M328.569 182.848C328.569 182.848 341.633 188.954 343.361 192.414C345.09 195.875 348.548 271.393 348.74 273.632C348.932 275.871 347.203 276.685 346.243 276.889C345.283 277.092 284 276.685 282.272 276.685C280.543 276.685 276.317 276.278 273.819 275.057C271.322 273.836 269.401 274.243 269.209 270.986C269.017 267.729 269.401 265.083 269.401 263.862C269.401 262.64 268.633 259.18 269.401 257.144C270.169 255.108 271.706 255.108 272.475 254.905C273.243 254.702 276.125 254.905 276.125 254.905C276.125 254.905 278.046 253.073 280.928 254.294C283.809 255.516 288.612 262.843 288.612 262.843C288.612 262.843 293.222 264.268 300.522 263.047C307.822 261.826 324.343 258.162 324.343 258.162L317.811 214.805" stroke="#263238" stroke-width="0.733101" stroke-miterlimit="10" stroke-linecap="round" stroke-linejoin="round"/>
<path d="M324.343 258.162L325.304 265.49" stroke="#263238" stroke-width="0.733101" stroke-miterlimit="10" stroke-linecap="round" stroke-linejoin="round"/>
<path d="M293.022 276.747C291.01 269.676 292.62 265.631 294.213 263.535C290.675 263.477 288.612 262.845 288.612 262.845C288.612 262.845 283.809 255.517 280.928 254.296C278.046 253.074 276.125 254.906 276.125 254.906C276.125 254.906 273.243 254.703 272.475 254.906C271.706 255.11 270.169 255.11 269.401 257.146C268.633 259.181 269.401 262.642 269.401 263.863C269.401 265.084 269.017 267.731 269.209 270.987C269.401 274.244 271.322 273.837 273.819 275.058C276.317 276.28 280.543 276.687 282.272 276.687C282.708 276.686 286.934 276.712 293.022 276.747Z" fill="white" stroke="#263238" stroke-width="0.733101" stroke-miterlimit="10" stroke-linecap="round" stroke-linejoin="round"/>
<path d="M178.529 273.519H97.5506L83.6174 212.833H164.595L178.529 273.519Z" fill="#1C4F75" stroke="#263238" stroke-width="0.733101" stroke-miterlimit="10" stroke-linecap="round" stroke-linejoin="round"/>
<path d="M140.732 244.342C140.732 246.218 135.503 247.74 129.052 247.74C122.601 247.74 117.371 246.219 117.371 244.342C117.371 242.466 122.601 240.945 129.052 240.945C135.503 240.945 140.732 242.466 140.732 244.342Z" fill="#1C4F75" stroke="#263238" stroke-width="0.733101" stroke-miterlimit="10" stroke-linecap="round" stroke-linejoin="round"/>
<path d="M230.221 273.519H97.5506V277.368H230.221V273.519Z" fill="#1C4F75" stroke="#263238" stroke-width="0.733101" stroke-miterlimit="10" stroke-linecap="round" stroke-linejoin="round"/>
<path d="M230.222 273.519H179.664V277.368H230.222V273.519Z" fill="#1C4F75" stroke="#263238" stroke-width="0.733101" stroke-miterlimit="10" stroke-linecap="round" stroke-linejoin="round"/>
<path d="M187.958 274.616H183.584V275.459H187.958V274.616Z" fill="#1C4F75" stroke="#263238" stroke-width="0.733101" stroke-miterlimit="10" stroke-linecap="round" stroke-linejoin="round"/>
<path d="M199.092 274.616H194.718V275.459H199.092V274.616Z" fill="#1C4F75" stroke="#263238" stroke-width="0.733101" stroke-miterlimit="10" stroke-linecap="round" stroke-linejoin="round"/>
<path d="M409.362 277.368H4.38391" stroke="#263238" stroke-width="0.733101" stroke-miterlimit="10" stroke-linecap="round" stroke-linejoin="round"/>
</g>
<defs>
<clipPath id="clip0_758_9063">
<rect width="436.319" height="307.237" fill="white"/>
</clipPath>
</defs>
</svg>
