<svg width="99" height="67" viewBox="0 0 99 67" fill="none" xmlns="http://www.w3.org/2000/svg">
<path d="M58.4638 9.90455C58.9538 8.86284 59.0114 7.67473 58.602 6.59766C63.9813 7.0572 69.1333 7.89791 73.7522 9.04911C81.6312 11.0128 88.2667 13.9549 91.6797 17.7119C94.9716 21.3358 97.1895 26.4348 94.083 30.8779C91.2583 34.9179 85.0356 36.576 81.3978 39.5502C78.9887 41.5199 76.8876 44.1542 79.8855 46.4498C83.6189 48.6001 86.7565 49.8055 89.2363 50.2935C95.986 51.6218 96.8082 46.5446 93.5797 41.391C92.4477 39.584 95.2498 37.8286 96.3818 39.6356C98.7635 43.4375 100.983 49.9464 96.033 52.8191C94.1123 53.9337 91.5293 54.1147 88.5978 53.5378C84.274 52.6869 73.2543 49.3084 75.1852 42.4318C77.4726 34.286 93.297 34.2651 92.2888 25.528C91.3335 17.25 79.3998 13.8644 72.9526 12.2575C68.5516 11.1606 63.6235 10.3524 58.4638 9.90455Z" fill="white"/>
<path d="M38.1704 10.1149C33.8715 10.5864 29.771 11.3082 26.0477 12.2366C19.5975 13.8451 7.66652 17.2337 6.71139 25.5144C5.7605 33.7583 21.4905 34.1451 23.815 42.4273C25.748 49.315 14.7444 52.6827 10.4025 53.5376C7.47084 54.1148 4.88771 53.9337 2.96683 52.8185C-1.98352 49.9443 0.236853 43.4332 2.61815 39.63C3.74971 37.8228 6.55223 39.5776 5.42068 41.3848C2.19376 46.5385 3.01073 51.623 9.76374 50.2933C12.2434 49.8051 15.3809 48.5992 19.1143 46.4478C22.1127 44.1506 20.0118 41.5141 17.602 39.5429C13.9641 36.5671 7.74129 34.908 4.91693 30.8664C1.81089 26.4217 4.02823 21.3212 7.32016 17.6955C10.7331 13.9366 17.3686 10.993 25.2477 9.0283C29.1315 8.05985 33.3921 7.31102 37.8478 6.82385C37.4978 7.91971 37.6322 9.1011 38.1704 10.1149Z" fill="white"/>
<path d="M67.3662 52.2277C67.3662 54.36 70.6728 54.36 70.6728 52.2277C70.6728 46.8812 69.6737 42.7044 68.0404 39.8007C64.6773 33.8219 57.8731 33.8219 54.51 39.8007C52.8767 42.7044 51.8776 46.8812 51.8776 52.2277C51.8776 54.36 55.1841 54.36 55.1841 52.2277C55.1841 47.2485 56.1211 43.681 57.3919 41.4218C59.5199 37.6388 63.0305 37.6388 65.1584 41.4218C66.4292 43.681 67.3662 47.2485 67.3662 52.2277Z" fill="white"/>
<path d="M32.5603 37.6092C32.5603 35.477 29.2537 35.477 29.2537 37.6092C29.2537 42.9558 30.2528 47.1326 31.8861 50.0363C33.1936 52.3605 35.0004 53.9965 37.0851 54.5474V64.8449C37.0851 66.9771 40.3916 66.9771 40.3916 64.8449V54.4987C42.4028 53.9046 44.1456 52.2956 45.4165 50.0363C47.0498 47.1326 48.0489 42.9558 48.0489 37.6092C48.0489 35.477 44.7424 35.477 44.7424 37.6092C44.7424 42.5885 43.8054 46.156 42.5346 48.4152C40.4067 52.1982 36.896 52.1982 34.7681 48.4152C33.4973 46.156 32.5603 42.5885 32.5603 37.6092Z" fill="white"/>
<path d="M42.2858 14.4438C42.2633 14.4326 42.0946 14.3201 42.0721 14.3088C42.0608 14.2976 41.8809 14.2863 41.8584 14.2751C41.7571 14.2413 41.7009 14.1288 41.6109 14.0726C41.5996 14.0388 41.4534 13.9713 41.4421 13.9601L41.4196 13.9376C41.3971 13.9151 41.2509 13.8139 41.2284 13.7914C41.1834 13.7351 41.0034 13.5326 40.9809 13.4989C40.9471 13.4201 40.8122 13.0826 40.8009 13.0151C40.8347 12.9589 40.7897 12.9026 40.7334 12.9139C40.6659 12.7339 40.6209 12.5652 40.6547 12.3627C40.8909 12.3289 41.0596 12.5764 41.0259 12.8014L41.3296 13.4989C41.3521 13.5214 41.4646 13.6339 41.4871 13.6564C41.4871 13.6789 41.5659 13.7689 41.5771 13.7914C41.6221 13.8701 41.7796 13.8926 41.8471 13.9376H42.3308C42.3308 13.9376 42.3983 13.8926 42.4208 13.8701C42.4546 13.8251 42.5671 13.7014 42.5671 13.6901L43.962 10.0565C43.9958 9.95528 44.052 9.76404 44.0295 9.62905C44.0295 9.62905 44.007 9.62905 43.9958 9.62905C43.9733 9.65155 43.8833 9.69654 43.872 9.70779C43.8495 9.74154 43.6358 9.95528 43.6133 9.97778C43.4895 10.1128 43.332 10.2253 43.197 10.349C43.1858 10.3603 43.1633 10.4165 43.1633 10.4278C43.1408 10.4615 43.0508 10.5403 43.0395 10.5515C42.7808 10.7315 42.2071 10.6303 42.0383 10.349C41.9933 10.259 41.7909 9.83154 41.7684 9.75279C41.7571 9.73029 41.7346 9.6178 41.7346 9.60655L41.7459 8.76284C41.7571 8.69534 41.7909 8.60535 41.7796 8.5491L42.0608 7.49165C42.1171 7.3904 42.1508 7.26666 42.1846 7.16541L42.8371 5.99547L43.2758 5.47799C43.2983 5.47799 43.3883 5.43299 43.3995 5.42174C43.4108 5.42174 43.4333 5.37675 43.4333 5.37675C43.4895 5.343 43.6583 5.26425 43.6695 5.253C43.737 5.21925 44.0858 5.11801 44.1645 5.10676C44.187 5.10676 44.3107 5.10676 44.322 5.10676C44.3332 5.10676 44.412 5.07301 44.412 5.07301C44.4232 5.07301 44.4907 5.09551 44.5132 5.10676C44.5807 5.12926 44.6707 5.15176 44.727 5.208C44.7382 5.21925 44.8395 5.343 44.8507 5.343C44.8732 5.3655 45.0645 5.50049 45.087 5.51174C45.0982 5.51174 45.1207 5.53424 45.1207 5.55674C45.1432 5.60174 45.1994 5.75923 45.2782 5.65798C45.3907 5.45549 45.4357 5.28675 45.5707 5.14051C45.6494 5.08426 45.7057 5.10676 45.7957 5.14051C45.8969 5.17426 45.9757 5.26425 46.0432 5.343C46.0769 5.388 46.2007 5.64673 46.2232 5.69173C46.2681 5.80423 46.2569 6.13046 46.1894 6.23171L45.9869 7.01917C46.0544 7.05292 46.1557 6.86168 46.1444 6.77168L46.3131 6.09671C46.3244 6.06296 46.4144 6.09671 46.4031 6.16421L46.1444 7.22166C46.0994 7.25541 46.0657 7.30041 46.0544 7.35665C45.9644 7.68289 45.8632 7.90788 45.9194 8.24536L45.5257 9.53905C45.4694 9.5503 45.4582 9.58405 45.4469 9.62905C45.4244 9.73029 45.3344 10.0565 45.3119 10.1128C45.3119 10.124 45.3119 10.1803 45.3119 10.1915H45.3794L44.7157 12.4864C44.7045 12.5202 44.6257 12.6777 44.592 12.7339C44.5807 12.7339 44.5582 12.7677 44.5582 12.7789C44.5357 12.7452 44.5132 12.7339 44.5245 12.7002L45.2219 10.4615C45.2332 10.4165 45.3007 10.0228 45.3119 9.87654C45.3119 9.84279 45.3232 9.70779 45.3232 9.67405L44.727 11.6877C44.7045 11.7215 44.6032 11.9239 44.592 11.9577C44.5807 11.9802 44.5357 12.1714 44.5245 12.1939C44.4682 12.3402 44.1982 12.9814 44.142 13.1051C44.142 13.1276 44.1195 13.2401 44.1082 13.2514C44.0745 13.3414 43.872 13.7689 43.827 13.8701C43.8495 13.8589 43.9395 13.7689 43.9508 13.7576C43.9733 13.7464 44.0183 13.7014 44.0183 13.6901L44.3895 12.9364H44.4232V13.0489C44.4232 13.0939 44.2657 13.4651 44.1982 13.5889C44.1757 13.6451 43.8833 13.9826 43.8495 14.0276C43.8383 14.0388 43.7708 14.1851 43.7595 14.2076C43.7033 14.2863 43.5683 14.3988 43.4895 14.4438C43.4783 14.4438 43.3433 14.4438 43.332 14.4438C43.3208 14.4438 43.2533 14.4888 43.242 14.4888C43.2308 14.4888 43.1295 14.4663 43.1183 14.4888C43.0733 14.4888 42.7471 14.5676 42.7133 14.5788C42.7021 14.5788 42.6571 14.5788 42.6458 14.5788C42.5783 14.5563 42.3308 14.4551 42.2858 14.4438ZM43.692 14.0951L43.5345 14.2751C43.602 14.3313 43.7145 14.1513 43.692 14.0951ZM42.4208 9.97778C42.4321 10.0228 42.4546 10.079 42.4546 10.079H42.6008L43.107 9.77529L44.5245 8.15537L45.0757 6.16421C45.087 6.14171 45.087 6.06296 45.0757 6.02922C45.0757 6.01797 45.0532 5.99547 45.0532 5.99547C45.0082 5.98422 44.8507 5.96172 44.8057 5.96172C44.7832 5.96172 44.727 5.96172 44.7157 5.96172C44.7045 5.96172 44.637 6.01797 44.6257 6.02922C44.5807 6.04047 44.412 6.11921 44.3782 6.13046C44.3107 6.15296 44.187 6.14171 44.1307 6.19796C44.0633 6.2767 43.7483 6.60294 43.692 6.67044C43.6808 6.68169 43.5908 6.83918 43.5908 6.85043C43.5795 6.85043 43.557 6.87293 43.557 6.88418C43.5233 6.92917 43.3208 7.27791 43.287 7.32291C43.2758 7.32291 43.2308 7.3904 43.2308 7.3904C43.1633 7.49165 43.0171 7.73914 43.0058 7.78413L42.6571 8.72909V8.78534C42.6121 8.87533 42.5108 9.24657 42.4883 9.33656C42.4771 9.37031 42.4546 9.73029 42.4208 9.84279C42.4208 9.86529 42.4208 9.96653 42.4208 9.97778ZM45.4469 9.13407C45.4469 9.15657 45.4469 9.23532 45.4469 9.25782C45.4919 9.30281 45.5482 9.16782 45.5594 9.13407L45.8969 7.66039L45.8632 7.60414C45.7394 7.80663 45.7507 8.05412 45.6944 8.27911C45.6719 8.40286 45.5032 8.96533 45.4694 9.10032C45.4582 9.10032 45.4469 9.12282 45.4469 9.13407ZM44.7832 7.90788C44.7607 7.90788 44.7607 7.96413 44.7832 7.96413C44.817 7.96413 44.817 7.90788 44.7832 7.90788ZM45.9532 7.16541C45.9307 7.16541 45.9307 7.22166 45.9532 7.22166C45.9869 7.22166 45.9869 7.16541 45.9532 7.16541ZM45.9869 7.07542C45.9532 7.07542 45.9532 7.16541 45.9869 7.16541C46.0207 7.16541 46.0207 7.07542 45.9869 7.07542ZM45.1994 5.72548C45.1769 5.72548 45.1769 5.78173 45.1994 5.78173C45.2332 5.78173 45.2332 5.72548 45.1994 5.72548ZM47.0756 10.934C47.0307 10.9002 46.8282 10.7315 46.7944 10.6865C46.7719 10.664 46.5807 10.3378 46.5244 10.2253C46.4119 10.0228 46.3782 9.77529 46.3669 9.53905C46.3557 9.49405 46.3332 9.14532 46.3332 9.10032C46.3107 8.81909 46.4007 8.5491 46.4569 8.26786C46.4569 8.25661 46.4569 8.17787 46.4569 8.17787C46.4682 8.11037 46.5244 8.00912 46.5469 7.95288C46.5582 7.94163 46.5807 7.87413 46.5807 7.86288C46.5807 7.85163 46.5807 7.80663 46.5807 7.79538C46.5919 7.78413 46.6369 7.69414 46.6482 7.67164C46.7382 7.51415 46.8057 7.32291 46.8957 7.14291L46.9182 7.12042C47.0307 6.92917 47.0981 6.79418 47.1994 6.61419C47.2106 6.61419 47.2331 6.59169 47.2331 6.59169C47.2444 6.58044 47.3231 6.4792 47.3231 6.46795C47.3344 6.4567 47.3569 6.4342 47.3569 6.4342C47.3794 6.4117 47.4919 6.23171 47.5144 6.22046C47.6269 6.09671 48.0431 5.70298 48.0994 5.65798C48.1331 5.63548 48.5043 5.42174 48.6281 5.343C48.6393 5.343 48.7181 5.3205 48.7293 5.30925C48.7406 5.30925 48.7743 5.28675 48.7856 5.28675C48.8868 5.26425 49.3143 5.208 49.4043 5.18551C49.4155 5.18551 49.4605 5.18551 49.4718 5.18551C49.5393 5.19676 49.7643 5.21925 49.7868 5.21925C49.8543 5.2305 50.0343 5.30925 50.0568 5.37675L50.248 5.87172C50.248 5.87172 50.248 5.89422 50.248 5.90547C50.2255 6.00672 50.158 6.2767 50.158 6.2767L49.6855 6.99667C49.663 7.01917 49.5505 7.12042 49.5393 7.14291C49.528 7.15416 49.5055 7.19916 49.5055 7.21041C49.4493 7.28916 49.1231 7.63789 49.0331 7.70539C48.9993 7.73914 48.6281 7.95288 48.5043 8.02037C48.4931 8.03162 48.3356 8.06537 48.3243 8.07662C48.3018 8.09912 48.1331 8.27911 48.0994 8.30161C48.0544 8.33536 47.8406 8.4591 47.7956 8.4816C47.6719 8.53785 47.5031 8.4591 47.4244 8.58285C47.4019 8.60535 47.3569 8.68409 47.3569 8.70659L47.1769 9.62905C47.1656 9.6628 47.1656 9.78654 47.1769 9.82029C47.1769 9.87654 47.2444 10.1353 47.2669 10.1915C47.2669 10.2028 47.2894 10.2253 47.3006 10.2253C47.3006 10.2253 47.3569 10.2478 47.3569 10.259C47.3906 10.304 47.3231 10.3265 47.3906 10.349L47.4244 10.2815C47.5481 10.394 47.6944 10.4053 47.8519 10.3828C48.0656 10.3603 48.5831 10.2703 48.6056 10.259L49.9105 9.41531C49.9555 9.35906 50.0343 9.30281 50.0905 9.25782L51.4967 7.67164H51.6767C51.6879 7.67164 51.7329 7.80663 51.7442 7.86288C51.7667 7.99787 51.5192 8.26786 51.4629 8.39161C51.4629 8.40286 51.4629 8.44785 51.4629 8.44785L50.4955 9.4828L50.4617 9.53905L49.0668 10.5403C49.0443 10.5515 48.5718 10.7652 48.3806 10.844C48.3693 10.8552 48.2793 10.8777 48.2568 10.8777C48.2456 10.8777 48.0881 10.8777 48.0769 10.8777C48.0319 10.8777 47.7056 10.934 47.6719 10.934C47.4694 10.9677 47.2669 11.069 47.0756 10.934ZM49.258 10.2253C49.2468 10.2253 49.2468 10.2478 49.258 10.259L49.5055 10.1353C49.4493 10.1128 49.2805 10.169 49.258 10.2253ZM47.6044 8.02037C47.6044 8.04287 47.6044 8.14412 47.6044 8.17787L47.7056 8.14412L48.8193 7.4579L49.5618 6.61419C49.6405 6.63669 49.6405 6.53544 49.6293 6.49044C49.798 6.26546 49.9218 6.00672 49.8768 5.71423C49.8655 5.65798 49.7868 5.48924 49.6855 5.53424C49.6518 5.54549 49.4943 5.63548 49.4718 5.65798C49.3705 5.73673 49.1343 5.95047 49.1343 5.96172C48.8868 6.2992 48.3806 6.94042 48.3581 6.96292L47.6719 7.89663C47.6494 7.91913 47.6156 7.99787 47.6044 8.02037ZM49.4718 6.89543C49.438 6.89543 49.438 6.96292 49.4718 6.96292C49.5055 6.96292 49.5055 6.89543 49.4718 6.89543ZM48.4818 6.61419C48.4706 6.63669 48.4256 6.72668 48.4143 6.74918C48.5043 6.72668 48.7856 6.44545 48.8193 6.3442C48.7181 6.2992 48.5156 6.55794 48.4818 6.61419ZM48.8868 6.22046V6.24296L48.9093 6.22046H48.8868ZM51.2534 11.9014C51.0622 11.8564 50.8259 11.7552 50.6684 11.6202C50.5672 11.5415 50.5222 11.4177 50.421 11.3502C50.2972 11.0577 50.2972 10.7877 50.2635 10.4728C50.2635 10.4615 50.2635 10.4165 50.2635 10.4165L50.4772 9.20157C50.4772 9.17907 50.4772 9.10032 50.4772 9.07782C50.4885 9.06657 50.511 9.04408 50.511 9.04408L50.6684 8.35786V8.33536L50.8484 7.4579L50.8822 7.40165L51.9734 3.98181C51.7596 3.95931 51.5797 4.07181 51.3772 4.10556C51.3434 4.10556 51.2309 4.10556 51.2309 4.10556L50.8484 3.73432C50.7922 3.66683 50.8147 3.47559 50.9159 3.45309L51.6359 3.26185C51.6359 3.2731 51.6809 3.2731 51.6922 3.26185C51.7147 3.26185 51.9171 3.2056 51.9396 3.2056H51.9734C52.0859 3.1831 52.3784 3.1156 52.3784 3.10435L52.4121 3.08185C52.4121 3.0706 52.5696 2.76687 52.6259 2.64312C52.6484 2.60938 52.6371 2.54188 52.6821 2.51938L53.0646 1.58567C53.0871 1.52943 53.1658 1.49568 53.2108 1.49568C53.2783 1.48443 53.4583 1.48443 53.5258 1.52943C53.5483 1.54068 53.6158 1.59692 53.6158 1.61942C53.6271 1.63067 53.6158 1.73192 53.6158 1.74317C53.6158 1.74317 53.6496 1.76567 53.6496 1.77691C53.6608 1.79941 53.7058 1.85566 53.7171 1.86691C53.7171 1.87816 53.7058 1.92316 53.7171 1.92316C53.7171 1.94566 53.7733 2.0694 53.7733 2.08065C53.7733 2.0919 53.7733 2.1594 53.7733 2.1819C53.7621 2.23814 53.6721 2.54188 53.6496 2.60938C53.6496 2.62063 53.5933 2.72187 53.5933 2.73312C53.5821 2.75562 53.5596 2.84562 53.5596 2.85686C53.5933 2.86811 53.6271 2.86811 53.6496 2.83437L53.8633 2.36189L53.897 2.32814C53.9308 2.49688 53.7396 2.65437 53.7733 2.83437H53.8633L58.8356 1.90066H59.0943C59.0043 1.91191 58.6106 2.0019 58.5318 2.0244C58.4643 2.03565 58.3968 2.0469 58.3406 2.08065H58.4418C58.5431 2.05815 59.0381 1.94566 59.1506 1.92316C59.218 1.92316 59.3868 1.92316 59.398 1.92316L59.4318 1.95691H59.6793L59.713 1.99065C59.6005 2.0244 59.1056 2.12565 58.9931 2.14815C58.9481 2.14815 58.7118 2.14815 58.6556 2.14815L57.6319 2.36189H57.7219C57.9019 2.32814 58.7231 2.22689 58.9031 2.20439C58.9818 2.20439 59.3305 2.20439 59.398 2.20439C59.3193 2.23814 58.9256 2.36189 58.8356 2.39564C58.7793 2.41814 58.6668 2.50813 58.5881 2.48563V2.45188C58.4418 2.41814 58.4643 2.60938 58.3743 2.55313L53.7733 3.54308C53.7733 3.54308 53.7508 3.54308 53.7396 3.54308C53.6946 3.55433 53.5483 3.59933 53.5258 3.61058C53.5258 3.61058 53.5033 3.63308 53.4921 3.63308L52.6821 5.65798C52.6821 5.65798 52.6596 5.68048 52.6596 5.69173C52.6484 5.71423 52.6034 5.87172 52.5921 5.90547C52.5921 5.91672 52.5921 5.96172 52.5921 5.97297C52.5809 6.00672 52.4796 6.2767 52.4684 6.31045C52.4684 6.3217 52.4684 6.3667 52.4684 6.37795C52.4684 6.3892 52.4234 6.4792 52.4121 6.50169C52.3784 6.4792 52.3671 6.46795 52.3784 6.4342C52.4009 6.3667 52.4796 6.08546 52.5021 6.02922C52.5021 6.02922 52.5246 5.97297 52.5359 5.97297C52.5359 5.92797 52.6146 5.63548 52.6259 5.59049C52.6484 5.53424 52.8508 5.09551 52.8733 5.03926C52.8733 5.02801 52.8958 4.93802 52.9071 4.91552C52.9071 4.90427 52.9071 4.88177 52.9071 4.88177L53.3346 3.73432V3.66683H53.3121C53.3008 3.67808 53.2558 3.74557 53.2446 3.75682L52.6821 5.21925C52.6934 5.2305 52.6934 5.253 52.6821 5.253C52.5921 5.50049 52.4796 5.74798 52.4121 5.99547C52.4009 6.00672 52.4009 6.05172 52.4121 6.06296L51.9734 7.3679C51.8721 7.5029 51.8834 7.68289 51.8496 7.82913C51.8384 7.87413 51.7596 8.20036 51.7596 8.23411C51.7596 8.24536 51.7596 8.25661 51.7596 8.26786C51.7934 8.32411 51.8046 8.16662 51.8496 8.14412C51.8496 8.14412 51.8496 8.16662 51.8496 8.17787C51.8384 8.21161 51.7596 8.51535 51.7596 8.5491C51.7147 8.72909 51.6359 8.90908 51.6584 9.11157L51.5684 9.01033C51.5234 9.14532 51.4897 9.30281 51.5009 9.44906C51.5459 9.49405 51.5909 9.25782 51.6359 9.23532C51.6472 9.33656 51.6247 9.49405 51.5347 9.5728L51.5009 9.51655C51.4109 9.5728 51.4334 9.74154 51.4447 9.82029C51.4897 9.79779 51.4897 9.62905 51.5684 9.6628C51.5684 9.67405 51.5684 9.69654 51.5684 9.69654C51.5459 9.87654 51.4559 10.3715 51.4447 10.4165C51.4334 10.439 51.3997 10.574 51.3772 10.5965C51.3659 10.4165 51.4334 10.2365 51.4109 10.0678H51.3772C51.3772 10.0678 51.3097 10.4165 51.2872 10.5628C51.2872 10.574 51.2872 10.5965 51.2872 10.5965C51.2872 10.6303 51.2647 10.7877 51.2534 10.8215C51.3997 10.9115 51.2759 11.114 51.2872 11.249C51.2984 11.2602 51.3209 11.2602 51.3209 11.249C51.3209 11.249 51.3434 11.2265 51.3547 11.2152C51.3884 11.204 51.6922 11.0577 51.7259 11.0352C51.7484 11.024 51.8384 10.9565 51.8496 10.9452L54.1445 7.86288C54.1558 7.85163 54.2683 7.85163 54.2683 7.89663C54.2795 7.91913 54.2683 8.06537 54.2683 8.07662C54.2795 8.11037 54.392 8.33536 54.392 8.35786C54.4033 8.36911 54.4033 8.4141 54.392 8.42535C54.2795 8.5941 54.1333 8.84158 54.0545 9.04408C54.0433 9.06657 53.9983 9.26906 53.987 9.29156L53.9645 9.32531C53.8858 9.4828 53.7508 9.71904 53.7171 9.88779L53.0308 10.7202C53.0083 10.7427 53.0533 10.7765 53.0646 10.7877L52.1646 11.6877C51.9509 11.6315 51.8946 11.8227 51.7596 11.8677C51.5572 11.9464 51.4672 11.9464 51.2534 11.9014ZM52.1309 11.4965C52.1196 11.5077 52.0971 11.5302 52.0971 11.5302C52.1196 11.5302 52.1984 11.4852 52.2209 11.474C52.2209 11.474 52.3109 11.4177 52.2884 11.3727C52.2209 11.4515 52.2096 11.4402 52.1309 11.4965ZM52.0971 11.3165C52.0971 11.3277 52.1421 11.3727 52.1646 11.3727C52.1759 11.3727 52.2434 11.3277 52.2546 11.3165C52.2321 11.2602 52.1084 11.2602 52.0971 11.3165ZM52.5584 11.1252C52.5584 11.1252 52.5584 11.1477 52.5584 11.159L52.6596 11.069C52.6371 11.069 52.5809 11.114 52.5584 11.1252ZM52.7159 10.9677V11.0015L52.9408 10.8215H52.8733L52.7159 10.9677ZM52.8733 10.5965C52.8733 10.6078 52.8733 10.6528 52.8733 10.664C52.8958 10.6415 52.9858 10.5628 52.9971 10.5403C52.9971 10.529 52.9971 10.5065 52.9971 10.5065C52.9858 10.5178 52.9183 10.5628 52.9071 10.5628C52.8958 10.574 52.8733 10.5965 52.8733 10.5965ZM52.9071 10.4728L52.8733 10.5065H52.9071V10.4728ZM53.2783 10.1915C53.2671 10.1803 53.2333 10.214 53.2446 10.2253C53.2671 10.2365 53.2896 10.214 53.2783 10.1915ZM51.4109 9.94403C51.3772 9.94403 51.3772 10.0115 51.4109 10.0115C51.4447 10.0115 51.4447 9.94403 51.4109 9.94403ZM51.6922 8.5491C51.6584 8.5491 51.6584 8.60535 51.6922 8.60535C51.7259 8.60535 51.7259 8.5491 51.6922 8.5491ZM51.7596 8.33536C51.7371 8.32411 51.7371 8.36911 51.7596 8.35786C51.7709 8.35786 51.7709 8.33536 51.7596 8.33536ZM52.0071 7.68289C52.0296 7.55914 52.0859 7.35665 52.1646 7.24416C52.1646 7.26666 52.1646 7.3454 52.1646 7.3679C52.1421 7.4579 52.0746 7.67164 52.0634 7.68289L52.0071 7.70539V7.68289ZM52.2209 7.03042C52.2546 6.90668 52.3446 6.62544 52.3446 6.62544L52.3784 6.59169C52.3784 6.60294 52.3784 6.67044 52.3784 6.68169C52.3559 6.77168 52.2659 7.00792 52.2546 7.03042L52.2209 7.05292V7.03042ZM52.3784 5.28675C52.3446 5.28675 52.3446 5.343 52.3784 5.343C52.4121 5.343 52.4121 5.28675 52.3784 5.28675ZM57.1931 2.64312C57.1594 2.64312 57.1594 2.71062 57.1931 2.71062C57.2269 2.71062 57.2269 2.64312 57.1931 2.64312ZM57.7894 2.55313C57.7894 2.53063 57.7444 2.53063 57.7556 2.55313C57.7556 2.56438 57.7781 2.56438 57.7894 2.55313ZM58.3068 2.39564C58.2843 2.39564 58.2843 2.45188 58.3068 2.45188C58.3406 2.45188 58.3406 2.39564 58.3068 2.39564ZM57.5306 2.39564C57.5419 2.37314 57.4969 2.37314 57.5081 2.39564C57.5081 2.41814 57.5306 2.41814 57.5306 2.39564ZM58.7456 2.30564C58.7118 2.30564 58.7118 2.36189 58.7456 2.36189C58.7793 2.36189 58.7793 2.30564 58.7456 2.30564ZM58.2843 2.1144C58.2843 2.0919 58.2506 2.0919 58.2506 2.1144C58.2506 2.1369 58.2731 2.1369 58.2843 2.1144ZM59.3418 1.95691V1.99065L59.3643 1.95691H59.3418Z" fill="#FFDF39"/>
</svg>
