<svg width="45" height="39" viewBox="0 0 45 39" fill="none" xmlns="http://www.w3.org/2000/svg">
<g filter="url(#filter0_d_722_1470)">
<path d="M19.961 0.507568L19.961 16.9212C19.961 26.5187 11.9085 34.3212 6.88941 37.4045C6.25201 37.796 5.56541 36.9834 6.05189 36.4147C7.40689 34.8272 12.8188 28.8527 13.8376 19.8454L0.623138 19.8454L0.623138 0.507568L19.961 0.507568Z" fill="#FCFBCD"/>
<path d="M6.43184 36.7397L6.43219 36.7393C6.48515 36.6772 6.54447 36.6083 6.60961 36.5326C8.21102 34.6721 13.3374 28.7161 14.3344 19.9016L14.3973 19.3454H13.8376L1.12314 19.3454L1.12314 1.00757L19.461 1.00757L19.461 16.9212C19.461 21.5782 17.5064 25.8254 14.9068 29.3065C12.3069 32.7877 9.08755 35.4673 6.6277 36.9784C6.57465 37.011 6.54143 37.0092 6.52165 37.0051C6.49482 36.9996 6.46051 36.9817 6.43099 36.9468C6.40149 36.9119 6.38866 36.874 6.3875 36.8446C6.38661 36.8221 6.39102 36.7874 6.43184 36.7397Z" stroke="black"/>
</g>
<g filter="url(#filter1_d_722_1470)">
<path d="M43.1875 0.507568V16.9212C43.1875 26.5187 35.135 34.3212 30.1159 37.4045C29.4785 37.7959 28.7912 36.9834 29.2784 36.4147C30.6374 34.8272 36.0493 28.8527 37.0674 19.8394L23.853 19.8394L23.853 0.507568L43.1875 0.507568Z" fill="#FCFBCD"/>
<path d="M29.6581 36.74L29.6582 36.7398C29.709 36.6805 29.7656 36.6148 29.8276 36.543C31.4234 34.6931 36.5662 28.7315 37.5643 19.8955L37.6271 19.3394H37.0674L24.353 19.3394L24.353 1.00757L42.6875 1.00757V16.9212C42.6875 21.5782 40.7329 25.8254 38.1332 29.3065C35.5334 32.7877 32.314 35.4673 29.8542 36.9784C29.8012 37.011 29.7679 37.0092 29.748 37.0051C29.7211 36.9996 29.6867 36.9816 29.6572 36.9467C29.6276 36.9118 29.6149 36.874 29.6137 36.8447C29.6128 36.8224 29.6172 36.7877 29.6581 36.74Z" stroke="black"/>
</g>
<defs>
<filter id="filter0_d_722_1470" x="0.623138" y="0.507568" width="20.3379" height="37.9998" filterUnits="userSpaceOnUse" color-interpolation-filters="sRGB">
<feFlood flood-opacity="0" result="BackgroundImageFix"/>
<feColorMatrix in="SourceAlpha" type="matrix" values="0 0 0 0 0 0 0 0 0 0 0 0 0 0 0 0 0 0 127 0" result="hardAlpha"/>
<feOffset dx="1" dy="1"/>
<feComposite in2="hardAlpha" operator="out"/>
<feColorMatrix type="matrix" values="0 0 0 0 0 0 0 0 0 0 0 0 0 0 0 0 0 0 1 0"/>
<feBlend mode="normal" in2="BackgroundImageFix" result="effect1_dropShadow_722_1470"/>
<feBlend mode="normal" in="SourceGraphic" in2="effect1_dropShadow_722_1470" result="shape"/>
</filter>
<filter id="filter1_d_722_1470" x="23.853" y="0.507568" width="20.3345" height="37.9998" filterUnits="userSpaceOnUse" color-interpolation-filters="sRGB">
<feFlood flood-opacity="0" result="BackgroundImageFix"/>
<feColorMatrix in="SourceAlpha" type="matrix" values="0 0 0 0 0 0 0 0 0 0 0 0 0 0 0 0 0 0 127 0" result="hardAlpha"/>
<feOffset dx="1" dy="1"/>
<feComposite in2="hardAlpha" operator="out"/>
<feColorMatrix type="matrix" values="0 0 0 0 0 0 0 0 0 0 0 0 0 0 0 0 0 0 1 0"/>
<feBlend mode="normal" in2="BackgroundImageFix" result="effect1_dropShadow_722_1470"/>
<feBlend mode="normal" in="SourceGraphic" in2="effect1_dropShadow_722_1470" result="shape"/>
</filter>
</defs>
</svg>
