<svg width="164" height="530" viewBox="0 0 164 530" fill="none" xmlns="http://www.w3.org/2000/svg">
<rect x="1.89166" y="1.98637" width="160.217" height="160.217" rx="80.1086" stroke="#FFED48" stroke-width="2.65734"/>
<path d="M45.754 83.8493C45.754 85.9752 45.8072 88.3668 45.9135 91.0242C46.0729 93.6284 46.4981 96.0997 47.189 98.4381C47.933 100.723 49.1023 102.663 50.6967 104.258C52.2911 105.852 54.5233 106.649 57.3932 106.649C60.2631 106.649 62.4953 105.852 64.0897 104.258C65.6841 102.663 66.8267 100.723 67.5176 98.4381C68.2617 96.0997 68.6869 93.6284 68.7932 91.0242C68.9526 88.3668 69.0323 85.9752 69.0323 83.8493C69.0323 82.4675 69.0058 80.9528 68.9526 79.3053C68.9526 77.6046 68.8197 75.9305 68.554 74.2829C68.3414 72.5822 67.996 70.9347 67.5176 69.3403C67.0925 67.7459 66.4281 66.364 65.5246 65.1948C64.6743 63.9724 63.5848 62.9892 62.2561 62.2452C60.9274 61.5011 59.3065 61.1291 57.3932 61.1291C55.4799 61.1291 53.8589 61.5011 52.5302 62.2452C51.2016 62.9892 50.0855 63.9724 49.182 65.1948C48.3316 66.364 47.6673 67.7459 47.189 69.3403C46.7638 70.9347 46.4184 72.5822 46.1526 74.2829C45.94 75.9305 45.8072 77.6046 45.754 79.3053C45.754 80.9528 45.754 82.4675 45.754 83.8493ZM38.5792 83.9291C38.5792 81.8563 38.6324 79.7039 38.7386 77.4717C38.8449 75.2396 39.1107 73.0605 39.5358 70.9347C39.961 68.8088 40.5722 66.7892 41.3694 64.8759C42.1666 62.9626 43.2561 61.2885 44.6379 59.8536C46.0198 58.4186 47.747 57.2759 49.8198 56.4256C51.9456 55.5752 54.4701 55.1501 57.3932 55.1501C60.3163 55.1501 62.8142 55.5752 64.8869 56.4256C67.0128 57.2759 68.7666 58.4186 70.1484 59.8536C71.5302 61.2885 72.6197 62.9626 73.4169 64.8759C74.2141 66.7892 74.8253 68.8088 75.2505 70.9347C75.6757 73.0605 75.9414 75.2396 76.0477 77.4717C76.154 79.7039 76.2072 81.8563 76.2072 83.9291C76.2072 86.0018 76.154 88.1542 76.0477 90.3864C75.9414 92.6186 75.6757 94.7976 75.2505 96.9235C74.8253 99.0493 74.2141 101.069 73.4169 102.982C72.6197 104.842 71.5302 106.49 70.1484 107.925C68.7666 109.36 67.0393 110.502 64.9666 111.353C62.8939 112.15 60.3694 112.549 57.3932 112.549C54.4701 112.549 51.9456 112.15 49.8198 111.353C47.747 110.502 46.0198 109.36 44.6379 107.925C43.2561 106.49 42.1666 104.842 41.3694 102.982C40.5722 101.069 39.961 99.0493 39.5358 96.9235C39.1107 94.7976 38.8449 92.6186 38.7386 90.3864C38.6324 88.1542 38.5792 86.0018 38.5792 83.9291ZM107.909 111.672H101.133V71.1738H86.4643V65.7529C88.3776 65.7529 90.2377 65.62 92.0447 65.3543C93.8517 65.0354 95.4727 64.4773 96.9076 63.6801C98.3957 62.8829 99.6447 61.7934 100.654 60.4116C101.664 59.0298 102.355 57.2759 102.727 55.1501H107.909V111.672Z" fill="#FFED48"/>
<rect x="1.89166" y="124.142" width="160.217" height="160.217" rx="80.1086" stroke="#FFED48" stroke-width="2.65734"/>
<path d="M45.754 206.087C45.754 208.213 45.8072 210.604 45.9135 213.262C46.0729 215.866 46.4981 218.337 47.189 220.676C47.933 222.961 49.1023 224.901 50.6967 226.495C52.2911 228.09 54.5233 228.887 57.3932 228.887C60.2631 228.887 62.4953 228.09 64.0897 226.495C65.6841 224.901 66.8267 222.961 67.5176 220.676C68.2617 218.337 68.6869 215.866 68.7932 213.262C68.9526 210.604 69.0323 208.213 69.0323 206.087C69.0323 204.705 69.0058 203.19 68.9526 201.543C68.9526 199.842 68.8197 198.168 68.554 196.521C68.3414 194.82 67.996 193.172 67.5176 191.578C67.0925 189.984 66.4281 188.602 65.5246 187.432C64.6743 186.21 63.5848 185.227 62.2561 184.483C60.9274 183.739 59.3065 183.367 57.3932 183.367C55.4799 183.367 53.8589 183.739 52.5302 184.483C51.2016 185.227 50.0855 186.21 49.182 187.432C48.3316 188.602 47.6673 189.984 47.189 191.578C46.7638 193.172 46.4184 194.82 46.1526 196.521C45.94 198.168 45.8072 199.842 45.754 201.543C45.754 203.19 45.754 204.705 45.754 206.087ZM38.5792 206.167C38.5792 204.094 38.6324 201.942 38.7386 199.709C38.8449 197.477 39.1107 195.298 39.5358 193.172C39.961 191.046 40.5722 189.027 41.3694 187.114C42.1666 185.2 43.2561 183.526 44.6379 182.091C46.0198 180.656 47.747 179.514 49.8198 178.663C51.9456 177.813 54.4701 177.388 57.3932 177.388C60.3163 177.388 62.8142 177.813 64.8869 178.663C67.0128 179.514 68.7666 180.656 70.1484 182.091C71.5302 183.526 72.6197 185.2 73.4169 187.114C74.2141 189.027 74.8253 191.046 75.2505 193.172C75.6757 195.298 75.9414 197.477 76.0477 199.709C76.154 201.942 76.2072 204.094 76.2072 206.167C76.2072 208.239 76.154 210.392 76.0477 212.624C75.9414 214.856 75.6757 217.035 75.2505 219.161C74.8253 221.287 74.2141 223.307 73.4169 225.22C72.6197 227.08 71.5302 228.728 70.1484 230.162C68.7666 231.597 67.0393 232.74 64.9666 233.59C62.8939 234.388 60.3694 234.786 57.3932 234.786C54.4701 234.786 51.9456 234.388 49.8198 233.59C47.747 232.74 46.0198 231.597 44.6379 230.162C43.2561 228.728 42.1666 227.08 41.3694 225.22C40.5722 223.307 39.961 221.287 39.5358 219.161C39.1107 217.035 38.8449 214.856 38.7386 212.624C38.6324 210.392 38.5792 208.239 38.5792 206.167ZM83.0363 197.397C82.8769 194.528 83.1692 191.87 83.9132 189.425C84.6573 186.981 85.7999 184.881 87.3412 183.128C88.9356 181.321 90.902 179.912 93.2405 178.902C95.579 177.893 98.2363 177.388 101.213 177.388C103.657 177.388 105.943 177.76 108.068 178.504C110.247 179.195 112.134 180.231 113.729 181.613C115.323 182.942 116.572 184.616 117.475 186.635C118.432 188.655 118.91 190.993 118.91 193.651C118.91 196.149 118.512 198.354 117.715 200.267C116.971 202.181 115.961 203.908 114.685 205.449C113.41 206.937 111.948 208.293 110.301 209.515C108.653 210.737 106.952 211.907 105.199 213.023C103.445 214.086 101.691 215.149 99.937 216.211C98.1832 217.221 96.5622 218.311 95.0741 219.48C93.6391 220.649 92.3901 221.925 91.3272 223.307C90.3174 224.635 89.6531 226.176 89.3342 227.93H118.352V233.909H81.4419C81.7076 230.561 82.2923 227.718 83.1957 225.379C84.1524 222.988 85.3482 220.915 86.7832 219.161C88.2181 217.407 89.8391 215.866 91.6461 214.537C93.4531 213.209 95.3398 211.96 97.3062 210.79C99.6978 209.302 101.797 207.947 103.604 206.725C105.411 205.449 106.899 204.174 108.068 202.898C109.291 201.623 110.194 200.241 110.779 198.753C111.417 197.265 111.736 195.537 111.736 193.571C111.736 192.03 111.443 190.648 110.859 189.425C110.274 188.15 109.477 187.06 108.467 186.157C107.51 185.253 106.368 184.563 105.039 184.084C103.71 183.606 102.302 183.367 100.814 183.367C98.8475 183.367 97.1468 183.792 95.7118 184.642C94.33 185.439 93.1873 186.502 92.2839 187.831C91.3804 189.16 90.716 190.674 90.2908 192.375C89.9188 194.023 89.7594 195.697 89.8125 197.397H83.0363Z" fill="#FFED48"/>
<rect x="1.89166" y="246.298" width="160.217" height="160.217" rx="80.1086" stroke="#FFED48" stroke-width="2.65734"/>
<path d="M45.754 328.325C45.754 330.451 45.8072 332.842 45.9135 335.499C46.0729 338.104 46.4981 340.575 47.189 342.913C47.933 345.199 49.1023 347.139 50.6967 348.733C52.2911 350.327 54.5233 351.125 57.3932 351.125C60.2631 351.125 62.4953 350.327 64.0897 348.733C65.6841 347.139 66.8267 345.199 67.5176 342.913C68.2617 340.575 68.6869 338.104 68.7932 335.499C68.9526 332.842 69.0323 330.451 69.0323 328.325C69.0323 326.943 69.0058 325.428 68.9526 323.781C68.9526 322.08 68.8197 320.406 68.554 318.758C68.3414 317.058 67.996 315.41 67.5176 313.816C67.0925 312.221 66.4281 310.839 65.5246 309.67C64.6743 308.448 63.5848 307.465 62.2561 306.72C60.9274 305.976 59.3065 305.604 57.3932 305.604C55.4799 305.604 53.8589 305.976 52.5302 306.72C51.2016 307.465 50.0855 308.448 49.182 309.67C48.3316 310.839 47.6673 312.221 47.189 313.816C46.7638 315.41 46.4184 317.058 46.1526 318.758C45.94 320.406 45.8072 322.08 45.754 323.781C45.754 325.428 45.754 326.943 45.754 328.325ZM38.5792 328.404C38.5792 326.332 38.6324 324.179 38.7386 321.947C38.8449 319.715 39.1107 317.536 39.5358 315.41C39.961 313.284 40.5722 311.265 41.3694 309.351C42.1666 307.438 43.2561 305.764 44.6379 304.329C46.0198 302.894 47.747 301.751 49.8198 300.901C51.9456 300.051 54.4701 299.625 57.3932 299.625C60.3163 299.625 62.8142 300.051 64.8869 300.901C67.0128 301.751 68.7666 302.894 70.1484 304.329C71.5302 305.764 72.6197 307.438 73.4169 309.351C74.2141 311.265 74.8253 313.284 75.2505 315.41C75.6757 317.536 75.9414 319.715 76.0477 321.947C76.154 324.179 76.2072 326.332 76.2072 328.404C76.2072 330.477 76.154 332.63 76.0477 334.862C75.9414 337.094 75.6757 339.273 75.2505 341.399C74.8253 343.525 74.2141 345.544 73.4169 347.458C72.6197 349.318 71.5302 350.965 70.1484 352.4C68.7666 353.835 67.0393 354.978 64.9666 355.828C62.8939 356.625 60.3694 357.024 57.3932 357.024C54.4701 357.024 51.9456 356.625 49.8198 355.828C47.747 354.978 46.0198 353.835 44.6379 352.4C43.2561 350.965 42.1666 349.318 41.3694 347.458C40.5722 345.544 39.961 343.525 39.5358 341.399C39.1107 339.273 38.8449 337.094 38.7386 334.862C38.6324 332.63 38.5792 330.477 38.5792 328.404ZM96.9076 323.86C97.1734 323.913 97.4125 323.94 97.6251 323.94C97.8908 323.94 98.1566 323.94 98.4223 323.94H99.8573C101.292 323.94 102.647 323.754 103.923 323.382C105.252 322.957 106.394 322.372 107.351 321.628C108.361 320.831 109.158 319.848 109.743 318.679C110.327 317.509 110.62 316.181 110.62 314.693C110.62 311.663 109.663 309.404 107.75 307.916C105.836 306.375 103.445 305.604 100.575 305.604C98.7678 305.604 97.1734 305.95 95.7915 306.641C94.4629 307.279 93.3468 308.155 92.4433 309.272C91.5929 310.388 90.9552 311.69 90.53 313.178C90.1048 314.666 89.8922 316.234 89.8922 317.881H83.116C83.2223 315.171 83.6475 312.7 84.3916 310.467C85.1888 308.235 86.3048 306.322 87.7398 304.727C89.1748 303.133 90.9552 301.884 93.0811 300.981C95.2601 300.077 97.758 299.625 100.575 299.625C103.02 299.625 105.278 299.944 107.351 300.582C109.477 301.167 111.31 302.07 112.852 303.293C114.393 304.515 115.589 306.083 116.439 307.996C117.343 309.909 117.794 312.168 117.794 314.772C117.794 317.323 117.05 319.582 115.562 321.548C114.074 323.515 112.214 325.003 109.982 326.013V326.172C113.436 326.916 115.987 328.537 117.635 331.035C119.336 333.533 120.186 336.483 120.186 339.884C120.186 342.701 119.654 345.199 118.592 347.378C117.582 349.504 116.2 351.284 114.446 352.719C112.692 354.154 110.62 355.244 108.228 355.988C105.889 356.679 103.392 357.024 100.734 357.024C97.8643 357.024 95.2601 356.625 92.9216 355.828C90.5832 355.031 88.5902 353.862 86.9426 352.32C85.295 350.726 84.0195 348.786 83.116 346.501C82.2657 344.216 81.8671 341.611 81.9202 338.688H88.6964C88.8027 342.355 89.8657 345.358 91.8853 347.697C93.9048 349.982 96.8545 351.125 100.734 351.125C102.382 351.125 103.95 350.885 105.438 350.407C106.926 349.876 108.228 349.158 109.344 348.255C110.46 347.298 111.337 346.155 111.975 344.827C112.666 343.445 113.011 341.904 113.011 340.203C113.011 338.449 112.692 336.908 112.054 335.579C111.417 334.197 110.566 333.055 109.503 332.151C108.44 331.195 107.165 330.504 105.677 330.079C104.242 329.6 102.674 329.361 100.973 329.361C99.5384 329.361 98.1832 329.441 96.9076 329.6V323.86Z" fill="#FFED48"/>
<rect x="1.89166" y="368.454" width="160.217" height="160.217" rx="80.1086" stroke="#FFED48" stroke-width="2.65734"/>
<path d="M45.754 450.562C45.754 452.688 45.8072 455.08 45.9135 457.737C46.0729 460.341 46.4981 462.813 47.189 465.151C47.933 467.436 49.1023 469.376 50.6967 470.971C52.2911 472.565 54.5233 473.362 57.3932 473.362C60.2631 473.362 62.4953 472.565 64.0897 470.971C65.6841 469.376 66.8267 467.436 67.5176 465.151C68.2617 462.813 68.6869 460.341 68.7932 457.737C68.9526 455.08 69.0323 452.688 69.0323 450.562C69.0323 449.181 69.0058 447.666 68.9526 446.018C68.9526 444.318 68.8197 442.643 68.554 440.996C68.3414 439.295 67.996 437.648 67.5176 436.053C67.0925 434.459 66.4281 433.077 65.5246 431.908C64.6743 430.685 63.5848 429.702 62.2561 428.958C60.9274 428.214 59.3065 427.842 57.3932 427.842C55.4799 427.842 53.8589 428.214 52.5302 428.958C51.2016 429.702 50.0855 430.685 49.182 431.908C48.3316 433.077 47.6673 434.459 47.189 436.053C46.7638 437.648 46.4184 439.295 46.1526 440.996C45.94 442.643 45.8072 444.318 45.754 446.018C45.754 447.666 45.754 449.181 45.754 450.562ZM38.5792 450.642C38.5792 448.569 38.6324 446.417 38.7386 444.185C38.8449 441.953 39.1107 439.774 39.5358 437.648C39.961 435.522 40.5722 433.502 41.3694 431.589C42.1666 429.676 43.2561 428.002 44.6379 426.567C46.0198 425.132 47.747 423.989 49.8198 423.139C51.9456 422.288 54.4701 421.863 57.3932 421.863C60.3163 421.863 62.8142 422.288 64.8869 423.139C67.0128 423.989 68.7666 425.132 70.1484 426.567C71.5302 428.002 72.6197 429.676 73.4169 431.589C74.2141 433.502 74.8253 435.522 75.2505 437.648C75.6757 439.774 75.9414 441.953 76.0477 444.185C76.154 446.417 76.2072 448.569 76.2072 450.642C76.2072 452.715 76.154 454.867 76.0477 457.099C75.9414 459.332 75.6757 461.511 75.2505 463.636C74.8253 465.762 74.2141 467.782 73.4169 469.695C72.6197 471.555 71.5302 473.203 70.1484 474.638C68.7666 476.073 67.0393 477.215 64.9666 478.066C62.8939 478.863 60.3694 479.262 57.3932 479.262C54.4701 479.262 51.9456 478.863 49.8198 478.066C47.747 477.215 46.0198 476.073 44.6379 474.638C43.2561 473.203 42.1666 471.555 41.3694 469.695C40.5722 467.782 39.961 465.762 39.5358 463.636C39.1107 461.511 38.8449 459.332 38.7386 457.099C38.6324 454.867 38.5792 452.715 38.5792 450.642ZM106.554 459.172V431.509H106.394L87.5804 459.172H106.554ZM112.931 459.172H120.585V465.151H112.931V478.385H106.554V465.151H81.7608V458.614L107.51 421.863H112.931V459.172Z" fill="#FFED48"/>
</svg>
