<svg width="583" height="331" viewBox="0 0 583 331" fill="none" xmlns="http://www.w3.org/2000/svg">
<path d="M44.9152 311.335C64.7328 311.335 80.7982 304.994 80.7982 297.171C80.7982 289.348 64.7328 283.007 44.9152 283.007C25.0976 283.007 9.03223 289.348 9.03223 297.171C9.03223 304.994 25.0976 311.335 44.9152 311.335Z" fill="#EC8117"/>
<path opacity="0.5" d="M44.9152 311.335C64.7328 311.335 80.7982 304.994 80.7982 297.171C80.7982 289.348 64.7328 283.007 44.9152 283.007C25.0976 283.007 9.03223 289.348 9.03223 297.171C9.03223 304.994 25.0976 311.335 44.9152 311.335Z" fill="white"/>
<path d="M19.2366 68.2007C19.2366 68.2007 16.4992 69.798 15.1299 72.3073C13.7606 74.8166 5.77665 97.8566 3.26732 103.103C0.757999 108.35 -0.383296 110.175 2.81131 111.999C6.00465 113.825 10.1113 111.087 12.8486 106.069C15.5859 101.05 20.6046 87.134 21.5166 83.9407C22.4299 80.7473 25.6245 68.6567 19.2366 68.2007Z" fill="#EC8117" stroke="#263238" stroke-width="1.2667" stroke-miterlimit="10" stroke-linecap="round" stroke-linejoin="round"/>
<path d="M68.6248 275.24L70.5097 288.749L69.2531 289.377L65.4834 282.151L68.6248 275.24Z" fill="#263238" stroke="#263238" stroke-width="1.2667" stroke-miterlimit="10" stroke-linecap="round" stroke-linejoin="round"/>
<path d="M29.668 193.554C29.668 193.554 33.7518 213.033 37.8369 225.6C41.9207 238.167 55.1159 267.385 56.0583 272.412C57.0007 277.438 55.7442 277.438 55.7442 281.523C55.7442 285.607 50.0896 290.007 49.7755 292.205C49.4614 294.404 53.8593 294.719 57.9444 293.462C62.0283 292.205 64.8568 288.75 64.8568 285.921C64.8568 283.094 68.6265 278.067 68.6265 275.239C68.6265 272.412 63.9144 272.098 63.6002 266.756C63.2861 261.416 61.4012 242.251 58.2586 230.94C55.1172 219.63 51.9758 213.661 49.4614 210.519C46.9482 207.377 43.8056 200.151 44.4351 197.638C45.0621 195.125 29.668 193.554 29.668 193.554Z" fill="white" stroke="#263238" stroke-width="1.2667" stroke-miterlimit="10" stroke-linecap="round" stroke-linejoin="round"/>
<path d="M64.855 285.92C64.855 283.093 68.6247 278.065 68.6247 275.238C68.6247 274.046 67.7848 273.3 66.793 272.436C65.3997 276.169 62.5572 282.651 58.2568 286.234C55.5739 288.47 53.8183 288.435 52.7048 287.789C51.3077 289.581 49.9244 291.147 49.7737 292.203C49.4596 294.402 53.8575 294.716 57.9426 293.46C62.0264 292.204 64.855 288.749 64.855 285.92Z" fill="#263238" stroke="#263238" stroke-width="1.2667" stroke-miterlimit="10" stroke-linecap="round" stroke-linejoin="round"/>
<path d="M36.8937 197.953C36.8937 197.953 35.6372 208.321 35.6372 214.918C35.6372 221.515 31.8219 265.029 30.6109 273.353C29.4342 281.436 27.1554 284.978 25.8988 289.376C24.6423 293.774 23.3857 298.487 21.1867 299.744C18.9877 301 21.1867 302.257 24.9564 301.943C28.7261 301.629 32.4958 299.744 32.8112 296.288C33.1253 292.833 36.1109 289.795 38.1516 288.433C41.9212 285.92 37.2091 278.38 42.5495 262.043C44.8967 254.864 50.7185 245.392 51.975 234.396C53.2316 223.4 51.0326 213.346 51.0326 210.833C51.0326 208.32 53.2316 198.895 53.2316 198.895L36.8937 197.953Z" fill="white" stroke="#263238" stroke-width="1.2667" stroke-miterlimit="10" stroke-linecap="round" stroke-linejoin="round"/>
<path d="M39.1069 288.964C43.1857 287.412 40.2318 283.923 39.8872 280.119C36.609 283.294 32.2199 291.538 29.6675 294.089C27.8599 295.897 25.6394 295.727 24.0776 295.257C23.2897 297.366 22.3764 299.063 21.1857 299.744C18.9867 301 21.1857 302.257 24.9554 301.943C28.7251 301.628 32.4948 299.744 32.8102 296.288C33.1231 292.832 36.813 289.837 39.1069 288.964Z" fill="#263238" stroke="#263238" stroke-width="1.2667" stroke-miterlimit="10" stroke-linecap="round" stroke-linejoin="round"/>
<path d="M39.7218 285.921L40.6643 299.744H38.1511L35.9521 290.319C35.9521 290.319 38.1511 285.606 39.7218 285.921Z" fill="#263238" stroke="#263238" stroke-width="1.2667" stroke-miterlimit="10" stroke-linecap="round" stroke-linejoin="round"/>
<path d="M34.0645 65.9191L24.4832 69.5698C24.4832 69.5698 19.2365 82.1164 17.4112 91.2417C15.5859 100.367 18.0952 109.719 19.9205 115.423C21.7459 121.126 24.0272 153.975 24.9392 166.521C25.8512 179.068 27.6765 197.089 27.6765 197.089C27.6765 197.089 31.7832 200.283 39.9952 201.88C48.2071 203.477 59.8417 200.968 59.8417 200.968C59.8417 200.968 66.6857 181.121 68.0537 169.488C69.423 157.853 58.0164 138.92 54.3671 130.708C50.7177 122.496 49.3484 109.265 50.0324 105.387C50.7165 101.51 59.3857 72.0816 56.4191 70.7123C53.4551 69.3405 42.7325 65.4631 34.0645 65.9191Z" fill="#263238" stroke="#263238" stroke-width="1.2667" stroke-miterlimit="10" stroke-linecap="round" stroke-linejoin="round"/>
<path d="M34.0643 57.9351C34.0643 57.9351 33.1523 64.3217 32.467 67.0603C31.7817 69.7989 26.5364 79.3789 28.5884 83.4856C30.6417 87.5922 37.4844 87.5922 40.451 80.5202C43.4164 73.4483 42.9603 65.2363 42.9603 65.2363L44.1016 58.3923C44.1016 58.3923 36.8017 60.9004 34.0643 57.9351Z" fill="white" stroke="#263238" stroke-width="1.2667" stroke-miterlimit="10" stroke-linecap="round" stroke-linejoin="round"/>
<path d="M61.8946 47.898C60.5418 45.5622 58.2668 45.4179 56.4516 45.7763C60.5886 42.3715 63.1917 36.8486 59.1573 28.9635C54.1386 19.1542 42.276 21.4355 42.276 21.4355C42.276 21.4355 35.2041 20.7515 31.0987 27.3662C26.9921 33.9821 29.2734 43.1061 32.696 45.6154C35.8513 47.9297 45.786 50.4264 51.7876 48.4769C48.2776 52.1009 46.0153 57.3197 49.2188 61.9014C52.2006 66.1651 57.9894 66.7503 61.4399 62.7235C65.5439 57.9341 64.4039 52.2314 61.8946 47.898Z" fill="#263238" stroke="#263238" stroke-width="1.2667" stroke-miterlimit="10" stroke-linecap="round" stroke-linejoin="round"/>
<path d="M33.5019 46.1332C33.5019 46.1332 30.7557 41.5921 30.0553 44.7221C29.3548 47.8521 30.6696 50.2132 31.5816 50.7896C32.4936 51.3659 33.3867 51.1633 33.3867 51.1633" fill="white"/>
<path d="M33.5019 46.1332C33.5019 46.1332 30.7557 41.5921 30.0553 44.7221C29.3548 47.8521 30.6696 50.2132 31.5816 50.7896C32.4936 51.3659 33.3867 51.1633 33.3867 51.1633" stroke="#263238" stroke-width="1.2667" stroke-miterlimit="10" stroke-linecap="round" stroke-linejoin="round"/>
<path d="M33.3551 38.0644C33.3551 38.0644 29.2484 54.9457 34.9524 60.8764C40.655 66.807 47.043 57.227 52.2896 49.927L53.8869 45.1364C53.8869 45.1364 52.7469 42.8551 49.5523 38.2924C46.359 33.7298 45.6737 31.2205 45.6737 31.2205C45.6737 31.2205 39.743 38.7484 33.3551 38.0644Z" fill="white" stroke="#263238" stroke-width="1.2667" stroke-miterlimit="10" stroke-linecap="round" stroke-linejoin="round"/>
<path d="M50.9036 50.0183C50.9036 50.0183 55.6499 47.6458 54.5707 50.6656C53.4914 53.6854 51.1189 54.98 50.041 54.98C48.9617 54.98 48.3145 54.3327 48.3145 54.3327" fill="white"/>
<path d="M50.9036 50.0183C50.9036 50.0183 55.6499 47.6458 54.5707 50.6656C53.4914 53.6854 51.1189 54.98 50.041 54.98C48.9617 54.98 48.3145 54.3327 48.3145 54.3327" stroke="#263238" stroke-width="1.2667" stroke-miterlimit="10" stroke-linecap="round" stroke-linejoin="round"/>
<path d="M42.9209 44.194C42.9209 44.194 45.51 41.8215 49.1771 43.9787" stroke="#263238" stroke-width="0.633348" stroke-miterlimit="10"/>
<path d="M39.6843 41.8216C39.6843 41.8216 37.3118 39.2325 34.7227 40.3117" stroke="#263238" stroke-width="0.633348" stroke-miterlimit="10"/>
<path d="M38.8223 52.6074L40.3315 53.2544" stroke="#263238" stroke-width="0.633348" stroke-miterlimit="10"/>
<path d="M36.4492 54.9812C36.4492 54.9812 39.0383 56.7064 42.0582 55.8438" stroke="#263238" stroke-width="0.633348" stroke-miterlimit="10"/>
<path d="M39.8353 46.703C39.1133 48.4675 36.9637 49.2567 35.0333 48.4675C33.1041 47.6771 32.1249 45.6073 32.8469 43.8428C33.569 42.0783 35.7185 41.2892 37.649 42.0783C39.5782 42.8675 40.5573 44.9385 39.8353 46.703Z" stroke="#263238" stroke-width="0.633348" stroke-miterlimit="10"/>
<path d="M48.681 49.0761C47.959 50.8406 45.8094 51.6297 43.879 50.8406C41.9498 50.0501 40.9706 47.9804 41.6926 46.2159C42.4147 44.4514 44.5642 43.6622 46.4947 44.4514C48.4239 45.2418 49.403 47.3116 48.681 49.0761Z" stroke="#263238" stroke-width="0.633348" stroke-miterlimit="10"/>
<path d="M39.9014 45.7041L41.6917 46.2156" stroke="#263238" stroke-width="0.633348" stroke-miterlimit="10"/>
<path d="M48.7451 48.293L52.4135 48.7249" stroke="#263238" stroke-width="0.633348" stroke-miterlimit="10"/>
<path d="M32.4667 67.0591C32.4667 67.0591 26.536 78.9217 24.2547 90.327C21.9734 101.734 22.2014 122.948 22.6574 131.16C23.1134 139.372 22.6574 162.869 22.6574 162.869L12.1641 158.307C12.1641 158.307 12.6201 143.479 14.4454 133.898C16.2707 124.316 16.4987 112.227 16.2707 106.979C16.0427 101.732 13.7614 94.2044 15.1307 87.1324C16.5 80.0605 18.552 68.8831 19.2373 68.1991C19.92 67.5164 32.4667 67.0591 32.4667 67.0591Z" fill="#EC8117" stroke="#263238" stroke-width="1.2667" stroke-miterlimit="10" stroke-linecap="round" stroke-linejoin="round"/>
<path d="M42.9601 66.6035C42.9601 66.6035 38.8535 82.7995 36.3442 97.6274C33.8348 112.455 39.9948 162.185 39.9948 162.185C39.9948 162.185 43.1881 162.185 53.2254 160.587C63.2627 158.99 68.0534 156.025 68.0534 156.025C68.0534 156.025 62.1227 140.969 58.2441 133.213C54.3654 125.457 51.4001 119.297 51.4001 119.297C51.4001 119.297 50.0308 110.857 52.5401 101.504C55.0495 92.1502 61.8934 72.9889 59.1561 70.7076C56.42 68.4288 42.9601 66.6035 42.9601 66.6035Z" fill="#EC8117" stroke="#263238" stroke-width="1.2667" stroke-miterlimit="10" stroke-linecap="round" stroke-linejoin="round"/>
<path d="M52.542 78.2377C52.542 78.2377 50.0327 89.6442 49.1206 94.8909C48.2086 100.138 46.3833 107.894 46.3833 107.894C46.3833 107.894 30.4153 108.578 26.5367 108.35C22.6581 108.122 18.5527 108.122 18.5527 108.122L19.9208 115.422C19.9208 115.422 32.6954 119.984 40.6794 121.352C48.6634 122.721 52.998 124.774 54.366 122.264C55.7353 119.755 60.2967 93.9776 61.894 84.1683C63.4913 74.359 64.6313 72.0777 57.7874 70.2537" stroke="#263238" stroke-width="1.2667" stroke-miterlimit="10" stroke-linecap="round" stroke-linejoin="round"/>
<path d="M36.802 101.962C36.802 101.962 45.47 100.822 46.1553 100.593C46.8393 100.365 55.7366 104.243 55.7366 104.243C55.7366 104.243 55.2806 105.383 54.5966 105.611C53.9126 105.839 48.4379 103.102 48.4379 103.102L47.5259 103.33L54.3698 107.893C54.3698 107.893 55.2818 109.033 54.3698 109.49C53.4578 109.946 46.1578 105.155 46.1578 105.155L52.5458 111.314C52.5458 111.314 51.1765 112.226 50.0365 111.314C48.8964 110.402 46.3871 107.893 46.3871 107.893C46.3871 107.893 49.1244 111.086 47.7564 111.314C46.3871 111.542 43.8778 107.665 43.8778 107.665L39.7712 106.981L35.4365 106.525L36.802 101.962Z" fill="white" stroke="#263238" stroke-width="1.2667" stroke-miterlimit="10" stroke-linecap="round" stroke-linejoin="round"/>
<path d="M23.5878 102.133C23.5878 102.133 17.837 95.546 17.4747 94.9228C17.1125 94.2995 7.87319 91.3279 7.87319 91.3279C7.87319 91.3279 7.46152 92.4856 7.8238 93.1088C8.18607 93.7321 14.1041 95.2977 14.1041 95.2977L14.6386 96.0717L6.48743 94.9709C6.48743 94.9709 5.04847 95.2242 5.43227 96.1692C5.81482 97.1141 14.46 98.3454 14.46 98.3454L5.59568 98.7444C5.59568 98.7444 6.02002 100.334 7.47799 100.404C8.93722 100.473 12.4789 100.249 12.4789 100.249C12.4789 100.249 8.314 100.836 9.18929 101.912C10.0658 102.988 14.512 101.738 14.512 101.738L18.0448 103.939L21.5991 106.462L23.5878 102.133Z" fill="white" stroke="#263238" stroke-width="1.2667" stroke-miterlimit="10" stroke-linecap="round" stroke-linejoin="round"/>
<path d="M7.3737 101.05C7.3737 101.05 29.7296 101.734 32.695 101.734C35.6603 101.734 36.8016 101.962 36.8016 101.962L35.2043 113.139C35.2043 113.139 30.4136 113.823 18.323 113.823C6.2324 113.823 0.757748 114.507 1.21376 109.946C1.67104 105.385 7.3737 101.05 7.3737 101.05Z" fill="#EC8117" stroke="#263238" stroke-width="1.2667" stroke-miterlimit="10" stroke-linecap="round" stroke-linejoin="round"/>
<path d="M164.1 321.396C183.917 321.396 199.983 315.054 199.983 307.232C199.983 299.409 183.917 293.067 164.1 293.067C144.282 293.067 128.217 299.409 128.217 307.232C128.217 315.054 144.282 321.396 164.1 321.396Z" fill="#EC8117"/>
<path opacity="0.5" d="M164.1 321.396C183.917 321.396 199.983 315.054 199.983 307.232C199.983 299.409 183.917 293.067 164.1 293.067C144.282 293.067 128.217 299.409 128.217 307.232C128.217 315.054 144.282 321.396 164.1 321.396Z" fill="white"/>
<path d="M155.774 17.9019C155.774 17.9019 148.321 18.3782 143.536 27.411C138.752 36.4438 141.057 52.7386 142.731 57.7446C144.404 62.7506 152.317 86.8115 156.839 103.6C161.361 120.389 169.519 135.327 184.09 134.793C198.66 134.258 218.335 127.483 211.905 102.914C205.475 78.3448 191.816 68.2265 189.158 61.9576C186.499 55.6887 185.857 49.2058 184.655 35.5609C183.452 21.9173 174.118 14.3881 164.775 11.6609C155.431 8.93624 155.774 17.9019 155.774 17.9019Z" fill="#263238" stroke="#263238" stroke-width="1.2667" stroke-miterlimit="10" stroke-linecap="round" stroke-linejoin="round"/>
<path d="M183.216 57.3027C185.595 59.5068 186.527 59.5613 186.527 59.5613" stroke="white" stroke-width="0.633348" stroke-miterlimit="10" stroke-linecap="round" stroke-linejoin="round"/>
<path d="M162.149 19.5994C162.149 19.5994 162.35 29.3909 172.739 44.3759C176.425 49.6923 179.231 53.1465 181.317 55.3937" stroke="white" stroke-width="0.633348" stroke-miterlimit="10" stroke-linecap="round" stroke-linejoin="round"/>
<path d="M164.547 26.1936C164.547 26.1936 173.938 48.1733 184.728 54.3675" stroke="white" stroke-width="0.633348" stroke-miterlimit="10" stroke-linecap="round" stroke-linejoin="round"/>
<path d="M192.521 81.9407C192.521 81.9407 207.906 99.7238 208.106 112.312C208.306 124.901 200.313 130.296 199.514 130.296" stroke="white" stroke-width="0.633348" stroke-miterlimit="10" stroke-linecap="round" stroke-linejoin="round"/>
<path d="M200.249 84.5718C204.514 92.8281 209.249 104.203 208.106 112.312" stroke="white" stroke-width="0.633348" stroke-miterlimit="10" stroke-linecap="round" stroke-linejoin="round"/>
<path d="M194.119 73.9475C194.119 73.9475 195.64 76.2478 197.685 79.8452" stroke="white" stroke-width="0.633348" stroke-miterlimit="10" stroke-linecap="round" stroke-linejoin="round"/>
<path d="M147.961 37.3823C147.961 37.3823 142.093 49.3323 142.73 57.7445" stroke="white" stroke-width="0.633348" stroke-miterlimit="10" stroke-linecap="round" stroke-linejoin="round"/>
<path d="M145.165 44.3752C145.165 44.3752 144.965 51.7689 147.162 55.7641" stroke="white" stroke-width="0.633348" stroke-miterlimit="10" stroke-linecap="round" stroke-linejoin="round"/>
<path d="M198.095 157.446C198.095 157.446 195.263 163.82 195.263 165.591C195.263 167.362 195.617 175.152 196.679 173.736C197.742 172.319 196.679 167.008 198.095 166.653C199.511 166.3 200.574 167.361 199.158 171.611C197.742 175.861 196.679 180.11 199.512 177.985C202.345 175.861 202.345 173.027 203.408 166.653C204.47 160.279 203.053 155.322 203.053 155.322L198.095 157.446Z" fill="white" stroke="#263238" stroke-width="1.2667" stroke-miterlimit="10" stroke-linecap="round" stroke-linejoin="round"/>
<path d="M188.887 63.9626L194.553 116.016L204.822 155.677L195.969 159.572C195.969 159.572 184.284 126.995 181.452 120.974C178.619 114.955 177.557 109.997 177.557 107.518C177.557 105.039 188.887 63.9626 188.887 63.9626Z" fill="#EC8117" stroke="#263238" stroke-width="1.2667" stroke-miterlimit="10" stroke-linecap="round" stroke-linejoin="round"/>
<path d="M137.542 209.145C137.542 209.145 138.958 216.227 139.313 219.768C139.668 223.309 138.605 236.056 140.376 248.096C142.146 260.136 151.353 295.547 151.353 295.547C151.353 295.547 142.146 303.691 142.146 307.586C142.146 311.482 144.979 310.773 149.582 307.941C154.185 305.109 158.788 298.735 159.143 294.485C159.498 290.235 155.601 265.449 157.019 254.471C158.435 243.494 156.311 224.372 156.311 216.582C156.311 208.792 156.311 208.792 156.311 208.792L137.542 209.145Z" fill="white" stroke="#263238" stroke-width="1.2667" stroke-miterlimit="10" stroke-linecap="round" stroke-linejoin="round"/>
<path d="M147.812 303.691C146.571 303.07 147.264 300.643 148.054 298.727C145.412 301.444 142.147 305.264 142.147 307.586C142.147 311.481 144.98 310.773 149.583 307.941C153.122 305.763 156.652 301.494 158.261 297.706C154.3 302.034 149.425 304.497 147.812 303.691Z" fill="#263238" stroke="#263238" stroke-width="1.2667" stroke-miterlimit="10" stroke-linecap="round" stroke-linejoin="round"/>
<path d="M154.894 211.624C154.894 211.624 154.539 224.372 155.957 229.683C157.373 234.994 166.226 262.261 167.642 270.405C169.058 278.548 170.474 290.588 170.474 296.254C170.474 301.92 175.786 314.668 179.327 315.376C182.869 316.084 184.993 316.084 183.93 310.418C182.868 304.753 176.14 295.901 176.14 295.901C176.14 295.901 179.682 259.782 178.264 248.45C176.848 237.119 172.953 225.788 172.953 224.725C172.953 223.662 174.724 210.561 174.724 210.561L154.894 211.624Z" fill="white" stroke="#263238" stroke-width="1.2667" stroke-miterlimit="10" stroke-linecap="round" stroke-linejoin="round"/>
<path d="M181.314 303.915C180.882 305.7 180.089 307.232 178.619 307.232C175.078 307.232 171.537 301.212 171.537 301.212L171.357 301.521C173.016 307.532 176.67 314.846 179.327 315.376C182.869 316.084 184.993 316.084 183.931 310.419C183.565 308.464 182.52 306.135 181.314 303.915Z" fill="#263238" stroke="#263238" stroke-width="1.2667" stroke-miterlimit="10" stroke-linecap="round" stroke-linejoin="round"/>
<path d="M153.122 57.5887C153.122 57.5887 127.981 62.8999 127.626 64.3161C127.271 65.7323 135.771 109.996 135.771 111.767C135.771 113.537 125.856 136.553 125.147 150.717C124.439 164.882 129.75 211.977 129.75 211.977C129.75 211.977 140.373 216.581 150.642 216.581C160.911 216.581 178.262 214.102 178.262 214.102C178.262 214.102 186.76 186.836 187.468 163.819C188.177 140.802 177.907 112.12 177.907 112.12C177.907 112.12 188.885 65.7323 188.885 63.9614C188.886 62.1931 165.515 56.1725 153.122 57.5887Z" fill="#263238" stroke="#263238" stroke-width="1.2667" stroke-miterlimit="10" stroke-linecap="round" stroke-linejoin="round"/>
<path d="M177.909 112.121C177.909 112.121 188.887 65.7333 188.887 63.9625C188.887 62.1916 165.516 56.1723 153.123 57.5885C153.123 57.5885 127.981 62.8997 127.627 64.3159C127.272 65.7321 135.771 109.995 135.771 111.766C135.771 113.028 130.74 125.074 127.59 137.019C130.826 138.738 135.912 141.117 142.145 142.927C153.123 146.114 157.372 141.511 157.372 141.511C157.372 141.511 156.31 143.99 162.684 144.698C168.331 145.325 177.864 145.11 185.383 140.622C182.557 125.114 177.909 112.121 177.909 112.121Z" fill="#EC8117" stroke="#263238" stroke-width="1.2667" stroke-miterlimit="10" stroke-linecap="round" stroke-linejoin="round"/>
<path d="M157.957 130.528C157.443 133.992 157.069 136.301 157.069 136.301" stroke="#263238" stroke-width="1.2667" stroke-miterlimit="10" stroke-linecap="round" stroke-linejoin="round"/>
<path d="M159.901 83.7017C159.901 83.7017 161.462 98.0875 160.583 109.069C160.242 113.33 159.637 118.384 159.023 122.974" stroke="#263238" stroke-width="1.2667" stroke-miterlimit="10" stroke-linecap="round" stroke-linejoin="round"/>
<path d="M156.107 54.8613C156.107 54.8613 149.275 57.1388 146.24 59.7951C143.204 62.4513 138.271 67.0051 138.271 67.0051L150.794 67.7638L159.902 83.7027L166.353 68.1439C166.353 68.1439 170.527 68.1439 173.943 68.1439C177.358 68.1439 180.014 69.6614 180.014 69.6614C180.014 69.6614 171.285 57.8975 166.353 55.62C161.419 53.3425 156.107 54.8613 156.107 54.8613Z" fill="white" stroke="#263238" stroke-width="1.2667" stroke-miterlimit="10" stroke-linecap="round" stroke-linejoin="round"/>
<path d="M151.932 50.3073C151.932 50.3073 153.07 66.2462 156.105 70.42C159.142 74.5937 163.315 63.5887 163.315 58.6561C163.315 53.7224 163.695 46.8923 163.695 46.8923L151.932 50.3073Z" fill="white" stroke="#263238" stroke-width="1.2667" stroke-miterlimit="10" stroke-linecap="round" stroke-linejoin="round"/>
<path d="M127.628 64.3171C127.628 64.3171 112.401 114.955 112.401 118.495C112.401 122.035 116.651 125.931 120.9 123.453C125.149 120.974 133.648 97.2487 133.648 97.2487L127.628 64.3171Z" fill="#EC8117" stroke="#263238" stroke-width="1.2667" stroke-miterlimit="10" stroke-linecap="round" stroke-linejoin="round"/>
<path d="M107.798 96.5409L124.794 129.472L148.165 131.951L134.355 91.9377L107.798 96.5409Z" fill="white" stroke="#263238" stroke-width="1.2667" stroke-miterlimit="10" stroke-linecap="round" stroke-linejoin="round"/>
<path d="M128.336 117.432L134.71 105.747L142.147 103.268L143.209 104.684L138.96 107.163C138.96 107.163 144.271 107.518 145.687 107.518C147.103 107.518 146.75 109.642 146.75 109.642L146.042 111.058C146.042 111.058 146.75 115.661 146.75 117.077C146.75 118.494 131.17 123.097 131.17 123.097L128.336 117.432Z" fill="white" stroke="#263238" stroke-width="1.2667" stroke-miterlimit="10" stroke-linecap="round" stroke-linejoin="round"/>
<path d="M128.979 113.936L133.769 126.898C133.769 126.898 124.752 131.125 118.271 131.125C111.79 131.125 108.409 122.671 110.945 118.444C113.481 114.217 128.979 113.936 128.979 113.936Z" fill="#EC8117" stroke="#263238" stroke-width="1.2667" stroke-miterlimit="10" stroke-linecap="round" stroke-linejoin="round"/>
<path d="M158.342 21.8186L146.524 36.0854C146.524 36.0854 146.126 46.9841 151.514 55.3721C158.93 66.9206 168.584 44.0111 168.584 44.0111L158.342 21.8186Z" fill="white" stroke="#263238" stroke-width="1.2667" stroke-miterlimit="10" stroke-linecap="round" stroke-linejoin="round"/>
<path d="M153.527 39.5586C153.654 40.5821 153.345 41.4637 152.837 41.527C152.328 41.5903 151.812 40.8126 151.686 39.7891C151.559 38.7656 151.868 37.884 152.376 37.8194C152.885 37.7573 153.401 38.5351 153.527 39.5586Z" fill="#263238"/>
<path d="M160.281 40.0995C160.273 41.1306 159.853 41.9641 159.34 41.9603C158.827 41.9565 158.418 41.1179 158.424 40.0869C158.432 39.0558 158.852 38.2223 159.365 38.2261C159.878 38.2286 160.288 39.0672 160.281 40.0995Z" fill="#263238"/>
<path d="M153.115 49.1334C153.115 49.1334 156.132 50.186 158.877 48.9827" stroke="#263238" stroke-width="0.633348" stroke-miterlimit="10" stroke-linecap="round" stroke-linejoin="round"/>
<path d="M157.259 35.6736C157.259 35.6736 159.586 33.8001 161.914 35.9079" stroke="#263238" stroke-width="0.633348" stroke-miterlimit="10" stroke-linecap="round" stroke-linejoin="round"/>
<path d="M153.767 36.142C153.767 36.142 152.138 33.8012 149.812 35.9077" stroke="#263238" stroke-width="0.633348" stroke-miterlimit="10" stroke-linecap="round" stroke-linejoin="round"/>
<path d="M154.932 38.4829C154.932 38.4829 155.397 39.6533 154.699 41.7611C154.001 43.8689 153.07 45.0393 153.768 45.5067C154.466 45.9754 155.863 45.9754 155.863 45.9754" stroke="#263238" stroke-width="0.633348" stroke-miterlimit="10" stroke-linecap="round" stroke-linejoin="round"/>
<path d="M297.999 331C329.943 331 355.839 324.659 355.839 316.836C355.839 309.013 329.943 302.672 297.999 302.672C266.055 302.672 240.159 309.013 240.159 316.836C240.159 324.659 266.055 331 297.999 331Z" fill="#EC8117"/>
<path opacity="0.5" d="M297.999 331C329.943 331 355.839 324.659 355.839 316.836C355.839 309.013 329.943 302.672 297.999 302.672C266.055 302.672 240.159 309.013 240.159 316.836C240.159 324.659 266.055 331 297.999 331Z" fill="white"/>
<path d="M293.618 27.3568C293.618 27.3568 291.478 23.4667 289.923 24.8284C288.367 26.1901 290.896 36.1071 292.84 35.5244C294.784 34.9405 293.618 27.3568 293.618 27.3568Z" fill="white" stroke="#263238" stroke-width="1.2667" stroke-miterlimit="10" stroke-linecap="round" stroke-linejoin="round"/>
<path d="M254.19 161.976C254.19 161.976 270.866 169.532 291.45 171.617C312.034 173.702 336.005 158.85 336.005 158.85C336.005 158.85 312.034 121.851 311.773 121.07C311.512 120.288 282.851 119.246 282.851 119.246L254.19 161.976Z" fill="#263238" stroke="#263238" stroke-width="1.2667" stroke-miterlimit="10" stroke-linecap="round" stroke-linejoin="round"/>
<path d="M271.674 131.168C271.674 131.168 262.113 171.889 262.113 186.408C262.113 200.926 262.113 212.612 261.405 224.298C260.697 235.983 256.802 258.645 258.218 270.331C259.634 282.016 261.405 305.033 261.405 305.033C261.405 305.033 249.012 314.948 249.012 318.489C249.012 322.031 256.447 320.968 262.821 317.073C269.195 313.178 270.966 310.346 270.966 310.346L272.382 311.762L274.507 309.638L275.215 301.847L282.297 238.109L292.211 174.724L309.562 250.857L324.789 303.618L328.331 305.034L329.039 308.221L332.581 310.346L336.121 310.699L339.663 313.886C339.663 313.886 350.995 317.428 353.119 316.718C355.243 316.009 355.243 313.177 349.577 308.928C343.911 304.678 334.35 302.201 334.35 302.201C334.35 302.201 333.288 266.436 330.809 245.544C328.33 224.652 325.143 206.947 325.143 192.074C325.143 177.202 320.185 134.001 320.185 134.001L271.674 131.168Z" fill="#263238" stroke="#263238" stroke-width="1.2667" stroke-miterlimit="10" stroke-linecap="round" stroke-linejoin="round"/>
<path d="M296.107 51.495L269.667 61.6463L271.791 134.356C271.791 134.356 280.762 138.841 296.578 138.606C312.394 138.37 323.119 137.718 323.119 137.718L329.392 58.3428L303.896 52.4413C303.897 52.4387 299.176 50.7869 296.107 51.495Z" fill="white" stroke="#263238" stroke-width="1.2667" stroke-miterlimit="10" stroke-linecap="round" stroke-linejoin="round"/>
<path d="M296.342 64.2427L299.175 71.5604L291.148 128.453L295.398 137.896L302.48 127.037L301.537 72.0329L304.841 64.714L301.064 57.1606L296.342 64.2427Z" fill="#263238" stroke="#263238" stroke-width="1.2667" stroke-miterlimit="10" stroke-linecap="round" stroke-linejoin="round"/>
<path d="M296.145 48.1649L291.866 53.2216L292.644 68.9742L301.589 61.7794L308.784 72.2803C308.784 72.2803 311.701 58.4733 310.535 54.1944C309.368 49.9155 305.284 47.1934 303.145 47.5823C301.007 47.9699 296.145 48.1649 296.145 48.1649Z" fill="white" stroke="#263238" stroke-width="1.2667" stroke-miterlimit="10" stroke-linecap="round" stroke-linejoin="round"/>
<path d="M294.979 40.7749C294.979 40.7749 295.005 41.0789 295.053 41.5995C295.293 44.1962 296.048 52.1853 296.534 54.777C297.118 57.888 301.202 61.3891 302.757 60.8052C304.313 60.2212 308.008 55.5547 308.397 53.9992C308.786 52.4437 310.341 45.2476 310.341 45.2476C310.341 45.2476 305.284 47.5809 303.146 47.5809C301.007 47.5809 294.979 40.7749 294.979 40.7749Z" fill="white" stroke="#263238" stroke-width="1.2667" stroke-miterlimit="10" stroke-linecap="round" stroke-linejoin="round"/>
<path d="M315.333 30.6159C315.333 30.6159 318.496 27.5011 319.596 29.2517C320.697 31.001 315.437 39.7805 313.739 38.6645C312.044 37.5485 315.333 30.6159 315.333 30.6159Z" fill="white" stroke="#263238" stroke-width="1.2667" stroke-miterlimit="10" stroke-linecap="round" stroke-linejoin="round"/>
<path d="M300.754 13.7473C300.754 13.7473 295.899 15.8285 294.859 18.2555C293.819 20.6825 292.085 33.5141 293.819 39.4093C295.553 45.3045 299.714 50.5068 302.141 50.8539C304.568 51.201 310.81 48.0799 312.545 42.5305C314.279 36.9823 316.013 31.0871 316.36 27.2718C316.707 23.4565 319.481 25.5377 315.666 19.9896C311.852 14.4415 303.875 11.6674 300.754 13.7473Z" fill="white" stroke="#263238" stroke-width="1.2667" stroke-miterlimit="10" stroke-linecap="round" stroke-linejoin="round"/>
<path d="M302.317 30.0344C302.342 30.9845 301.978 31.7648 301.503 31.7774C301.028 31.7901 300.622 31.0301 300.597 30.0801C300.572 29.13 300.936 28.3497 301.411 28.3371C301.886 28.3244 302.292 29.0844 302.317 30.0344Z" fill="#263238"/>
<path d="M309.062 30.4995C309.088 31.4495 308.723 32.2298 308.248 32.2425C307.773 32.2552 307.367 31.4951 307.342 30.5451C307.317 29.5951 307.682 28.8148 308.157 28.8022C308.633 28.7895 309.037 29.5495 309.062 30.4995Z" fill="#263238"/>
<path d="M298.844 25.7441C298.844 25.7441 300.507 23.3348 303.023 24.5673" stroke="#263238" stroke-width="0.633348" stroke-miterlimit="10" stroke-linecap="round" stroke-linejoin="round"/>
<path d="M306.749 25.2386C306.749 25.2386 308.947 24.1759 311.405 27.0386" stroke="#263238" stroke-width="0.633348" stroke-miterlimit="10" stroke-linecap="round" stroke-linejoin="round"/>
<path d="M300.959 39.4219C300.959 39.4219 303.596 40.7671 306.268 40.0198" stroke="#263238" stroke-width="0.633348" stroke-miterlimit="10" stroke-linecap="round" stroke-linejoin="round"/>
<path d="M305.971 27.6265C305.971 27.6265 307.147 35.8511 306.265 36.2919C305.384 36.7327 303.475 35.7042 303.475 35.7042" stroke="#263238" stroke-width="0.633348" stroke-miterlimit="10" stroke-linecap="round" stroke-linejoin="round"/>
<path d="M295.562 9.85489C295.562 9.85489 288.95 11.2166 289.145 14.7165C289.34 18.2163 291.673 24.4396 291.673 24.4396C291.673 24.4396 294.006 25.8013 293.618 27.3568C293.229 28.9123 293.422 32.2184 294.784 31.0518C296.146 29.8852 295.368 25.6063 295.951 25.0236C296.533 24.4396 298.284 23.4681 298.284 21.1336C298.284 18.799 296.922 16.6608 297.311 16.0769C297.7 15.493 304.506 16.272 307.812 17.8275C311.118 19.383 315.591 21.9113 314.424 24.4396C313.258 26.968 314.813 28.3284 314.813 28.3284C314.813 28.3284 313.451 32.0233 314.424 32.9962C315.397 33.969 316.564 29.6901 316.564 29.6901C316.564 29.6901 318.508 29.495 319.092 26.968C319.676 24.4396 320.454 20.5509 319.87 17.4386C319.286 14.3276 312.869 9.07588 305.868 8.88208C298.868 8.68827 295.562 9.85489 295.562 9.85489Z" fill="#263238" stroke="#263238" stroke-width="1.2667" stroke-miterlimit="10" stroke-linecap="round" stroke-linejoin="round"/>
<path d="M296.34 13.1607C296.34 13.1607 304.313 20.1617 311.12 22.8838C317.926 25.606 326.677 20.5506 327.066 16.6605C327.455 12.7718 320.843 7.13119 319.094 6.93738C317.343 6.74231 320.066 4.40905 313.648 2.46467C307.231 0.520291 293.034 1.68693 292.256 5.57569C291.478 9.46571 296.34 13.1607 296.34 13.1607Z" fill="#263238" stroke="#263238" stroke-width="1.2667" stroke-miterlimit="10" stroke-linecap="round" stroke-linejoin="round"/>
<path d="M292.802 52.6756C292.802 52.6756 291.858 97.5293 286.428 112.873C280.999 128.218 274.152 143.561 268.251 148.991C262.349 154.42 251.962 171.654 251.962 171.654C251.962 171.654 248.422 164.807 248.422 162.683C248.422 160.559 264.947 145.45 266.363 144.034C267.78 142.617 268.488 135.298 268.488 124.44C268.488 113.582 265.891 62.5901 265.891 61.6464C265.89 60.7014 288.316 51.4951 292.802 52.6756Z" fill="#EC8117" stroke="#263238" stroke-width="1.2667" stroke-miterlimit="10" stroke-linecap="round" stroke-linejoin="round"/>
<path d="M265.89 61.646C265.89 61.646 265.704 61.9183 265.38 62.425C263.879 64.7709 260.267 72.4496 256.802 80.8858C252.423 91.5463 240.867 109.214 243.346 112.755C245.825 116.295 252.199 118.421 256.094 114.171C259.989 109.921 269.55 91.8617 269.55 91.8617C269.55 91.8617 268.251 65.422 265.89 61.646Z" fill="#EC8117" stroke="#263238" stroke-width="1.2667" stroke-miterlimit="10" stroke-linecap="round" stroke-linejoin="round"/>
<path d="M310.035 53.147C310.035 53.147 310.508 84.0721 311.451 105.318C312.396 126.565 315.229 134.59 317.59 138.605C319.951 142.617 337.183 169.294 337.183 169.294C337.183 169.294 341.196 161.031 340.725 157.727C340.252 154.422 327.741 133.411 327.741 132.231C327.741 131.05 333.17 61.4096 332.226 59.521C331.281 57.6323 310.035 53.147 310.035 53.147Z" fill="#EC8117" stroke="#263238" stroke-width="1.2667" stroke-miterlimit="10" stroke-linecap="round" stroke-linejoin="round"/>
<path d="M287.844 55.5081L280.999 72.5046L286.428 77.9349L280.526 84.5445L283.831 109.804" stroke="#263238" stroke-width="1.2667" stroke-miterlimit="10" stroke-linecap="round" stroke-linejoin="round"/>
<path d="M313.34 55.7432L319.714 70.8523L312.632 75.1008L319.714 86.1971L312.867 104.137" stroke="#263238" stroke-width="1.2667" stroke-miterlimit="10" stroke-linecap="round" stroke-linejoin="round"/>
<path d="M271.673 145.687L272.862 148.777L264.446 155.27L261.801 149.259L271.673 145.687Z" fill="white" stroke="#263238" stroke-width="1.2667" stroke-miterlimit="10" stroke-linecap="round" stroke-linejoin="round"/>
<path d="M255.03 107.797L271.673 145.687L259.28 155.248C259.28 155.248 241.221 117.358 241.221 114.171C241.221 110.984 245.116 104.61 246.887 103.547" fill="#EC8117"/>
<path d="M255.03 107.797L271.673 145.687L259.28 155.248C259.28 155.248 241.221 117.358 241.221 114.171C241.221 110.984 245.116 104.61 246.887 103.547" stroke="#263238" stroke-width="1.2667" stroke-miterlimit="10" stroke-linecap="round" stroke-linejoin="round"/>
<path d="M272.861 148.777L275.748 150.22L267.812 161.041L264.445 155.27L272.861 148.777Z" fill="white" stroke="#263238" stroke-width="1.2667" stroke-miterlimit="10" stroke-linecap="round" stroke-linejoin="round"/>
<path d="M316.924 146.236L315.434 149.193L323.159 156.494L326.392 150.776L316.924 146.236Z" fill="white" stroke="#263238" stroke-width="1.2667" stroke-miterlimit="10" stroke-linecap="round" stroke-linejoin="round"/>
<path d="M332.226 59.521C332.226 59.521 335.866 63.411 336.346 67.0173C336.827 70.6249 349.572 112.946 350.053 114.871C350.534 116.795 345.725 119.921 340.915 120.642C336.105 121.364 330.094 102.606 330.094 102.606L332.226 59.521Z" fill="#EC8117" stroke="#263238" stroke-width="1.2667" stroke-miterlimit="10" stroke-linecap="round" stroke-linejoin="round"/>
<path d="M337.273 110.2L316.926 146.235L328.302 156.987C328.302 156.987 350.059 121.092 350.377 117.922C350.696 114.751 347.457 108.02 345.801 106.785" fill="#EC8117"/>
<path d="M337.273 110.2L316.926 146.235L328.302 156.987C328.302 156.987 350.059 121.092 350.377 117.922C350.696 114.751 347.457 108.02 345.801 106.785" stroke="#263238" stroke-width="1.2667" stroke-miterlimit="10" stroke-linecap="round" stroke-linejoin="round"/>
<path d="M315.434 149.193L312.418 150.339L319.233 161.9L323.16 156.494L315.434 149.193Z" fill="white" stroke="#263238" stroke-width="1.2667" stroke-miterlimit="10" stroke-linecap="round" stroke-linejoin="round"/>
<path d="M418.722 320.376C438.539 320.376 454.605 314.034 454.605 306.212C454.605 298.389 438.539 292.047 418.722 292.047C398.904 292.047 382.839 298.389 382.839 306.212C382.839 314.034 398.904 320.376 418.722 320.376Z" fill="#EC8117"/>
<path opacity="0.5" d="M418.722 320.376C438.539 320.376 454.605 314.034 454.605 306.212C454.605 298.389 438.539 292.047 418.722 292.047C398.904 292.047 382.839 298.389 382.839 306.212C382.839 314.034 398.904 320.376 418.722 320.376Z" fill="white"/>
<path d="M432.755 31.9872C432.755 31.9872 437.328 27.4144 437.899 21.3178C438.471 15.2212 431.422 11.9823 426.659 12.1735C421.896 12.3635 418.467 15.2225 418.467 15.2225C418.467 15.2225 407.418 14.6512 399.035 20.9378C390.652 27.2244 391.795 46.0855 392.367 53.1347C392.938 60.1839 391.985 69.3281 391.985 69.3281C391.985 69.3281 400.558 72.9484 410.275 74.2809C419.992 75.6148 433.137 73.3284 434.47 72.9471C435.804 72.5658 430.66 71.4233 429.898 63.9928C429.135 56.5624 431.04 47.9894 431.803 43.9892C432.565 39.9877 431.232 32.1772 431.232 32.1772L432.755 31.9872Z" fill="#263238" stroke="#263238" stroke-width="1.2667" stroke-miterlimit="10" stroke-linecap="round" stroke-linejoin="round"/>
<path d="M431.748 15.2339C431.748 15.2339 429.806 21.922 428.729 24.5099" stroke="white" stroke-width="0.633348" stroke-miterlimit="10" stroke-linecap="round" stroke-linejoin="round"/>
<path d="M423.767 18.0386C423.767 18.0386 425.493 23.6475 419.452 33.3555C413.411 43.0634 401.114 53.4187 400.684 60.5375" stroke="white" stroke-width="0.633348" stroke-miterlimit="10" stroke-linecap="round" stroke-linejoin="round"/>
<path d="M403.487 44.3577C403.487 44.3577 395.936 57.0854 399.173 64.8528" stroke="white" stroke-width="0.633348" stroke-miterlimit="10" stroke-linecap="round" stroke-linejoin="round"/>
<path d="M422.277 66.2805C422.277 66.2805 432.565 71.6146 434.089 72.1871C435.613 72.7584 436.947 74.0922 438.09 77.5212C439.232 80.9501 445.52 105.718 446.091 108.384C446.662 111.052 441.328 113.718 437.9 113.91C434.471 114.1 430.088 111.052 430.088 108.765C430.089 106.479 422.277 66.2805 422.277 66.2805Z" fill="#EC8117" stroke="#263238" stroke-width="1.2667" stroke-miterlimit="10" stroke-linecap="round" stroke-linejoin="round"/>
<path d="M426.468 106.67C426.468 106.67 431.041 100.764 433.327 98.8586C435.613 96.9535 440.376 95.4297 443.234 96.9535C446.091 98.4773 445.52 101.145 444.376 101.526C443.234 101.908 440.376 101.908 438.47 103.05C436.565 104.193 433.516 106.289 431.421 106.86C429.325 107.432 426.468 106.67 426.468 106.67Z" fill="white" stroke="#263238" stroke-width="1.2667" stroke-miterlimit="10" stroke-linecap="round" stroke-linejoin="round"/>
<path d="M395.512 294.126L395.341 304.387H396.538L398.077 297.376L395.512 294.126Z" fill="#263238" stroke="#263238" stroke-width="1.2667" stroke-miterlimit="10" stroke-linecap="round" stroke-linejoin="round"/>
<path d="M434.775 207.062C434.775 207.062 432.886 232.558 427.928 249.082C422.97 265.608 413.056 291.339 412.82 295.352C412.82 295.352 418.958 301.254 421.083 302.434C423.207 303.615 424.86 303.378 423.444 304.559C422.028 305.739 418.015 306.447 414.946 305.267C411.877 304.086 409.517 300.546 407.864 299.601C406.212 298.656 404.086 297.477 403.851 295.351C403.615 293.227 406.92 290.158 406.92 290.158C406.92 290.158 414.71 272.689 413.767 261.594C412.823 250.499 415.183 237.986 417.544 233.501C419.905 229.015 421.321 224.294 421.321 224.294L414.712 208.479C414.709 208.479 428.165 204.466 434.775 207.062Z" fill="white" stroke="#263238" stroke-width="1.2667" stroke-miterlimit="10" stroke-linecap="round" stroke-linejoin="round"/>
<path d="M421.082 302.435C420.809 302.283 420.469 302.052 420.084 301.767C418.861 302.357 415.713 303.539 413.291 301.491C410.573 299.191 407.671 295.047 404.91 292.489C404.272 293.413 403.75 294.465 403.848 295.354C404.083 297.478 406.209 298.659 407.861 299.604C409.514 300.547 411.874 304.089 414.943 305.269C418.012 306.45 422.025 305.742 423.441 304.561C424.86 303.378 423.207 303.615 421.082 302.435Z" fill="#263238" stroke="#263238" stroke-width="1.2667" stroke-miterlimit="10" stroke-linecap="round" stroke-linejoin="round"/>
<path d="M431.469 204.702C431.469 204.702 436.072 218.511 436.072 222.053C436.072 225.595 413.763 275.876 411.639 280.834C409.515 285.792 406.328 294.998 406.328 294.998C406.328 294.998 407.036 298.893 410.931 301.725C414.826 304.558 416.242 307.037 414.473 307.745C412.702 308.453 404.558 309.161 402.433 306.329C400.309 303.496 398.183 297.476 396.059 295.705C393.935 293.934 396.059 290.039 397.475 288.977C398.891 287.915 401.37 284.728 401.37 284.728C401.37 284.728 406.681 273.397 406.681 263.481C406.681 253.566 408.452 244.006 413.763 235.861C419.075 227.716 420.846 222.052 420.846 222.052L415.18 210.366C415.18 210.366 424.387 203.994 431.469 204.702Z" fill="white" stroke="#263238" stroke-width="1.2667" stroke-miterlimit="10" stroke-linecap="round" stroke-linejoin="round"/>
<path d="M411.155 301.9C409.094 302.893 407.642 303.64 403.141 298.539C400.044 295.029 397.797 292.009 396.456 290.094C395.312 291.713 394.42 294.34 396.059 295.707C398.184 297.478 400.308 303.497 402.433 306.331C404.558 309.163 412.702 308.455 414.473 307.747C416.206 307.053 414.867 304.659 411.155 301.9Z" fill="#263238" stroke="#263238" stroke-width="1.2667" stroke-miterlimit="10" stroke-linecap="round" stroke-linejoin="round"/>
<path d="M412.371 63.9944C412.371 63.9944 388.937 67.6146 388.176 68.9484C387.413 70.2823 395.415 114.291 396.177 117.72C396.94 121.149 391.604 130.103 388.557 147.441C385.509 164.778 389.146 168.948 394.29 181.331C399.434 193.714 413.896 212.216 413.896 212.216L436.377 208.215C436.377 208.215 441.521 168.017 439.045 148.583C436.568 129.151 429.138 115.434 429.138 115.434L429.709 105.146C429.709 105.146 436.092 101.245 436.282 96.2926C436.472 91.3398 432.947 84.1893 429.709 77.7114C426.469 71.2335 417.515 63.9944 412.371 63.9944Z" fill="#EC8117" stroke="#263238" stroke-width="1.2667" stroke-miterlimit="10" stroke-linecap="round" stroke-linejoin="round"/>
<path d="M414.084 61.1362C414.084 61.1362 409.132 61.7075 408.369 62.6601C407.606 63.6126 405.321 76.7584 405.321 76.7584C405.321 76.7584 414.276 74.0907 415.228 74.0907C416.181 74.0907 423.992 83.235 423.992 83.235V75.2333L430.852 80.3773C430.852 80.3773 428.946 74.662 425.898 69.3279C422.847 63.9939 418.276 61.3262 414.084 61.1362Z" fill="white" stroke="#263238" stroke-width="1.2667" stroke-miterlimit="10" stroke-linecap="round" stroke-linejoin="round"/>
<path d="M414.467 49.7058C414.467 49.7058 412.943 64.3754 413.895 66.0905C414.848 67.8056 421.326 77.7125 421.326 77.7125C421.326 77.7125 420.563 70.092 420.563 65.3292C420.563 60.5665 422.658 53.136 422.658 53.136L414.467 49.7058Z" fill="white" stroke="#263238" stroke-width="1.2667" stroke-miterlimit="10" stroke-linecap="round" stroke-linejoin="round"/>
<path d="M427.802 25.5093C427.802 25.5093 424.182 34.4636 420.563 37.7025C416.942 40.9414 413.895 42.4653 413.895 42.4653C413.895 42.4653 413.513 48.7519 414.466 49.7044C415.419 50.657 423.23 58.6587 425.897 57.5162C428.564 56.3736 432.565 48.9432 432.946 43.0366C433.327 37.13 431.231 29.7008 431.231 29.7008L427.802 25.5093Z" fill="white" stroke="#263238" stroke-width="1.2667" stroke-miterlimit="10" stroke-linecap="round" stroke-linejoin="round"/>
<path d="M430.453 36.5918C430.453 36.5918 428.943 37.0237 428.943 39.1809C428.943 41.3381 430.885 43.0646 430.885 44.1426C430.885 45.2218 428.513 45.8691 428.513 45.8691" stroke="#263238" stroke-width="0.633348" stroke-miterlimit="10" stroke-linecap="round" stroke-linejoin="round"/>
<path d="M427.001 37.6708C427.001 37.6708 425.921 35.0817 422.47 35.9443" stroke="#263238" stroke-width="0.633348" stroke-miterlimit="10" stroke-linecap="round" stroke-linejoin="round"/>
<path d="M427.863 49.3192C427.863 49.3192 425.491 49.9665 423.549 48.24" stroke="#263238" stroke-width="0.633348" stroke-miterlimit="10" stroke-linecap="round" stroke-linejoin="round"/>
<path d="M424.844 39.2885C424.844 40.1815 424.602 40.906 424.304 40.906C424.007 40.906 423.765 40.1815 423.765 39.2885C423.765 38.3955 424.007 37.6709 424.304 37.6709C424.602 37.6709 424.844 38.3942 424.844 39.2885Z" fill="#263238"/>
<path d="M430.453 40.0433C430.453 40.9364 430.211 41.6609 429.914 41.6609C429.616 41.6609 429.374 40.9364 429.374 40.0433C429.374 39.1503 429.616 38.4258 429.914 38.4258C430.211 38.4258 430.453 39.1503 430.453 40.0433Z" fill="#263238"/>
<path d="M392.557 68.567C392.557 68.567 388.936 68.377 386.27 70.2821C383.602 72.1872 384.175 79.6177 385.507 87.6194C386.841 95.6211 394.08 117.911 395.795 121.721C397.511 125.532 401.511 128.008 405.131 128.008C408.751 128.008 432.565 115.244 432.565 115.244L430.47 109.337C430.47 109.337 410.085 114.481 408.56 114.671C407.036 114.861 400.368 80.759 400.368 80.759" fill="#EC8117"/>
<path d="M392.557 68.567C392.557 68.567 388.936 68.377 386.27 70.2821C383.602 72.1872 384.175 79.6177 385.507 87.6194C386.841 95.6211 394.08 117.911 395.795 121.721C397.511 125.532 401.511 128.008 405.131 128.008C408.751 128.008 432.565 115.244 432.565 115.244L430.47 109.337C430.47 109.337 410.085 114.481 408.56 114.671C407.036 114.861 400.368 80.759 400.368 80.759" stroke="#263238" stroke-width="1.2667" stroke-miterlimit="10" stroke-linecap="round" stroke-linejoin="round"/>
<path d="M414.276 110.67C414.276 110.67 406.464 110.48 405.322 110.48C404.179 110.48 398.844 116.577 397.51 118.101C396.176 119.624 397.7 120.006 398.272 120.196C398.845 120.386 402.464 118.862 402.464 118.862C402.464 118.862 399.225 125.149 399.988 126.292C400.75 127.436 402.655 128.197 403.416 127.435C404.179 126.672 406.274 125.72 407.037 125.72C407.799 125.72 409.323 125.72 410.847 124.005C412.371 122.29 414.847 115.432 414.847 115.432L418.657 114.289V111.432L414.276 110.67Z" fill="white" stroke="#263238" stroke-width="1.2667" stroke-miterlimit="10" stroke-linecap="round" stroke-linejoin="round"/>
<path d="M413.514 110.481L415.609 123.245C415.609 123.245 441.709 116.006 444.948 114.481C448.187 112.957 446.282 104.764 443.805 102.669C441.329 100.574 413.514 110.481 413.514 110.481Z" fill="#EC8117" stroke="#263238" stroke-width="1.2667" stroke-miterlimit="10" stroke-linecap="round" stroke-linejoin="round"/>
<path d="M413.895 212.215L436.376 208.215C436.376 208.215 441.52 168.016 439.044 148.583C438.501 144.327 437.715 140.367 436.827 136.743C432.968 138.402 427.375 140.079 419.43 140.962C404.681 142.601 394.805 138.352 391.047 136.317C390.163 139.566 389.293 143.254 388.557 147.439C385.509 164.776 389.146 168.946 394.29 181.329C399.433 193.714 413.895 212.215 413.895 212.215Z" fill="#263238" stroke="#263238" stroke-width="1.2667" stroke-miterlimit="10" stroke-linecap="round" stroke-linejoin="round"/>
<path d="M417.832 165.213C420.838 170.318 424.153 177.351 426.276 186.052" stroke="white" stroke-width="0.950022" stroke-miterlimit="10" stroke-linecap="round" stroke-linejoin="round"/>
<path d="M410.931 155.599C410.931 155.599 412.789 157.539 415.296 161.213" stroke="white" stroke-width="0.950022" stroke-miterlimit="10" stroke-linecap="round" stroke-linejoin="round"/>
<path d="M530.707 310.005C557.825 310.005 579.809 303.664 579.809 295.841C579.809 288.018 557.825 281.677 530.707 281.677C503.588 281.677 481.604 288.018 481.604 295.841C481.604 303.664 503.588 310.005 530.707 310.005Z" fill="#EC8117"/>
<path opacity="0.5" d="M530.707 310.005C557.825 310.005 579.809 303.664 579.809 295.841C579.809 288.018 557.825 281.677 530.707 281.677C503.588 281.677 481.604 288.018 481.604 295.841C481.604 303.664 503.588 310.005 530.707 310.005Z" fill="white"/>
<path d="M524.825 41.4808C524.825 41.4808 522.387 38.3508 521.228 39.6986C520.069 41.0476 523.729 49.3521 525.342 48.6338C526.956 47.9156 524.825 41.4808 524.825 41.4808Z" fill="white" stroke="#263238" stroke-width="1.2667" stroke-miterlimit="10" stroke-linecap="round" stroke-linejoin="round"/>
<path d="M544.267 41.9151C544.267 41.9151 546.572 38.8725 547.791 40.2659C549.008 41.6592 545.699 49.8332 544.055 49.0542C542.41 48.2752 544.267 41.9151 544.267 41.9151Z" fill="white" stroke="#263238" stroke-width="1.2667" stroke-miterlimit="10" stroke-linecap="round" stroke-linejoin="round"/>
<path d="M527.664 61.8001C527.664 61.8001 523.518 63.5925 523.051 66.7656C522.583 69.9386 524.266 137.731 524.266 137.731L552.68 139.259L551.364 65.9143C551.364 65.9143 546.378 62.1586 539.903 61.1807C533.426 60.2028 527.664 61.8001 527.664 61.8001Z" fill="white" stroke="#263238" stroke-width="1.2667" stroke-miterlimit="10" stroke-linecap="round" stroke-linejoin="round"/>
<path d="M513.305 135.023L556.821 136.588C556.821 136.588 560.76 168.871 562.639 189.992C564.519 211.113 567.32 230.62 567.03 245.299C566.74 259.978 567.099 281.958 567.169 282.741C567.239 283.524 571.78 286.708 574.661 289.188C577.543 291.669 583.606 293.994 581.602 295.4C579.598 296.806 576.971 297.195 572.374 296.369C567.776 295.543 562.44 292.397 561.046 291.679C559.651 290.961 559.651 290.961 559.651 290.961L559.571 293.059L554.328 290.956C554.328 290.956 553.441 289.951 552.735 285.01C552.029 280.068 550.925 264.67 550.345 258.152C549.765 251.633 543.731 204.786 541.432 193.897C539.133 183.009 534.524 164.115 534.524 164.115C534.524 164.115 516.832 225.464 514.59 233.166C512.348 240.869 503.008 282.436 502.859 283.752C502.709 285.068 500.315 288.065 500.385 288.846C500.455 289.629 498.037 292.364 496.126 294.814C494.215 297.264 486.164 299.485 484.043 299.587C481.924 299.689 480.999 295.281 485.225 291.935C489.451 288.588 493.343 284.473 493.343 284.473C493.343 284.473 495.351 253.212 495.264 243.264C495.176 233.317 501.044 200.56 502.136 197.889C503.229 195.217 509.276 158.524 509.276 158.524L513.305 135.023Z" fill="#263238" stroke="#263238" stroke-width="1.2667" stroke-miterlimit="10" stroke-linecap="round" stroke-linejoin="round"/>
<path d="M527.39 69.532C527.39 69.532 532.008 97.6717 532.537 100.645C533.067 103.618 525.925 162.508 525.925 162.508C525.925 162.508 521.343 163.508 515.017 161.341C508.691 159.174 502.961 156.806 502.961 156.806L515.044 119.513L504.131 69.5827C504.131 69.5827 506.87 67.7929 513.219 65.7978C519.567 63.8028 527.504 62.7932 527.504 62.7932L527.39 69.532Z" fill="#EC8117" stroke="#263238" stroke-width="1.2667" stroke-miterlimit="10" stroke-linecap="round" stroke-linejoin="round"/>
<path d="M532.009 75.132L535.117 79.573L531.024 132.943L537.438 140.253L540.585 133.185L537.538 80.352L540.741 74.5911L536.206 67.7991L532.009 75.132Z" fill="#263238" stroke="#263238" stroke-width="1.2667" stroke-miterlimit="10" stroke-linecap="round" stroke-linejoin="round"/>
<path d="M543.958 61.9646C543.958 61.9646 540.901 84.5701 540.977 86.3536C541.053 88.1371 540.279 103.007 540.338 104.394C540.398 105.781 546.634 162.463 546.634 162.463C546.634 162.463 551.711 163.642 558.705 162.637C565.7 161.631 573.146 157.057 573.146 157.057L559.093 119.818L564.468 67.5355C564.468 67.5355 548.013 62.75 543.958 61.9646Z" fill="#EC8117" stroke="#263238" stroke-width="1.2667" stroke-miterlimit="10" stroke-linecap="round" stroke-linejoin="round"/>
<path d="M535.945 72.092L530.15 77.654C530.15 77.654 526.384 64.7768 526.299 62.7944C526.215 60.8121 527.11 58.2331 529.271 57.0398C531.432 55.8453 540.119 56.8194 542.172 57.8062C544.226 58.793 545.836 63.5469 545.836 63.5469L541.25 78.6218L535.945 72.092Z" fill="white" stroke="#263238" stroke-width="1.2667" stroke-miterlimit="10" stroke-linecap="round" stroke-linejoin="round"/>
<path d="M528.684 52.6799C528.684 52.6799 529.389 59.8152 531.15 63.3797C532.911 66.9442 535.359 72.4898 535.944 72.0921C536.531 71.6943 541.235 64.1511 541.37 62.5652C541.503 60.9793 541.836 54.6344 541.836 54.6344L528.684 52.6799Z" fill="white" stroke="#263238" stroke-width="1.2667" stroke-miterlimit="10" stroke-linecap="round" stroke-linejoin="round"/>
<path d="M529.064 28.9202C529.064 28.9202 525.13 31.2547 524.576 33.4689C524.024 35.6843 524.389 46.9769 526.766 51.8879C529.144 56.7989 533.541 60.8435 535.712 60.8764C537.883 60.9093 542.876 57.5235 543.578 52.5314C544.28 47.5394 544.929 42.2484 544.674 38.9081C544.418 35.5691 547.145 37.0651 543.001 32.6823C538.857 28.302 531.485 26.7769 529.064 28.9202Z" fill="white" stroke="#263238" stroke-width="1.2667" stroke-miterlimit="10" stroke-linecap="round" stroke-linejoin="round"/>
<path d="M532.076 44.5139C532.076 45.3002 531.757 45.9371 531.365 45.9371C530.972 45.9371 530.653 45.3002 530.653 44.5139C530.653 43.7277 530.972 43.0908 531.365 43.0908C531.757 43.0908 532.076 43.7277 532.076 44.5139Z" fill="#263238"/>
<path d="M538.839 44.5139C538.839 45.3002 538.52 45.9371 538.128 45.9371C537.735 45.9371 537.416 45.3002 537.416 44.5139C537.416 43.7277 537.735 43.0908 538.128 43.0908C538.521 43.0908 538.839 43.7277 538.839 44.5139Z" fill="#263238"/>
<path d="M528.874 42.2004C528.874 42.2004 529.942 40.4207 532.077 41.6659" stroke="#263238" stroke-width="0.633348" stroke-miterlimit="10" stroke-linecap="round" stroke-linejoin="round"/>
<path d="M536.526 41.8444C536.526 41.8444 537.95 39.5314 540.442 42.2004" stroke="#263238" stroke-width="0.633348" stroke-miterlimit="10" stroke-linecap="round" stroke-linejoin="round"/>
<path d="M535.991 44.3359L536.347 50.5643L533.501 50.2083" stroke="#263238" stroke-width="0.633348" stroke-miterlimit="10" stroke-linecap="round" stroke-linejoin="round"/>
<path d="M532.611 52.5211C532.611 52.5211 535.28 53.7663 539.017 52.3425" stroke="#263238" stroke-width="0.633348" stroke-miterlimit="10" stroke-linecap="round" stroke-linejoin="round"/>
<path d="M526.254 28.6987C526.254 28.6987 522.376 27.3193 521.74 31.2853C521.105 35.2513 524.424 42.3816 524.424 42.3816C524.424 42.3816 524.951 40.5968 525.863 38.4143C526.775 36.2318 528.735 35.0385 527.997 31.868C527.26 28.6962 526.254 28.6987 526.254 28.6987Z" fill="#263238" stroke="#263238" stroke-width="1.2667" stroke-miterlimit="10" stroke-linecap="round" stroke-linejoin="round"/>
<path d="M526.957 31.075C526.957 31.075 528.901 34.2431 534.363 35.0246C539.825 35.8062 542.606 35.0081 543.252 35.9974C543.897 36.9867 543.932 42.5374 543.932 42.5374C543.932 42.5374 545.767 43.1289 545.875 40.9477C545.983 38.7664 547.515 36.9791 548.093 36.3838C548.671 35.7884 551.611 33.9973 548.383 29.0483C545.157 24.0994 541.068 22.521 534.031 22.5362C526.996 22.5514 522.725 26.1286 526.957 31.075Z" fill="#263238" stroke="#263238" stroke-width="1.2667" stroke-miterlimit="10" stroke-linecap="round" stroke-linejoin="round"/>
<path d="M564.466 67.5356C564.466 67.5356 574.564 102.51 575.251 106.171C575.937 109.832 571.782 111.933 567.47 110.373C563.159 108.812 560.343 86.322 560.343 86.322L564.466 67.5356Z" fill="#EC8117" stroke="#263238" stroke-width="1.2667" stroke-miterlimit="10" stroke-linecap="round" stroke-linejoin="round"/>
<path d="M570.948 98.5939C570.948 98.5939 554.643 95.7502 550.398 95.7591C546.153 95.7679 525.804 97.6414 525.804 97.6414L525.044 104.706C525.044 104.706 556.119 111.704 562.253 112.477C568.388 113.25 574.479 112.975 575.108 109.05C575.736 105.125 574.332 103.297 574.332 103.297" fill="#EC8117"/>
<path d="M570.948 98.5939C570.948 98.5939 554.643 95.7502 550.398 95.7591C546.153 95.7679 525.804 97.6414 525.804 97.6414L525.044 104.706C525.044 104.706 556.119 111.704 562.253 112.477C568.388 113.25 574.479 112.975 575.108 109.05C575.736 105.125 574.332 103.297 574.332 103.297" stroke="#263238" stroke-width="1.2667" stroke-miterlimit="10" stroke-linecap="round" stroke-linejoin="round"/>
<path d="M504.132 69.5811C504.132 69.5811 504.545 89.7899 505.012 100.776C505.481 111.761 508.534 115.724 514.105 115.713C519.675 115.701 515.153 84.2899 515.153 84.2899" fill="#EC8117"/>
<path d="M504.132 69.5811C504.132 69.5811 504.545 89.7899 505.012 100.776C505.481 111.761 508.534 115.724 514.105 115.713C519.675 115.701 515.153 84.2899 515.153 84.2899" stroke="#263238" stroke-width="1.2667" stroke-miterlimit="10" stroke-linecap="round" stroke-linejoin="round"/>
<path d="M525.805 97.6412C525.805 97.6412 521.736 95.5574 519.349 95.5625C516.961 95.5676 509.988 100.029 510.021 100.813C510.054 101.597 513.813 102.636 518.566 102.104C523.318 101.57 526.258 102.089 526.258 102.089L525.805 97.6412Z" fill="white" stroke="#263238" stroke-width="1.2667" stroke-miterlimit="10" stroke-linecap="round" stroke-linejoin="round"/>
<path d="M553.171 92.3527C553.171 92.3527 556.586 91.561 559.24 91.5559C561.892 91.5508 565.033 96.776 565.033 96.776L554.721 97.5816L553.171 92.3527Z" fill="white" stroke="#263238" stroke-width="1.2667" stroke-miterlimit="10" stroke-linecap="round" stroke-linejoin="round"/>
<path d="M510.906 102.903L551.004 91.3119C551.004 91.3119 551.767 90.5253 553.172 92.3531C554.577 94.1809 554.721 97.582 554.721 97.582C554.721 97.582 531.048 108.617 523.754 111.77C516.459 114.924 514.018 119.899 510.104 115.199C506.19 110.499 508.675 106.57 508.675 106.57" fill="#EC8117"/>
<path d="M510.906 102.903L551.004 91.3119C551.004 91.3119 551.767 90.5253 553.172 92.3531C554.577 94.1809 554.721 97.582 554.721 97.582C554.721 97.582 531.048 108.617 523.754 111.77C516.459 114.924 514.018 119.899 510.104 115.199C506.19 110.499 508.675 106.57 508.675 106.57" stroke="#263238" stroke-width="1.2667" stroke-miterlimit="10" stroke-linecap="round" stroke-linejoin="round"/>
</svg>
