<svg width="149" height="24" viewBox="0 0 149 24" fill="none" xmlns="http://www.w3.org/2000/svg">
<g filter="url(#filter0_d_722_1474)">
<path d="M11.1292 1.73783L8.45117 7.16763L2.45952 8.04115C1.38505 8.19699 0.954437 9.52164 1.73364 10.2803L6.06845 14.5044L5.04319 20.4715C4.85864 21.55 5.99463 22.3579 6.94608 21.8535L12.3062 19.0361L17.6662 21.8535C18.6177 22.3538 19.7537 21.55 19.5691 20.4715L18.5439 14.5044L22.8787 10.2803C23.6579 9.52164 23.2273 8.19699 22.1528 8.04115L16.1611 7.16763L13.4832 1.73783C13.0033 0.769983 11.6131 0.75768 11.1292 1.73783Z" fill="#FFED48"/>
<path d="M11.1292 1.73783L8.45117 7.16763L2.45952 8.04115C1.38505 8.19699 0.954437 9.52164 1.73364 10.2803L6.06845 14.5044L5.04319 20.4715C4.85864 21.55 5.99463 22.3579 6.94608 21.8535L12.3062 19.0361L17.6662 21.8535C18.6177 22.3538 19.7537 21.55 19.5691 20.4715L18.5439 14.5044L22.8787 10.2803C23.6579 9.52164 23.2273 8.19699 22.1528 8.04115L16.1611 7.16763L13.4832 1.73783C13.0033 0.769983 11.6131 0.75768 11.1292 1.73783Z" stroke="black" stroke-width="0.7"/>
</g>
<g filter="url(#filter1_d_722_1474)">
<path d="M42.0698 1.73783L39.3918 7.16763L33.4002 8.04115C32.3257 8.19699 31.8951 9.52164 32.6743 10.2803L37.0091 14.5044L35.9839 20.4715C35.7993 21.55 36.9353 22.3579 37.8868 21.8535L43.2468 19.0361L48.6069 21.8535C49.5584 22.3538 50.6943 21.55 50.5098 20.4715L49.4845 14.5044L53.8194 10.2803C54.5986 9.52164 54.1679 8.19699 53.0935 8.04115L47.1018 7.16763L44.4238 1.73783C43.944 0.769983 42.5538 0.75768 42.0698 1.73783Z" fill="#FFED48"/>
<path d="M42.0698 1.73783L39.3918 7.16763L33.4002 8.04115C32.3257 8.19699 31.8951 9.52164 32.6743 10.2803L37.0091 14.5044L35.9839 20.4715C35.7993 21.55 36.9353 22.3579 37.8868 21.8535L43.2468 19.0361L48.6069 21.8535C49.5584 22.3538 50.6943 21.55 50.5098 20.4715L49.4845 14.5044L53.8194 10.2803C54.5986 9.52164 54.1679 8.19699 53.0935 8.04115L47.1018 7.16763L44.4238 1.73783C43.944 0.769983 42.5538 0.75768 42.0698 1.73783Z" stroke="black" stroke-width="0.7"/>
</g>
<g filter="url(#filter2_d_722_1474)">
<path d="M73.0105 1.73783L70.3325 7.16763L64.3409 8.04115C63.2664 8.19699 62.8358 9.52164 63.615 10.2803L67.9498 14.5044L66.9245 20.4715C66.74 21.55 67.876 22.3579 68.8274 21.8535L74.1875 19.0361L79.5476 21.8535C80.499 22.3538 81.635 21.55 81.4505 20.4715L80.4252 14.5044L84.76 10.2803C85.5392 9.52164 85.1086 8.19699 84.0341 8.04115L78.0425 7.16763L75.3645 1.73783C74.8847 0.769983 73.4944 0.75768 73.0105 1.73783Z" fill="#FFED48"/>
<path d="M73.0105 1.73783L70.3325 7.16763L64.3409 8.04115C63.2664 8.19699 62.8358 9.52164 63.615 10.2803L67.9498 14.5044L66.9245 20.4715C66.74 21.55 67.876 22.3579 68.8274 21.8535L74.1875 19.0361L79.5476 21.8535C80.499 22.3538 81.635 21.55 81.4505 20.4715L80.4252 14.5044L84.76 10.2803C85.5392 9.52164 85.1086 8.19699 84.0341 8.04115L78.0425 7.16763L75.3645 1.73783C74.8847 0.769983 73.4944 0.75768 73.0105 1.73783Z" stroke="black" stroke-width="0.7"/>
</g>
<g filter="url(#filter3_d_722_1474)">
<path d="M103.951 1.73783L101.273 7.16763L95.2815 8.04115C94.2071 8.19699 93.7765 9.52164 94.5557 10.2803L98.8905 14.5044L97.8652 20.4715C97.6807 21.55 98.8167 22.3579 99.7681 21.8535L105.128 19.0361L110.488 21.8535C111.44 22.3538 112.576 21.55 112.391 20.4715L111.366 14.5044L115.701 10.2803C116.48 9.52164 116.049 8.19699 114.975 8.04115L108.983 7.16763L106.305 1.73783C105.825 0.769983 104.435 0.75768 103.951 1.73783Z" fill="#FFED48"/>
<path d="M103.951 1.73783L101.273 7.16763L95.2815 8.04115C94.2071 8.19699 93.7765 9.52164 94.5557 10.2803L98.8905 14.5044L97.8652 20.4715C97.6807 21.55 98.8167 22.3579 99.7681 21.8535L105.128 19.0361L110.488 21.8535C111.44 22.3538 112.576 21.55 112.391 20.4715L111.366 14.5044L115.701 10.2803C116.48 9.52164 116.049 8.19699 114.975 8.04115L108.983 7.16763L106.305 1.73783C105.825 0.769983 104.435 0.75768 103.951 1.73783Z" stroke="black" stroke-width="0.7"/>
</g>
<g filter="url(#filter4_d_722_1474)">
<path d="M134.892 1.73783L132.214 7.16763L126.222 8.04115C125.148 8.19699 124.717 9.52164 125.496 10.2803L129.831 14.5044L128.806 20.4715C128.621 21.55 129.757 22.3579 130.709 21.8535L136.069 19.0361L141.429 21.8535C142.38 22.3538 143.516 21.55 143.332 20.4715L142.307 14.5044L146.641 10.2803C147.421 9.52164 146.99 8.19699 145.915 8.04115L139.924 7.16763L137.246 1.73783C136.766 0.769983 135.376 0.75768 134.892 1.73783Z" fill="#FFED48"/>
<path d="M134.892 1.73783L132.214 7.16763L126.222 8.04115C125.148 8.19699 124.717 9.52164 125.496 10.2803L129.831 14.5044L128.806 20.4715C128.621 21.55 129.757 22.3579 130.709 21.8535L136.069 19.0361L141.429 21.8535C142.38 22.3538 143.516 21.55 143.332 20.4715L142.307 14.5044L146.641 10.2803C147.421 9.52164 146.99 8.19699 145.915 8.04115L139.924 7.16763L137.246 1.73783C136.766 0.769983 135.376 0.75768 134.892 1.73783Z" stroke="black" stroke-width="0.7"/>
</g>
<defs>
<filter id="filter0_d_722_1474" x="0.985458" y="0.657227" width="23.6414" height="22.7007" filterUnits="userSpaceOnUse" color-interpolation-filters="sRGB">
<feFlood flood-opacity="0" result="BackgroundImageFix"/>
<feColorMatrix in="SourceAlpha" type="matrix" values="0 0 0 0 0 0 0 0 0 0 0 0 0 0 0 0 0 0 127 0" result="hardAlpha"/>
<feOffset dx="1" dy="1"/>
<feComposite in2="hardAlpha" operator="out"/>
<feColorMatrix type="matrix" values="0 0 0 0 0 0 0 0 0 0 0 0 0 0 0 0 0 0 1 0"/>
<feBlend mode="normal" in2="BackgroundImageFix" result="effect1_dropShadow_722_1474"/>
<feBlend mode="normal" in="SourceGraphic" in2="effect1_dropShadow_722_1474" result="shape"/>
</filter>
<filter id="filter1_d_722_1474" x="31.9261" y="0.657227" width="23.6414" height="22.7007" filterUnits="userSpaceOnUse" color-interpolation-filters="sRGB">
<feFlood flood-opacity="0" result="BackgroundImageFix"/>
<feColorMatrix in="SourceAlpha" type="matrix" values="0 0 0 0 0 0 0 0 0 0 0 0 0 0 0 0 0 0 127 0" result="hardAlpha"/>
<feOffset dx="1" dy="1"/>
<feComposite in2="hardAlpha" operator="out"/>
<feColorMatrix type="matrix" values="0 0 0 0 0 0 0 0 0 0 0 0 0 0 0 0 0 0 1 0"/>
<feBlend mode="normal" in2="BackgroundImageFix" result="effect1_dropShadow_722_1474"/>
<feBlend mode="normal" in="SourceGraphic" in2="effect1_dropShadow_722_1474" result="shape"/>
</filter>
<filter id="filter2_d_722_1474" x="62.8668" y="0.657227" width="23.6414" height="22.7007" filterUnits="userSpaceOnUse" color-interpolation-filters="sRGB">
<feFlood flood-opacity="0" result="BackgroundImageFix"/>
<feColorMatrix in="SourceAlpha" type="matrix" values="0 0 0 0 0 0 0 0 0 0 0 0 0 0 0 0 0 0 127 0" result="hardAlpha"/>
<feOffset dx="1" dy="1"/>
<feComposite in2="hardAlpha" operator="out"/>
<feColorMatrix type="matrix" values="0 0 0 0 0 0 0 0 0 0 0 0 0 0 0 0 0 0 1 0"/>
<feBlend mode="normal" in2="BackgroundImageFix" result="effect1_dropShadow_722_1474"/>
<feBlend mode="normal" in="SourceGraphic" in2="effect1_dropShadow_722_1474" result="shape"/>
</filter>
<filter id="filter3_d_722_1474" x="93.8075" y="0.657227" width="23.6414" height="22.7007" filterUnits="userSpaceOnUse" color-interpolation-filters="sRGB">
<feFlood flood-opacity="0" result="BackgroundImageFix"/>
<feColorMatrix in="SourceAlpha" type="matrix" values="0 0 0 0 0 0 0 0 0 0 0 0 0 0 0 0 0 0 127 0" result="hardAlpha"/>
<feOffset dx="1" dy="1"/>
<feComposite in2="hardAlpha" operator="out"/>
<feColorMatrix type="matrix" values="0 0 0 0 0 0 0 0 0 0 0 0 0 0 0 0 0 0 1 0"/>
<feBlend mode="normal" in2="BackgroundImageFix" result="effect1_dropShadow_722_1474"/>
<feBlend mode="normal" in="SourceGraphic" in2="effect1_dropShadow_722_1474" result="shape"/>
</filter>
<filter id="filter4_d_722_1474" x="124.748" y="0.657227" width="23.6414" height="22.7007" filterUnits="userSpaceOnUse" color-interpolation-filters="sRGB">
<feFlood flood-opacity="0" result="BackgroundImageFix"/>
<feColorMatrix in="SourceAlpha" type="matrix" values="0 0 0 0 0 0 0 0 0 0 0 0 0 0 0 0 0 0 127 0" result="hardAlpha"/>
<feOffset dx="1" dy="1"/>
<feComposite in2="hardAlpha" operator="out"/>
<feColorMatrix type="matrix" values="0 0 0 0 0 0 0 0 0 0 0 0 0 0 0 0 0 0 1 0"/>
<feBlend mode="normal" in2="BackgroundImageFix" result="effect1_dropShadow_722_1474"/>
<feBlend mode="normal" in="SourceGraphic" in2="effect1_dropShadow_722_1474" result="shape"/>
</filter>
</defs>
</svg>
