<svg width="294" height="343" viewBox="0 0 294 343" fill="none" xmlns="http://www.w3.org/2000/svg">
<g filter="url(#filter0_d_722_1745)">
<path d="M110.465 266.125L132.366 293.44L163.182 276.823L168.274 233.368L113.332 256.296L110.465 266.125Z" fill="url(#paint0_angular_722_1745)"/>
<path d="M114.106 253.64L168.562 230.916L168.869 228.295L114.934 250.802L114.106 253.64Z" fill="url(#paint1_angular_722_1745)"/>
<path d="M115.708 248.146L160.087 95.9795L183.81 100.794L169.156 225.843L115.708 248.146Z" fill="url(#paint2_angular_722_1745)"/>
<path d="M110.465 266.125L132.366 293.44L163.182 276.823L168.274 233.368L113.332 256.296L110.465 266.125Z" stroke="white" stroke-width="0.572846"/>
<path d="M114.106 253.64L168.562 230.916L168.869 228.295L114.934 250.802L114.106 253.64Z" stroke="white" stroke-width="0.572846"/>
<path d="M115.708 248.146L160.087 95.9795L183.81 100.794L169.156 225.843L115.708 248.146Z" stroke="white" stroke-width="0.572846"/>
</g>
<g filter="url(#filter1_d_722_1745)">
<path d="M199.485 79.9026L179.355 59.6382L152.918 70.4528L160.05 93.2275L184.745 98.2388L199.485 79.9026Z" fill="url(#paint3_angular_722_1745)"/>
<path d="M199.688 79.7008L199.868 79.8825L199.708 80.0821L184.968 98.4182L184.859 98.5541L184.688 98.5195L159.993 93.5082L159.827 93.4745L159.777 93.3131L152.645 70.5384L152.566 70.2873L152.81 70.1877L179.246 59.3731L179.423 59.3008L179.558 59.4364L199.688 79.7008Z" stroke="white" stroke-width="0.572845"/>
</g>
<path d="M142.287 260.851C142.483 260.583 142.565 260.25 142.508 259.922C144.006 260.349 145.418 260.87 146.662 261.451C148.785 262.44 150.501 263.638 151.261 264.89C151.993 266.097 152.34 267.663 151.216 268.75C150.194 269.738 148.341 269.865 147.147 270.506C146.357 270.931 145.617 271.561 146.339 272.376C147.278 273.191 148.1 273.705 148.775 273.979C150.613 274.727 151.125 273.335 150.495 271.698C150.274 271.124 151.164 270.782 151.385 271.355C151.85 272.563 152.12 274.528 150.56 275.068C149.955 275.278 149.214 275.187 148.416 274.863C147.238 274.384 144.305 272.821 145.23 270.98C146.326 268.8 150.807 269.665 151.003 267.136C151.188 264.74 147.996 263.125 146.259 262.315C145.074 261.762 143.723 261.262 142.287 260.851Z" fill="white"/>
<path d="M136.53 259.793C135.287 259.69 134.087 259.669 132.981 259.727C131.067 259.827 127.503 260.129 126.776 262.421C126.053 264.703 130.485 265.678 130.687 268.151C130.855 270.207 127.555 270.555 126.279 270.558C125.417 270.56 124.695 270.366 124.213 269.945C122.97 268.858 123.957 267.137 124.84 266.192C125.26 265.742 125.957 266.394 125.537 266.843C124.34 268.124 124.291 269.609 126.276 269.604C127.005 269.602 127.96 269.434 129.135 269.03C130.11 268.545 129.661 267.683 129.087 266.992C128.221 265.949 126.551 265.137 125.974 263.837C125.339 262.408 126.248 261.086 127.379 260.241C128.552 259.365 130.593 258.897 132.932 258.774C134.084 258.714 135.332 258.736 136.62 258.844C136.461 259.135 136.434 259.477 136.53 259.793Z" fill="white"/>
<path d="M142.477 273.323C142.36 273.926 143.296 274.109 143.413 273.505C143.708 271.991 143.655 270.754 143.352 269.842C142.729 267.964 140.803 267.59 139.522 269.097C138.899 269.829 138.387 270.957 138.092 272.47C137.975 273.074 138.911 273.256 139.028 272.652C139.302 271.243 139.764 270.284 140.248 269.715C141.059 268.761 142.053 268.954 142.447 270.142C142.682 270.852 142.751 271.913 142.477 273.323Z" fill="white"/>
<path d="M133.428 267.268C133.546 266.665 132.61 266.482 132.492 267.086C132.198 268.6 132.251 269.837 132.553 270.749C132.795 271.479 133.217 272.042 133.777 272.312L133.21 275.228C133.092 275.831 134.029 276.013 134.146 275.41L134.716 272.481C135.318 272.423 135.9 272.064 136.384 271.494C137.006 270.762 137.519 269.634 137.813 268.121C137.931 267.517 136.994 267.335 136.877 267.939C136.603 269.348 136.141 270.307 135.657 270.876C134.846 271.83 133.853 271.637 133.458 270.449C133.223 269.739 133.154 268.678 133.428 267.268Z" fill="white"/>
<path d="M137.516 260.944C137.51 260.939 137.468 260.898 137.463 260.894C137.46 260.89 137.41 260.877 137.404 260.873C137.377 260.857 137.367 260.822 137.345 260.802C137.344 260.791 137.306 260.764 137.303 260.76L137.298 260.753C137.293 260.745 137.257 260.709 137.252 260.701C137.243 260.683 137.203 260.615 137.198 260.604C137.193 260.58 137.173 260.477 137.174 260.458C137.187 260.444 137.177 260.425 137.16 260.425C137.151 260.371 137.148 260.32 137.168 260.265C137.237 260.268 137.271 260.348 137.249 260.41L137.297 260.624C137.302 260.631 137.328 260.669 137.333 260.677C137.332 260.683 137.349 260.713 137.351 260.72C137.359 260.745 137.403 260.76 137.419 260.776L137.556 260.803C137.556 260.803 137.578 260.794 137.585 260.789C137.597 260.778 137.636 260.749 137.637 260.746L138.232 259.794C138.247 259.767 138.273 259.716 138.274 259.677C138.274 259.677 138.268 259.676 138.265 259.675C138.257 259.68 138.229 259.688 138.225 259.69C138.217 259.699 138.145 259.747 138.137 259.753C138.095 259.784 138.044 259.807 137.999 259.835C137.995 259.837 137.986 259.852 137.985 259.855C137.977 259.864 137.947 259.881 137.943 259.883C137.86 259.92 137.703 259.86 137.671 259.771C137.663 259.743 137.629 259.611 137.627 259.587C137.625 259.58 137.625 259.547 137.626 259.544L137.676 259.306C137.682 259.287 137.697 259.264 137.697 259.247L137.835 258.963C137.856 258.938 137.873 258.905 137.888 258.878L138.137 258.582L138.289 258.46C138.296 258.461 138.324 258.454 138.328 258.451C138.331 258.452 138.34 258.44 138.34 258.44C138.357 258.434 138.41 258.421 138.413 258.418C138.434 258.412 138.539 258.403 138.562 258.404C138.568 258.405 138.603 258.412 138.606 258.413C138.609 258.413 138.633 258.408 138.633 258.408C138.637 258.409 138.654 258.419 138.66 258.423C138.678 258.433 138.702 258.445 138.715 258.464C138.718 258.467 138.74 258.508 138.743 258.509C138.748 258.516 138.795 258.565 138.8 258.569C138.804 258.57 138.809 258.578 138.807 258.584C138.811 258.598 138.819 258.646 138.846 258.621C138.889 258.57 138.911 258.525 138.958 258.491C138.983 258.479 138.998 258.489 139.021 258.503C139.048 258.518 139.066 258.548 139.08 258.574C139.087 258.589 139.108 258.669 139.112 258.683C139.119 258.717 139.098 258.809 139.073 258.834L138.972 259.046C138.989 259.059 139.029 259.01 139.03 258.984L139.115 258.802C139.12 258.794 139.144 258.808 139.137 258.827L139.006 259.112C138.991 259.119 138.979 259.13 138.973 259.145C138.929 259.232 138.888 259.29 138.886 259.389L138.703 259.734C138.686 259.734 138.681 259.743 138.676 259.755C138.664 259.782 138.62 259.87 138.611 259.884C138.61 259.888 138.607 259.903 138.606 259.907L138.626 259.91L138.311 260.523C138.306 260.532 138.275 260.573 138.263 260.587C138.259 260.586 138.251 260.594 138.251 260.598C138.246 260.587 138.24 260.582 138.245 260.573L138.566 259.978C138.572 259.966 138.613 259.858 138.624 259.817C138.626 259.808 138.636 259.77 138.638 259.761L138.358 260.298C138.35 260.306 138.31 260.358 138.305 260.367C138.301 260.373 138.278 260.424 138.273 260.43C138.249 260.468 138.138 260.635 138.115 260.667C138.114 260.673 138.101 260.704 138.097 260.707C138.083 260.73 138.002 260.84 137.984 260.866C137.991 260.864 138.021 260.844 138.025 260.841C138.032 260.839 138.047 260.829 138.048 260.826L138.194 260.633L138.204 260.635L138.198 260.667C138.195 260.679 138.13 260.776 138.104 260.807C138.095 260.822 137.993 260.901 137.981 260.912C137.977 260.915 137.95 260.952 137.946 260.958C137.926 260.977 137.881 261.002 137.856 261.01C137.853 261.009 137.815 261.002 137.812 261.001C137.809 261.001 137.787 261.01 137.784 261.009C137.781 261.009 137.753 260.997 137.749 261.002C137.736 261 137.639 261.004 137.629 261.006C137.626 261.005 137.613 261.002 137.61 261.002C137.592 260.992 137.528 260.95 137.516 260.944ZM137.933 260.923L137.878 260.965C137.894 260.984 137.936 260.94 137.933 260.923ZM137.8 259.687C137.8 259.7 137.804 259.717 137.804 259.717L137.845 259.726L138.005 259.667L138.496 259.287L138.761 258.753C138.766 258.748 138.77 258.725 138.769 258.715C138.769 258.712 138.764 258.704 138.764 258.704C138.752 258.699 138.709 258.684 138.696 258.681C138.69 258.68 138.674 258.677 138.671 258.676C138.667 258.676 138.645 258.688 138.641 258.69C138.628 258.691 138.576 258.704 138.566 258.706C138.545 258.708 138.511 258.698 138.492 258.711C138.468 258.73 138.361 258.805 138.342 258.821C138.338 258.823 138.304 258.863 138.303 258.866C138.3 258.865 138.292 258.87 138.292 258.874C138.28 258.885 138.203 258.972 138.191 258.983C138.188 258.982 138.171 258.999 138.171 258.999C138.147 259.024 138.092 259.086 138.086 259.098L137.935 259.346L137.932 259.362C137.915 259.385 137.865 259.485 137.854 259.509C137.849 259.518 137.823 259.619 137.807 259.649C137.806 259.655 137.8 259.684 137.8 259.687ZM138.703 259.615C138.702 259.621 138.697 259.643 138.696 259.65C138.706 259.665 138.73 259.63 138.735 259.621L138.911 259.222L138.905 259.204C138.859 259.255 138.848 259.326 138.82 259.386C138.807 259.42 138.728 259.57 138.711 259.606C138.708 259.606 138.703 259.611 138.703 259.615ZM138.582 259.231C138.576 259.23 138.573 259.246 138.579 259.247C138.589 259.249 138.592 259.233 138.582 259.231ZM138.955 259.085C138.948 259.084 138.945 259.1 138.951 259.101C138.961 259.103 138.964 259.087 138.955 259.085ZM138.969 259.062C138.96 259.06 138.955 259.085 138.964 259.087C138.974 259.089 138.979 259.063 138.969 259.062ZM138.82 258.636C138.814 258.635 138.811 258.651 138.817 258.652C138.827 258.654 138.83 258.638 138.82 258.636ZM139.065 260.214C139.054 260.202 139.006 260.143 138.999 260.128C138.994 260.121 138.958 260.018 138.948 259.983C138.927 259.919 138.931 259.847 138.941 259.78C138.94 259.767 138.953 259.667 138.956 259.654C138.965 259.573 139.005 259.502 139.036 259.425C139.037 259.422 139.041 259.4 139.041 259.4C139.048 259.381 139.07 259.356 139.079 259.341C139.083 259.338 139.093 259.32 139.094 259.317C139.094 259.314 139.097 259.301 139.098 259.298C139.101 259.296 139.119 259.273 139.123 259.267C139.158 259.227 139.187 259.177 139.223 259.131L139.23 259.126C139.273 259.078 139.299 259.043 139.338 258.998C139.341 258.998 139.349 258.993 139.349 258.993C139.352 258.991 139.38 258.966 139.381 258.963C139.385 258.961 139.392 258.955 139.392 258.955C139.4 258.95 139.442 258.906 139.449 258.904C139.487 258.875 139.627 258.786 139.645 258.777C139.656 258.772 139.773 258.732 139.812 258.717C139.815 258.717 139.839 258.715 139.843 258.713C139.846 258.713 139.857 258.709 139.86 258.709C139.89 258.709 140.014 258.716 140.041 258.715C140.044 258.715 140.057 258.718 140.06 258.718C140.078 258.725 140.141 258.744 140.147 258.745C140.165 258.752 140.212 258.784 140.215 258.805L140.242 258.955C140.242 258.955 140.24 258.962 140.24 258.965C140.228 258.992 140.194 259.065 140.194 259.065L140.02 259.243C140.013 259.248 139.975 259.271 139.971 259.276C139.967 259.279 139.958 259.29 139.958 259.294C139.938 259.313 139.826 259.393 139.797 259.408C139.785 259.415 139.668 259.455 139.63 259.468C139.626 259.47 139.579 259.471 139.576 259.474C139.568 259.479 139.51 259.521 139.5 259.525C139.485 259.532 139.418 259.555 139.404 259.559C139.366 259.568 139.322 259.537 139.293 259.567C139.285 259.573 139.268 259.592 139.267 259.599L139.165 259.85C139.16 259.859 139.154 259.894 139.155 259.904C139.152 259.92 139.157 259.997 139.16 260.014C139.159 260.017 139.164 260.025 139.168 260.026C139.168 260.026 139.182 260.035 139.182 260.038C139.189 260.053 139.168 260.056 139.186 260.066L139.2 260.048C139.228 260.087 139.269 260.098 139.315 260.101C139.377 260.106 139.528 260.109 139.535 260.107L139.951 259.94C139.967 259.927 139.992 259.915 140.011 259.905L140.496 259.534L140.547 259.544C140.55 259.544 140.556 259.585 140.556 259.601C140.555 259.641 140.47 259.704 140.447 259.736C140.446 259.739 140.444 259.752 140.444 259.752L140.113 259.991L140.1 260.005L139.65 260.212C139.643 260.214 139.498 260.249 139.439 260.26C139.435 260.263 139.409 260.264 139.402 260.263C139.399 260.262 139.355 260.254 139.351 260.253C139.339 260.251 139.243 260.249 139.234 260.247C139.174 260.245 139.112 260.263 139.065 260.214ZM139.722 260.133C139.719 260.133 139.717 260.139 139.72 260.143L139.797 260.122C139.782 260.112 139.731 260.119 139.722 260.133ZM139.375 259.418C139.374 259.425 139.368 259.453 139.366 259.463L139.397 259.459L139.75 259.326L140.007 259.128C140.028 259.139 140.033 259.11 140.032 259.097C140.093 259.042 140.142 258.976 140.145 258.89C140.145 258.874 140.132 258.822 140.101 258.829C140.091 258.83 140.041 258.847 140.034 258.852C140.001 258.869 139.922 258.916 139.921 258.92C139.833 259.002 139.654 259.155 139.647 259.16L139.401 259.387C139.393 259.392 139.379 259.412 139.375 259.418ZM139.966 259.202C139.956 259.201 139.952 259.22 139.962 259.222C139.971 259.223 139.975 259.204 139.966 259.202ZM139.701 259.068C139.696 259.074 139.679 259.097 139.674 259.103C139.701 259.101 139.796 259.037 139.811 259.011C139.785 258.992 139.713 259.054 139.701 259.068ZM139.837 258.979L139.836 258.986L139.843 258.98L139.837 258.979ZM140.194 260.718C140.143 260.695 140.081 260.653 140.044 260.606C140.02 260.578 140.014 260.541 139.989 260.516C139.97 260.426 139.985 260.35 139.993 260.259C139.993 260.256 139.996 260.243 139.996 260.243L140.123 259.911C140.124 259.904 140.129 259.882 140.13 259.876C140.134 259.873 140.141 259.868 140.141 259.868L140.224 259.682L140.225 259.676L140.324 259.438L140.337 259.423L140.834 258.515C140.775 258.497 140.718 258.519 140.659 258.518C140.649 258.516 140.617 258.51 140.617 258.51L140.529 258.383C140.517 258.361 140.534 258.308 140.564 258.307L140.778 258.293C140.778 258.296 140.79 258.299 140.794 258.296C140.801 258.297 140.861 258.293 140.867 258.294L140.877 258.296C140.91 258.295 140.996 258.292 140.997 258.289L141.008 258.285C141.009 258.282 141.07 258.204 141.093 258.172C141.101 258.164 141.101 258.144 141.115 258.14L141.275 257.897C141.284 257.882 141.309 257.877 141.321 257.88C141.341 257.88 141.392 257.89 141.409 257.907C141.414 257.911 141.43 257.931 141.429 257.937C141.432 257.941 141.423 257.969 141.422 257.972C141.422 257.972 141.431 257.98 141.43 257.983C141.432 257.99 141.442 258.009 141.444 258.013C141.444 258.016 141.438 258.028 141.441 258.029C141.44 258.035 141.449 258.073 141.448 258.076C141.448 258.079 141.444 258.099 141.443 258.105C141.437 258.12 141.394 258.201 141.384 258.219C141.384 258.222 141.362 258.248 141.362 258.251C141.357 258.257 141.346 258.281 141.345 258.284C141.354 258.289 141.364 258.291 141.372 258.283L141.458 258.161L141.47 258.153C141.47 258.203 141.407 258.237 141.407 258.29L141.432 258.295L142.891 258.304L142.965 258.318C142.939 258.316 142.822 258.32 142.799 258.322C142.779 258.322 142.759 258.321 142.741 258.328L142.77 258.333C142.8 258.332 142.946 258.328 142.979 258.328C142.998 258.331 143.046 258.341 143.049 258.341L143.057 258.353L143.127 258.366L143.135 258.378C143.101 258.381 142.955 258.383 142.922 258.383C142.91 258.38 142.843 258.367 142.827 258.364L142.525 258.368L142.551 258.373C142.604 258.374 142.842 258.39 142.894 258.394C142.916 258.398 143.015 258.417 143.034 258.421C143.01 258.426 142.892 258.44 142.864 258.444C142.847 258.447 142.81 258.467 142.789 258.456L142.791 258.446C142.751 258.429 142.747 258.484 142.725 258.463L141.368 258.49C141.368 258.49 141.362 258.489 141.358 258.488C141.345 258.489 141.301 258.494 141.294 258.496C141.294 258.496 141.286 258.501 141.283 258.5L140.943 259.029C140.943 259.029 140.935 259.034 140.934 259.037C140.93 259.043 140.908 259.085 140.903 259.094C140.903 259.097 140.9 259.11 140.9 259.113C140.895 259.122 140.851 259.193 140.846 259.202C140.845 259.205 140.843 259.218 140.842 259.221C140.842 259.224 140.824 259.247 140.82 259.253C140.811 259.245 140.809 259.241 140.814 259.232C140.824 259.214 140.862 259.139 140.871 259.124C140.871 259.124 140.881 259.109 140.884 259.11C140.886 259.097 140.925 259.019 140.93 259.007C140.94 258.992 141.021 258.879 141.031 258.864C141.031 258.861 141.043 258.837 141.047 258.831C141.048 258.828 141.049 258.822 141.049 258.822L141.233 258.52L141.237 258.501L141.23 258.5C141.227 258.502 141.21 258.519 141.206 258.522L140.967 258.905C140.969 258.909 140.968 258.915 140.965 258.914C140.926 258.979 140.88 259.043 140.848 259.11C140.844 259.112 140.841 259.125 140.844 259.129L140.648 259.474C140.612 259.507 140.605 259.558 140.587 259.598C140.582 259.61 140.541 259.698 140.54 259.707C140.539 259.711 140.538 259.714 140.538 259.717C140.544 259.735 140.556 259.691 140.57 259.687C140.57 259.687 140.569 259.693 140.568 259.696C140.563 259.705 140.524 259.787 140.522 259.797C140.5 259.845 140.467 259.892 140.463 259.95L140.443 259.917C140.423 259.952 140.404 259.995 140.399 260.037C140.41 260.052 140.435 259.988 140.449 259.984C140.447 260.013 140.432 260.057 140.402 260.074L140.396 260.056C140.367 260.067 140.364 260.116 140.363 260.139C140.377 260.135 140.386 260.087 140.407 260.101C140.406 260.105 140.405 260.111 140.405 260.111C140.389 260.161 140.336 260.296 140.33 260.308C140.326 260.314 140.309 260.35 140.301 260.355C140.308 260.304 140.337 260.256 140.34 260.207L140.33 260.205C140.33 260.205 140.292 260.301 140.278 260.341C140.277 260.344 140.276 260.35 140.276 260.35C140.274 260.36 140.259 260.403 140.254 260.412C140.29 260.446 140.244 260.496 140.24 260.535C140.242 260.539 140.249 260.54 140.249 260.537C140.249 260.537 140.257 260.532 140.261 260.529C140.271 260.528 140.365 260.503 140.376 260.499C140.383 260.497 140.412 260.482 140.416 260.48L141.235 259.734C141.239 259.731 141.271 259.737 141.268 259.75C141.27 259.757 141.259 259.798 141.258 259.801C141.26 259.811 141.279 259.881 141.278 259.887C141.281 259.891 141.278 259.904 141.274 259.906C141.233 259.948 141.178 260.01 141.145 260.063C141.14 260.069 141.116 260.124 141.112 260.129L141.104 260.138C141.073 260.178 141.021 260.237 141.003 260.283L140.763 260.481C140.755 260.486 140.766 260.498 140.768 260.502L140.464 260.707C140.407 260.68 140.38 260.731 140.34 260.736C140.278 260.747 140.252 260.742 140.194 260.718ZM140.465 260.651C140.461 260.654 140.454 260.659 140.454 260.659C140.46 260.66 140.485 260.652 140.492 260.65C140.492 260.65 140.52 260.639 140.516 260.625C140.493 260.644 140.49 260.64 140.465 260.651ZM140.465 260.599C140.465 260.602 140.475 260.617 140.481 260.618C140.485 260.619 140.506 260.61 140.51 260.607C140.507 260.59 140.472 260.583 140.465 260.599ZM140.606 260.57C140.606 260.57 140.605 260.576 140.605 260.579L140.638 260.56C140.632 260.558 140.613 260.568 140.606 260.57ZM140.66 260.534L140.658 260.544L140.731 260.505L140.712 260.501L140.66 260.534ZM140.725 260.438C140.724 260.441 140.722 260.453 140.721 260.457C140.729 260.452 140.758 260.434 140.763 260.428C140.764 260.425 140.765 260.419 140.765 260.419C140.761 260.421 140.739 260.43 140.736 260.43C140.732 260.432 140.725 260.438 140.725 260.438ZM140.741 260.404L140.73 260.412L140.739 260.414L140.741 260.404ZM140.862 260.345C140.859 260.341 140.848 260.349 140.85 260.353C140.856 260.357 140.864 260.352 140.862 260.345ZM140.347 260.172C140.337 260.17 140.333 260.19 140.343 260.191C140.353 260.193 140.356 260.174 140.347 260.172ZM140.503 259.793C140.494 259.791 140.49 259.807 140.5 259.809C140.51 259.811 140.513 259.795 140.503 259.793ZM140.534 259.736C140.528 259.732 140.526 259.744 140.533 259.742C140.536 259.743 140.537 259.737 140.534 259.736ZM140.64 259.565C140.653 259.531 140.68 259.477 140.709 259.449C140.707 259.456 140.703 259.478 140.702 259.485C140.691 259.509 140.66 259.566 140.656 259.568L140.639 259.571L140.64 259.565ZM140.736 259.392C140.753 259.359 140.794 259.284 140.794 259.284L140.805 259.277C140.805 259.28 140.801 259.299 140.8 259.302C140.789 259.326 140.75 259.388 140.746 259.394L140.735 259.398L140.736 259.392ZM140.877 258.907C140.867 258.905 140.864 258.921 140.874 258.923C140.883 258.925 140.887 258.909 140.877 258.907ZM142.386 258.424C142.376 258.422 142.372 258.441 142.382 258.443C142.391 258.445 142.395 258.426 142.386 258.424ZM142.559 258.431C142.561 258.425 142.548 258.422 142.55 258.429C142.549 258.432 142.556 258.434 142.559 258.431ZM142.714 258.415C142.708 258.414 142.705 258.43 142.711 258.431C142.721 258.433 142.724 258.417 142.714 258.415ZM142.495 258.372C142.499 258.367 142.486 258.364 142.488 258.371C142.487 258.377 142.494 258.379 142.495 258.372ZM142.844 258.414C142.834 258.412 142.831 258.428 142.841 258.43C142.85 258.431 142.853 258.416 142.844 258.414ZM142.724 258.334C142.725 258.328 142.715 258.326 142.714 258.332C142.713 258.339 142.719 258.34 142.724 258.334ZM143.032 258.348L143.03 258.357L143.038 258.349L143.032 258.348Z" fill="#FFDF39"/>
<g filter="url(#filter2_d_722_1745)">
<path d="M265.618 62.3717L159.634 324.056L270.124 223.939L222.744 185.624L286.782 178.369L282.109 70.118L265.618 62.3717Z" fill="#FFED48"/>
<path d="M269.651 223.952L160.424 322.925L265.781 62.7882L281.81 70.3172L286.463 178.095L222.71 185.318L221.979 185.401L222.551 185.863L269.651 223.952Z" stroke="black" stroke-width="0.615149"/>
</g>
<g filter="url(#filter3_d_722_1745)">
<path d="M96.4405 310.426L96.3168 28.1076L78.1245 29.1091L33.2311 127.656L89.876 158.445L31.5229 176.199L96.4405 310.426Z" fill="#FFED48"/>
<path d="M96.0094 28.4326L96.1324 309.083L31.9563 176.388L89.9655 158.739L90.6681 158.525L90.0229 158.175L33.6298 127.523L78.3272 29.406L96.0094 28.4326Z" stroke="black" stroke-width="0.615149"/>
</g>
<path d="M177.949 43.9296L146.378 58.022L122.298 22.313L177.949 43.9296Z" fill="#FFED48" stroke="black" stroke-width="0.572845"/>
<path d="M179.35 40.9623L126.171 20.8329C142.57 20.5289 163.258 21.5671 186.595 26.294L179.35 40.9623ZM179.35 40.9623L186.06 42.267L240.8 43.1302M179.35 40.9623L240.8 43.1302M240.8 43.1302C226.506 37.0507 208.263 30.6961 186.595 26.2941L240.8 43.1302Z" fill="#FFED48" stroke="black" stroke-width="0.572845"/>
<path d="M243.727 46.4563L212.239 72.8512L186.087 46.0562L243.727 46.4563Z" fill="#FFED48" stroke="black" stroke-width="0.572845"/>
<defs>
<filter id="filter0_d_722_1745" x="110.148" y="95.6465" width="73.9765" height="200.152" filterUnits="userSpaceOnUse" color-interpolation-filters="sRGB">
<feFlood flood-opacity="0" result="BackgroundImageFix"/>
<feColorMatrix in="SourceAlpha" type="matrix" values="0 0 0 0 0 0 0 0 0 0 0 0 0 0 0 0 0 0 127 0" result="hardAlpha"/>
<feOffset dy="1.99347"/>
<feComposite in2="hardAlpha" operator="out"/>
<feColorMatrix type="matrix" values="0 0 0 0 1 0 0 0 0 1 0 0 0 0 1 0 0 0 1 0"/>
<feBlend mode="normal" in2="BackgroundImageFix" result="effect1_dropShadow_722_1745"/>
<feBlend mode="normal" in="SourceGraphic" in2="effect1_dropShadow_722_1745" result="shape"/>
</filter>
<filter id="filter1_d_722_1745" x="152.214" y="57.9665" width="48.038" height="40.903" filterUnits="userSpaceOnUse" color-interpolation-filters="sRGB">
<feFlood flood-opacity="0" result="BackgroundImageFix"/>
<feColorMatrix in="SourceAlpha" type="matrix" values="0 0 0 0 0 0 0 0 0 0 0 0 0 0 0 0 0 0 127 0" result="hardAlpha"/>
<feOffset dy="-0.996733"/>
<feComposite in2="hardAlpha" operator="out"/>
<feColorMatrix type="matrix" values="0 0 0 0 1 0 0 0 0 1 0 0 0 0 1 0 0 0 1 0"/>
<feBlend mode="normal" in2="BackgroundImageFix" result="effect1_dropShadow_722_1745"/>
<feBlend mode="normal" in="SourceGraphic" in2="effect1_dropShadow_722_1745" result="shape"/>
</filter>
<filter id="filter2_d_722_1745" x="159.024" y="62.3717" width="127.758" height="263.514" filterUnits="userSpaceOnUse" color-interpolation-filters="sRGB">
<feFlood flood-opacity="0" result="BackgroundImageFix"/>
<feColorMatrix in="SourceAlpha" type="matrix" values="0 0 0 0 0 0 0 0 0 0 0 0 0 0 0 0 0 0 127 0" result="hardAlpha"/>
<feOffset dx="-0.609873" dy="1.82962"/>
<feComposite in2="hardAlpha" operator="out"/>
<feColorMatrix type="matrix" values="0 0 0 0 0 0 0 0 0 0 0 0 0 0 0 0 0 0 1 0"/>
<feBlend mode="normal" in2="BackgroundImageFix" result="effect1_dropShadow_722_1745"/>
<feBlend mode="normal" in="SourceGraphic" in2="effect1_dropShadow_722_1745" result="shape"/>
</filter>
<filter id="filter3_d_722_1745" x="30.9131" y="28.1077" width="65.5275" height="282.987" filterUnits="userSpaceOnUse" color-interpolation-filters="sRGB">
<feFlood flood-opacity="0" result="BackgroundImageFix"/>
<feColorMatrix in="SourceAlpha" type="matrix" values="0 0 0 0 0 0 0 0 0 0 0 0 0 0 0 0 0 0 127 0" result="hardAlpha"/>
<feOffset dx="-0.609873" dy="0.668087"/>
<feComposite in2="hardAlpha" operator="out"/>
<feColorMatrix type="matrix" values="0 0 0 0 0 0 0 0 0 0 0 0 0 0 0 0 0 0 1 0"/>
<feBlend mode="normal" in2="BackgroundImageFix" result="effect1_dropShadow_722_1745"/>
<feBlend mode="normal" in="SourceGraphic" in2="effect1_dropShadow_722_1745" result="shape"/>
</filter>
<radialGradient id="paint0_angular_722_1745" cx="0" cy="0" r="1" gradientUnits="userSpaceOnUse" gradientTransform="translate(149.037 211.289) rotate(-78.5287) scale(75.3082 20.3536)">
<stop stop-color="#290037"/>
<stop offset="1" stop-color="#9C4FB8"/>
</radialGradient>
<radialGradient id="paint1_angular_722_1745" cx="0" cy="0" r="1" gradientUnits="userSpaceOnUse" gradientTransform="translate(149.037 211.289) rotate(-78.5287) scale(75.3082 20.3536)">
<stop stop-color="#290037"/>
<stop offset="1" stop-color="#9C4FB8"/>
</radialGradient>
<radialGradient id="paint2_angular_722_1745" cx="0" cy="0" r="1" gradientUnits="userSpaceOnUse" gradientTransform="translate(149.037 211.289) rotate(-78.5287) scale(75.3082 20.3536)">
<stop stop-color="#290037"/>
<stop offset="1" stop-color="#9C4FB8"/>
</radialGradient>
<radialGradient id="paint3_angular_722_1745" cx="0" cy="0" r="1" gradientUnits="userSpaceOnUse" gradientTransform="translate(171.82 96.8275) rotate(-78.5287) scale(33.5834 43.4126)">
<stop offset="0.105852" stop-color="#9A4EB6"/>
<stop offset="0.887922" stop-color="#2E043D"/>
</radialGradient>
</defs>
</svg>
