<svg width="50" height="51" viewBox="0 0 50 51" fill="none" xmlns="http://www.w3.org/2000/svg">
<path d="M34.5 18.9972C33.8452 19.4446 33.0764 19.6821 32.2907 19.6799C33.1308 19.1701 33.7597 18.3603 34.0581 17.4042C33.3618 18.0105 32.4843 18.352 31.5727 18.3713C30.9716 17.7372 30.1871 17.321 29.3369 17.1851C28.4867 17.0493 27.6167 17.2011 26.8574 17.6178C26.098 18.0345 25.4904 18.6937 25.1256 19.4963C24.7609 20.299 24.6586 21.2018 24.8343 22.0694C23.2874 21.9853 21.775 21.567 20.3953 20.8416C19.0155 20.1163 17.7993 19.1002 16.8256 17.8593C16.3491 18.7474 16.2096 19.7861 16.4341 20.7741C16.6586 21.7621 17.2311 22.6292 18.0407 23.2072C17.4297 23.2161 16.8249 23.0798 16.2733 22.809C16.2881 23.7254 16.6009 24.6103 17.1617 25.3219C17.7224 26.0336 18.4987 26.531 19.3663 26.7346C18.7887 26.8899 18.1847 26.9094 17.5988 26.7915C17.8516 27.6034 18.3439 28.3138 19.0073 28.8237C19.6706 29.3336 20.4719 29.6176 21.2994 29.6361C19.5517 30.7282 17.5441 31.2994 15.5 31.286C17.212 32.4373 19.2005 33.0765 21.2442 33.1327C23.288 33.1888 25.3068 32.6596 27.0759 31.604C28.8449 30.5484 30.2949 29.0078 31.2644 27.1536C32.2338 25.2995 32.6847 23.2046 32.5669 21.1022C33.2957 20.4882 33.9453 19.7808 34.5 18.9972Z" fill="white"/>
<rect x="0.5" y="0.636719" width="49" height="49" rx="24.5" stroke="white" stroke-opacity="0.125"/>
</svg>
