<svg width="50" height="51" viewBox="0 0 50 51" fill="none" xmlns="http://www.w3.org/2000/svg">
<path d="M35.45 19.5653C35.175 18.5653 34.4875 17.851 33.525 17.5653C31.875 17.1367 24.8625 17.1367 24.8625 17.1367C24.8625 17.1367 17.9875 17.1367 16.2 17.5653C15.2375 17.851 14.55 18.5653 14.275 19.5653C14 21.4224 14 25.1367 14 25.1367C14 25.1367 14 28.851 14.4125 30.7081C14.6875 31.7081 15.375 32.4224 16.3375 32.7081C17.9875 33.1367 25 33.1367 25 33.1367C25 33.1367 31.875 33.1367 33.6625 32.7081C34.625 32.4224 35.3125 31.7081 35.5875 30.7081C36 28.851 36 25.1367 36 25.1367C36 25.1367 36 21.4224 35.45 19.5653ZM22.8 28.5653V21.7081L28.575 25.1367L22.8 28.5653Z" fill="white"/>
<rect x="0.5" y="0.636719" width="49" height="49" rx="24.5" stroke="white" stroke-opacity="0.125"/>
</svg>
